<?xml version="1.0" encoding="utf-8"?>
<!-- Generator: Adobe Illustrator 20.1.0, SVG Export Plug-In . SVG Version: 6.00 Build 0)  -->
<svg version="1.1" id="Layer_1" xmlns="http://www.w3.org/2000/svg" xmlns:xlink="http://www.w3.org/1999/xlink" x="0px" y="0px"
	 viewBox="0 0 376 108.2" style="enable-background:new 0 0 376 108.2;" xml:space="preserve">
<style type="text/css">
	.st0{fill:#19B24B;stroke:#FFFFFF;stroke-miterlimit:10;}
	.st1{fill:#7A1705;}
</style>
<title>RenovationLogoBlack</title>
<path class="st0" d="M84.9,100"/>
<path class="st1" d="M54.9,107.2c-29.5,0-53.4-23.8-53.4-53.1S25.4,1,54.9,1s53.4,23.8,53.4,53.1l0,0
	C108.3,83.4,84.4,107.2,54.9,107.2z M54.9,7.4c-26,0-47,20.9-47,46.7s21,46.7,47,46.7s47-20.9,47-46.7l0,0
	C101.8,28.3,80.8,7.4,54.9,7.4z"/>
<g>
	<g>
		<path class="st1" d="M122.3,64.3l-7.1-43.9h3.8l3.3,22.2c0.8,5.5,1.6,10.9,2.1,15.2h0.1c0.5-4.4,1.3-9.6,2.3-15.2l3.7-22.1h3.8
			l3.4,22.3c0.8,5.2,1.5,10.4,2,15h0.1c0.6-4.8,1.4-9.7,2.2-15.2l3.7-22.1h3.7l-7.9,43.9h-3.8l-3.5-22.8c-0.9-5.6-1.5-9.9-1.8-14.3
			h-0.1c-0.5,4.4-1.1,8.7-2.2,14.3l-4,22.8H122.3z"/>
		<path class="st1" d="M167.4,43.7h-10.9v15.8h12.1v4.7h-15.8V20.4H168v4.8h-11.5V39h10.9V43.7z"/>
		<path class="st1" d="M173.4,21c1.6-0.5,4.1-0.9,6.6-0.9c3.6,0,5.9,1,7.7,3.2c1.5,1.7,2.3,4.3,2.3,7.7c0,4.2-1.8,7.9-4.7,9.6v0.1
			c2.7,1,5.8,4.5,5.8,11c0,3.8-1,6.6-2.4,8.8c-2,2.8-5.1,4.1-9.7,4.1c-2.5,0-4.4-0.3-5.6-0.5V21z M177,38.9h3.3
			c3.8,0,6.1-3.1,6.1-7.4c0-5.1-2.5-7.2-6.2-7.2c-1.7,0-2.6,0.2-3.2,0.4V38.9z M177,60c0.7,0.2,1.7,0.3,3,0.3c3.7,0,7.2-2.1,7.2-8.5
			c0-6-3.3-8.5-7.2-8.5h-3V60z"/>
		<path class="st1" d="M195.4,57.4c1.6,1.6,4,2.9,6.5,2.9c3.7,0,5.9-3.1,5.9-7.5c0-4.1-1.5-6.4-5.3-8.7c-4.6-2.5-7.4-6.2-7.4-12.4
			c0-6.8,3.6-11.9,9.1-11.9c2.9,0,4.9,1,6.2,2.1l-1,4.6c-0.9-0.8-2.8-2.1-5.3-2.1c-3.8,0-5.3,3.6-5.3,6.6c0,4.1,1.7,6.1,5.6,8.5
			c4.7,2.9,7.1,6.4,7.1,12.9c0,6.8-3.2,12.6-9.8,12.6c-2.7,0-5.7-1.2-7.2-2.8L195.4,57.4z"/>
		<path class="st1" d="M225.2,21c1.6-0.5,4.1-0.9,6.6-0.9c3.6,0,5.9,1,7.7,3.2c1.5,1.7,2.3,4.3,2.3,7.7c0,4.2-1.8,7.9-4.7,9.6v0.1
			c2.7,1,5.8,4.5,5.8,11c0,3.8-1,6.6-2.4,8.8c-2,2.8-5.1,4.1-9.7,4.1c-2.5,0-4.4-0.3-5.6-0.5V21z M228.8,38.9h3.3
			c3.8,0,6.1-3.1,6.1-7.4c0-5.1-2.5-7.2-6.2-7.2c-1.7,0-2.6,0.2-3.2,0.4V38.9z M228.8,60c0.7,0.2,1.7,0.3,3,0.3
			c3.7,0,7.2-2.1,7.2-8.5c0-6-3.3-8.5-7.2-8.5h-3V60z"/>
		<path class="st1" d="M253.4,64.3V45.6l-8.9-25.2h4.1l3.9,12.1c1.1,3.3,1.9,6,2.8,9h0.1c0.8-2.9,1.7-5.7,2.8-9l4-12.1h4.1L257,45.6
			v18.7H253.4z"/>
		<path class="st1" d="M284.2,20.4h3.6v29.3c0,11.6-3.7,15.2-8.5,15.2c-1.3,0-3-0.5-3.9-1l0.5-4.6c0.7,0.5,1.8,0.8,3,0.8
			c3.2,0,5.2-2.3,5.2-10.9V20.4z"/>
		<path class="st1" d="M298.3,50.5l-2.9,13.8h-3.7l9.5-43.9h4.4l9.6,43.9h-3.9l-3-13.8H298.3z M307.5,46l-2.7-12.6
			c-0.6-2.9-1-5.5-1.5-8h-0.1c-0.4,2.6-0.9,5.3-1.4,7.9L299.1,46H307.5z"/>
		<path class="st1" d="M322.2,64.3V45.6l-8.9-25.2h4.1l3.9,12.1c1.1,3.3,1.9,6,2.8,9h0.1c0.8-2.9,1.7-5.7,2.8-9l4-12.1h4.1
			l-9.4,25.2v18.7H322.2z"/>
	</g>
</g>
<g>
	<path class="st1" d="M112.4,69.1c0.7-0.2,1.6-0.4,2.8-0.4c1.4,0,2.5,0.6,3.2,1.8c0.6,1,1,2.6,1,4.6c0,2-0.3,3.5-0.9,4.7
		c-0.8,1.6-2,2.4-3.5,2.4c-0.4,0-0.8,0-1.2-0.2v8.8h-1.5V69.1z M113.8,79.6c0.3,0.2,0.7,0.2,1.2,0.2c1.8,0,2.8-1.7,2.8-4.7
		c0-2.9-1.1-4.3-2.7-4.3c-0.6,0-1.1,0.1-1.4,0.2V79.6z"/>
	<path class="st1" d="M121,79.9c0-1.9,0-3.4-0.1-4.9h1.3l0.1,3.1h0.1c0.4-2.1,1.3-3.4,2.3-3.4c0.2,0,0.3,0,0.4,0.1v2.7
		c-0.2-0.1-0.3-0.1-0.5-0.1c-1,0-1.8,1.5-2,3.7c0,0.4-0.1,0.8-0.1,1.3v8.4H121V79.9z"/>
	<path class="st1" d="M133.7,82.7c0,5.8-2.1,8.3-4.1,8.3c-2.2,0-3.9-3.1-3.9-8.1c0-5.3,1.8-8.3,4-8.3
		C132.1,74.6,133.7,77.9,133.7,82.7z M127.2,82.9c0,3.4,1,6,2.5,6c1.4,0,2.5-2.6,2.5-6.1c0-2.7-0.7-6-2.4-6
		C128,76.8,127.2,79.9,127.2,82.9z"/>
	<path class="st1" d="M135.7,90.7V77.2h-1.1V75h1.1v-0.7c0-2.2,0.3-4.2,0.9-5.5c0.6-1,1.3-1.5,2-1.5c0.5,0,1,0.2,1.3,0.5l-0.2,2.2
		c-0.2-0.2-0.5-0.4-0.9-0.4c-1.3,0-1.6,2.1-1.6,4.5V75h2v2.2h-2v13.5H135.7z"/>
	<path class="st1" d="M141.1,83.4c0,3.9,1.3,5.5,2.8,5.5c1.1,0,1.7-0.4,2.3-0.8l0.3,2c-0.5,0.5-1.4,1-2.7,1c-2.5,0-4-3.2-4-7.9
		c0-4.7,1.4-8.5,3.8-8.5c2.7,0,3.4,4.5,3.4,7.4c0,0.6,0,1-0.1,1.3H141.1z M145.4,81.3c0-1.8-0.4-4.6-2.1-4.6c-1.5,0-2.2,2.7-2.3,4.6
		H145.4z"/>
	<path class="st1" d="M148.5,87.8c0.4,0.6,1.2,1.1,2,1.1c1.1,0,1.6-1,1.6-2.3c0-1.4-0.4-2.1-1.5-2.9c-1.5-1-2.2-2.6-2.2-4.4
		c0-2.5,1.1-4.6,2.8-4.6c0.8,0,1.5,0.5,2,1l-0.4,2.1c-0.3-0.4-0.9-0.9-1.7-0.9c-0.9,0-1.4,1-1.4,2.1c0,1.3,0.5,1.9,1.5,2.7
		c1.4,1,2.1,2.4,2.1,4.7c0,2.8-1.1,4.7-3,4.7c-0.9,0-1.7-0.4-2.3-1.1L148.5,87.8z"/>
	<path class="st1" d="M155.1,87.8c0.4,0.6,1.2,1.1,2,1.1c1.1,0,1.6-1,1.6-2.3c0-1.4-0.4-2.1-1.5-2.9c-1.5-1-2.2-2.6-2.2-4.4
		c0-2.5,1.1-4.6,2.8-4.6c0.8,0,1.5,0.5,2,1l-0.4,2.1c-0.3-0.4-0.9-0.9-1.7-0.9c-0.9,0-1.4,1-1.4,2.1c0,1.3,0.5,1.9,1.5,2.7
		c1.4,1,2.1,2.4,2.1,4.7c0,2.8-1.1,4.7-3,4.7c-0.9,0-1.7-0.4-2.3-1.1L155.1,87.8z"/>
	<path class="st1" d="M163.7,70.6c0,1-0.4,1.8-0.9,1.8c-0.5,0-0.9-0.8-0.9-1.8c0-1,0.4-1.8,0.9-1.8
		C163.3,68.8,163.7,69.6,163.7,70.6z M162,90.7V75h1.5v15.7H162z"/>
	<path class="st1" d="M173.3,82.7c0,5.8-2.1,8.3-4.1,8.3c-2.2,0-3.9-3.1-3.9-8.1c0-5.3,1.8-8.3,4-8.3
		C171.7,74.6,173.3,77.9,173.3,82.7z M166.9,82.9c0,3.4,1,6,2.5,6c1.4,0,2.5-2.6,2.5-6.1c0-2.7-0.7-6-2.4-6
		C167.6,76.8,166.9,79.9,166.9,82.9z"/>
	<path class="st1" d="M175.2,79.3c0-1.6,0-3-0.1-4.3h1.3l0.1,2.6h0c0.4-1.5,1.3-3,2.7-3c1.1,0,2.9,1.3,2.9,6.7v9.4h-1.5v-9.1
		c0-2.5-0.5-4.6-1.9-4.6c-1,0-1.7,1.3-2,2.9c-0.1,0.4-0.1,0.8-0.1,1.3v9.4h-1.5V79.3z"/>
	<path class="st1" d="M189,90.7l-0.1-2h-0.1c-0.5,1.2-1.3,2.3-2.5,2.3c-1.6,0-2.5-2.2-2.5-4.5c0-3.8,1.8-5.9,4.9-5.8v-0.3
		c0-1.3-0.2-3.6-1.9-3.6c-0.8,0-1.5,0.5-2.1,1.2l-0.3-1.9c0.7-0.8,1.6-1.4,2.7-1.4c2.5,0,3.1,3.3,3.1,6.4v5.9c0,1.4,0,2.7,0.1,3.8
		H189z M188.8,82.7c-1.6-0.1-3.4,0.5-3.4,3.5c0,1.9,0.6,2.7,1.4,2.7c1.1,0,1.7-1.3,2-2.6c0.1-0.3,0.1-0.6,0.1-0.9V82.7z"/>
	<path class="st1" d="M192.6,67.7h1.5v23.1h-1.5V67.7z"/>
	<path class="st1" d="M201.7,68.8V78h5.5v-9.2h1.5v21.9h-1.5V80.5h-5.5v10.3h-1.5V68.8H201.7z"/>
	<path class="st1" d="M218.5,82.7c0,5.8-2.1,8.3-4.1,8.3c-2.2,0-3.9-3.1-3.9-8.1c0-5.3,1.8-8.3,4-8.3
		C216.9,74.6,218.5,77.9,218.5,82.7z M212,82.9c0,3.4,1,6,2.5,6c1.4,0,2.5-2.6,2.5-6.1c0-2.7-0.7-6-2.4-6
		C212.8,76.8,212,79.9,212,82.9z"/>
	<path class="st1" d="M220.2,87.8c0.4,0.6,1.2,1.1,2,1.1c1.1,0,1.6-1,1.6-2.3c0-1.4-0.4-2.1-1.5-2.9c-1.5-1-2.2-2.6-2.2-4.4
		c0-2.5,1.1-4.6,2.8-4.6c0.8,0,1.5,0.5,2,1l-0.4,2.1c-0.3-0.4-0.9-0.9-1.7-0.9c-0.9,0-1.4,1-1.4,2.1c0,1.3,0.5,1.9,1.5,2.7
		c1.4,1,2.1,2.4,2.1,4.7c0,2.8-1.1,4.7-3,4.7c-0.9,0-1.7-0.4-2.3-1.1L220.2,87.8z"/>
	<path class="st1" d="M228.8,70.5V75h2.1v2.2h-2.1v8.5c0,1.9,0.3,3.1,1.1,3.1c0.4,0,0.7-0.1,0.9-0.2l0.1,2.1
		c-0.3,0.2-0.7,0.4-1.3,0.4c-0.7,0-1.2-0.4-1.6-1.2c-0.4-0.8-0.6-2.2-0.6-4.1v-8.6h-1.3V75h1.3v-3.8L228.8,70.5z"/>
	<path class="st1" d="M234.2,70.6c0,1-0.4,1.8-0.9,1.8c-0.5,0-0.9-0.8-0.9-1.8c0-1,0.4-1.8,0.9-1.8
		C233.9,68.8,234.2,69.6,234.2,70.6z M232.6,90.7V75h1.5v15.7H232.6z"/>
	<path class="st1" d="M236.5,79.3c0-1.6,0-3-0.1-4.3h1.3l0.1,2.6h0c0.4-1.5,1.3-3,2.7-3c1.1,0,2.9,1.3,2.9,6.7v9.4H242v-9.1
		c0-2.5-0.5-4.6-1.9-4.6c-1,0-1.7,1.3-2,2.9c-0.1,0.4-0.1,0.8-0.1,1.3v9.4h-1.5V79.3z"/>
	<path class="st1" d="M252.9,75c0,1.1-0.1,2.4-0.1,4.3v9.1c0,3.6-0.4,5.8-1.2,7.2c-0.8,1.4-1.9,1.9-3,1.9c-1,0-2.1-0.5-2.7-1.3
		l0.4-2.2c0.5,0.6,1.4,1.2,2.4,1.2c1.5,0,2.6-1.5,2.6-5.5V88h0c-0.5,1.5-1.3,2.6-2.6,2.6c-2,0-3.5-3.3-3.5-7.7
		c0-5.3,1.8-8.3,3.7-8.3c1.4,0,2.2,1.4,2.5,2.7h0l0.1-2.4H252.9z M251.3,81.2c0-0.5,0-0.9-0.1-1.3c-0.3-1.7-1-3-2.1-3
		c-1.4,0-2.4,2.3-2.4,5.9c0,3.1,0.8,5.7,2.4,5.7c0.9,0,1.7-1.1,2.1-2.9c0.1-0.5,0.1-1,0.1-1.5V81.2z"/>
	<path class="st1" d="M266,90.7c-0.3-0.6-0.6-1.2-1.1-2.1c-1,1.8-2.1,2.5-3.3,2.5c-2.2,0-3.5-2.9-3.5-6.1c0-3,0.9-5,2.2-6.4v-0.1
		c-0.6-1.4-0.9-3-0.9-4.6c0-2.7,1-5.4,2.9-5.4c1.4,0,2.5,1.8,2.5,4.6c0,2.3-0.7,4.1-2.5,5.8v0.1c1,2.1,2,4.5,2.8,6.1
		c0.5-1.5,0.9-3.6,1.1-6.4h1.3c-0.3,3.4-0.8,6.2-1.6,8.1c0.6,1.2,1.2,2.5,1.9,3.9H266z M264.2,86.9c-0.7-1.4-1.9-4.1-3.2-6.9
		c-0.6,0.7-1.5,2.1-1.5,4.4c0,2.5,1,4.4,2.3,4.4C262.8,88.9,263.7,88.1,264.2,86.9z M260.8,73.6c0,1.6,0.4,2.8,0.9,3.9
		c1.1-1.3,1.9-2.4,1.9-4.3c0-1.3-0.4-2.8-1.3-2.8C261.2,70.4,260.8,71.9,260.8,73.6z"/>
	<path class="st1" d="M272.6,69.1c0.9-0.3,2-0.5,3.1-0.5c2.1,0,3.6,0.9,4.6,2.7c1,1.8,1.6,4.3,1.6,7.9c0,3.6-0.6,6.5-1.6,8.5
		c-1.1,2-2.8,3.2-5,3.2c-1,0-1.9-0.1-2.7-0.3V69.1z M274.1,88.5c0.4,0.1,0.9,0.2,1.5,0.2c3.1,0,4.8-3.4,4.8-9.3
		c0-5.2-1.5-8.4-4.6-8.4c-0.8,0-1.3,0.1-1.7,0.3V88.5z"/>
	<path class="st1" d="M291.2,82.7c0,5.8-2.1,8.3-4.1,8.3c-2.2,0-3.9-3.1-3.9-8.1c0-5.3,1.8-8.3,4-8.3
		C289.6,74.6,291.2,77.9,291.2,82.7z M284.8,82.9c0,3.4,1,6,2.5,6c1.4,0,2.5-2.6,2.5-6.1c0-2.7-0.7-6-2.4-6
		C285.5,76.8,284.8,79.9,284.8,82.9z"/>
	<path class="st1" d="M293.1,79.3c0-1.6,0-3-0.1-4.3h1.3l0.1,2.5h0.1c0.5-1.5,1.2-2.9,2.6-2.9c1.1,0,2,1.3,2.3,3.2h0
		c0.3-0.9,0.6-1.6,0.9-2c0.5-0.7,1-1.1,1.8-1.1c1.1,0,2.7,1.4,2.7,6.8v9.3h-1.4v-8.9c0-3-0.6-4.8-1.8-4.8c-0.8,0-1.5,1.2-1.8,2.6
		c-0.1,0.4-0.1,0.9-0.1,1.4v9.7h-1.4v-9.4c0-2.5-0.6-4.3-1.7-4.3c-0.9,0-1.6,1.4-1.8,2.9c-0.1,0.4-0.1,0.9-0.1,1.4v9.5h-1.4V79.3z"
		/>
	<path class="st1" d="M311.6,90.7l-0.1-2h-0.1c-0.5,1.2-1.3,2.3-2.5,2.3c-1.6,0-2.5-2.2-2.5-4.5c0-3.8,1.8-5.9,4.9-5.8v-0.3
		c0-1.3-0.2-3.6-1.9-3.6c-0.8,0-1.5,0.5-2.1,1.2l-0.3-1.9c0.7-0.8,1.6-1.4,2.7-1.4c2.5,0,3.1,3.3,3.1,6.4v5.9c0,1.4,0,2.7,0.1,3.8
		H311.6z M311.4,82.7c-1.6-0.1-3.4,0.5-3.4,3.5c0,1.9,0.6,2.7,1.4,2.7c1.1,0,1.7-1.3,2-2.6c0.1-0.3,0.1-0.6,0.1-0.9V82.7z"/>
	<path class="st1" d="M316.9,70.6c0,1-0.4,1.8-0.9,1.8c-0.5,0-0.9-0.8-0.9-1.8c0-1,0.4-1.8,0.9-1.8
		C316.5,68.8,316.9,69.6,316.9,70.6z M315.2,90.7V75h1.5v15.7H315.2z"/>
	<path class="st1" d="M319.2,79.3c0-1.6,0-3-0.1-4.3h1.3l0.1,2.6h0c0.4-1.5,1.3-3,2.7-3c1.1,0,2.9,1.3,2.9,6.7v9.4h-1.5v-9.1
		c0-2.5-0.5-4.6-1.9-4.6c-1,0-1.7,1.3-2,2.9c-0.1,0.4-0.1,0.8-0.1,1.3v9.4h-1.5V79.3z"/>
	<path class="st1" d="M328.3,87.8c0.4,0.6,1.2,1.1,2,1.1c1.1,0,1.6-1,1.6-2.3c0-1.4-0.4-2.1-1.5-2.9c-1.5-1-2.2-2.6-2.2-4.4
		c0-2.5,1.1-4.6,2.8-4.6c0.8,0,1.5,0.5,2,1l-0.4,2.1c-0.3-0.4-0.9-0.9-1.7-0.9c-0.9,0-1.4,1-1.4,2.1c0,1.3,0.5,1.9,1.5,2.7
		c1.4,1,2.1,2.4,2.1,4.7c0,2.8-1.1,4.7-3,4.7c-0.9,0-1.7-0.4-2.3-1.1L328.3,87.8z"/>
</g>
<g>
	<path class="st1" d="M29.7,100.1L12.8,30.3h9.1l7.9,35.3c2,8.7,3.8,17.4,4.9,24.1h0.2c1.1-6.9,3.2-15.2,5.4-24.2l8.9-35.2h9
		l8.1,35.4C68.2,74,70,82.3,71,89.6h0.2c1.4-7.7,3.3-15.4,5.3-24.1l8.8-35.2h8.8l-18.9,69.7h-9l-8.4-36.3C55.8,54.9,54.4,48,53.5,41
		h-0.2c-1.2,6.9-2.7,13.8-5.1,22.8l-9.5,36.3H29.7z"/>
</g>
<g>
	<path class="st1" d="M35.1,100.1L18.2,30.3h9.1l7.9,35.3c2,8.7,3.8,17.4,4.9,24.1h0.2c1.1-6.9,3.2-15.2,5.4-24.2l8.9-35.2h9
		l8.1,35.4c1.9,8.3,3.7,16.6,4.6,23.9h0.2c1.4-7.7,3.3-15.4,5.3-24.1l8.8-35.2h8.8l-18.9,69.7h-9l-8.4-36.3
		C61.2,54.9,59.8,48,58.9,41h-0.2c-1.2,6.9-2.7,13.8-5.1,22.8l-9.5,36.3H35.1z"/>
</g>
</svg>
