<?xml version="1.0" encoding="UTF-8" standalone="no"?>
<svg width="37px" height="43px" viewBox="0 0 37 43" version="1.1" xmlns="http://www.w3.org/2000/svg" xmlns:xlink="http://www.w3.org/1999/xlink" xmlns:sketch="http://www.bohemiancoding.com/sketch/ns">
    <!-- Generator: Sketch 3.2.1 (9971) - http://www.bohemiancoding.com/sketch -->
    <title>campus-qc</title>
    <desc>Created with Sketch.</desc>
    <defs>
        <path id="path-1" d="M0,0.417 L232.689,0.417 L232.689,42.939 L0,42.939 L0,0.417 Z"></path>
        <path id="path-3" d="M0,0.417 L232.689,0.417 L232.689,42.939 L0,42.939"></path>
        <path id="path-5" d="M0,0.417 L232.689,0.417 L232.689,42.939 L0,42.939 L0,0.417 Z"></path>
        <path id="path-7" d="M0,0.417 L232.689,0.417 L232.689,42.939 L0,42.939 L0,0.417 Z"></path>
        <path id="path-9" d="M0,0.417 L232.689,0.417 L232.689,42.939 L0,42.939"></path>
    </defs>
    <g id="Page-1" stroke="none" stroke-width="1" fill="none" fill-rule="evenodd" sketch:type="MSPage">
        <g id="Campus_Icons_Outline" sketch:type="MSLayerGroup" transform="translate(-98.000000, 0.000000)">
            <g id="Group-3">
                <mask id="mask-2" sketch:name="Clip 2" fill="white">
                    <use xlink:href="#path-1"></use>
                </mask>
                <g id="Clip-2"></g>
            </g>
            <g id="Group-8">
                <mask id="mask-4" sketch:name="Clip 6" fill="white">
                    <use xlink:href="#path-3"></use>
                </mask>
                <g id="Clip-6"></g>
            </g>
            <g id="Group-13">
                <mask id="mask-6" sketch:name="Clip 11" fill="white">
                    <use xlink:href="#path-5"></use>
                </mask>
                <g id="Clip-11"></g>
            </g>
            <g id="Group-18">
                <mask id="mask-8" sketch:name="Clip 16" fill="white">
                    <use xlink:href="#path-7"></use>
                </mask>
                <g id="Clip-16"></g>
                <path d="M116.348,0.417 L97.908,11.058 L97.908,32.354 L116.348,43 L134.782,32.354 L134.782,11.058 L116.348,0.417 L116.348,0.417 Z M116.348,2.727 L132.782,12.213 L132.782,31.2 L116.348,40.69 L99.909,31.199 L99.909,12.213 L116.348,2.727 L116.348,2.727 Z" id="Fill-17" fill="#FFFFFF" sketch:type="MSShapeGroup" mask="url(#mask-8)"></path>
            </g>
            <path d="M110.154,24.126 C110.199,24.766 110.288,25.285 110.421,25.685 C110.554,26.083 110.744,26.375 110.991,26.558 C111.238,26.743 111.564,26.835 111.97,26.835 C112.375,26.835 112.702,26.743 112.949,26.558 C113.196,26.375 113.386,26.083 113.519,25.685 C113.652,25.285 113.741,24.766 113.785,24.126 C113.83,23.486 113.852,22.71 113.852,21.797 C113.852,20.884 113.83,20.112 113.785,19.478 C113.741,18.844 113.652,18.325 113.519,17.919 C113.386,17.514 113.196,17.22 112.949,17.035 C112.702,16.852 112.375,16.76 111.97,16.76 C111.564,16.76 111.238,16.852 110.991,17.035 C110.744,17.22 110.554,17.514 110.421,17.919 C110.288,18.325 110.199,18.844 110.154,19.478 C110.11,20.112 110.088,20.884 110.088,21.797 C110.088,22.71 110.11,23.486 110.154,24.126 L110.154,24.126 Z M113.775,28.583 C113.269,28.723 112.667,28.792 111.97,28.792 C110.944,28.792 110.126,28.627 109.518,28.299 C108.91,27.969 108.444,27.494 108.121,26.873 C107.797,26.251 107.588,25.511 107.494,24.648 C107.398,23.787 107.351,22.837 107.351,21.797 C107.351,20.771 107.398,19.823 107.494,18.956 C107.588,18.087 107.797,17.343 108.121,16.722 C108.444,16.102 108.91,15.616 109.518,15.268 C110.126,14.92 110.944,14.746 111.97,14.746 C112.997,14.746 113.814,14.92 114.422,15.268 C115.03,15.616 115.496,16.102 115.819,16.722 C116.143,17.343 116.351,18.087 116.447,18.956 C116.541,19.823 116.589,20.771 116.589,21.797 C116.589,22.95 116.525,23.996 116.399,24.934 C116.272,25.871 115.987,26.663 115.544,27.31 L117.008,28.735 L115.392,30.2 L113.775,28.583 L113.775,28.583 Z" id="Fill-19" fill="#FFFFFF" sketch:type="MSShapeGroup"></path>
            <g id="Group-23">
                <mask id="mask-10" sketch:name="Clip 21" fill="white">
                    <use xlink:href="#path-9"></use>
                </mask>
                <g id="Clip-21"></g>
                <path d="M123.005,21.303 C122.973,21.063 122.915,20.844 122.833,20.647 C122.75,20.451 122.634,20.292 122.482,20.171 C122.33,20.052 122.127,19.991 121.873,19.991 C121.556,19.991 121.297,20.064 121.094,20.209 C120.891,20.356 120.739,20.571 120.638,20.857 C120.536,21.142 120.467,21.503 120.429,21.939 C120.391,22.376 120.372,22.894 120.372,23.489 C120.372,24.123 120.391,24.665 120.429,25.114 C120.467,25.564 120.536,25.935 120.638,26.227 C120.739,26.517 120.881,26.729 121.065,26.862 C121.249,26.996 121.487,27.062 121.778,27.062 C122.221,27.062 122.545,26.873 122.747,26.492 C122.95,26.112 123.052,25.503 123.052,24.668 L125.561,24.668 C125.561,26.01 125.26,27.034 124.658,27.737 C124.056,28.441 123.058,28.792 121.665,28.792 C121.005,28.792 120.432,28.714 119.944,28.554 C119.456,28.397 119.051,28.111 118.728,27.699 C118.404,27.288 118.16,26.737 117.996,26.045 C117.831,25.355 117.748,24.497 117.748,23.469 C117.748,22.419 117.85,21.547 118.053,20.857 C118.255,20.165 118.54,19.614 118.908,19.203 C119.276,18.791 119.713,18.502 120.22,18.337 C120.726,18.174 121.284,18.09 121.892,18.09 C123.109,18.09 124.024,18.446 124.639,19.154 C125.254,19.864 125.561,20.828 125.561,22.044 L123.052,22.044 C123.052,21.791 123.036,21.544 123.005,21.303" id="Fill-20" fill="#FFFFFF" sketch:type="MSShapeGroup" mask="url(#mask-10)"></path>
            </g>
        </g>
    </g>
</svg>