<?xml version="1.0" encoding="utf-8"?>
<!-- Generator: Adobe Illustrator 12.0.0, SVG Export Plug-In  -->
<!DOCTYPE svg PUBLIC "-//W3C//DTD SVG 1.1//EN" "http://www.w3.org/Graphics/SVG/1.1/DTD/svg11.dtd" [
	<!ENTITY ns_flows "http://ns.adobe.com/Flows/1.0/">
	<!ENTITY ns_svg "http://www.w3.org/2000/svg">
	<!ENTITY ns_xlink "http://www.w3.org/1999/xlink">
]>
<svg  version="1.1" xmlns="&ns_svg;" xmlns:xlink="&ns_xlink;" xmlns:a="http://ns.adobe.com/AdobeSVGViewerExtensions/3.0/"
	 width="281" height="266" viewBox="145 178 281 266" enable-background="new 145 178 281 266" xml:space="preserve">
<defs>
</defs>
<g>
	<defs>
		<rect id="XMLID_6_" width="612" height="792"/>
	</defs>
	<clipPath id="XMLID_9_">
		<use xlink:href="#XMLID_6_" />
	</clipPath>
	<path clip-path="url(#XMLID_9_)" fill="#46166B" d="M241.852,223.83c-1.361,4.156-3.03,10.891-5.014,20.207
		c-1.826,8.509-12.314,57.688-13.177,63.395c-0.295,1.843-12.073,58.07-12.641,58.07c-0.363,0,10.368-54.68,9.266-55.221
		c-0.399-0.171,2.806-14.412,2.998-14.388c0.463-2.514,10.596-50.455,12.338-57.875c1.962-8.384,3.031-12.979,3.204-13.794
		 M240.349,219.507c0.55-1.573,0.959-2.359,1.219-2.359c0.397,0,1.068,0.611,2.018,1.836"/>
	<path clip-path="url(#XMLID_9_)" fill="none" stroke="#46166B" stroke-width="3.6" d="M241.852,223.83
		c-1.361,4.156-3.03,10.891-5.014,20.207c-1.826,8.509-12.314,57.688-13.177,63.395c-0.295,1.843-12.073,58.07-12.641,58.07
		c-0.363,0,10.368-54.68,9.266-55.221c-0.399-0.171,2.806-14.412,2.998-14.388c0.463-2.514,10.596-50.455,12.338-57.875
		c1.962-8.384,3.031-12.979,3.204-13.794 M240.349,219.507c0.55-1.573,0.959-2.359,1.219-2.359c0.397,0,1.068,0.611,2.018,1.836"/>
	<path clip-path="url(#XMLID_9_)" fill="#46166B" d="M308.503,293.154c0.063,2.952-1.085,4.967-3.441,6.049
		c-0.294,1.031-0.571,1.743-0.829,2.136c-0.398,0.591-0.985,0.934-1.764,1.031c-0.504,0.051-1.041,0.015-1.612-0.11
		c-1.022-0.221-2.273-0.492-3.766-0.811c-0.415-0.097-0.666-0.453-0.752-1.068c0.068-0.664,0.549-1.057,1.448-1.178
		c1.222-0.125,3.029-0.432,5.426-0.923c0.895-0.294,1.534-1.02,1.912-2.174c0.224-0.59,0.338-1.314,0.338-2.175
		c0-1.546-0.545-4.273-1.628-8.18c-1.068-3.808-1.563-6.355-1.491-7.632c0.138-3.071,2.153-5.207,6.044-6.411
		c0.384-0.123,0.575,0.074,0.575,0.589c0,0.295-0.141,0.528-0.427,0.7c-1.925,1.154-2.89,2.579-2.89,4.274
		c0,0.664,0.088,1.496,0.262,2.491c0.179,0.994,0.707,3.386,1.59,7.169C308.149,289.658,308.487,291.729,308.503,293.154
		 M312.743,272.06c0,1.102-0.207,2.865-0.619,5.293c-0.154,0.837-0.329,1.372-0.52,1.618c-0.086,0.124-0.379,0.312-0.88,0.553
		c-0.637,0.344-1.031,0.516-1.188,0.516c-0.256,0-0.388-0.242-0.388-0.733c0-0.27,0.035-0.626,0.105-1.069
		c0.422-2.428,0.587-4.115,0.494-5.057c-0.092-0.945,0.101-1.54,0.579-1.786c0.84-0.612,1.378-0.921,1.617-0.921
		C312.475,270.474,312.743,271.003,312.743,272.06"/>
	<path clip-path="url(#XMLID_9_)" fill="none" stroke="#46166B" stroke-width="3.6" d="M308.503,293.154
		c0.063,2.952-1.085,4.967-3.441,6.049c-0.294,1.031-0.571,1.743-0.829,2.136c-0.398,0.591-0.985,0.934-1.764,1.031
		c-0.504,0.051-1.041,0.015-1.612-0.11c-1.022-0.221-2.273-0.492-3.766-0.811c-0.415-0.097-0.666-0.453-0.752-1.068
		c0.068-0.664,0.549-1.057,1.448-1.178c1.222-0.125,3.029-0.432,5.426-0.923c0.895-0.294,1.534-1.02,1.912-2.174
		c0.224-0.59,0.338-1.314,0.338-2.175c0-1.546-0.545-4.273-1.628-8.18c-1.068-3.808-1.563-6.355-1.491-7.632
		c0.138-3.071,2.153-5.207,6.044-6.411c0.384-0.123,0.575,0.074,0.575,0.589c0,0.295-0.141,0.528-0.427,0.7
		c-1.925,1.154-2.89,2.579-2.89,4.274c0,0.664,0.088,1.496,0.262,2.491c0.179,0.994,0.707,3.386,1.59,7.169
		C308.149,289.658,308.487,291.729,308.503,293.154z M312.743,272.06c0,1.102-0.207,2.865-0.619,5.293
		c-0.154,0.837-0.329,1.372-0.52,1.618c-0.086,0.124-0.379,0.312-0.88,0.553c-0.637,0.344-1.031,0.516-1.188,0.516
		c-0.256,0-0.388-0.242-0.388-0.733c0-0.27,0.035-0.626,0.105-1.069c0.422-2.428,0.587-4.115,0.494-5.057
		c-0.092-0.945,0.101-1.54,0.579-1.786c0.84-0.612,1.378-0.921,1.617-0.921C312.475,270.474,312.743,271.003,312.743,272.06z"/>
	<path clip-path="url(#XMLID_9_)" fill="#46166B" d="M340.167,248.667c0.207,0.221,1.666-5.6,1.666-5.333c0,0.462-4.333,6-2,4.833
		c0.14-0.07,2.338-5.878,2.167-6c-0.813-0.573,1.731,0.333,1.333,0.333c-1.07,0-1.899,3.666-3.189,6.663
		c-5.017,11.676-8.604,28.71-10.727,46.671c0.447-0.623-0.162-9.183,0.598-10.509c0.449-0.771,0.778-1.158,0.985-1.158
		c0.466,0-1.203-5.177-1.583-4.417c-1.66,3.276,0.526,17.409-0.013,21.201c-0.21,0.907-0.47,1.363-0.785,1.363
		c-0.156,0-0.348-0.111-0.574-0.332c-0.875-0.835-1.362-1.328-1.465-1.474c-0.347-0.467-0.523-1.098-0.523-1.883
		c0-0.418,0.045-0.91,0.13-1.475c0.756-5.678,1.376-9.909,1.863-12.683c-1.696,3.487-3.608,6.969-5.745,10.448
		c-2.137,3.472-3.687,5.671-4.652,6.585c-0.744,0.715-1.3,1.076-1.661,1.076c-0.311,0-0.788-0.356-1.427-1.072
		c-1.125-0.987-1.685-2.134-1.685-3.439c0-0.222,0.017-0.467,0.052-0.742c0.362-3.669,1.517-7.927,3.463-12.775
		c1.947-4.84,4.176-8.919,6.683-12.218c0.812-1.09,1.54-1.618,2.182-1.593c0.674,0.049,1.878,1.217,3.605,3.5
		c0.157,0.198,0.235,0.406,0.235,0.626c0,0.394-0.183,0.591-0.546,0.591c-0.119,0-0.253-0.025-0.39-0.073
		c-1.211-0.738-2.202-0.712-2.961,0.073c-1.628,1.728-3.421,4.721-5.376,8.987c-2.269,4.938-3.604,9.377-4,13.324
		c-0.084,0.933,0.086,1.404,0.521,1.404c0.569,0,1.269-0.577,2.1-1.731c1.92-2.686,3.984-6.052,6.204-10.114
		c2.261-4.209,3.714-7.387,4.355-9.525c0.363-1.178,0.647-2.312,0.854-3.397c1.792-9.053,3.797-16.792,6.006-23.215
		c1.725-5.021,3.241-8.386,4.555-10.114c0.48-0.663,0.949-0.996,1.397-0.996c0.483,0,1.105,0.406,1.865,1.209
		C344.544,242.285,339.285,247.669,340.167,248.667"/>
	<path clip-path="url(#XMLID_9_)" fill="none" stroke="#46166B" stroke-width="3.6" d="M340.167,248.667
		c0.207,0.221,1.666-5.6,1.666-5.333c0,0.462-4.333,6-2,4.833c0.14-0.07,2.338-5.878,2.167-6c-0.813-0.573,1.731,0.333,1.333,0.333
		c-1.07,0-1.899,3.666-3.189,6.663c-5.017,11.676-8.604,28.71-10.727,46.671c0.447-0.623-0.162-9.183,0.598-10.509
		c0.449-0.771,0.778-1.158,0.985-1.158c0.466,0-1.203-5.177-1.583-4.417c-1.66,3.276,0.526,17.409-0.013,21.201
		c-0.21,0.907-0.47,1.363-0.785,1.363c-0.156,0-0.348-0.111-0.574-0.332c-0.875-0.835-1.362-1.328-1.465-1.474
		c-0.347-0.467-0.523-1.098-0.523-1.883c0-0.418,0.045-0.91,0.13-1.475c0.756-5.678,1.376-9.909,1.863-12.683
		c-1.696,3.487-3.608,6.969-5.745,10.448c-2.137,3.472-3.687,5.671-4.652,6.585c-0.744,0.715-1.3,1.076-1.661,1.076
		c-0.311,0-0.788-0.356-1.427-1.072c-1.125-0.987-1.685-2.134-1.685-3.439c0-0.222,0.017-0.467,0.052-0.742
		c0.362-3.669,1.517-7.927,3.463-12.775c1.947-4.84,4.176-8.919,6.683-12.218c0.812-1.09,1.54-1.618,2.182-1.593
		c0.674,0.049,1.878,1.217,3.605,3.5c0.157,0.198,0.235,0.406,0.235,0.626c0,0.394-0.183,0.591-0.546,0.591
		c-0.119,0-0.253-0.025-0.39-0.073c-1.211-0.738-2.202-0.712-2.961,0.073c-1.628,1.728-3.421,4.721-5.376,8.987
		c-2.269,4.938-3.604,9.377-4,13.324c-0.084,0.933,0.086,1.404,0.521,1.404c0.569,0,1.269-0.577,2.1-1.731
		c1.92-2.686,3.984-6.052,6.204-10.114c2.261-4.209,3.714-7.387,4.355-9.525c0.363-1.178,0.647-2.312,0.854-3.397
		c1.792-9.053,3.797-16.792,6.006-23.215c1.725-5.021,3.241-8.386,4.555-10.114c0.48-0.663,0.949-0.996,1.397-0.996
		c0.483,0,1.105,0.406,1.865,1.209C344.544,242.285,339.285,247.669,340.167,248.667z"/>
	<path clip-path="url(#XMLID_9_)" fill="#46166B" d="M355.696,277.031c-1.596,6.265-2.697,11.522-3.305,15.771
		c0.262-0.335-1.553-2.897-1.127-3.594c0.422-0.695,0.687-1.104,0.791-1.228c0.242-0.429,0.501-0.646,0.777-0.646
		c0.259,0,0.391,0.184,0.391,0.548c0,0.222-0.069,0.479-0.206,0.77c-1.632,3.406,0.892,9.75-0.935,12.932
		c-0.491,0.856-0.548,0.899-0.859,0.899c-0.295,0-0.842-0.395-1.64-1.184c-0.466-0.442-0.734-0.815-0.803-1.11
		c-0.086-0.271-0.086-0.811,0-1.622c0.729-6.256,1.64-11.456,2.73-15.599c-1.505,3.48-3.55,7.329-6.138,11.546
		c-2.263,3.672-3.895,6.014-4.894,7.026c-0.729,0.712-1.278,1.071-1.658,1.071c-0.31,0-0.785-0.359-1.425-1.071
		c-0.913-0.786-1.372-1.876-1.372-3.251c0-0.271,0.019-0.581,0.054-0.926c0.303-3.652,1.422-7.893,3.347-12.742
		c1.924-4.84,4.139-8.925,6.646-12.257c0.812-1.083,3.457-0.722,4.096-0.697c0.622,0.049,3.594,0.518,1.632,2.637
		c-0.799,0.863,0.233,0.41,0.233,0.63c0,0.397-0.18,0.594-0.545,0.594c-0.137,0-0.267-0.037-0.387-0.111
		c-1.229-0.745-2.212-0.721-2.955,0.074c-1.625,1.704-3.422,4.7-5.391,8.992c-2.282,4.929-3.654,9.371-4.123,13.316
		c-0.016,0.175-0.026,0.334-0.026,0.481c0,0.62,0.175,0.925,0.521,0.925c0.586,0,1.289-0.58,2.104-1.752
		c1.939-2.701,4.02-6.084,6.234-10.145c2.269-4.2,3.722-7.371,4.364-9.509c0.466-1.57,0.771-2.677,0.907-3.316
		c0.225-1.105-2.568-3.233,0.729-1.654c0.233,0.112,0.868,0.5,1.816,1.508c0.398,0.417,0.617,0.801,0.651,1.146
		C355.967,275.777,355.888,276.293,355.696,277.031"/>
	<path clip-path="url(#XMLID_9_)" fill="none" stroke="#46166B" stroke-width="3.6" d="M355.696,277.031
		c-1.596,6.265-2.697,11.522-3.305,15.771c0.262-0.335-1.553-2.897-1.127-3.594c0.422-0.695,0.687-1.104,0.791-1.228
		c0.242-0.429,0.501-0.646,0.777-0.646c0.259,0,0.391,0.184,0.391,0.548c0,0.222-0.069,0.479-0.206,0.77
		c-1.632,3.406,0.892,9.75-0.935,12.932c-0.491,0.856-0.548,0.899-0.859,0.899c-0.295,0-0.842-0.395-1.64-1.184
		c-0.466-0.442-0.734-0.815-0.803-1.11c-0.086-0.271-0.086-0.811,0-1.622c0.729-6.256,1.64-11.456,2.73-15.599
		c-1.505,3.48-3.55,7.329-6.138,11.546c-2.263,3.672-3.895,6.014-4.894,7.026c-0.729,0.712-1.278,1.071-1.658,1.071
		c-0.31,0-0.785-0.359-1.425-1.071c-0.913-0.786-1.372-1.876-1.372-3.251c0-0.271,0.019-0.581,0.054-0.926
		c0.303-3.652,1.422-7.893,3.347-12.742c1.924-4.84,4.139-8.925,6.646-12.257c0.812-1.083,3.457-0.722,4.096-0.697
		c0.622,0.049,3.594,0.518,1.632,2.637c-0.799,0.863,0.233,0.41,0.233,0.63c0,0.397-0.18,0.594-0.545,0.594
		c-0.137,0-0.267-0.037-0.387-0.111c-1.229-0.745-2.212-0.721-2.955,0.074c-1.625,1.704-3.422,4.7-5.391,8.992
		c-2.282,4.929-3.654,9.371-4.123,13.316c-0.016,0.175-0.026,0.334-0.026,0.481c0,0.62,0.175,0.925,0.521,0.925
		c0.586,0,1.289-0.58,2.104-1.752c1.939-2.701,4.02-6.084,6.234-10.145c2.269-4.2,3.722-7.371,4.364-9.509
		c0.466-1.57,0.771-2.677,0.907-3.316c0.225-1.105-2.568-3.233,0.729-1.654c0.233,0.112,0.868,0.5,1.816,1.508
		c0.398,0.417,0.617,0.801,0.651,1.146C355.967,275.777,355.888,276.293,355.696,277.031z"/>
	<path clip-path="url(#XMLID_9_)" fill="#46166B" d="M379.424,276.031c-2.4,15.751-4.654,27.531-6.761,35.344
		c-4.079,15.183-8.761,22.777-14.046,22.777c-3.088,0-32.586-20.202-36.144-24.964c-0.313-0.417-0.468-0.86-0.468-1.317
		c0-0.738,0.241-1.104,0.726-1.104c0.243,0,0.476,0.137,0.699,0.407c2.817,3.398,31.505,22.916,33.715,22.916
		c4.062,0,7.75-4.809,11.068-14.428c2.61-7.534,4.881-17.645,6.818-30.332c0.118-0.905,0.318-2.294,0.594-4.161
		c-1.82,4.189-3.854,8.316-6.106,12.379c-2.167,3.913-3.876,6.608-5.122,8.078c-0.694,0.805-1.247,1.212-1.662,1.212
		c-0.329,0-0.723-0.824-1.068-1.338c-0.364-0.664,0.899-2.066,0.333-1.584c-1.667,1.417,1.24,0.863,0,0
		c-0.021-0.014-0.083,0.268-0.083-0.916c0-0.584-0.615,1.704-0.334,1.583c0.841-1.597,0.864-7.015,1.604-12.313
		c0.561-4.174,0.949-8.132,1.156-11.887c0.034-0.881-0.042-1.322-0.234-1.322c-0.052,0,1.322-0.538,0.558,0.355
		c-1.223,1.465,0.249,5.334-0.417,5.167c-0.238-0.059,0.417-2.651,0.417-3c0-0.17,0.666-1.167-0.25-1.583
		c-0.543-0.247-0.084,1.083-0.25-1.5c-0.133-2.07,0.047-3.632,0.359-3.632c0.242,0,0.805-0.479,1.224-0.202
		c0.89-0.188,1.157,0.333,1.26,0.333c0.592,0,0.89,0.642,0.89,1.92c0,2.138-0.436,6.323-1.307,12.554
		c-0.873,6.231-1.587,10.262-2.143,12.079c1.725-1.946,3.964-5.757,6.724-11.441c2.69-5.535,4.364-9.703,5.021-12.508
		c0.034-1.65,0.838-2.103,1.306-2.103c0.36,0,1.265,0.11,2.25,1.166C380.3,273.255,379.667,274.41,379.424,276.031"/>
	<path clip-path="url(#XMLID_9_)" fill="none" stroke="#46166B" stroke-width="3.6" d="M379.424,276.031
		c-2.4,15.751-4.654,27.531-6.761,35.344c-4.079,15.183-8.761,22.777-14.046,22.777c-3.088,0-32.586-20.202-36.144-24.964
		c-0.313-0.417-0.468-0.86-0.468-1.317c0-0.738,0.241-1.104,0.726-1.104c0.243,0,0.476,0.137,0.699,0.407
		c2.817,3.398,31.505,22.916,33.715,22.916c4.062,0,7.75-4.809,11.068-14.428c2.61-7.534,4.881-17.645,6.818-30.332
		c0.118-0.905,0.318-2.294,0.594-4.161c-1.82,4.189-3.854,8.316-6.106,12.379c-2.167,3.913-3.876,6.608-5.122,8.078
		c-0.694,0.805-1.247,1.212-1.662,1.212c-0.329,0-0.723-0.824-1.068-1.338c-0.364-0.664,0.899-2.066,0.333-1.584
		c-1.667,1.417,1.24,0.863,0,0c-0.021-0.014-0.083,0.268-0.083-0.916c0-0.584-0.615,1.704-0.334,1.583
		c0.841-1.597,0.864-7.015,1.604-12.313c0.561-4.174,0.949-8.132,1.156-11.887c0.034-0.881-0.042-1.322-0.234-1.322
		c-0.052,0,1.322-0.538,0.558,0.355c-1.223,1.465,0.249,5.334-0.417,5.167c-0.238-0.059,0.417-2.651,0.417-3
		c0-0.17,0.666-1.167-0.25-1.583c-0.543-0.247-0.084,1.083-0.25-1.5c-0.133-2.07,0.047-3.632,0.359-3.632
		c0.242,0,0.805-0.479,1.224-0.202c0.89-0.188,1.157,0.333,1.26,0.333c0.592,0,0.89,0.642,0.89,1.92
		c0,2.138-0.436,6.323-1.307,12.554c-0.873,6.231-1.587,10.262-2.143,12.079c1.725-1.946,3.964-5.757,6.724-11.441
		c2.69-5.535,4.364-9.703,5.021-12.508c0.034-1.65,0.838-2.103,1.306-2.103c0.36,0,1.265,0.11,2.25,1.166
		C380.3,273.255,379.667,274.41,379.424,276.031z"/>
	<path clip-path="url(#XMLID_9_)" fill="#46166B" d="M206.82,328.686c-0.836,4.792-1.803,8.488-2.902,11.094
		c-0.506,1.226-1.002,1.841-1.49,1.841c-0.194,0-0.426-0.061-0.706-0.184c-1.324-0.556-1.986-1.231-1.986-2.015
		c0-0.388,0.179-0.646,0.541-0.768c1.513-3.224,2.406-7.093,2.684-11.614c-0.945-1.195-1.836-1.795-2.676-1.795
		c-1.783,0-3.893,2.25-6.328,6.75c-2.248,4.21-4.196,9.205-5.842,14.978c-1.715,6.019-2.541,11.039-2.48,15.051
		c0.017,2.325,0.505,4.061,1.467,5.207c0.702,0.837,1.503,1.25,2.396,1.25c0.515,0,1.107-0.143,1.777-0.438
		c1.647-0.737,3.553-2.154,5.717-4.253c2.057-2.004,3.43-4.318,5.149-6.122c2.041-2.141,0.439,0.695,0.525-0.334
		c0.051-0.535,1.223-1.807,1.516-1.807c0.239,0,0.418,0.221,0.539,0.664c0.617,2.207,0.362,2.949,0.362,3.809
		c0,0.811-0.419,1.165-0.884,1.877c-0.312,0.442-1.041,1.289-2.193,2.538c-3.649,3.907-6.78,6.338-9.395,7.293
		c-0.809,0.294-1.549,0.441-2.219,0.441c-1.412,0-2.486-0.674-3.226-2.022c-3.356-1.789-5.033-4.523-5.033-8.202
		c0-5.936,1.093-12.311,3.283-19.129c1.878-5.908,4.195-11.108,6.954-15.594c2.652-4.292,4.799-6.719,6.461-6.696
		c5.669,0.078,5.713,1.587,6.669,2.161c1.441,0.865-3.53,0.073-2.17,1.643c0.086-1.036,0.321-1.556,0.707-1.556
		c0.42,0,1.466,0.164,2.463,1.246c0.628,0.688,0.607,1.727,0.607,2.366C207.107,326.782,207.011,327.557,206.82,328.686"/>
	<path clip-path="url(#XMLID_9_)" fill="none" stroke="#46166B" stroke-width="3.6" d="M206.82,328.686
		c-0.836,4.792-1.803,8.488-2.902,11.094c-0.506,1.226-1.002,1.841-1.49,1.841c-0.194,0-0.426-0.061-0.706-0.184
		c-1.324-0.556-1.986-1.231-1.986-2.015c0-0.388,0.179-0.646,0.541-0.768c1.513-3.224,2.406-7.093,2.684-11.614
		c-0.945-1.195-1.836-1.795-2.676-1.795c-1.783,0-3.893,2.25-6.328,6.75c-2.248,4.21-4.196,9.205-5.842,14.978
		c-1.715,6.019-2.541,11.039-2.48,15.051c0.017,2.325,0.505,4.061,1.467,5.207c0.702,0.837,1.503,1.25,2.396,1.25
		c0.515,0,1.107-0.143,1.777-0.438c1.647-0.737,3.553-2.154,5.717-4.253c2.057-2.004,3.43-4.318,5.149-6.122
		c2.041-2.141,0.439,0.695,0.525-0.334c0.051-0.535,1.223-1.807,1.516-1.807c0.239,0,0.418,0.221,0.539,0.664
		c0.617,2.207,0.362,2.949,0.362,3.809c0,0.811-0.419,1.165-0.884,1.877c-0.312,0.442-1.041,1.289-2.193,2.538
		c-3.649,3.907-6.78,6.338-9.395,7.293c-0.809,0.294-1.549,0.441-2.219,0.441c-1.412,0-2.486-0.674-3.226-2.022
		c-3.356-1.789-5.033-4.523-5.033-8.202c0-5.936,1.093-12.311,3.283-19.129c1.878-5.908,4.195-11.108,6.954-15.594
		c2.652-4.292,4.799-6.719,6.461-6.696c5.669,0.078,5.713,1.587,6.669,2.161c1.441,0.865-3.53,0.073-2.17,1.643
		c0.086-1.036,0.321-1.556,0.707-1.556c0.42,0,1.466,0.164,2.463,1.246c0.628,0.688,0.607,1.727,0.607,2.366
		C207.107,326.782,207.011,327.557,206.82,328.686z"/>
	<path clip-path="url(#XMLID_9_)" fill="#46166B" d="M251.208,179.934c-1.914,2.534-4.061,7.914-6.438,16.144
		c-3.209,11.059-33.92,155.193-35.918,170.802c-0.139,1.203,0.008,2.063,0.439,2.579c0.865,1.008,1.443,1.512,1.737,1.512
		c0.328,0,0.681-0.759,1.06-2.282c1.4-5.319,3.379-10.531,5.935-15.633c1.934-3.873,3.566-6.566,4.897-8.09
		c0.726-0.831,1.201-1.249,1.425-1.249c0.345,0,0.493,0.748,0.44,2.248c-0.176,5.242-1.754,13.173-4.742,23.797
		c-0.228,0.737-0.166,1.277,0.178,1.621c0.849,0.86,1.498,1.291,1.951,1.291c0.396,0,0.711-0.395,0.935-1.18
		c0.536-1.67,0.875-2.699,1.014-3.092c1.658-3.98,1.377-13.006,2.379-15.069c0.225-0.466-0.75,4.119-0.75,3.75
		c0-0.319-0.197,1.123-0.114,0.706c4.204-20.856-1.232,1.859,0,0c-1.155,1.977-0.161,3.92-0.695,4.942
		c1.463-6.206,2.342-11.493,2.635-15.866c0.035-0.466,0.053-0.892,0.053-1.285c0-1.399-0.225-2.383-0.674-2.948
		c-0.121-0.147-0.205-0.342-1.121-0.882c-0.315-0.351-1.646-0.584-1.75-0.584c-0.364,0-0.914-0.102-1.691,0.881
		c-3.628,4.59-6.849,10.731-9.665,18.414c2.189-17.133,34.75-163.898,38.221-172.392
		C254.424,179.575,251.208,179.934,251.208,179.934"/>
	<path clip-path="url(#XMLID_9_)" fill="none" stroke="#46166B" stroke-width="3.6" d="M251.208,179.934
		c-1.914,2.534-4.061,7.914-6.438,16.144c-3.209,11.059-33.92,155.193-35.918,170.802c-0.139,1.203,0.008,2.063,0.439,2.579
		c0.865,1.008,1.443,1.512,1.737,1.512c0.328,0,0.681-0.759,1.06-2.282c1.4-5.319,3.379-10.531,5.935-15.633
		c1.934-3.873,3.566-6.566,4.897-8.09c0.726-0.831,1.201-1.249,1.425-1.249c0.345,0,0.493,0.748,0.44,2.248
		c-0.176,5.242-1.754,13.173-4.742,23.797c-0.228,0.737-0.166,1.277,0.178,1.621c0.849,0.86,1.498,1.291,1.951,1.291
		c0.396,0,0.711-0.395,0.935-1.18c0.536-1.67,0.875-2.699,1.014-3.092c1.658-3.98,1.377-13.006,2.379-15.069
		c0.225-0.466-0.75,4.119-0.75,3.75c0-0.319-0.197,1.123-0.114,0.706c4.204-20.856-1.232,1.859,0,0
		c-1.155,1.977-0.161,3.92-0.695,4.942c1.463-6.206,2.342-11.493,2.635-15.866c0.035-0.466,0.053-0.892,0.053-1.285
		c0-1.399-0.225-2.383-0.674-2.948c-0.121-0.147-0.205-0.342-1.121-0.882c-0.315-0.351-1.646-0.584-1.75-0.584
		c-0.364,0-0.914-0.102-1.691,0.881c-3.628,4.59-6.849,10.731-9.665,18.414c2.189-17.133,34.75-163.898,38.221-172.392
		C254.424,179.575,251.208,179.934,251.208,179.934z"/>
	<path clip-path="url(#XMLID_9_)" fill="#46166B" d="M252.389,344.494c-2.301,6.061-4.023,13.178-5.163,21.346
		c0.483-1.196-0.328-4.719,0.362-6.577c0.085-0.341,0.222-0.513,0.412-0.513c0.258,0,0.084-0.883,0.084-0.417
		c0,0.147,0.278,1.42,0.226,1.592c-1.103,3.571-0.43,8.327-0.775,10.26c-0.206,1.223-0.482,1.832-0.826,1.832
		c-0.343,0-1.016-0.478-2.018-1.435c-0.534-0.542-0.714-1.5-0.542-2.88c0.723-5.358,1.595-10.018,2.613-13.983
		c-3.345,7.724-6.15,13.418-8.419,17.084c-0.501,0.81-1.049,1.214-1.636,1.214c-0.484,0-1.056-0.261-1.715-0.785
		c-1.193-0.295-1.792-1.183-1.792-2.666c0-0.269,0.017-0.565,0.05-0.885c0.428-7.053,1.314-12.912,2.663-17.572
		c-0.283,0.393,0.157,0.539-0.407,1.291c-0.22,0.27-0.01,2.562-0.089,1.516c-0.043-0.567-0.101-1.1,0.089-1.516
		c0.933-1.933-0.256,1.267,0.078-0.817c0.287-1.797,1.386-6.579,1.97-7.632c0.311-0.537,0.641-0.805,0.984-0.805
		c0.462,0,1.146,0.387,2.04,1.174c0.244,0.221,0.362,0.442,0.362,0.658l-0.574,1.218c-0.876,1.866-1.801,5.158-2.778,9.866
		c-1.064,5.111-1.607,9.276-1.624,12.489c0,1.056,0.155,1.584,0.467,1.584c0.278,0,0.731-0.455,1.354-1.364
		c1.336-2.005,3.272-5.804,5.805-11.397c2.237-4.931,3.589-8.14,4.062-9.638c0.778-2.499,1.411-3.969,1.899-4.412
		c0.312-0.293,0.588-0.441,0.83-0.441c0.242,0,0.715,0.258,1.405,0.774c0.698,0.516,1.045,0.892,1.045,1.137
		c0,0.074-0.062,0.173-0.183,0.295C252.527,344.213,252.441,344.348,252.389,344.494"/>
	<path clip-path="url(#XMLID_9_)" fill="none" stroke="#46166B" stroke-width="3.6" d="M252.389,344.494
		c-2.301,6.061-4.023,13.178-5.163,21.346c0.483-1.196-0.328-4.719,0.362-6.577c0.085-0.341,0.222-0.513,0.412-0.513
		c0.258,0,0.084-0.883,0.084-0.417c0,0.147,0.278,1.42,0.226,1.592c-1.103,3.571-0.43,8.327-0.775,10.26
		c-0.206,1.223-0.482,1.832-0.826,1.832c-0.343,0-1.016-0.478-2.018-1.435c-0.534-0.542-0.714-1.5-0.542-2.88
		c0.723-5.358,1.595-10.018,2.613-13.983c-3.345,7.724-6.15,13.418-8.419,17.084c-0.501,0.81-1.049,1.214-1.636,1.214
		c-0.484,0-1.056-0.261-1.715-0.785c-1.193-0.295-1.792-1.183-1.792-2.666c0-0.269,0.017-0.565,0.05-0.885
		c0.428-7.053,1.314-12.912,2.663-17.572c-0.283,0.393,0.157,0.539-0.407,1.291c-0.22,0.27-0.01,2.562-0.089,1.516
		c-0.043-0.567-0.101-1.1,0.089-1.516c0.933-1.933-0.256,1.267,0.078-0.817c0.287-1.797,1.386-6.579,1.97-7.632
		c0.311-0.537,0.641-0.805,0.984-0.805c0.462,0,1.146,0.387,2.04,1.174c0.244,0.221,0.362,0.442,0.362,0.658l-0.574,1.218
		c-0.876,1.866-1.801,5.158-2.778,9.866c-1.064,5.111-1.607,9.276-1.624,12.489c0,1.056,0.155,1.584,0.467,1.584
		c0.278,0,0.731-0.455,1.354-1.364c1.336-2.005,3.272-5.804,5.805-11.397c2.237-4.931,3.589-8.14,4.062-9.638
		c0.778-2.499,1.411-3.969,1.899-4.412c0.312-0.293,0.588-0.441,0.83-0.441c0.242,0,0.715,0.258,1.405,0.774
		c0.698,0.516,1.045,0.892,1.045,1.137c0,0.074-0.062,0.173-0.183,0.295C252.527,344.213,252.441,344.348,252.389,344.494z"/>
	<path clip-path="url(#XMLID_9_)" fill="#46166B" d="M279.055,275.494c-2.301,6.061-4.023,13.178-5.163,21.346
		c0.483-1.196-0.328-4.719,0.362-6.577c0.085-0.341,0.222-0.513,0.412-0.513c0.258,0,0.084-0.883,0.084-0.417
		c0,0.147,0.278,1.42,0.226,1.592c-1.103,3.571-0.43,8.327-0.775,10.26c-0.206,1.223-0.482,1.832-0.826,1.832
		c-0.343,0-1.016-0.478-2.018-1.435c-0.534-0.542-0.714-1.5-0.542-2.88c0.723-5.358,1.595-10.019,2.613-13.983
		c-3.345,7.724-6.15,13.418-8.419,17.084c-0.501,0.81-1.049,1.214-1.636,1.214c-0.484,0-1.056-0.261-1.716-0.785
		c-1.192-0.295-1.792-1.183-1.792-2.666c0-0.269,0.018-0.565,0.051-0.885c0.428-7.053,1.314-12.913,2.663-17.572
		c-0.283,0.393,0.157,0.539-0.407,1.291c-0.22,0.27-0.01,2.562-0.089,1.516c-0.043-0.567-0.101-1.1,0.089-1.516
		c0.933-1.933-0.256,1.267,0.078-0.817c0.287-1.797,1.386-6.579,1.97-7.632c0.311-0.537,0.641-0.805,0.984-0.805
		c0.462,0,1.146,0.387,2.04,1.174c0.244,0.221,0.362,0.442,0.362,0.658l-0.574,1.218c-0.876,1.866-1.801,5.158-2.778,9.866
		c-1.064,5.111-1.607,9.276-1.624,12.489c0,1.056,0.155,1.584,0.467,1.584c0.278,0,0.731-0.455,1.353-1.364
		c1.337-2.006,3.273-5.804,5.806-11.397c2.237-4.931,3.589-8.14,4.062-9.638c0.778-2.499,1.411-3.969,1.899-4.412
		c0.312-0.293,0.588-0.441,0.83-0.441c0.242,0,0.715,0.257,1.405,0.774c0.698,0.516,1.045,0.892,1.045,1.137
		c0,0.074-0.062,0.173-0.183,0.295C279.193,275.213,279.107,275.348,279.055,275.494"/>
	<path clip-path="url(#XMLID_9_)" fill="none" stroke="#46166B" stroke-width="3.6" d="M279.055,275.494
		c-2.301,6.061-4.023,13.178-5.163,21.346c0.483-1.196-0.328-4.719,0.362-6.577c0.085-0.341,0.222-0.513,0.412-0.513
		c0.258,0,0.084-0.883,0.084-0.417c0,0.147,0.278,1.42,0.226,1.592c-1.103,3.571-0.43,8.327-0.775,10.26
		c-0.206,1.223-0.482,1.832-0.826,1.832c-0.343,0-1.016-0.478-2.018-1.435c-0.534-0.542-0.714-1.5-0.542-2.88
		c0.723-5.358,1.595-10.019,2.613-13.983c-3.345,7.724-6.15,13.418-8.419,17.084c-0.501,0.81-1.049,1.214-1.636,1.214
		c-0.484,0-1.056-0.261-1.716-0.785c-1.192-0.295-1.792-1.183-1.792-2.666c0-0.269,0.018-0.565,0.051-0.885
		c0.428-7.053,1.314-12.913,2.663-17.572c-0.283,0.393,0.157,0.539-0.407,1.291c-0.22,0.27-0.01,2.562-0.089,1.516
		c-0.043-0.567-0.101-1.1,0.089-1.516c0.933-1.933-0.256,1.267,0.078-0.817c0.287-1.797,1.386-6.579,1.97-7.632
		c0.311-0.537,0.641-0.805,0.984-0.805c0.462,0,1.146,0.387,2.04,1.174c0.244,0.221,0.362,0.442,0.362,0.658l-0.574,1.218
		c-0.876,1.866-1.801,5.158-2.778,9.866c-1.064,5.111-1.607,9.276-1.624,12.489c0,1.056,0.155,1.584,0.467,1.584
		c0.278,0,0.731-0.455,1.353-1.364c1.337-2.006,3.273-5.804,5.806-11.397c2.237-4.931,3.589-8.14,4.062-9.638
		c0.778-2.499,1.411-3.969,1.899-4.412c0.312-0.293,0.588-0.441,0.83-0.441c0.242,0,0.715,0.257,1.405,0.774
		c0.698,0.516,1.045,0.892,1.045,1.137c0,0.074-0.062,0.173-0.183,0.295C279.193,275.213,279.107,275.348,279.055,275.494z"/>
	<path clip-path="url(#XMLID_9_)" fill="#46166B" d="M270.937,343.484c0,3.234-0.298,6.312-0.893,9.252
		c-0.191,0.885-0.447,1.333-0.773,1.333c-0.236,0-0.765-0.489-1.59-1.462c-0.409-0.484-0.512-1.18-0.31-2.081
		c0.472-2.211,0.712-3.987,0.712-5.33c0-0.46-0.069-0.692-0.209-0.692c-0.205,0-0.543,0.437-1.01,1.318
		c-3.588,6.62-6.271,14.048-8.048,22.277c-0.568,2.614-1.053,3.918-1.449,3.918c-0.156,0-0.836-0.429-2.047-1.289
		c-0.585-0.417-0.782-1.223-0.591-2.428c1.213-7.532,2.591-14.74,4.417-21.5c-1.278,1.916,0.076,3.481-0.271,4.193
		c-0.138,0.295,0.785,1.09,0.542,1.09c-0.292,0-1.083-0.464-1.083-0.833c0-0.221-0.137-0.313,0-0.584
		c0.847-1.457-0.449-4.438,0.966-7.42c0.434-1.08,0.866-1.626,1.298-1.626c0.311,0,0.94,0.348,1.888,1.037
		c0.536,0.393,0.624,0.921,0.259,1.583c-0.379,0.717-1.096,3.24-2.147,7.572c-1.004,4.209-1.694,7.504-2.073,9.893
		c2.337-7.421,4.999-13.967,7.977-19.647c0.563-1.082,1.07,0.062,0.874-0.808c-0.068-0.302,2.151-0.837,2.687-0.313
		c0.72,0.123,0.562,0.678,0.75,0.875C271.107,342.111,270.937,342.6,270.937,343.484"/>
	<path clip-path="url(#XMLID_9_)" fill="none" stroke="#46166B" stroke-width="3.6" d="M270.937,343.484
		c0,3.234-0.298,6.312-0.893,9.252c-0.191,0.885-0.447,1.333-0.773,1.333c-0.236,0-0.765-0.489-1.59-1.462
		c-0.409-0.484-0.512-1.18-0.31-2.081c0.472-2.211,0.712-3.987,0.712-5.33c0-0.46-0.069-0.692-0.209-0.692
		c-0.205,0-0.543,0.437-1.01,1.318c-3.588,6.62-6.271,14.048-8.048,22.277c-0.568,2.614-1.053,3.918-1.449,3.918
		c-0.156,0-0.836-0.429-2.047-1.289c-0.585-0.417-0.782-1.223-0.591-2.428c1.213-7.532,2.591-14.74,4.417-21.5
		c-1.278,1.916,0.076,3.481-0.271,4.193c-0.138,0.295,0.785,1.09,0.542,1.09c-0.292,0-1.083-0.464-1.083-0.833
		c0-0.221-0.137-0.313,0-0.584c0.847-1.457-0.449-4.438,0.966-7.42c0.434-1.08,0.866-1.626,1.298-1.626
		c0.311,0,0.94,0.348,1.888,1.037c0.536,0.393,0.624,0.921,0.259,1.583c-0.379,0.717-1.096,3.24-2.147,7.572
		c-1.004,4.209-1.694,7.504-2.073,9.893c2.337-7.421,4.999-13.967,7.977-19.647c0.563-1.082,1.07,0.062,0.874-0.808
		c-0.068-0.302,2.151-0.837,2.687-0.313c0.72,0.123,0.562,0.678,0.75,0.875C271.107,342.111,270.937,342.6,270.937,343.484z"/>
	<path clip-path="url(#XMLID_9_)" fill="#46166B" d="M287.404,344.089c0,3.806-0.374,6.872-1.122,9.196
		c-0.318,0.959-0.806,1.18-1.471,0.672c-0.973-0.762-1.462-1.384-1.462-1.865c0-0.223,0.117-0.451,0.354-0.697
		c0.613-2.342,0.894-4.16,0.844-5.454c-0.035-1.098-0.425-1.648-1.173-1.648c-0.088,0-0.218-0.031-0.391-0.089
		c-0.175-0.064-0.313-0.093-0.417-0.093c-0.607,0-1.352,0.809-2.24,2.431c-0.975,1.819-1.902,4.353-2.788,7.596
		c-0.732,2.678-1.215,4.97-1.458,6.888c-0.193,1.375-0.286,2.63-0.286,3.761c0,3.76,0.842,5.602,2.533,5.528
		c1.478-0.049,3.647-2.693,6.507-7.938c0.277-0.472,0.528-0.709,0.755-0.709c0.226,0,0.339,0.2,0.339,0.593
		c0,0.197-0.044,0.442-0.131,0.737c-0.92,3.215-2.13,6.043-3.623,8.488c-0.37,0.619-1.011,0.924-1.932,0.924
		c-0.555,0-1.235-0.174-2.037-0.523c-1.6-0.148-2.88-0.871-3.836-2.173c-1.026-1.397-1.503-3.228-1.434-5.483
		c0.07-2.6,0.708-6.207,1.925-10.822c1.295-5.007,2.655-8.639,4.078-10.901c0.655-1.025,2.11-1.758,2.562-1.758
		c0.449,0,0.916-0.25,2.5,0c0.788,0.125,1.482,0.15,2.083,0.5C287.313,341.967,287.404,342.723,287.404,344.089"/>
	<path clip-path="url(#XMLID_9_)" fill="none" stroke="#46166B" stroke-width="3.6" d="M287.404,344.089
		c0,3.806-0.374,6.872-1.122,9.196c-0.318,0.959-0.806,1.18-1.471,0.672c-0.973-0.762-1.462-1.384-1.462-1.865
		c0-0.223,0.117-0.451,0.354-0.697c0.613-2.342,0.894-4.16,0.844-5.454c-0.035-1.098-0.425-1.648-1.173-1.648
		c-0.088,0-0.218-0.031-0.391-0.089c-0.175-0.064-0.313-0.093-0.417-0.093c-0.607,0-1.352,0.809-2.24,2.431
		c-0.975,1.819-1.902,4.353-2.788,7.596c-0.732,2.678-1.215,4.97-1.458,6.888c-0.193,1.375-0.286,2.63-0.286,3.761
		c0,3.76,0.842,5.602,2.533,5.528c1.478-0.049,3.647-2.693,6.507-7.938c0.277-0.472,0.528-0.709,0.755-0.709
		c0.226,0,0.339,0.2,0.339,0.593c0,0.197-0.044,0.442-0.131,0.737c-0.92,3.215-2.13,6.043-3.623,8.488
		c-0.37,0.619-1.011,0.924-1.932,0.924c-0.555,0-1.235-0.174-2.037-0.523c-1.6-0.148-2.88-0.871-3.836-2.173
		c-1.026-1.397-1.503-3.228-1.434-5.483c0.07-2.6,0.708-6.207,1.925-10.822c1.295-5.007,2.655-8.639,4.078-10.901
		c0.655-1.025,2.11-1.758,2.562-1.758c0.449,0,0.916-0.25,2.5,0c0.788,0.125,1.482,0.15,2.083,0.5
		C287.313,341.967,287.404,342.723,287.404,344.089z"/>
	<path clip-path="url(#XMLID_9_)" fill="#46166B" d="M305.833,312.333c0.224,0.246-0.287,1.76-0.417,1.5
		c-0.5-1-0.125-2.042,0.25-0.417c0.19,0.826,2.167,0.667,1.583-1.833c-0.726-3.111-2.952,1.916-0.875,1.916
		c1.051,0-0.709,2.372-2.005,5.376c-4.553,10.589-7.927,24.453-10.113,41.585c2.816-7.682,6.238-13.371,9.868-17.961
		c1.065-1.346,4.851,1.327,1.75-1c-0.5-0.375-1.054,0.275,0,0c1.027-0.267,2.487,0.986,2.608,1.132
		c0.448,0.566,0.675,1.549,0.675,2.949c0,0.393-0.02,0.819-0.052,1.285c-0.295,4.373-1.172,9.66-2.637,15.866
		c0.533-1.023,0.375-4.421,1.53-6.398c0.277-0.413,0.813-6.584,0.625-6.584c-0.145,0-1.407,13.762-0.125,3.5
		c0.046-0.363-0.275,1.618-0.5,2.084c-0.424,0.868,1.75-4.834-2.352,13.069c-0.093,0.406-0.479,1.422-1.013,3.092
		c-0.225,0.785-0.54,1.179-0.936,1.179c-0.451,0-1.101-0.43-1.949-1.291c-0.347-0.343-0.407-0.884-0.178-1.621
		c2.989-10.624,4.566-18.555,4.742-23.797c0.052-1.5-0.096-2.248-0.442-2.248c-0.224,0-0.698,0.418-1.424,1.249
		c-1.331,1.525-2.963,4.218-4.896,8.091c-2.558,5.102-4.536,10.314-5.934,15.633c-0.382,1.522-0.735,2.281-1.062,2.281
		c-0.293,0-0.873-0.504-1.737-1.512c-0.43-0.515-0.578-1.376-0.441-2.579c2-15.608,4.602-28.934,7.812-39.995
		c2.381-8.23,4.527-13.609,6.442-16.144c0.481-0.639,1.091-0.888,1.534-0.741C307.666,310.5,305.091,311.551,305.833,312.333
		C306.695,313.337,304.971,311.333,305.833,312.333"/>
	<path clip-path="url(#XMLID_9_)" fill="none" stroke="#46166B" stroke-width="3.6" d="M305.833,312.333
		c0.224,0.246-0.287,1.76-0.417,1.5c-0.5-1-0.125-2.042,0.25-0.417c0.19,0.826,2.167,0.667,1.583-1.833
		c-0.726-3.111-2.952,1.916-0.875,1.916c1.051,0-0.709,2.372-2.005,5.376c-4.553,10.589-7.927,24.453-10.113,41.585
		c2.816-7.682,6.238-13.371,9.868-17.961c1.065-1.346,4.851,1.327,1.75-1c-0.5-0.375-1.054,0.275,0,0
		c1.027-0.267,2.487,0.986,2.608,1.132c0.448,0.566,0.675,1.549,0.675,2.949c0,0.393-0.02,0.819-0.052,1.285
		c-0.295,4.373-1.172,9.66-2.637,15.866c0.533-1.023,0.375-4.421,1.53-6.398c0.277-0.413,0.813-6.584,0.625-6.584
		c-0.145,0-1.407,13.762-0.125,3.5c0.046-0.363-0.275,1.618-0.5,2.084c-0.424,0.868,1.75-4.834-2.352,13.069
		c-0.093,0.406-0.479,1.422-1.013,3.092c-0.225,0.785-0.54,1.179-0.936,1.179c-0.451,0-1.101-0.43-1.949-1.291
		c-0.347-0.343-0.407-0.884-0.178-1.621c2.989-10.624,4.566-18.555,4.742-23.797c0.052-1.5-0.096-2.248-0.442-2.248
		c-0.224,0-0.698,0.418-1.424,1.249c-1.331,1.525-2.963,4.218-4.896,8.091c-2.558,5.102-4.536,10.314-5.934,15.633
		c-0.382,1.522-0.735,2.281-1.062,2.281c-0.293,0-0.873-0.504-1.737-1.512c-0.43-0.515-0.578-1.376-0.441-2.579
		c2-15.608,4.602-28.934,7.812-39.995c2.381-8.23,4.527-13.609,6.442-16.144c0.481-0.639,1.091-0.888,1.534-0.741
		C307.666,310.5,305.091,311.551,305.833,312.333C306.695,313.337,304.971,311.333,305.833,312.333z"/>
	<path clip-path="url(#XMLID_9_)" fill="#46166B" d="M252.5,242.666c0.224,0.246-0.287,1.76-0.417,1.5
		c-0.5-1-0.125-2.042,0.25-0.417c0.19,0.826,2.166,0.667,1.583-1.833c-0.725-3.111-2.951,1.917-0.875,1.917
		c1.052,0-0.708,2.371-2.004,5.375c-4.553,10.589-7.927,24.453-10.113,41.586c2.816-7.683,6.238-13.372,9.867-17.961
		c1.066-1.347,4.852,1.326,1.75-1c-0.5-0.375-1.053,0.274,0,0c1.028-0.268,2.488,0.985,2.609,1.131
		c0.448,0.566,0.675,1.549,0.675,2.949c0,0.393-0.02,0.819-0.052,1.285c-0.295,4.373-1.172,9.66-2.637,15.866
		c0.532-1.023,0.375-4.42,1.53-6.398c0.278-0.413,0.814-6.583,0.625-6.583c-0.144,0-1.407,13.761-0.125,3.5
		c0.046-0.364-0.275,1.617-0.5,2.083c-0.423,0.868,1.751-4.833-2.351,13.069c-0.093,0.406-0.479,1.422-1.013,3.092
		c-0.225,0.785-0.54,1.179-0.936,1.179c-0.451,0-1.101-0.43-1.95-1.291c-0.346-0.343-0.406-0.884-0.177-1.621
		c2.989-10.624,4.566-18.554,4.742-23.797c0.052-1.5-0.096-2.248-0.441-2.248c-0.225,0-0.699,0.418-1.425,1.249
		c-1.331,1.525-2.963,4.218-4.896,8.091c-2.558,5.102-4.536,10.314-5.934,15.633c-0.382,1.522-0.735,2.281-1.062,2.281
		c-0.293,0-0.873-0.504-1.737-1.512c-0.43-0.515-0.578-1.375-0.441-2.579c2-15.608,4.602-28.934,7.812-39.995
		c2.381-8.23,4.527-13.609,6.442-16.144c0.481-0.639,1.091-0.888,1.534-0.74C254.333,240.833,251.758,241.884,252.5,242.666
		C253.362,243.67,251.637,241.666,252.5,242.666"/>
	<path clip-path="url(#XMLID_9_)" fill="none" stroke="#46166B" stroke-width="3.6" d="M252.5,242.666
		c0.224,0.246-0.287,1.76-0.417,1.5c-0.5-1-0.125-2.042,0.25-0.417c0.19,0.826,2.166,0.667,1.583-1.833
		c-0.725-3.111-2.951,1.917-0.875,1.917c1.052,0-0.708,2.371-2.004,5.375c-4.553,10.589-7.927,24.453-10.113,41.586
		c2.816-7.683,6.238-13.372,9.867-17.961c1.066-1.347,4.852,1.326,1.75-1c-0.5-0.375-1.053,0.274,0,0
		c1.028-0.268,2.488,0.985,2.609,1.131c0.448,0.566,0.675,1.549,0.675,2.949c0,0.393-0.02,0.819-0.052,1.285
		c-0.295,4.373-1.172,9.66-2.637,15.866c0.532-1.023,0.375-4.42,1.53-6.398c0.278-0.413,0.814-6.583,0.625-6.583
		c-0.144,0-1.407,13.761-0.125,3.5c0.046-0.364-0.275,1.617-0.5,2.083c-0.423,0.868,1.751-4.833-2.351,13.069
		c-0.093,0.406-0.479,1.422-1.013,3.092c-0.225,0.785-0.54,1.179-0.936,1.179c-0.451,0-1.101-0.43-1.95-1.291
		c-0.346-0.343-0.406-0.884-0.177-1.621c2.989-10.624,4.566-18.554,4.742-23.797c0.052-1.5-0.096-2.248-0.441-2.248
		c-0.225,0-0.699,0.418-1.425,1.249c-1.331,1.525-2.963,4.218-4.896,8.091c-2.558,5.102-4.536,10.314-5.934,15.633
		c-0.382,1.522-0.735,2.281-1.062,2.281c-0.293,0-0.873-0.504-1.737-1.512c-0.43-0.515-0.578-1.375-0.441-2.579
		c2-15.608,4.602-28.934,7.812-39.995c2.381-8.23,4.527-13.609,6.442-16.144c0.481-0.639,1.091-0.888,1.534-0.74
		C254.333,240.833,251.758,241.884,252.5,242.666C253.362,243.67,251.637,241.666,252.5,242.666z"/>
	<path clip-path="url(#XMLID_9_)" fill="#46166B" d="M148.389,381.411c-0.816,0-1.475,0.937-1.475,2.097
		c0,1.158,0.659,2.095,1.475,2.095H422.17c0.817,0,1.474-0.937,1.474-2.095c0-1.16-0.656-2.097-1.474-2.097H148.389z"/>
	<path clip-path="url(#XMLID_9_)" fill="none" stroke="#46166B" stroke-width="3.6" d="M148.389,381.411
		c-0.816,0-1.475,0.937-1.475,2.097c0,1.158,0.659,2.095,1.475,2.095H422.17c0.817,0,1.474-0.937,1.474-2.095
		c0-1.16-0.656-2.097-1.474-2.097H148.389z"/>
	<path clip-path="url(#XMLID_9_)" fill="#46166B" d="M188.761,404.864c-0.283,3.014-0.968,6.267-2.056,9.761
		c-0.986,3.184-2.083,5.907-3.289,8.173c-1.205,2.268-2.174,3.407-2.905,3.421c-0.904,0-2.192-0.799-3.864-2.396
		c-0.128-0.131-0.192-0.279-0.192-0.449c0-0.415,0.169-0.623,0.507-0.623c0.091,0,0.182,0.033,0.274,0.098
		c0.685,0.61,1.444,0.948,2.275,1.014c1.142,0.077,2.604-2.307,4.385-7.151c1.763-4.78,2.786-9.046,3.07-12.8
		c0.091-1.209-0.366-2.105-1.37-2.689c-0.247-0.13-0.453-0.182-0.617-0.156c-1.763,0.352-3.467,1.26-5.112,2.729
		c-0.859,2.909-1.727,6.352-2.603,10.326c-0.96,4.338-1.654,8.092-2.084,11.262c-0.091,0.648-0.283,0.974-0.575,0.974
		c-0.11,0-0.238-0.046-0.384-0.136c-0.475-0.352-0.786-0.637-0.932-0.857c-0.201-0.299-0.301-0.709-0.301-1.229
		c0-1.089,0.123-2.396,0.37-3.916c0.064-0.375,0.159-0.563,0.287-0.563c0.119,0,0.434,0.299,0.946,0.896
		c1.242-6.013,2.421-11.163,3.536-15.45c-2.038,1.818-3.609,3.572-4.715,5.261c-0.255,0.403-0.383,0.87-0.383,1.403
		c0,0.48,0.11,1.025,0.329,1.637c0.219,0.611,0.329,0.961,0.329,1.052c0,0.221-0.106,0.331-0.316,0.331
		c-0.183,0-0.319-0.071-0.411-0.215c-1.142-1.908-1.713-3.228-1.713-3.955c0-0.766,0.366-1.617,1.097-2.552
		c1.543-1.987,3.782-4.183,6.714-6.585c0.485-1.611,0.836-2.416,1.056-2.416c0.164,0,0.502,0.35,1.014,1.052
		c0.502-0.325,1.005-0.649,1.508-0.975c0.419-0.259,0.762-0.39,1.027-0.39c0.439,0,1.028,0.352,1.768,1.052
		c0.037-0.052,0.096-0.077,0.178-0.077c0.512,0,1.293,0.676,2.343,2.025c0.567,0.741,0.85,1.54,0.85,2.396
		C188.802,404.352,188.788,404.591,188.761,404.864"/>
	<path clip-path="url(#XMLID_9_)" fill="none" stroke="#46166B" d="M188.761,404.864c-0.283,3.014-0.968,6.267-2.056,9.761
		c-0.986,3.184-2.083,5.907-3.289,8.173c-1.205,2.268-2.174,3.407-2.905,3.421c-0.904,0-2.192-0.799-3.864-2.396
		c-0.128-0.131-0.192-0.279-0.192-0.449c0-0.415,0.169-0.623,0.507-0.623c0.091,0,0.182,0.033,0.274,0.098
		c0.685,0.61,1.444,0.948,2.275,1.014c1.142,0.077,2.604-2.307,4.385-7.151c1.763-4.78,2.786-9.046,3.07-12.8
		c0.091-1.209-0.366-2.105-1.37-2.689c-0.247-0.13-0.453-0.182-0.617-0.156c-1.763,0.352-3.467,1.26-5.112,2.729
		c-0.859,2.909-1.727,6.352-2.603,10.326c-0.96,4.338-1.654,8.092-2.084,11.262c-0.091,0.648-0.283,0.974-0.575,0.974
		c-0.11,0-0.238-0.046-0.384-0.136c-0.475-0.352-0.786-0.637-0.932-0.857c-0.201-0.299-0.301-0.709-0.301-1.229
		c0-1.089,0.123-2.396,0.37-3.916c0.064-0.375,0.159-0.563,0.287-0.563c0.119,0,0.434,0.299,0.946,0.896
		c1.242-6.013,2.421-11.163,3.536-15.45c-2.038,1.818-3.609,3.572-4.715,5.261c-0.255,0.403-0.383,0.87-0.383,1.403
		c0,0.48,0.11,1.025,0.329,1.637c0.219,0.611,0.329,0.961,0.329,1.052c0,0.221-0.106,0.331-0.316,0.331
		c-0.183,0-0.319-0.071-0.411-0.215c-1.142-1.908-1.713-3.228-1.713-3.955c0-0.766,0.366-1.617,1.097-2.552
		c1.543-1.987,3.782-4.183,6.714-6.585c0.485-1.611,0.836-2.416,1.056-2.416c0.164,0,0.502,0.35,1.014,1.052
		c0.502-0.325,1.005-0.649,1.508-0.975c0.419-0.259,0.762-0.39,1.027-0.39c0.439,0,1.028,0.352,1.768,1.052
		c0.037-0.052,0.096-0.077,0.178-0.077c0.512,0,1.293,0.676,2.343,2.025c0.567,0.741,0.85,1.54,0.85,2.396
		C188.802,404.352,188.788,404.591,188.761,404.864z"/>
	<path clip-path="url(#XMLID_9_)" fill="#46166B" d="M197.189,413.438c-0.018,1.156-0.215,2.688-0.59,4.598
		c-0.593,3.014-1.434,5.352-2.521,7.014c-0.576,0.883-1.215,1.325-1.919,1.325c-0.274,0-0.626-0.085-1.055-0.253
		c-0.859-0.078-1.557-0.461-2.096-1.15c-0.585-0.752-0.859-1.721-0.823-2.902c0.036-1.377,0.37-3.3,1.001-5.768
		c0.694-2.688,1.416-4.623,2.165-5.806c0.356-0.571,0.648-0.857,0.877-0.857c0.31,0,0.813,0.454,1.507,1.364
		c0.192-0.131,0.585-0.371,1.179-0.721c0.301-0.144,0.53-0.215,0.685-0.215c0.356,0,0.754,0.475,1.192,1.422
		C197.074,412.073,197.208,412.723,197.189,413.438 M195.613,414.002c0.063-0.87,0.096-1.422,0.096-1.656
		c0-0.545-0.119-0.818-0.357-0.818c-0.091,0-0.21,0.026-0.356,0.078l-2.124,1.228c-0.247,0.144-0.388,0.214-0.425,0.214
		c-0.073,0-0.146-0.123-0.219-0.369c-0.53,0.922-1.023,2.253-1.48,3.994c-0.357,1.363-0.603,2.584-0.74,3.662
		c-0.101,0.729-0.151,1.391-0.151,1.987c0,2.001,0.434,2.975,1.302,2.923c0.347-0.014,0.722-0.208,1.124-0.584
		c0.767-0.741,1.484-2.222,2.151-4.443C195.073,418.126,195.467,416.055,195.613,414.002"/>
	<path clip-path="url(#XMLID_9_)" fill="none" stroke="#46166B" d="M197.189,413.438c-0.018,1.156-0.215,2.688-0.59,4.598
		c-0.593,3.014-1.434,5.352-2.521,7.014c-0.576,0.883-1.215,1.325-1.919,1.325c-0.274,0-0.626-0.085-1.055-0.253
		c-0.859-0.078-1.557-0.461-2.096-1.15c-0.585-0.752-0.859-1.721-0.823-2.902c0.036-1.377,0.37-3.3,1.001-5.768
		c0.694-2.688,1.416-4.623,2.165-5.806c0.356-0.571,0.648-0.857,0.877-0.857c0.31,0,0.813,0.454,1.507,1.364
		c0.192-0.131,0.585-0.371,1.179-0.721c0.301-0.144,0.53-0.215,0.685-0.215c0.356,0,0.754,0.475,1.192,1.422
		C197.074,412.073,197.208,412.723,197.189,413.438z M195.613,414.002c0.063-0.87,0.096-1.422,0.096-1.656
		c0-0.545-0.119-0.818-0.357-0.818c-0.091,0-0.21,0.026-0.356,0.078l-2.124,1.228c-0.247,0.144-0.388,0.214-0.425,0.214
		c-0.073,0-0.146-0.123-0.219-0.369c-0.53,0.922-1.023,2.253-1.48,3.994c-0.357,1.363-0.603,2.584-0.74,3.662
		c-0.101,0.729-0.151,1.391-0.151,1.987c0,2.001,0.434,2.975,1.302,2.923c0.347-0.014,0.722-0.208,1.124-0.584
		c0.767-0.741,1.484-2.222,2.151-4.443C195.073,418.126,195.467,416.055,195.613,414.002z"/>
	<path clip-path="url(#XMLID_9_)" fill="#46166B" d="M202.026,412.521c-0.219,1.754-0.79,4.67-1.713,8.748
		c0.266-0.338,0.631-0.955,1.097-1.852c0.064-0.116,0.128-0.175,0.192-0.175c0.146,0,0.164,0.184,0.055,0.546
		c-0.046,0.143-0.43,1.032-1.152,2.669c-0.548,1.247-0.95,2.351-1.206,3.312c-0.082,0.299-0.233,0.449-0.452,0.449
		c-0.219,0-0.516-0.15-0.891-0.449c-0.237-0.182-0.356-0.318-0.356-0.408c0-0.078,0.05-0.247,0.151-0.507
		c0.493-1.233,1.041-3.3,1.644-6.196c0.576-2.805,0.9-4.891,0.973-6.254c0.028-0.584-0.014-0.877-0.123-0.877
		c-0.082,0-0.228,0.143-0.438,0.429l-0.85,1.13c-0.302,0.391-0.453,0.41-0.453,0.059c0-0.104,0.042-0.234,0.124-0.39
		c0.429-0.856,0.886-1.669,1.37-2.436c0.147-0.221,0.288-0.331,0.425-0.331c0.146,0,0.361,0.143,0.644,0.429
		c0.42,0.155,0.653,0.253,0.699,0.292c0.21,0.182,0.315,0.52,0.315,1.014C202.081,411.956,202.063,412.223,202.026,412.521
		 M203.959,403.987c0.146,0.155,0.219,0.331,0.219,0.526c0,0.377-0.393,0.961-1.179,1.754c-0.52,0.506-1.023,0.688-1.507,0.545
		c-0.274-0.078-0.512-0.221-0.713-0.428c-0.064-0.078-0.112-0.16-0.143-0.244c-0.032-0.084-0.039-0.152-0.021-0.205
		c0.028-0.051,0.082-0.064,0.164-0.039c0.841-1.039,1.393-1.785,1.659-2.24c0.21-0.338,0.36-0.507,0.452-0.507
		C203.054,403.149,203.411,403.43,203.959,403.987"/>
	<path clip-path="url(#XMLID_9_)" fill="none" stroke="#46166B" d="M202.026,412.521c-0.219,1.754-0.79,4.67-1.713,8.748
		c0.266-0.338,0.631-0.955,1.097-1.852c0.064-0.116,0.128-0.175,0.192-0.175c0.146,0,0.164,0.184,0.055,0.546
		c-0.046,0.143-0.43,1.032-1.152,2.669c-0.548,1.247-0.95,2.351-1.206,3.312c-0.082,0.299-0.233,0.449-0.452,0.449
		c-0.219,0-0.516-0.15-0.891-0.449c-0.237-0.182-0.356-0.318-0.356-0.408c0-0.078,0.05-0.247,0.151-0.507
		c0.493-1.233,1.041-3.3,1.644-6.196c0.576-2.805,0.9-4.891,0.973-6.254c0.028-0.584-0.014-0.877-0.123-0.877
		c-0.082,0-0.228,0.143-0.438,0.429l-0.85,1.13c-0.302,0.391-0.453,0.41-0.453,0.059c0-0.104,0.042-0.234,0.124-0.39
		c0.429-0.856,0.886-1.669,1.37-2.436c0.147-0.221,0.288-0.331,0.425-0.331c0.146,0,0.361,0.143,0.644,0.429
		c0.42,0.155,0.653,0.253,0.699,0.292c0.21,0.182,0.315,0.52,0.315,1.014C202.081,411.956,202.063,412.223,202.026,412.521z
		 M203.959,403.987c0.146,0.155,0.219,0.331,0.219,0.526c0,0.377-0.393,0.961-1.179,1.754c-0.52,0.506-1.023,0.688-1.507,0.545
		c-0.274-0.078-0.512-0.221-0.713-0.428c-0.064-0.078-0.112-0.16-0.143-0.244c-0.032-0.084-0.039-0.152-0.021-0.205
		c0.028-0.051,0.082-0.064,0.164-0.039c0.841-1.039,1.393-1.785,1.659-2.24c0.21-0.338,0.36-0.507,0.452-0.507
		C203.054,403.149,203.411,403.43,203.959,403.987z"/>
	<path clip-path="url(#XMLID_9_)" fill="#46166B" d="M213.895,418.834c-0.548,1.182-1.261,2.896-2.138,5.143
		c-0.164,0.586-0.324,1.17-0.48,1.754c-0.128,0.402-0.297,0.604-0.506,0.604c-0.165,0-0.407-0.097-0.727-0.292
		c-0.356-0.208-0.534-0.416-0.534-0.623c0-0.092,0.059-0.293,0.178-0.604c0.594-1.715,1.124-3.851,1.589-6.41
		c0.503-2.688,0.718-4.741,0.644-6.157c-0.018-0.57-0.109-0.857-0.273-0.857c-0.119,0-0.297,0.163-0.535,0.488
		c-2.302,3.195-4.294,7.469-5.975,12.819c-0.21,0.663-0.457,0.993-0.74,0.993c-0.201,0-0.534-0.162-1-0.486
		c-0.183-0.117-0.279-0.227-0.288-0.332c0-0.051,0.05-0.232,0.151-0.545c0.529-1.649,1.055-3.74,1.575-6.273
		c0.558-2.74,0.873-4.877,0.946-6.411c0.018-0.467,0.009-0.7-0.027-0.7c-0.009,0-0.137,0.175-0.384,0.525
		c-0.247,0.352-0.589,0.806-1.028,1.364c-0.082,0.116-0.174,0.175-0.274,0.175c-0.128,0-0.192-0.07-0.192-0.214
		c0-0.104,0.046-0.221,0.137-0.351c0.393-0.715,0.909-1.604,1.549-2.67c0.137-0.221,0.278-0.33,0.425-0.33
		c0.219,0,0.411,0.227,0.576,0.682c0.739,0.313,1.086,0.792,1.041,1.441c-0.101,1.43-0.617,4.008-1.549,7.734
		c0.612-1.675,1.503-3.549,2.672-5.62c1.17-2.071,2.038-3.296,2.604-3.673c0.283-0.182,0.484-0.273,0.603-0.273
		s0.311,0.144,0.576,0.43c0.758,0.377,1.133,1,1.124,1.87c0,0.909-0.156,2.37-0.467,4.384c-0.246,1.662-0.475,2.955-0.685,3.877
		c0.266-0.48,0.603-1.104,1.015-1.87c0.073-0.13,0.146-0.194,0.219-0.194c0.137,0,0.205,0.123,0.205,0.369
		C213.921,418.678,213.913,418.756,213.895,418.834"/>
	<path clip-path="url(#XMLID_9_)" fill="none" stroke="#46166B" d="M213.895,418.834c-0.548,1.182-1.261,2.896-2.138,5.143
		c-0.164,0.586-0.324,1.17-0.48,1.754c-0.128,0.402-0.297,0.604-0.506,0.604c-0.165,0-0.407-0.097-0.727-0.292
		c-0.356-0.208-0.534-0.416-0.534-0.623c0-0.092,0.059-0.293,0.178-0.604c0.594-1.715,1.124-3.851,1.589-6.41
		c0.503-2.688,0.718-4.741,0.644-6.157c-0.018-0.57-0.109-0.857-0.273-0.857c-0.119,0-0.297,0.163-0.535,0.488
		c-2.302,3.195-4.294,7.469-5.975,12.819c-0.21,0.663-0.457,0.993-0.74,0.993c-0.201,0-0.534-0.162-1-0.486
		c-0.183-0.117-0.279-0.227-0.288-0.332c0-0.051,0.05-0.232,0.151-0.545c0.529-1.649,1.055-3.74,1.575-6.273
		c0.558-2.74,0.873-4.877,0.946-6.411c0.018-0.467,0.009-0.7-0.027-0.7c-0.009,0-0.137,0.175-0.384,0.525
		c-0.247,0.352-0.589,0.806-1.028,1.364c-0.082,0.116-0.174,0.175-0.274,0.175c-0.128,0-0.192-0.07-0.192-0.214
		c0-0.104,0.046-0.221,0.137-0.351c0.393-0.715,0.909-1.604,1.549-2.67c0.137-0.221,0.278-0.33,0.425-0.33
		c0.219,0,0.411,0.227,0.576,0.682c0.739,0.313,1.086,0.792,1.041,1.441c-0.101,1.43-0.617,4.008-1.549,7.734
		c0.612-1.675,1.503-3.549,2.672-5.62c1.17-2.071,2.038-3.296,2.604-3.673c0.283-0.182,0.484-0.273,0.603-0.273
		s0.311,0.144,0.576,0.43c0.758,0.377,1.133,1,1.124,1.87c0,0.909-0.156,2.37-0.467,4.384c-0.246,1.662-0.475,2.955-0.685,3.877
		c0.266-0.48,0.603-1.104,1.015-1.87c0.073-0.13,0.146-0.194,0.219-0.194c0.137,0,0.205,0.123,0.205,0.369
		C213.921,418.678,213.913,418.756,213.895,418.834z"/>
	<path clip-path="url(#XMLID_9_)" fill="#46166B" d="M224.913,411.995c-2.805,20.691-6.45,31.03-10.936,31.019
		c-1.617,0-3.366-1.268-5.249-3.8c-0.173-0.233-0.26-0.475-0.26-0.722c0-0.377,0.124-0.564,0.37-0.564
		c0.128,0,0.252,0.071,0.37,0.215c1.489,1.805,2.823,2.706,4.002,2.706c3.764,0,6.902-7.856,9.414-23.573
		c-1.525,3.729-2.855,6.396-3.987,8.008c-0.457,0.662-0.864,0.993-1.22,0.993c-0.329,0-0.735-0.261-1.22-0.779
		c-0.868-0.61-1.283-1.61-1.247-3.001c0.055-1.701,0.516-3.813,1.384-6.332c0.85-2.455,1.736-4.305,2.659-5.553
		c0.521-0.701,0.991-1.053,1.412-1.053c0.31,0,0.653,0.195,1.027,0.586c0.055,0.064,0.42,0.525,1.097,1.383
		c0.136,0.169,0.205,0.338,0.205,0.507c0,0.233-0.11,0.351-0.329,0.351c-0.137,0-0.292-0.059-0.466-0.176
		c-0.274-0.207-0.544-0.311-0.808-0.311c-0.384,0-0.731,0.194-1.042,0.584c-0.667,0.831-1.365,2.182-2.096,4.053
		c-0.795,2.053-1.284,3.922-1.467,5.611c-0.046,0.456-0.069,0.851-0.069,1.188c0,0.962,0.183,1.442,0.549,1.442
		c0.246,0,0.507-0.174,0.781-0.526c1.087-1.324,2.165-3.24,3.234-5.748c0.996-2.311,1.704-4.436,2.124-6.371
		c0.156-0.688,0.233-1.344,0.233-1.967c0-0.494,0.082-0.74,0.247-0.74c0.173,0,0.512,0.272,1.014,0.818
		C224.939,410.566,225.032,411.15,224.913,411.995"/>
	<path clip-path="url(#XMLID_9_)" fill="none" stroke="#46166B" d="M224.913,411.995c-2.805,20.691-6.45,31.03-10.936,31.019
		c-1.617,0-3.366-1.268-5.249-3.8c-0.173-0.233-0.26-0.475-0.26-0.722c0-0.377,0.124-0.564,0.37-0.564
		c0.128,0,0.252,0.071,0.37,0.215c1.489,1.805,2.823,2.706,4.002,2.706c3.764,0,6.902-7.856,9.414-23.573
		c-1.525,3.729-2.855,6.396-3.987,8.008c-0.457,0.662-0.864,0.993-1.22,0.993c-0.329,0-0.735-0.261-1.22-0.779
		c-0.868-0.61-1.283-1.61-1.247-3.001c0.055-1.701,0.516-3.813,1.384-6.332c0.85-2.455,1.736-4.305,2.659-5.553
		c0.521-0.701,0.991-1.053,1.412-1.053c0.31,0,0.653,0.195,1.027,0.586c0.055,0.064,0.42,0.525,1.097,1.383
		c0.136,0.169,0.205,0.338,0.205,0.507c0,0.233-0.11,0.351-0.329,0.351c-0.137,0-0.292-0.059-0.466-0.176
		c-0.274-0.207-0.544-0.311-0.808-0.311c-0.384,0-0.731,0.194-1.042,0.584c-0.667,0.831-1.365,2.182-2.096,4.053
		c-0.795,2.053-1.284,3.922-1.467,5.611c-0.046,0.456-0.069,0.851-0.069,1.188c0,0.962,0.183,1.442,0.549,1.442
		c0.246,0,0.507-0.174,0.781-0.526c1.087-1.324,2.165-3.24,3.234-5.748c0.996-2.311,1.704-4.436,2.124-6.371
		c0.156-0.688,0.233-1.344,0.233-1.967c0-0.494,0.082-0.74,0.247-0.74c0.173,0,0.512,0.272,1.014,0.818
		C224.939,410.566,225.032,411.15,224.913,411.995z"/>
	<path clip-path="url(#XMLID_9_)" fill="#46166B" d="M245.113,403.306c-0.438,2.532-0.946,4.487-1.521,5.864
		c-0.265,0.65-0.526,0.975-0.781,0.975c-0.101,0-0.224-0.033-0.37-0.098c-0.695-0.299-1.042-0.656-1.042-1.072
		c0-0.207,0.096-0.344,0.288-0.408c0.803-1.715,1.279-3.773,1.425-6.177c-0.502-0.636-0.978-0.954-1.425-0.954
		c-0.95-0.014-2.074,1.176-3.371,3.564c-1.197,2.234-2.234,4.885-3.111,7.949c-0.914,3.195-1.352,5.859-1.316,7.988
		c0.009,1.234,0.269,2.156,0.781,2.768c0.375,0.441,0.799,0.663,1.275,0.663c0.274,0,0.589-0.079,0.945-0.235
		c0.877-0.389,1.892-1.143,3.043-2.26c1.096-1.064,2.01-2.149,2.741-3.254c0.228-0.35,0.365-0.799,0.411-1.344
		c0.027-0.285,0.118-0.429,0.274-0.429c0.128,0,0.224,0.116,0.288,0.351c0.328,1.17,0.493,1.98,0.493,2.436
		c0,0.429-0.124,0.831-0.37,1.208c-0.165,0.233-0.553,0.682-1.165,1.345c-1.937,2.064-3.6,3.351-4.988,3.857
		c-0.43,0.156-0.822,0.233-1.179,0.233c-0.749,0-1.32-0.356-1.713-1.071c-1.781-0.948-2.672-2.396-2.672-4.345
		c0-3.144,0.58-6.521,1.74-10.132c0.996-3.13,2.225-5.884,3.687-8.261c1.406-2.272,2.548-3.455,3.425-3.546
		c0.32-0.039,0.69,0.149,1.111,0.564c0.055,0.053,0.479,0.539,1.274,1.461c0.046-0.519,0.169-0.779,0.37-0.779
		c0.22,0,0.59,0.287,1.11,0.857c0.329,0.364,0.493,0.715,0.493,1.053C245.263,402.299,245.213,402.708,245.113,403.306"/>
	<path clip-path="url(#XMLID_9_)" fill="none" stroke="#46166B" d="M245.113,403.306c-0.438,2.532-0.946,4.487-1.521,5.864
		c-0.265,0.65-0.526,0.975-0.781,0.975c-0.101,0-0.224-0.033-0.37-0.098c-0.695-0.299-1.042-0.656-1.042-1.072
		c0-0.207,0.096-0.344,0.288-0.408c0.803-1.715,1.279-3.773,1.425-6.177c-0.502-0.636-0.978-0.954-1.425-0.954
		c-0.95-0.014-2.074,1.176-3.371,3.564c-1.197,2.234-2.234,4.885-3.111,7.949c-0.914,3.195-1.352,5.859-1.316,7.988
		c0.009,1.234,0.269,2.156,0.781,2.768c0.375,0.441,0.799,0.663,1.275,0.663c0.274,0,0.589-0.079,0.945-0.235
		c0.877-0.389,1.892-1.143,3.043-2.26c1.096-1.064,2.01-2.149,2.741-3.254c0.228-0.35,0.365-0.799,0.411-1.344
		c0.027-0.285,0.118-0.429,0.274-0.429c0.128,0,0.224,0.116,0.288,0.351c0.328,1.17,0.493,1.98,0.493,2.436
		c0,0.429-0.124,0.831-0.37,1.208c-0.165,0.233-0.553,0.682-1.165,1.345c-1.937,2.064-3.6,3.351-4.988,3.857
		c-0.43,0.156-0.822,0.233-1.179,0.233c-0.749,0-1.32-0.356-1.713-1.071c-1.781-0.948-2.672-2.396-2.672-4.345
		c0-3.144,0.58-6.521,1.74-10.132c0.996-3.13,2.225-5.884,3.687-8.261c1.406-2.272,2.548-3.455,3.425-3.546
		c0.32-0.039,0.69,0.149,1.111,0.564c0.055,0.053,0.479,0.539,1.274,1.461c0.046-0.519,0.169-0.779,0.37-0.779
		c0.22,0,0.59,0.287,1.11,0.857c0.329,0.364,0.493,0.715,0.493,1.053C245.263,402.299,245.213,402.708,245.113,403.306z"/>
	<path clip-path="url(#XMLID_9_)" fill="#46166B" d="M256.336,395.532c0.119,0.13,0.179,0.272,0.179,0.428
		c0,0.234-0.106,0.351-0.316,0.351c-0.092,0-0.187-0.039-0.288-0.117c-0.42-0.298-0.735-0.448-0.945-0.448
		c-0.558,0-1.179,0.792-1.864,2.377c-2.412,5.585-4.198,12.898-5.358,21.938c1.489-4.065,3.193-7.313,5.112-9.742
		c0.411-0.519,0.712-0.779,0.904-0.779c0.055,0,0.283,0.183,0.685,0.546c0.484,0.285,0.758,0.467,0.823,0.545
		c0.237,0.299,0.356,0.818,0.356,1.559c0,0.209-0.01,0.436-0.028,0.683c-0.156,2.312-0.621,5.111-1.398,8.397
		c0.283-0.546,0.731-1.345,1.343-2.396c0.147-0.221,0.27-0.332,0.37-0.332c0.101,0,0.152,0.086,0.152,0.254
		c0,0.194-0.06,0.416-0.179,0.662c-0.53,1.092-1.234,2.689-2.111,4.793c-0.073,0.208-0.251,0.754-0.534,1.637
		c-0.119,0.416-0.283,0.623-0.493,0.623c-0.238,0-0.58-0.227-1.028-0.682c-0.183-0.182-0.215-0.467-0.096-0.857
		c1.571-5.611,2.403-9.8,2.494-12.566c0.028-0.792-0.05-1.188-0.233-1.188c-0.119,0-0.37,0.222-0.754,0.663
		c-0.703,0.805-1.566,2.233-2.589,4.285c-1.353,2.703-2.399,5.463-3.139,8.281c-0.201,0.805-0.388,1.208-0.562,1.208
		c-0.155,0-0.461-0.267-0.918-0.799c-0.229-0.272-0.306-0.728-0.233-1.365c1.06-8.246,2.439-15.294,4.139-21.139
		c1.26-4.351,2.398-7.196,3.412-8.534c0.256-0.337,0.507-0.506,0.754-0.506c0.256,0,0.58,0.208,0.973,0.623
		C255.423,394.467,255.879,394.999,256.336,395.532"/>
	<path clip-path="url(#XMLID_9_)" fill="none" stroke="#46166B" d="M256.336,395.532c0.119,0.13,0.179,0.272,0.179,0.428
		c0,0.234-0.106,0.351-0.316,0.351c-0.092,0-0.187-0.039-0.288-0.117c-0.42-0.298-0.735-0.448-0.945-0.448
		c-0.558,0-1.179,0.792-1.864,2.377c-2.412,5.585-4.198,12.898-5.358,21.938c1.489-4.065,3.193-7.313,5.112-9.742
		c0.411-0.519,0.712-0.779,0.904-0.779c0.055,0,0.283,0.183,0.685,0.546c0.484,0.285,0.758,0.467,0.823,0.545
		c0.237,0.299,0.356,0.818,0.356,1.559c0,0.209-0.01,0.436-0.028,0.683c-0.156,2.312-0.621,5.111-1.398,8.397
		c0.283-0.546,0.731-1.345,1.343-2.396c0.147-0.221,0.27-0.332,0.37-0.332c0.101,0,0.152,0.086,0.152,0.254
		c0,0.194-0.06,0.416-0.179,0.662c-0.53,1.092-1.234,2.689-2.111,4.793c-0.073,0.208-0.251,0.754-0.534,1.637
		c-0.119,0.416-0.283,0.623-0.493,0.623c-0.238,0-0.58-0.227-1.028-0.682c-0.183-0.182-0.215-0.467-0.096-0.857
		c1.571-5.611,2.403-9.8,2.494-12.566c0.028-0.792-0.05-1.188-0.233-1.188c-0.119,0-0.37,0.222-0.754,0.663
		c-0.703,0.805-1.566,2.233-2.589,4.285c-1.353,2.703-2.399,5.463-3.139,8.281c-0.201,0.805-0.388,1.208-0.562,1.208
		c-0.155,0-0.461-0.267-0.918-0.799c-0.229-0.272-0.306-0.728-0.233-1.365c1.06-8.246,2.439-15.294,4.139-21.139
		c1.26-4.351,2.398-7.196,3.412-8.534c0.256-0.337,0.507-0.506,0.754-0.506c0.256,0,0.58,0.208,0.973,0.623
		C255.423,394.467,255.879,394.999,256.336,395.532z"/>
	<path clip-path="url(#XMLID_9_)" fill="#46166B" d="M267.588,411.645c-1.216,3.209-2.125,6.975-2.728,11.301
		c0.256-0.637,0.567-1.449,0.932-2.436c0.046-0.182,0.119-0.273,0.22-0.273c0.137,0,0.205,0.124,0.205,0.371
		c0,0.077-0.014,0.162-0.041,0.253c-0.585,1.896-0.969,3.358-1.152,4.384c-0.109,0.649-0.255,0.975-0.438,0.975
		s-0.539-0.254-1.068-0.759c-0.283-0.287-0.38-0.795-0.288-1.521c0.383-2.831,0.844-5.293,1.383-7.384
		c-1.762,4.078-3.243,7.086-4.439,9.021c-0.266,0.429-0.553,0.644-0.863,0.644c-0.256,0-0.558-0.15-0.906-0.449
		c-0.63-0.155-0.945-0.623-0.945-1.402c0-0.143,0.009-0.299,0.027-0.468c0.229-3.714,0.705-6.8,1.426-9.255
		c-0.156,0.209-0.389,0.514-0.699,0.916c-0.119,0.143-0.21,0.182-0.274,0.117c-0.074-0.078-0.06-0.228,0.041-0.448
		c0.494-1.026,0.786-1.702,0.878-2.026c0.282-1.014,0.58-1.799,0.89-2.357c0.164-0.285,0.338-0.43,0.521-0.43
		c0.247,0,0.607,0.209,1.083,0.624c0.127,0.117,0.191,0.234,0.191,0.351l-0.302,0.644c-0.457,0.987-0.94,2.728-1.452,5.222
		c-0.557,2.701-0.841,4.903-0.849,6.605c0,0.559,0.082,0.837,0.246,0.837c0.146,0,0.383-0.239,0.712-0.721
		c0.704-1.065,1.722-3.079,3.056-6.04c1.179-2.611,1.892-4.313,2.139-5.104c0.411-1.326,0.744-2.105,1-2.339
		c0.164-0.156,0.31-0.233,0.438-0.233s0.375,0.136,0.741,0.408c0.365,0.273,0.547,0.475,0.547,0.604
		c0,0.038-0.032,0.091-0.095,0.155C267.66,411.495,267.615,411.566,267.588,411.645"/>
	<path clip-path="url(#XMLID_9_)" fill="none" stroke="#46166B" d="M267.588,411.645c-1.216,3.209-2.125,6.975-2.728,11.301
		c0.256-0.637,0.567-1.449,0.932-2.436c0.046-0.182,0.119-0.273,0.22-0.273c0.137,0,0.205,0.124,0.205,0.371
		c0,0.077-0.014,0.162-0.041,0.253c-0.585,1.896-0.969,3.358-1.152,4.384c-0.109,0.649-0.255,0.975-0.438,0.975
		s-0.539-0.254-1.068-0.759c-0.283-0.287-0.38-0.795-0.288-1.521c0.383-2.831,0.844-5.293,1.383-7.384
		c-1.762,4.078-3.243,7.086-4.439,9.021c-0.266,0.429-0.553,0.644-0.863,0.644c-0.256,0-0.558-0.15-0.906-0.449
		c-0.63-0.155-0.945-0.623-0.945-1.402c0-0.143,0.009-0.299,0.027-0.468c0.229-3.714,0.705-6.8,1.426-9.255
		c-0.156,0.209-0.389,0.514-0.699,0.916c-0.119,0.143-0.21,0.182-0.274,0.117c-0.074-0.078-0.06-0.228,0.041-0.448
		c0.494-1.026,0.786-1.702,0.878-2.026c0.282-1.014,0.58-1.799,0.89-2.357c0.164-0.285,0.338-0.43,0.521-0.43
		c0.247,0,0.607,0.209,1.083,0.624c0.127,0.117,0.191,0.234,0.191,0.351l-0.302,0.644c-0.457,0.987-0.94,2.728-1.452,5.222
		c-0.557,2.701-0.841,4.903-0.849,6.605c0,0.559,0.082,0.837,0.246,0.837c0.146,0,0.383-0.239,0.712-0.721
		c0.704-1.065,1.722-3.079,3.056-6.04c1.179-2.611,1.892-4.313,2.139-5.104c0.411-1.326,0.744-2.105,1-2.339
		c0.164-0.156,0.31-0.233,0.438-0.233s0.375,0.136,0.741,0.408c0.365,0.273,0.547,0.475,0.547,0.604
		c0,0.038-0.032,0.091-0.095,0.155C267.66,411.495,267.615,411.566,267.588,411.645z"/>
	<path clip-path="url(#XMLID_9_)" fill="#46166B" d="M276.934,411.118c0,1.702-0.16,3.325-0.479,4.871
		c-0.101,0.468-0.238,0.702-0.412,0.702c-0.128,0-0.411-0.26-0.849-0.78c-0.219-0.259-0.275-0.63-0.164-1.11
		c0.255-1.182,0.383-2.13,0.383-2.845c0-0.247-0.037-0.37-0.11-0.37c-0.109,0-0.287,0.234-0.534,0.701
		c-1.9,3.521-3.321,7.469-4.262,11.846c-0.302,1.391-0.557,2.086-0.767,2.086c-0.082,0-0.444-0.229-1.083-0.683
		c-0.311-0.221-0.416-0.649-0.315-1.286c0.721-4.494,1.498-8.287,2.329-11.378c-0.676,1.013-1.105,1.708-1.288,2.085
		c-0.073,0.155-0.174,0.233-0.302,0.233c-0.155,0-0.232-0.097-0.232-0.292c0-0.117,0.036-0.247,0.109-0.391
		c0.448-0.766,1.046-1.935,1.795-3.506c0.229-0.571,0.457-0.857,0.686-0.857c0.164,0,0.498,0.182,1,0.545
		c0.283,0.208,0.329,0.487,0.138,0.838c-0.202,0.377-0.58,1.709-1.138,3.994c-0.53,2.221-0.896,3.962-1.097,5.222
		c1.243-3.936,2.654-7.41,4.235-10.424c0.301-0.571,0.543-0.856,0.726-0.856c0.165,0,0.389,0.155,0.672,0.468
		c0.384,0.064,0.626,0.149,0.727,0.253C276.856,410.339,276.934,410.65,276.934,411.118"/>
	<path clip-path="url(#XMLID_9_)" fill="none" stroke="#46166B" d="M276.934,411.118c0,1.702-0.16,3.325-0.479,4.871
		c-0.101,0.468-0.238,0.702-0.412,0.702c-0.128,0-0.411-0.26-0.849-0.78c-0.219-0.259-0.275-0.63-0.164-1.11
		c0.255-1.182,0.383-2.13,0.383-2.845c0-0.247-0.037-0.37-0.11-0.37c-0.109,0-0.287,0.234-0.534,0.701
		c-1.9,3.521-3.321,7.469-4.262,11.846c-0.302,1.391-0.557,2.086-0.767,2.086c-0.082,0-0.444-0.229-1.083-0.683
		c-0.311-0.221-0.416-0.649-0.315-1.286c0.721-4.494,1.498-8.287,2.329-11.378c-0.676,1.013-1.105,1.708-1.288,2.085
		c-0.073,0.155-0.174,0.233-0.302,0.233c-0.155,0-0.232-0.097-0.232-0.292c0-0.117,0.036-0.247,0.109-0.391
		c0.448-0.766,1.046-1.935,1.795-3.506c0.229-0.571,0.457-0.857,0.686-0.857c0.164,0,0.498,0.182,1,0.545
		c0.283,0.208,0.329,0.487,0.138,0.838c-0.202,0.377-0.58,1.709-1.138,3.994c-0.53,2.221-0.896,3.962-1.097,5.222
		c1.243-3.936,2.654-7.41,4.235-10.424c0.301-0.571,0.543-0.856,0.726-0.856c0.165,0,0.389,0.155,0.672,0.468
		c0.384,0.064,0.626,0.149,0.727,0.253C276.856,410.339,276.934,410.65,276.934,411.118z"/>
	<path clip-path="url(#XMLID_9_)" fill="#46166B" d="M284.539,411.41c0,2.014-0.196,3.638-0.589,4.871
		c-0.164,0.507-0.42,0.623-0.768,0.352c-0.511-0.402-0.767-0.734-0.767-0.994c0-0.117,0.059-0.24,0.179-0.37
		c0.31-1.247,0.452-2.216,0.424-2.903c-0.018-0.584-0.224-0.877-0.617-0.877c-0.046,0-0.114-0.016-0.205-0.049
		c-0.092-0.031-0.165-0.049-0.22-0.049c-0.319,0-0.712,0.43-1.178,1.286c-0.512,0.962-1,2.3-1.466,4.015
		c-0.384,1.415-0.64,2.629-0.768,3.643c-0.1,0.728-0.15,1.391-0.15,1.987c0,1.987,0.442,2.962,1.329,2.923
		c0.776-0.025,1.914-1.409,3.412-4.15c0.147-0.245,0.279-0.37,0.398-0.37c0.118,0,0.177,0.104,0.177,0.312
		c0,0.104-0.022,0.234-0.068,0.391c-0.484,1.688-1.119,3.176-1.904,4.461c-0.193,0.324-0.531,0.487-1.015,0.487
		c-0.292,0-0.648-0.085-1.068-0.253c-0.841-0.078-1.513-0.461-2.015-1.151c-0.539-0.739-0.791-1.706-0.754-2.901
		c0.036-1.377,0.374-3.286,1.014-5.729c0.685-2.649,1.402-4.572,2.152-5.768c0.347-0.545,0.639-0.818,0.877-0.818
		c0.237,0,0.703,0.287,1.398,0.857c0.375-0.194,0.744-0.292,1.11-0.292C284.179,410.319,284.539,410.684,284.539,411.41"/>
	<path clip-path="url(#XMLID_9_)" fill="none" stroke="#46166B" d="M284.539,411.41c0,2.014-0.196,3.638-0.589,4.871
		c-0.164,0.507-0.42,0.623-0.768,0.352c-0.511-0.402-0.767-0.734-0.767-0.994c0-0.117,0.059-0.24,0.179-0.37
		c0.31-1.247,0.452-2.216,0.424-2.903c-0.018-0.584-0.224-0.877-0.617-0.877c-0.046,0-0.114-0.016-0.205-0.049
		c-0.092-0.031-0.165-0.049-0.22-0.049c-0.319,0-0.712,0.43-1.178,1.286c-0.512,0.962-1,2.3-1.466,4.015
		c-0.384,1.415-0.64,2.629-0.768,3.643c-0.1,0.728-0.15,1.391-0.15,1.987c0,1.987,0.442,2.962,1.329,2.923
		c0.776-0.025,1.914-1.409,3.412-4.15c0.147-0.245,0.279-0.37,0.398-0.37c0.118,0,0.177,0.104,0.177,0.312
		c0,0.104-0.022,0.234-0.068,0.391c-0.484,1.688-1.119,3.176-1.904,4.461c-0.193,0.324-0.531,0.487-1.015,0.487
		c-0.292,0-0.648-0.085-1.068-0.253c-0.841-0.078-1.513-0.461-2.015-1.151c-0.539-0.739-0.791-1.706-0.754-2.901
		c0.036-1.377,0.374-3.286,1.014-5.729c0.685-2.649,1.402-4.572,2.152-5.768c0.347-0.545,0.639-0.818,0.877-0.818
		c0.237,0,0.703,0.287,1.398,0.857c0.375-0.194,0.744-0.292,1.11-0.292C284.179,410.319,284.539,410.684,284.539,411.41z"/>
	<path clip-path="url(#XMLID_9_)" fill="#46166B" d="M296.271,395.532c0.118,0.13,0.178,0.272,0.178,0.428
		c0,0.234-0.105,0.351-0.316,0.351c-0.09,0-0.186-0.039-0.287-0.117c-0.421-0.298-0.735-0.448-0.946-0.448
		c-0.557,0-1.178,0.792-1.863,2.377c-2.412,5.585-4.199,12.898-5.359,21.938c1.49-4.065,3.194-7.313,5.112-9.742
		c0.411-0.519,0.713-0.779,0.905-0.779c0.055,0,0.282,0.183,0.684,0.546c0.485,0.285,0.759,0.467,0.823,0.545
		c0.237,0.299,0.356,0.818,0.356,1.559c0,0.209-0.009,0.436-0.027,0.683c-0.155,2.312-0.621,5.111-1.398,8.397
		c0.283-0.546,0.731-1.345,1.343-2.396c0.146-0.221,0.27-0.332,0.37-0.332c0.101,0,0.151,0.086,0.151,0.254
		c0,0.194-0.06,0.416-0.178,0.662c-0.53,1.092-1.233,2.689-2.11,4.793c-0.074,0.208-0.252,0.754-0.536,1.637
		c-0.118,0.416-0.283,0.623-0.493,0.623c-0.237,0-0.58-0.227-1.027-0.682c-0.184-0.182-0.215-0.467-0.097-0.857
		c1.572-5.611,2.404-9.8,2.494-12.566c0.028-0.792-0.049-1.188-0.232-1.188c-0.119,0-0.37,0.222-0.754,0.663
		c-0.703,0.805-1.567,2.233-2.59,4.285c-1.352,2.703-2.398,5.463-3.138,8.281c-0.202,0.805-0.389,1.208-0.562,1.208
		c-0.155,0-0.462-0.267-0.918-0.799c-0.228-0.272-0.307-0.728-0.233-1.365c1.059-8.246,2.439-15.294,4.138-21.139
		c1.261-4.351,2.399-7.196,3.412-8.534c0.256-0.337,0.508-0.506,0.754-0.506c0.256,0,0.58,0.208,0.973,0.623
		C295.356,394.467,295.813,394.999,296.271,395.532"/>
	<path clip-path="url(#XMLID_9_)" fill="none" stroke="#46166B" d="M296.271,395.532c0.118,0.13,0.178,0.272,0.178,0.428
		c0,0.234-0.105,0.351-0.316,0.351c-0.09,0-0.186-0.039-0.287-0.117c-0.421-0.298-0.735-0.448-0.946-0.448
		c-0.557,0-1.178,0.792-1.863,2.377c-2.412,5.585-4.199,12.898-5.359,21.938c1.49-4.065,3.194-7.313,5.112-9.742
		c0.411-0.519,0.713-0.779,0.905-0.779c0.055,0,0.282,0.183,0.684,0.546c0.485,0.285,0.759,0.467,0.823,0.545
		c0.237,0.299,0.356,0.818,0.356,1.559c0,0.209-0.009,0.436-0.027,0.683c-0.155,2.312-0.621,5.111-1.398,8.397
		c0.283-0.546,0.731-1.345,1.343-2.396c0.146-0.221,0.27-0.332,0.37-0.332c0.101,0,0.151,0.086,0.151,0.254
		c0,0.194-0.06,0.416-0.178,0.662c-0.53,1.092-1.233,2.689-2.11,4.793c-0.074,0.208-0.252,0.754-0.536,1.637
		c-0.118,0.416-0.283,0.623-0.493,0.623c-0.237,0-0.58-0.227-1.027-0.682c-0.184-0.182-0.215-0.467-0.097-0.857
		c1.572-5.611,2.404-9.8,2.494-12.566c0.028-0.792-0.049-1.188-0.232-1.188c-0.119,0-0.37,0.222-0.754,0.663
		c-0.703,0.805-1.567,2.233-2.59,4.285c-1.352,2.703-2.398,5.463-3.138,8.281c-0.202,0.805-0.389,1.208-0.562,1.208
		c-0.155,0-0.462-0.267-0.918-0.799c-0.228-0.272-0.307-0.728-0.233-1.365c1.059-8.246,2.439-15.294,4.138-21.139
		c1.261-4.351,2.399-7.196,3.412-8.534c0.256-0.337,0.508-0.506,0.754-0.506c0.256,0,0.58,0.208,0.973,0.623
		C295.356,394.467,295.813,394.999,296.271,395.532z"/>
	<path clip-path="url(#XMLID_9_)" fill="#46166B" d="M320.458,404.864c-0.283,3.014-0.969,6.267-2.056,9.761
		c-0.987,3.184-2.083,5.907-3.289,8.173c-1.206,2.268-2.175,3.407-2.905,3.421c-0.904,0-2.193-0.799-3.865-2.396
		c-0.128-0.131-0.191-0.279-0.191-0.449c0-0.415,0.169-0.623,0.507-0.623c0.092,0,0.183,0.033,0.274,0.098
		c0.685,0.61,1.443,0.948,2.274,1.014c1.143,0.077,2.604-2.307,4.386-7.151c1.763-4.78,2.786-9.046,3.069-12.8
		c0.092-1.209-0.365-2.105-1.37-2.689c-0.247-0.13-0.452-0.182-0.617-0.156c-1.763,0.352-3.467,1.26-5.111,2.729
		c-0.858,2.909-1.727,6.352-2.604,10.326c-0.959,4.338-1.654,8.092-2.083,11.262c-0.092,0.648-0.283,0.974-0.576,0.974
		c-0.11,0-0.238-0.046-0.383-0.136c-0.476-0.352-0.786-0.637-0.933-0.857c-0.201-0.299-0.3-0.709-0.3-1.229
		c0-1.089,0.123-2.396,0.369-3.916c0.064-0.375,0.16-0.563,0.288-0.563c0.119,0,0.433,0.299,0.945,0.896
		c1.243-6.013,2.421-11.163,3.536-15.45c-2.037,1.818-3.609,3.572-4.714,5.261c-0.256,0.403-0.383,0.87-0.383,1.403
		c0,0.48,0.109,1.025,0.328,1.637c0.219,0.611,0.329,0.961,0.329,1.052c0,0.221-0.105,0.331-0.316,0.331
		c-0.182,0-0.319-0.071-0.41-0.215c-1.142-1.908-1.714-3.228-1.714-3.955c0-0.766,0.366-1.617,1.097-2.552
		c1.544-1.987,3.782-4.183,6.715-6.585c0.484-1.611,0.836-2.416,1.055-2.416c0.165,0,0.503,0.35,1.015,1.052
		c0.503-0.325,1.005-0.649,1.508-0.975c0.42-0.259,0.763-0.39,1.027-0.39c0.438,0,1.028,0.352,1.769,1.052
		c0.036-0.052,0.096-0.077,0.178-0.077c0.512,0,1.293,0.676,2.344,2.025c0.566,0.741,0.85,1.54,0.85,2.396
		C320.499,404.352,320.485,404.591,320.458,404.864"/>
	<path clip-path="url(#XMLID_9_)" fill="none" stroke="#46166B" d="M320.458,404.864c-0.283,3.014-0.969,6.267-2.056,9.761
		c-0.987,3.184-2.083,5.907-3.289,8.173c-1.206,2.268-2.175,3.407-2.905,3.421c-0.904,0-2.193-0.799-3.865-2.396
		c-0.128-0.131-0.191-0.279-0.191-0.449c0-0.415,0.169-0.623,0.507-0.623c0.092,0,0.183,0.033,0.274,0.098
		c0.685,0.61,1.443,0.948,2.274,1.014c1.143,0.077,2.604-2.307,4.386-7.151c1.763-4.78,2.786-9.046,3.069-12.8
		c0.092-1.209-0.365-2.105-1.37-2.689c-0.247-0.13-0.452-0.182-0.617-0.156c-1.763,0.352-3.467,1.26-5.111,2.729
		c-0.858,2.909-1.727,6.352-2.604,10.326c-0.959,4.338-1.654,8.092-2.083,11.262c-0.092,0.648-0.283,0.974-0.576,0.974
		c-0.11,0-0.238-0.046-0.383-0.136c-0.476-0.352-0.786-0.637-0.933-0.857c-0.201-0.299-0.3-0.709-0.3-1.229
		c0-1.089,0.123-2.396,0.369-3.916c0.064-0.375,0.16-0.563,0.288-0.563c0.119,0,0.433,0.299,0.945,0.896
		c1.243-6.013,2.421-11.163,3.536-15.45c-2.037,1.818-3.609,3.572-4.714,5.261c-0.256,0.403-0.383,0.87-0.383,1.403
		c0,0.48,0.109,1.025,0.328,1.637c0.219,0.611,0.329,0.961,0.329,1.052c0,0.221-0.105,0.331-0.316,0.331
		c-0.182,0-0.319-0.071-0.41-0.215c-1.142-1.908-1.714-3.228-1.714-3.955c0-0.766,0.366-1.617,1.097-2.552
		c1.544-1.987,3.782-4.183,6.715-6.585c0.484-1.611,0.836-2.416,1.055-2.416c0.165,0,0.503,0.35,1.015,1.052
		c0.503-0.325,1.005-0.649,1.508-0.975c0.42-0.259,0.763-0.39,1.027-0.39c0.438,0,1.028,0.352,1.769,1.052
		c0.036-0.052,0.096-0.077,0.178-0.077c0.512,0,1.293,0.676,2.344,2.025c0.566,0.741,0.85,1.54,0.85,2.396
		C320.499,404.352,320.485,404.591,320.458,404.864z"/>
	<path clip-path="url(#XMLID_9_)" fill="#46166B" d="M323.952,412.521c-0.22,1.754-0.791,4.67-1.713,8.748
		c0.265-0.338,0.63-0.955,1.096-1.852c0.064-0.116,0.128-0.175,0.191-0.175c0.146,0,0.165,0.184,0.056,0.546
		c-0.046,0.143-0.431,1.032-1.151,2.669c-0.548,1.247-0.95,2.351-1.206,3.312c-0.082,0.299-0.232,0.449-0.452,0.449
		c-0.219,0-0.517-0.15-0.891-0.449c-0.237-0.182-0.356-0.318-0.356-0.408c0-0.078,0.05-0.247,0.15-0.507
		c0.494-1.233,1.042-3.3,1.644-6.196c0.577-2.805,0.901-4.891,0.975-6.254c0.026-0.584-0.013-0.877-0.124-0.877
		c-0.082,0-0.229,0.143-0.438,0.429l-0.85,1.13c-0.301,0.391-0.452,0.41-0.452,0.059c0-0.104,0.041-0.234,0.124-0.39
		c0.429-0.856,0.886-1.669,1.37-2.436c0.146-0.221,0.288-0.331,0.425-0.331c0.146,0,0.36,0.143,0.644,0.429
		c0.421,0.155,0.653,0.253,0.699,0.292c0.21,0.182,0.315,0.52,0.315,1.014C324.007,411.956,323.988,412.223,323.952,412.521
		 M325.884,403.987c0.147,0.155,0.22,0.331,0.22,0.526c0,0.377-0.393,0.961-1.179,1.754c-0.521,0.506-1.023,0.688-1.508,0.545
		c-0.273-0.078-0.511-0.221-0.712-0.428c-0.064-0.078-0.112-0.16-0.145-0.244s-0.039-0.152-0.021-0.205
		c0.027-0.051,0.083-0.064,0.165-0.039c0.84-1.039,1.393-1.785,1.658-2.24c0.21-0.338,0.36-0.507,0.452-0.507
		C324.979,403.149,325.336,403.43,325.884,403.987"/>
	<path clip-path="url(#XMLID_9_)" fill="none" stroke="#46166B" d="M323.952,412.521c-0.22,1.754-0.791,4.67-1.713,8.748
		c0.265-0.338,0.63-0.955,1.096-1.852c0.064-0.116,0.128-0.175,0.191-0.175c0.146,0,0.165,0.184,0.056,0.546
		c-0.046,0.143-0.431,1.032-1.151,2.669c-0.548,1.247-0.95,2.351-1.206,3.312c-0.082,0.299-0.232,0.449-0.452,0.449
		c-0.219,0-0.517-0.15-0.891-0.449c-0.237-0.182-0.356-0.318-0.356-0.408c0-0.078,0.05-0.247,0.15-0.507
		c0.494-1.233,1.042-3.3,1.644-6.196c0.577-2.805,0.901-4.891,0.975-6.254c0.026-0.584-0.013-0.877-0.124-0.877
		c-0.082,0-0.229,0.143-0.438,0.429l-0.85,1.13c-0.301,0.391-0.452,0.41-0.452,0.059c0-0.104,0.041-0.234,0.124-0.39
		c0.429-0.856,0.886-1.669,1.37-2.436c0.146-0.221,0.288-0.331,0.425-0.331c0.146,0,0.36,0.143,0.644,0.429
		c0.421,0.155,0.653,0.253,0.699,0.292c0.21,0.182,0.315,0.52,0.315,1.014C324.007,411.956,323.988,412.223,323.952,412.521z
		 M325.884,403.987c0.147,0.155,0.22,0.331,0.22,0.526c0,0.377-0.393,0.961-1.179,1.754c-0.521,0.506-1.023,0.688-1.508,0.545
		c-0.273-0.078-0.511-0.221-0.712-0.428c-0.064-0.078-0.112-0.16-0.145-0.244s-0.039-0.152-0.021-0.205
		c0.027-0.051,0.083-0.064,0.165-0.039c0.84-1.039,1.393-1.785,1.658-2.24c0.21-0.338,0.36-0.507,0.452-0.507
		C324.979,403.149,325.336,403.43,325.884,403.987z"/>
	<path clip-path="url(#XMLID_9_)" fill="#46166B" d="M336.916,396.525c0.137,0.143,0.206,0.299,0.206,0.467
		c0,0.26-0.114,0.391-0.343,0.391c-0.101,0-0.196-0.033-0.288-0.098c-0.521-0.403-0.982-0.604-1.384-0.604
		c-0.302,0-0.571,0.104-0.809,0.311c-0.914,0.832-2.362,5.17-4.345,13.016c1.48,0.324,2.417,0.487,2.81,0.487
		c0.21,0,0.315,0.11,0.315,0.331c0,0.247-0.105,0.402-0.315,0.467c-1.068,0.287-2.156,0.469-3.262,0.547
		c-1.252,5.26-2.229,10.15-2.933,14.67c-0.566,3.65-0.85,6.255-0.85,7.813c0,0.13,0.014,0.328,0.041,0.595
		c0.027,0.266,0.041,0.471,0.041,0.613c0,0.207-0.05,0.313-0.15,0.313c-0.137,0-0.462-0.222-0.973-0.663
		c-0.612-0.507-0.878-1.104-0.795-1.792c0.768-5.768,2.114-12.938,4.042-21.511c-0.712,0.065-1.142,0.091-1.288,0.078
		c-0.191-0.039-0.325-0.169-0.397-0.39c-0.101-0.351-0.15-0.545-0.15-0.584c0-0.195,0.146-0.344,0.438-0.449
		c0.42-0.143,0.841-0.279,1.261-0.408c0.384-0.156,0.607-0.372,0.672-0.643c1.471-6.053,2.626-10.184,3.467-12.393
		c0.694-1.817,1.356-2.728,1.987-2.728C334.518,394.362,335.519,395.083,336.916,396.525"/>
	<path clip-path="url(#XMLID_9_)" fill="none" stroke="#46166B" d="M336.916,396.525c0.137,0.143,0.206,0.299,0.206,0.467
		c0,0.26-0.114,0.391-0.343,0.391c-0.101,0-0.196-0.033-0.288-0.098c-0.521-0.403-0.982-0.604-1.384-0.604
		c-0.302,0-0.571,0.104-0.809,0.311c-0.914,0.832-2.362,5.17-4.345,13.016c1.48,0.324,2.417,0.487,2.81,0.487
		c0.21,0,0.315,0.11,0.315,0.331c0,0.247-0.105,0.402-0.315,0.467c-1.068,0.287-2.156,0.469-3.262,0.547
		c-1.252,5.26-2.229,10.15-2.933,14.67c-0.566,3.65-0.85,6.255-0.85,7.813c0,0.13,0.014,0.328,0.041,0.595
		c0.027,0.266,0.041,0.471,0.041,0.613c0,0.207-0.05,0.313-0.15,0.313c-0.137,0-0.462-0.222-0.973-0.663
		c-0.612-0.507-0.878-1.104-0.795-1.792c0.768-5.768,2.114-12.938,4.042-21.511c-0.712,0.065-1.142,0.091-1.288,0.078
		c-0.191-0.039-0.325-0.169-0.397-0.39c-0.101-0.351-0.15-0.545-0.15-0.584c0-0.195,0.146-0.344,0.438-0.449
		c0.42-0.143,0.841-0.279,1.261-0.408c0.384-0.156,0.607-0.372,0.672-0.643c1.471-6.053,2.626-10.184,3.467-12.393
		c0.694-1.817,1.356-2.728,1.987-2.728C334.518,394.362,335.519,395.083,336.916,396.525z"/>
	<path clip-path="url(#XMLID_9_)" fill="#46166B" d="M343.74,396.525c0.137,0.143,0.206,0.299,0.206,0.467
		c0,0.26-0.114,0.391-0.343,0.391c-0.101,0-0.196-0.033-0.288-0.098c-0.521-0.403-0.982-0.604-1.384-0.604
		c-0.302,0-0.571,0.104-0.809,0.311c-0.914,0.832-2.363,5.17-4.345,13.016c1.48,0.324,2.417,0.487,2.81,0.487
		c0.21,0,0.315,0.11,0.315,0.331c0,0.247-0.105,0.402-0.315,0.467c-1.068,0.287-2.156,0.469-3.262,0.547
		c-1.252,5.26-2.23,10.15-2.933,14.67c-0.566,3.65-0.85,6.255-0.85,7.813c0,0.13,0.014,0.328,0.041,0.595
		c0.027,0.266,0.041,0.471,0.041,0.613c0,0.207-0.05,0.313-0.15,0.313c-0.137,0-0.462-0.222-0.973-0.663
		c-0.612-0.507-0.878-1.104-0.795-1.792c0.768-5.768,2.114-12.938,4.042-21.511c-0.712,0.065-1.142,0.091-1.288,0.078
		c-0.191-0.039-0.325-0.169-0.397-0.39c-0.101-0.351-0.15-0.545-0.15-0.584c0-0.195,0.146-0.344,0.438-0.449
		c0.42-0.143,0.841-0.279,1.261-0.408c0.384-0.156,0.607-0.372,0.672-0.643c1.471-6.053,2.626-10.184,3.467-12.393
		c0.694-1.817,1.356-2.728,1.987-2.728C341.342,394.362,342.343,395.083,343.74,396.525"/>
	<path clip-path="url(#XMLID_9_)" fill="none" stroke="#46166B" d="M343.74,396.525c0.137,0.143,0.206,0.299,0.206,0.467
		c0,0.26-0.114,0.391-0.343,0.391c-0.101,0-0.196-0.033-0.288-0.098c-0.521-0.403-0.982-0.604-1.384-0.604
		c-0.302,0-0.571,0.104-0.809,0.311c-0.914,0.832-2.363,5.17-4.345,13.016c1.48,0.324,2.417,0.487,2.81,0.487
		c0.21,0,0.315,0.11,0.315,0.331c0,0.247-0.105,0.402-0.315,0.467c-1.068,0.287-2.156,0.469-3.262,0.547
		c-1.252,5.26-2.23,10.15-2.933,14.67c-0.566,3.65-0.85,6.255-0.85,7.813c0,0.13,0.014,0.328,0.041,0.595
		c0.027,0.266,0.041,0.471,0.041,0.613c0,0.207-0.05,0.313-0.15,0.313c-0.137,0-0.462-0.222-0.973-0.663
		c-0.612-0.507-0.878-1.104-0.795-1.792c0.768-5.768,2.114-12.938,4.042-21.511c-0.712,0.065-1.142,0.091-1.288,0.078
		c-0.191-0.039-0.325-0.169-0.397-0.39c-0.101-0.351-0.15-0.545-0.15-0.584c0-0.195,0.146-0.344,0.438-0.449
		c0.42-0.143,0.841-0.279,1.261-0.408c0.384-0.156,0.607-0.372,0.672-0.643c1.471-6.053,2.626-10.184,3.467-12.393
		c0.694-1.817,1.356-2.728,1.987-2.728C341.342,394.362,342.343,395.083,343.74,396.525z"/>
	<path clip-path="url(#XMLID_9_)" fill="#46166B" d="M346.207,420.217c-2.221,4.04-3.783,6.06-4.688,6.06
		c-0.43,0-0.973-0.422-1.631-1.267c-0.685-0.454-1.027-1.064-1.027-1.831c0-0.143,0.009-0.292,0.027-0.448
		c0.164-1.779,0.498-3.747,1-5.903c-0.338-0.247-0.507-0.48-0.507-0.702c0-0.182,0.096-0.271,0.288-0.271
		c0.146,0,0.297,0.058,0.452,0.175c0.813-2.598,1.543-4.442,2.192-5.533c0.42-0.728,0.8-1.091,1.138-1.091
		c0.155,0,0.539,0.188,1.151,0.564c-0.046-0.39,0.031-0.617,0.232-0.682h0.645c0.393,0,0.589,0.098,0.589,0.292
		c0,0.039-0.014,0.149-0.041,0.331c-0.026,0.182-0.041,0.352-0.041,0.506c0,0.469,0.005,1.047,0.015,1.734
		c0.008,0.689,0.013,1.15,0.013,1.384c0,1.61-0.311,2.734-0.931,3.37c-0.567,0.586-1.206,0.877-1.92,0.877
		c-0.374,0-0.995-0.143-1.863-0.428c-0.155,0.402-0.329,1.187-0.521,2.357c-0.257,1.48-0.375,2.793-0.356,3.936
		c0.009,0.676,0.16,1.014,0.453,1.014c0.108,0,0.251-0.039,0.424-0.116c1.06-0.534,2.535-2.157,4.426-4.872
		c0.119-0.169,0.238-0.254,0.357-0.254c0.173,0,0.26,0.117,0.26,0.352C346.344,419.912,346.298,420.062,346.207,420.217
		 M344.604,411.605c0-0.506-0.078-0.76-0.233-0.76c-0.101,0-0.246,0.104-0.438,0.312c-0.896,1.026-1.68,2.825-2.357,5.397
		c0.183,0.039,0.503,0.078,0.96,0.117c0.74,0.038,1.292-0.202,1.658-0.722c0.273-0.39,0.425-1.031,0.452-1.929
		C344.617,414.684,344.604,413.879,344.604,411.605"/>
	<path clip-path="url(#XMLID_9_)" fill="none" stroke="#46166B" d="M346.207,420.217c-2.221,4.04-3.783,6.06-4.688,6.06
		c-0.43,0-0.973-0.422-1.631-1.267c-0.685-0.454-1.027-1.064-1.027-1.831c0-0.143,0.009-0.292,0.027-0.448
		c0.164-1.779,0.498-3.747,1-5.903c-0.338-0.247-0.507-0.48-0.507-0.702c0-0.182,0.096-0.271,0.288-0.271
		c0.146,0,0.297,0.058,0.452,0.175c0.813-2.598,1.543-4.442,2.192-5.533c0.42-0.728,0.8-1.091,1.138-1.091
		c0.155,0,0.539,0.188,1.151,0.564c-0.046-0.39,0.031-0.617,0.232-0.682h0.645c0.393,0,0.589,0.098,0.589,0.292
		c0,0.039-0.014,0.149-0.041,0.331c-0.026,0.182-0.041,0.352-0.041,0.506c0,0.469,0.005,1.047,0.015,1.734
		c0.008,0.689,0.013,1.15,0.013,1.384c0,1.61-0.311,2.734-0.931,3.37c-0.567,0.586-1.206,0.877-1.92,0.877
		c-0.374,0-0.995-0.143-1.863-0.428c-0.155,0.402-0.329,1.187-0.521,2.357c-0.257,1.48-0.375,2.793-0.356,3.936
		c0.009,0.676,0.16,1.014,0.453,1.014c0.108,0,0.251-0.039,0.424-0.116c1.06-0.534,2.535-2.157,4.426-4.872
		c0.119-0.169,0.238-0.254,0.357-0.254c0.173,0,0.26,0.117,0.26,0.352C346.344,419.912,346.298,420.062,346.207,420.217z
		 M344.604,411.605c0-0.506-0.078-0.76-0.233-0.76c-0.101,0-0.246,0.104-0.438,0.312c-0.896,1.026-1.68,2.825-2.357,5.397
		c0.183,0.039,0.503,0.078,0.96,0.117c0.74,0.038,1.292-0.202,1.658-0.722c0.273-0.39,0.425-1.031,0.452-1.929
		C344.617,414.684,344.604,413.879,344.604,411.605z"/>
	<path clip-path="url(#XMLID_9_)" fill="#46166B" d="M355.95,411.118c0,1.702-0.16,3.325-0.479,4.871
		c-0.101,0.468-0.237,0.702-0.411,0.702c-0.128,0-0.411-0.26-0.85-0.78c-0.219-0.259-0.274-0.63-0.164-1.11
		c0.255-1.182,0.384-2.13,0.384-2.845c0-0.247-0.037-0.37-0.11-0.37c-0.109,0-0.287,0.234-0.534,0.701
		c-1.9,3.521-3.321,7.469-4.262,11.846c-0.303,1.391-0.558,2.086-0.768,2.086c-0.082,0-0.443-0.229-1.083-0.683
		c-0.311-0.221-0.416-0.649-0.314-1.286c0.721-4.494,1.498-8.287,2.329-11.378c-0.677,1.013-1.105,1.708-1.288,2.085
		c-0.073,0.155-0.174,0.233-0.302,0.233c-0.155,0-0.232-0.097-0.232-0.292c0-0.117,0.036-0.247,0.109-0.391
		c0.447-0.766,1.046-1.935,1.795-3.506c0.229-0.571,0.457-0.857,0.686-0.857c0.164,0,0.498,0.182,1,0.545
		c0.283,0.208,0.329,0.487,0.138,0.838c-0.201,0.377-0.579,1.709-1.138,3.994c-0.53,2.221-0.896,3.962-1.097,5.222
		c1.243-3.936,2.653-7.41,4.235-10.424c0.301-0.571,0.542-0.856,0.726-0.856c0.165,0,0.389,0.155,0.672,0.468
		c0.384,0.064,0.626,0.149,0.727,0.253C355.873,410.339,355.95,410.65,355.95,411.118"/>
	<path clip-path="url(#XMLID_9_)" fill="none" stroke="#46166B" d="M355.95,411.118c0,1.702-0.16,3.325-0.479,4.871
		c-0.101,0.468-0.237,0.702-0.411,0.702c-0.128,0-0.411-0.26-0.85-0.78c-0.219-0.259-0.274-0.63-0.164-1.11
		c0.255-1.182,0.384-2.13,0.384-2.845c0-0.247-0.037-0.37-0.11-0.37c-0.109,0-0.287,0.234-0.534,0.701
		c-1.9,3.521-3.321,7.469-4.262,11.846c-0.303,1.391-0.558,2.086-0.768,2.086c-0.082,0-0.443-0.229-1.083-0.683
		c-0.311-0.221-0.416-0.649-0.314-1.286c0.721-4.494,1.498-8.287,2.329-11.378c-0.677,1.013-1.105,1.708-1.288,2.085
		c-0.073,0.155-0.174,0.233-0.302,0.233c-0.155,0-0.232-0.097-0.232-0.292c0-0.117,0.036-0.247,0.109-0.391
		c0.447-0.766,1.046-1.935,1.795-3.506c0.229-0.571,0.457-0.857,0.686-0.857c0.164,0,0.498,0.182,1,0.545
		c0.283,0.208,0.329,0.487,0.138,0.838c-0.201,0.377-0.579,1.709-1.138,3.994c-0.53,2.221-0.896,3.962-1.097,5.222
		c1.243-3.936,2.653-7.41,4.235-10.424c0.301-0.571,0.542-0.856,0.726-0.856c0.165,0,0.389,0.155,0.672,0.468
		c0.384,0.064,0.626,0.149,0.727,0.253C355.873,410.339,355.95,410.65,355.95,411.118z"/>
	<path clip-path="url(#XMLID_9_)" fill="#46166B" d="M363.24,420.217c-2.22,4.04-3.782,6.06-4.687,6.06
		c-0.43,0-0.973-0.422-1.631-1.267c-0.685-0.454-1.027-1.064-1.027-1.831c0-0.143,0.009-0.292,0.027-0.448
		c0.164-1.779,0.498-3.747,1-5.903c-0.338-0.247-0.507-0.48-0.507-0.702c0-0.182,0.096-0.271,0.288-0.271
		c0.146,0,0.297,0.058,0.452,0.175c0.813-2.598,1.543-4.442,2.192-5.533c0.42-0.728,0.8-1.091,1.138-1.091
		c0.155,0,0.539,0.188,1.151,0.564c-0.046-0.39,0.031-0.617,0.232-0.682h0.645c0.393,0,0.589,0.098,0.589,0.292
		c0,0.039-0.014,0.149-0.041,0.331s-0.041,0.352-0.041,0.506c0,0.469,0.005,1.047,0.014,1.734c0.009,0.689,0.014,1.15,0.014,1.384
		c0,1.61-0.311,2.734-0.932,3.37c-0.566,0.586-1.206,0.877-1.92,0.877c-0.374,0-0.995-0.143-1.862-0.428
		c-0.155,0.402-0.329,1.187-0.521,2.357c-0.257,1.48-0.375,2.793-0.356,3.936c0.009,0.676,0.159,1.014,0.452,1.014
		c0.109,0,0.251-0.039,0.425-0.116c1.06-0.534,2.535-2.157,4.426-4.872c0.119-0.169,0.238-0.254,0.356-0.254
		c0.174,0,0.261,0.117,0.261,0.352C363.378,419.912,363.332,420.062,363.24,420.217 M361.638,411.605c0-0.506-0.078-0.76-0.233-0.76
		c-0.101,0-0.246,0.104-0.438,0.312c-0.896,1.026-1.681,2.825-2.357,5.397c0.183,0.039,0.503,0.078,0.96,0.117
		c0.74,0.038,1.292-0.202,1.658-0.722c0.273-0.39,0.425-1.031,0.452-1.929C361.651,414.684,361.638,413.879,361.638,411.605"/>
	<path clip-path="url(#XMLID_9_)" fill="none" stroke="#46166B" d="M363.24,420.217c-2.22,4.04-3.782,6.06-4.687,6.06
		c-0.43,0-0.973-0.422-1.631-1.267c-0.685-0.454-1.027-1.064-1.027-1.831c0-0.143,0.009-0.292,0.027-0.448
		c0.164-1.779,0.498-3.747,1-5.903c-0.338-0.247-0.507-0.48-0.507-0.702c0-0.182,0.096-0.271,0.288-0.271
		c0.146,0,0.297,0.058,0.452,0.175c0.813-2.598,1.543-4.442,2.192-5.533c0.42-0.728,0.8-1.091,1.138-1.091
		c0.155,0,0.539,0.188,1.151,0.564c-0.046-0.39,0.031-0.617,0.232-0.682h0.645c0.393,0,0.589,0.098,0.589,0.292
		c0,0.039-0.014,0.149-0.041,0.331s-0.041,0.352-0.041,0.506c0,0.469,0.005,1.047,0.014,1.734c0.009,0.689,0.014,1.15,0.014,1.384
		c0,1.61-0.311,2.734-0.932,3.37c-0.566,0.586-1.206,0.877-1.92,0.877c-0.374,0-0.995-0.143-1.862-0.428
		c-0.155,0.402-0.329,1.187-0.521,2.357c-0.257,1.48-0.375,2.793-0.356,3.936c0.009,0.676,0.159,1.014,0.452,1.014
		c0.109,0,0.251-0.039,0.425-0.116c1.06-0.534,2.535-2.157,4.426-4.872c0.119-0.169,0.238-0.254,0.356-0.254
		c0.174,0,0.261,0.117,0.261,0.352C363.378,419.912,363.332,420.062,363.24,420.217z M361.638,411.605
		c0-0.506-0.078-0.76-0.233-0.76c-0.101,0-0.246,0.104-0.438,0.312c-0.896,1.026-1.681,2.825-2.357,5.397
		c0.183,0.039,0.503,0.078,0.96,0.117c0.74,0.038,1.292-0.202,1.658-0.722c0.273-0.39,0.425-1.031,0.452-1.929
		C361.651,414.684,361.638,413.879,361.638,411.605z"/>
	<path clip-path="url(#XMLID_9_)" fill="#46166B" d="M374.725,418.834c-0.548,1.182-1.261,2.896-2.138,5.143
		c-0.164,0.586-0.324,1.17-0.479,1.754c-0.128,0.402-0.297,0.604-0.507,0.604c-0.164,0-0.406-0.097-0.727-0.292
		c-0.356-0.208-0.534-0.416-0.534-0.623c0-0.092,0.06-0.293,0.178-0.604c0.594-1.715,1.124-3.851,1.59-6.41
		c0.503-2.688,0.717-4.741,0.645-6.157c-0.019-0.57-0.11-0.857-0.274-0.857c-0.119,0-0.297,0.163-0.534,0.488
		c-2.303,3.195-4.294,7.469-5.976,12.819c-0.21,0.663-0.457,0.993-0.739,0.993c-0.201,0-0.535-0.162-1.001-0.486
		c-0.183-0.117-0.278-0.227-0.288-0.332c0-0.051,0.051-0.232,0.151-0.545c0.53-1.649,1.055-3.74,1.576-6.273
		c0.557-2.74,0.873-4.877,0.945-6.411c0.019-0.467,0.01-0.7-0.027-0.7c-0.01,0-0.137,0.175-0.384,0.525
		c-0.246,0.352-0.59,0.806-1.028,1.364c-0.082,0.116-0.173,0.175-0.273,0.175c-0.128,0-0.192-0.07-0.192-0.214
		c0-0.104,0.046-0.221,0.138-0.351c0.393-0.715,0.908-1.604,1.548-2.67c0.138-0.221,0.279-0.33,0.425-0.33
		c0.22,0,0.411,0.227,0.576,0.682c0.74,0.313,1.087,0.792,1.041,1.441c-0.101,1.43-0.616,4.008-1.548,7.734
		c0.611-1.675,1.502-3.549,2.672-5.62c1.169-2.071,2.037-3.296,2.604-3.673c0.283-0.182,0.484-0.273,0.604-0.273
		c0.118,0,0.311,0.144,0.575,0.43c0.759,0.377,1.133,1,1.124,1.87c0,0.909-0.155,2.37-0.466,4.384
		c-0.247,1.662-0.476,2.955-0.686,3.877c0.265-0.48,0.604-1.104,1.015-1.87c0.072-0.13,0.146-0.194,0.219-0.194
		c0.137,0,0.206,0.123,0.206,0.369C374.753,418.678,374.743,418.756,374.725,418.834"/>
	<path clip-path="url(#XMLID_9_)" fill="none" stroke="#46166B" d="M374.725,418.834c-0.548,1.182-1.261,2.896-2.138,5.143
		c-0.164,0.586-0.324,1.17-0.479,1.754c-0.128,0.402-0.297,0.604-0.507,0.604c-0.164,0-0.406-0.097-0.727-0.292
		c-0.356-0.208-0.534-0.416-0.534-0.623c0-0.092,0.06-0.293,0.178-0.604c0.594-1.715,1.124-3.851,1.59-6.41
		c0.503-2.688,0.717-4.741,0.645-6.157c-0.019-0.57-0.11-0.857-0.274-0.857c-0.119,0-0.297,0.163-0.534,0.488
		c-2.303,3.195-4.294,7.469-5.976,12.819c-0.21,0.663-0.457,0.993-0.739,0.993c-0.201,0-0.535-0.162-1.001-0.486
		c-0.183-0.117-0.278-0.227-0.288-0.332c0-0.051,0.051-0.232,0.151-0.545c0.53-1.649,1.055-3.74,1.576-6.273
		c0.557-2.74,0.873-4.877,0.945-6.411c0.019-0.467,0.01-0.7-0.027-0.7c-0.01,0-0.137,0.175-0.384,0.525
		c-0.246,0.352-0.59,0.806-1.028,1.364c-0.082,0.116-0.173,0.175-0.273,0.175c-0.128,0-0.192-0.07-0.192-0.214
		c0-0.104,0.046-0.221,0.138-0.351c0.393-0.715,0.908-1.604,1.548-2.67c0.138-0.221,0.279-0.33,0.425-0.33
		c0.22,0,0.411,0.227,0.576,0.682c0.74,0.313,1.087,0.792,1.041,1.441c-0.101,1.43-0.616,4.008-1.548,7.734
		c0.611-1.675,1.502-3.549,2.672-5.62c1.169-2.071,2.037-3.296,2.604-3.673c0.283-0.182,0.484-0.273,0.604-0.273
		c0.118,0,0.311,0.144,0.575,0.43c0.759,0.377,1.133,1,1.124,1.87c0,0.909-0.155,2.37-0.466,4.384
		c-0.247,1.662-0.476,2.955-0.686,3.877c0.265-0.48,0.604-1.104,1.015-1.87c0.072-0.13,0.146-0.194,0.219-0.194
		c0.137,0,0.206,0.123,0.206,0.369C374.753,418.678,374.743,418.756,374.725,418.834z"/>
	<path clip-path="url(#XMLID_9_)" fill="#46166B" d="M383.865,400.909c0.256,0.194,0.384,0.415,0.384,0.662
		c0,0.169-0.087,0.253-0.261,0.253c-0.036,0-0.094-0.01-0.171-0.029c-0.078-0.02-0.135-0.029-0.171-0.029
		c-0.348,0-0.768,0.54-1.262,1.617c-0.438,0.961-1.046,3.053-1.822,6.274c-0.073,0.286-0.101,0.454-0.082,0.507
		c0.027,0.091,0.146,0.143,0.356,0.155c0.539,0.065,1.261,0.039,2.165-0.077c0.311-0.039,0.466,0.148,0.466,0.564
		c0,0.285-0.119,0.461-0.356,0.525c-0.191,0.039-1.201,0.156-3.028,0.352c-1.097,4.559-1.764,8.416-2.001,11.573
		c-0.009,0.169-0.014,0.318-0.014,0.448c0,0.441,0.077,0.662,0.233,0.662c0.246,0,0.991-0.851,2.233-2.553
		c0.146-0.207,0.288-0.312,0.425-0.312c0.119,0,0.192,0.071,0.22,0.214c0.027,0.156-0.014,0.339-0.124,0.547
		c-0.739,1.389-1.466,2.571-2.179,3.545c-0.302,0.402-0.553,0.604-0.754,0.604s-0.512-0.228-0.932-0.683
		c-0.521-0.194-0.781-0.584-0.781-1.168c0-0.092,0.009-0.195,0.027-0.313c0.338-3.352,1.001-7.475,1.987-12.371
		c-0.484-0.092-0.923-0.183-1.315-0.273c-0.174-0.039-0.261-0.195-0.261-0.469c0-0.297,0.092-0.479,0.274-0.545
		c0.183-0.064,0.521-0.207,1.013-0.428c0.303-0.143,0.595-0.338,0.878-0.585c0.978-4.3,1.745-7.085,2.303-8.358
		c0.318-0.727,0.662-1.091,1.027-1.091C382.691,400.13,383.198,400.39,383.865,400.909"/>
	<path clip-path="url(#XMLID_9_)" fill="none" stroke="#46166B" d="M383.865,400.909c0.256,0.194,0.384,0.415,0.384,0.662
		c0,0.169-0.087,0.253-0.261,0.253c-0.036,0-0.094-0.01-0.171-0.029c-0.078-0.02-0.135-0.029-0.171-0.029
		c-0.348,0-0.768,0.54-1.262,1.617c-0.438,0.961-1.046,3.053-1.822,6.274c-0.073,0.286-0.101,0.454-0.082,0.507
		c0.027,0.091,0.146,0.143,0.356,0.155c0.539,0.065,1.261,0.039,2.165-0.077c0.311-0.039,0.466,0.148,0.466,0.564
		c0,0.285-0.119,0.461-0.356,0.525c-0.191,0.039-1.201,0.156-3.028,0.352c-1.097,4.559-1.764,8.416-2.001,11.573
		c-0.009,0.169-0.014,0.318-0.014,0.448c0,0.441,0.077,0.662,0.233,0.662c0.246,0,0.991-0.851,2.233-2.553
		c0.146-0.207,0.288-0.312,0.425-0.312c0.119,0,0.192,0.071,0.22,0.214c0.027,0.156-0.014,0.339-0.124,0.547
		c-0.739,1.389-1.466,2.571-2.179,3.545c-0.302,0.402-0.553,0.604-0.754,0.604s-0.512-0.228-0.932-0.683
		c-0.521-0.194-0.781-0.584-0.781-1.168c0-0.092,0.009-0.195,0.027-0.313c0.338-3.352,1.001-7.475,1.987-12.371
		c-0.484-0.092-0.923-0.183-1.315-0.273c-0.174-0.039-0.261-0.195-0.261-0.469c0-0.297,0.092-0.479,0.274-0.545
		c0.183-0.064,0.521-0.207,1.013-0.428c0.303-0.143,0.595-0.338,0.878-0.585c0.978-4.3,1.745-7.085,2.303-8.358
		c0.318-0.727,0.662-1.091,1.027-1.091C382.691,400.13,383.198,400.39,383.865,400.909z"/>
	<path clip-path="url(#XMLID_9_)" fill="#46166B" d="M393.609,395.532c0.118,0.13,0.178,0.266,0.178,0.409
		c0,0.247-0.104,0.37-0.315,0.37c-0.09,0-0.187-0.039-0.287-0.117c-0.421-0.298-0.735-0.448-0.946-0.448
		c-0.575,0-1.205,0.792-1.891,2.377c-2.485,5.754-4.253,13.189-5.304,22.309c-0.027,0.246-0.073,0.578-0.137,0.994
		c0.21-0.313,0.521-0.818,0.933-1.521c0.236-0.402,0.41-0.604,0.52-0.604c0.237,0,0.256,0.202,0.055,0.604
		c-0.877,1.78-1.457,3.644-1.74,5.592c-0.101,0.48-0.229,0.722-0.384,0.722c-0.073,0-0.169-0.058-0.286-0.176
		c-0.468-0.441-0.732-0.701-0.796-0.779c-0.184-0.26-0.274-0.598-0.274-1.014c0-0.207,0.022-0.461,0.068-0.761
		c1.06-8.272,2.426-15.319,4.098-21.139c1.261-4.39,2.389-7.234,3.385-8.534c0.274-0.363,0.549-0.538,0.822-0.526
		c0.247,0.013,0.566,0.234,0.96,0.662C392.715,394.473,393.161,394.999,393.609,395.532"/>
	<path clip-path="url(#XMLID_9_)" fill="none" stroke="#46166B" d="M393.609,395.532c0.118,0.13,0.178,0.266,0.178,0.409
		c0,0.247-0.104,0.37-0.315,0.37c-0.09,0-0.187-0.039-0.287-0.117c-0.421-0.298-0.735-0.448-0.946-0.448
		c-0.575,0-1.205,0.792-1.891,2.377c-2.485,5.754-4.253,13.189-5.304,22.309c-0.027,0.246-0.073,0.578-0.137,0.994
		c0.21-0.313,0.521-0.818,0.933-1.521c0.236-0.402,0.41-0.604,0.52-0.604c0.237,0,0.256,0.202,0.055,0.604
		c-0.877,1.78-1.457,3.644-1.74,5.592c-0.101,0.48-0.229,0.722-0.384,0.722c-0.073,0-0.169-0.058-0.286-0.176
		c-0.468-0.441-0.732-0.701-0.796-0.779c-0.184-0.26-0.274-0.598-0.274-1.014c0-0.207,0.022-0.461,0.068-0.761
		c1.06-8.272,2.426-15.319,4.098-21.139c1.261-4.39,2.389-7.234,3.385-8.534c0.274-0.363,0.549-0.538,0.822-0.526
		c0.247,0.013,0.566,0.234,0.96,0.662C392.715,394.473,393.161,394.999,393.609,395.532z"/>
	<path clip-path="url(#XMLID_9_)" fill="#46166B" d="M398.063,412.287c-1.27,8.326-2.463,14.555-3.577,18.686
		c-2.156,8.027-4.632,12.041-7.428,12.041c-1.635,0-3.394-1.268-5.276-3.8c-0.164-0.222-0.246-0.455-0.246-0.702
		c0-0.389,0.128-0.584,0.384-0.584c0.128,0,0.251,0.071,0.37,0.215c1.489,1.805,2.818,2.707,3.987,2.707
		c2.147,0,4.099-2.545,5.852-7.637c1.38-3.988,2.582-9.34,3.604-16.055c0.063-0.48,0.169-1.215,0.315-2.201
		c-0.96,2.221-2.033,4.41-3.221,6.565c-1.143,2.08-2.042,3.507-2.699,4.287c-0.366,0.429-0.658,0.643-0.877,0.643
		c-0.174,0-0.353-0.137-0.535-0.409c-0.191-0.352-0.389-0.695-0.589-1.033c-0.092-0.155-0.138-0.299-0.138-0.428v-0.039
		c0.019-0.156,0.101-0.267,0.247-0.332c0.438-0.844,0.85-2.669,1.233-5.475c0.292-2.208,0.493-4.306,0.603-6.293
		c0.019-0.467-0.022-0.701-0.123-0.701c-0.027,0-0.241,0.234-0.644,0.701c-0.639,0.767-0.987,1.149-1.042,1.149
		c-0.128,0-0.191-0.091-0.191-0.272c0-0.091,0.027-0.182,0.082-0.273c0.155-0.272,0.502-0.954,1.041-2.045
		c0.484-0.975,0.809-1.462,0.974-1.462c0.128,0,0.301,0.078,0.521,0.233c0.466-0.104,0.728-0.155,0.781-0.155
		c0.311,0,0.466,0.338,0.466,1.013c0,1.131-0.228,3.342-0.685,6.634c-0.458,3.295-0.832,5.421-1.124,6.382
		c0.914-1.025,2.101-3.039,3.563-6.04c1.426-2.922,2.312-5.124,2.659-6.604c0.018-0.871,0.151-1.306,0.396-1.306
		c0.192,0,0.549,0.28,1.069,0.837C398.108,410.846,398.191,411.43,398.063,412.287"/>
	<path clip-path="url(#XMLID_9_)" fill="none" stroke="#46166B" d="M398.063,412.287c-1.27,8.326-2.463,14.555-3.577,18.686
		c-2.156,8.027-4.632,12.041-7.428,12.041c-1.635,0-3.394-1.268-5.276-3.8c-0.164-0.222-0.246-0.455-0.246-0.702
		c0-0.389,0.128-0.584,0.384-0.584c0.128,0,0.251,0.071,0.37,0.215c1.489,1.805,2.818,2.707,3.987,2.707
		c2.147,0,4.099-2.545,5.852-7.637c1.38-3.988,2.582-9.34,3.604-16.055c0.063-0.48,0.169-1.215,0.315-2.201
		c-0.96,2.221-2.033,4.41-3.221,6.565c-1.143,2.08-2.042,3.507-2.699,4.287c-0.366,0.429-0.658,0.643-0.877,0.643
		c-0.174,0-0.353-0.137-0.535-0.409c-0.191-0.352-0.389-0.695-0.589-1.033c-0.092-0.155-0.138-0.299-0.138-0.428v-0.039
		c0.019-0.156,0.101-0.267,0.247-0.332c0.438-0.844,0.85-2.669,1.233-5.475c0.292-2.208,0.493-4.306,0.603-6.293
		c0.019-0.467-0.022-0.701-0.123-0.701c-0.027,0-0.241,0.234-0.644,0.701c-0.639,0.767-0.987,1.149-1.042,1.149
		c-0.128,0-0.191-0.091-0.191-0.272c0-0.091,0.027-0.182,0.082-0.273c0.155-0.272,0.502-0.954,1.041-2.045
		c0.484-0.975,0.809-1.462,0.974-1.462c0.128,0,0.301,0.078,0.521,0.233c0.466-0.104,0.728-0.155,0.781-0.155
		c0.311,0,0.466,0.338,0.466,1.013c0,1.131-0.228,3.342-0.685,6.634c-0.458,3.295-0.832,5.421-1.124,6.382
		c0.914-1.025,2.101-3.039,3.563-6.04c1.426-2.922,2.312-5.124,2.659-6.604c0.018-0.871,0.151-1.306,0.396-1.306
		c0.192,0,0.549,0.28,1.069,0.837C398.108,410.846,398.191,411.43,398.063,412.287z"/>
	
		<line clip-path="url(#XMLID_9_)" fill="none" stroke="#46166B" stroke-width="5.04" stroke-linecap="round" x1="174.25" y1="233" x2="314.75" y2="211.75"/>
	<path clip-path="url(#XMLID_9_)" fill="#46166B" d="M297.437,274.984c0,3.234-0.298,6.312-0.893,9.252
		c-0.191,0.885-0.447,1.333-0.773,1.333c-0.236,0-0.765-0.489-1.59-1.462c-0.409-0.484-0.512-1.18-0.31-2.081
		c0.472-2.211,0.712-3.987,0.712-5.33c0-0.46-0.069-0.693-0.209-0.693c-0.205,0-0.543,0.438-1.01,1.319
		c-3.588,6.62-6.271,14.048-8.048,22.277c-0.568,2.613-1.053,3.918-1.449,3.918c-0.156,0-0.836-0.43-2.047-1.289
		c-0.585-0.417-0.782-1.224-0.591-2.428c1.213-7.532,2.591-14.74,4.417-21.5c-1.278,1.916,0.076,3.481-0.271,4.193
		c-0.138,0.295,0.785,1.09,0.542,1.09c-0.292,0-1.083-0.464-1.083-0.833c0-0.221-0.137-0.313,0-0.584
		c0.847-1.457-0.449-4.438,0.966-7.42c0.434-1.08,0.866-1.626,1.298-1.626c0.311,0,0.94,0.348,1.888,1.037
		c0.536,0.393,0.624,0.921,0.259,1.583c-0.379,0.717-1.096,3.24-2.147,7.572c-1.004,4.209-1.694,7.504-2.073,9.893
		c2.337-7.421,4.999-13.967,7.977-19.647c0.563-1.082,1.07,0.062,0.874-0.808c-0.069-0.302,2.151-0.837,2.687-0.313
		c0.72,0.123,0.562,0.678,0.75,0.875C297.607,273.611,297.437,274.1,297.437,274.984"/>
	<path clip-path="url(#XMLID_9_)" fill="none" stroke="#46166B" stroke-width="3.6" d="M297.437,274.984
		c0,3.234-0.298,6.312-0.893,9.252c-0.191,0.885-0.447,1.333-0.773,1.333c-0.236,0-0.765-0.489-1.59-1.462
		c-0.409-0.484-0.512-1.18-0.31-2.081c0.472-2.211,0.712-3.987,0.712-5.33c0-0.46-0.069-0.693-0.209-0.693
		c-0.205,0-0.543,0.438-1.01,1.319c-3.588,6.62-6.271,14.048-8.048,22.277c-0.568,2.613-1.053,3.918-1.449,3.918
		c-0.156,0-0.836-0.43-2.047-1.289c-0.585-0.417-0.782-1.224-0.591-2.428c1.213-7.532,2.591-14.74,4.417-21.5
		c-1.278,1.916,0.076,3.481-0.271,4.193c-0.138,0.295,0.785,1.09,0.542,1.09c-0.292,0-1.083-0.464-1.083-0.833
		c0-0.221-0.137-0.313,0-0.584c0.847-1.457-0.449-4.438,0.966-7.42c0.434-1.08,0.866-1.626,1.298-1.626
		c0.311,0,0.94,0.348,1.888,1.037c0.536,0.393,0.624,0.921,0.259,1.583c-0.379,0.717-1.096,3.24-2.147,7.572
		c-1.004,4.209-1.694,7.504-2.073,9.893c2.337-7.421,4.999-13.967,7.977-19.647c0.563-1.082,1.07,0.062,0.874-0.808
		c-0.069-0.302,2.151-0.837,2.687-0.313c0.72,0.123,0.562,0.678,0.75,0.875C297.607,273.611,297.437,274.1,297.437,274.984z"/>
</g>
</svg>
