<?xml version="1.0" encoding="utf-8"?>
<!-- Generator: Adobe Illustrator 12.0.0, SVG Export Plug-In  -->
<!DOCTYPE svg PUBLIC "-//W3C//DTD SVG 1.1//EN" "http://www.w3.org/Graphics/SVG/1.1/DTD/svg11.dtd" [
	<!ENTITY ns_flows "http://ns.adobe.com/Flows/1.0/">
	<!ENTITY ns_svg "http://www.w3.org/2000/svg">
	<!ENTITY ns_xlink "http://www.w3.org/1999/xlink">
]>
<svg  version="1.1" xmlns="&ns_svg;" xmlns:xlink="&ns_xlink;" xmlns:a="http://ns.adobe.com/AdobeSVGViewerExtensions/3.0/"
	 width="165" height="90" viewBox="82.396 57 165 90" enable-background="new 82.396 57 165 90" xml:space="preserve">
<defs>
</defs>
<g>
	<defs>
		<rect id="XMLID_38_" width="353.982" height="261.097"/>
	</defs>
	<clipPath id="XMLID_41_">
		<use xlink:href="#XMLID_38_" />
	</clipPath>
	<path clip-path="url(#XMLID_41_)" fill="#46166B" d="M139.888,73.79c-0.787,1.37-1.752,3.59-2.9,6.661
		c-1.056,2.806-7.122,19.018-7.622,20.899c-0.17,0.607-6.983,19.144-7.311,19.144c-0.21,0,5.997-18.026,5.359-18.205
		c-0.23-0.057,1.623-4.751,1.734-4.743c0.268-0.829,6.128-16.634,7.136-19.08c1.135-2.764,1.753-4.279,1.854-4.547 M139.019,72.364
		c0.318-0.519,0.554-0.777,0.705-0.777c0.229,0,0.618,0.201,1.167,0.605"/>
	<path clip-path="url(#XMLID_41_)" fill="none" stroke="#46166B" stroke-width="3.6" d="M139.888,73.79
		c-0.787,1.37-1.752,3.59-2.9,6.661c-1.056,2.806-7.122,19.018-7.622,20.899c-0.17,0.607-6.983,19.144-7.311,19.144
		c-0.21,0,5.997-18.026,5.359-18.205c-0.23-0.057,1.623-4.751,1.734-4.743c0.268-0.829,6.128-16.634,7.136-19.08
		c1.135-2.764,1.753-4.279,1.854-4.547 M139.019,72.364c0.318-0.519,0.554-0.777,0.705-0.777c0.229,0,0.618,0.201,1.167,0.605"/>
	<path clip-path="url(#XMLID_41_)" fill="#46166B" d="M178.439,96.644c0.036,0.973-0.628,1.637-1.99,1.994
		c-0.17,0.34-0.331,0.575-0.479,0.704c-0.23,0.195-0.57,0.309-1.021,0.34c-0.292,0.017-0.602,0.005-0.932-0.036
		c-0.591-0.073-1.315-0.162-2.178-0.267c-0.24-0.032-0.385-0.149-0.435-0.352c0.039-0.219,0.317-0.349,0.837-0.389
		c0.707-0.041,1.752-0.143,3.139-0.304c0.518-0.097,0.886-0.336,1.105-0.717c0.13-0.194,0.196-0.433,0.196-0.717
		c0-0.509-0.316-1.408-0.942-2.696c-0.619-1.255-0.904-2.095-0.863-2.517c0.081-1.012,1.245-1.716,3.496-2.113
		c0.223-0.04,0.333,0.025,0.333,0.194c0,0.098-0.081,0.174-0.247,0.23c-1.113,0.381-1.671,0.851-1.671,1.41
		c0,0.219,0.051,0.493,0.152,0.821c0.103,0.328,0.409,1.116,0.919,2.364C178.235,95.491,178.43,96.174,178.439,96.644
		 M180.892,89.689c0,0.363-0.12,0.945-0.358,1.745c-0.089,0.276-0.19,0.453-0.3,0.534c-0.05,0.041-0.219,0.102-0.509,0.182
		c-0.368,0.114-0.596,0.17-0.687,0.17c-0.148,0-0.224-0.08-0.224-0.242c0-0.089,0.02-0.206,0.061-0.353
		c0.244-0.8,0.339-1.356,0.286-1.667c-0.053-0.311,0.058-0.507,0.335-0.589c0.486-0.201,0.797-0.304,0.935-0.304
		C180.736,89.167,180.892,89.341,180.892,89.689"/>
	<path clip-path="url(#XMLID_41_)" fill="none" stroke="#46166B" stroke-width="3.6" d="M178.439,96.644
		c0.036,0.973-0.628,1.637-1.99,1.994c-0.17,0.34-0.331,0.575-0.479,0.704c-0.23,0.195-0.57,0.309-1.021,0.34
		c-0.292,0.017-0.602,0.005-0.932-0.036c-0.591-0.073-1.315-0.162-2.178-0.267c-0.24-0.032-0.385-0.149-0.435-0.352
		c0.039-0.219,0.317-0.349,0.837-0.389c0.707-0.041,1.752-0.143,3.139-0.304c0.518-0.097,0.886-0.336,1.105-0.717
		c0.13-0.194,0.196-0.433,0.196-0.717c0-0.509-0.316-1.408-0.942-2.696c-0.619-1.255-0.904-2.095-0.863-2.517
		c0.081-1.012,1.245-1.716,3.496-2.113c0.223-0.04,0.333,0.025,0.333,0.194c0,0.098-0.081,0.174-0.247,0.23
		c-1.113,0.381-1.671,0.851-1.671,1.41c0,0.219,0.051,0.493,0.152,0.821c0.103,0.328,0.409,1.116,0.919,2.364
		C178.235,95.491,178.43,96.174,178.439,96.644z M180.892,89.689c0,0.363-0.12,0.945-0.358,1.745c-0.089,0.276-0.19,0.453-0.3,0.534
		c-0.05,0.041-0.219,0.102-0.509,0.182c-0.368,0.114-0.596,0.17-0.687,0.17c-0.148,0-0.224-0.08-0.224-0.242
		c0-0.089,0.02-0.206,0.061-0.353c0.244-0.8,0.339-1.356,0.286-1.667c-0.053-0.311,0.058-0.507,0.335-0.589
		c0.486-0.201,0.797-0.304,0.935-0.304C180.736,89.167,180.892,89.341,180.892,89.689z"/>
	<path clip-path="url(#XMLID_41_)" fill="#46166B" d="M196.753,81.977c0.12,0.074,0.963-1.846,0.963-1.758
		c0,0.153-2.506,1.978-1.156,1.593c0.081-0.022,1.352-1.938,1.253-1.978c-0.471-0.189,1.001,0.109,0.771,0.109
		c-0.619,0-1.099,1.209-1.845,2.196c-2.901,3.85-4.976,9.465-6.204,15.386c0.258-0.205-0.094-3.027,0.346-3.464
		c0.26-0.254,0.45-0.382,0.57-0.382c0.27,0-0.696-1.707-0.916-1.456c-0.96,1.08,0.305,5.739-0.007,6.99
		c-0.122,0.299-0.272,0.449-0.455,0.449c-0.09,0-0.201-0.037-0.333-0.109c-0.506-0.276-0.788-0.438-0.847-0.486
		c-0.2-0.154-0.303-0.362-0.303-0.621c0-0.138,0.026-0.3,0.076-0.486c0.437-1.872,0.795-3.267,1.077-4.181
		c-0.981,1.149-2.087,2.297-3.323,3.444c-1.236,1.145-2.132,1.87-2.691,2.171c-0.43,0.235-0.752,0.354-0.961,0.354
		c-0.18,0-0.456-0.117-0.826-0.354c-0.65-0.325-0.974-0.703-0.974-1.133c0-0.073,0.01-0.154,0.03-0.245
		c0.209-1.209,0.877-2.613,2.003-4.211c1.126-1.596,2.416-2.94,3.865-4.028c0.469-0.36,0.891-0.534,1.262-0.525
		c0.389,0.016,1.086,0.401,2.085,1.154c0.091,0.065,0.136,0.134,0.136,0.207c0,0.129-0.106,0.195-0.316,0.195
		c-0.069,0-0.146-0.009-0.226-0.024c-0.7-0.243-1.273-0.234-1.712,0.024c-0.942,0.57-1.979,1.556-3.11,2.962
		c-1.312,1.628-2.084,3.091-2.313,4.393c-0.048,0.307,0.05,0.463,0.301,0.463c0.33,0,0.734-0.19,1.215-0.571
		c1.109-0.886,2.304-1.995,3.587-3.334c1.308-1.388,2.149-2.436,2.52-3.14c0.21-0.388,0.375-0.762,0.495-1.12
		c1.036-2.984,2.196-5.536,3.474-7.653c0.998-1.655,1.875-2.765,2.634-3.334c0.278-0.219,0.549-0.329,0.809-0.329
		c0.279,0,0.639,0.133,1.079,0.398C199.285,79.874,196.243,81.648,196.753,81.977"/>
	<path clip-path="url(#XMLID_41_)" fill="none" stroke="#46166B" stroke-width="3.6" d="M196.753,81.977
		c0.12,0.074,0.963-1.846,0.963-1.758c0,0.153-2.506,1.978-1.156,1.593c0.081-0.022,1.352-1.938,1.253-1.978
		c-0.471-0.189,1.001,0.109,0.771,0.109c-0.619,0-1.099,1.209-1.845,2.196c-2.901,3.85-4.976,9.465-6.204,15.386
		c0.258-0.205-0.094-3.027,0.346-3.464c0.26-0.254,0.45-0.382,0.57-0.382c0.27,0-0.696-1.707-0.916-1.456
		c-0.96,1.08,0.305,5.739-0.007,6.99c-0.122,0.299-0.272,0.449-0.455,0.449c-0.09,0-0.201-0.037-0.333-0.109
		c-0.506-0.276-0.788-0.438-0.847-0.486c-0.2-0.154-0.303-0.362-0.303-0.621c0-0.138,0.026-0.3,0.076-0.486
		c0.437-1.872,0.795-3.267,1.077-4.181c-0.981,1.149-2.087,2.297-3.323,3.444c-1.236,1.145-2.132,1.87-2.691,2.171
		c-0.43,0.235-0.752,0.354-0.961,0.354c-0.18,0-0.456-0.117-0.826-0.354c-0.65-0.325-0.974-0.703-0.974-1.133
		c0-0.073,0.01-0.154,0.03-0.245c0.209-1.209,0.877-2.613,2.003-4.211c1.126-1.596,2.416-2.94,3.865-4.028
		c0.469-0.36,0.891-0.534,1.262-0.525c0.389,0.016,1.086,0.401,2.085,1.154c0.091,0.065,0.136,0.134,0.136,0.207
		c0,0.129-0.106,0.195-0.316,0.195c-0.069,0-0.146-0.009-0.226-0.024c-0.7-0.243-1.273-0.234-1.712,0.024
		c-0.942,0.57-1.979,1.556-3.11,2.962c-1.312,1.628-2.084,3.091-2.313,4.393c-0.048,0.307,0.05,0.463,0.301,0.463
		c0.33,0,0.734-0.19,1.215-0.571c1.109-0.886,2.304-1.995,3.587-3.334c1.308-1.388,2.149-2.436,2.52-3.14
		c0.21-0.388,0.375-0.762,0.495-1.12c1.036-2.984,2.196-5.536,3.474-7.653c0.998-1.655,1.875-2.765,2.634-3.334
		c0.278-0.219,0.549-0.329,0.809-0.329c0.279,0,0.639,0.133,1.079,0.398C199.285,79.874,196.243,81.648,196.753,81.977z"/>
	<path clip-path="url(#XMLID_41_)" fill="#46166B" d="M205.736,91.328c-0.923,2.065-1.561,3.798-1.912,5.199
		c0.151-0.11-0.898-0.955-0.652-1.185c0.244-0.229,0.397-0.364,0.458-0.404c0.141-0.142,0.29-0.213,0.45-0.213
		c0.149,0,0.226,0.061,0.226,0.18c0,0.073-0.04,0.158-0.119,0.254c-0.943,1.123,0.516,3.214-0.54,4.263
		c-0.284,0.282-0.317,0.296-0.498,0.296c-0.17,0-0.487-0.13-0.948-0.39c-0.269-0.146-0.425-0.269-0.465-0.366
		c-0.049-0.089-0.049-0.268,0-0.535c0.422-2.063,0.949-3.777,1.58-5.143c-0.87,1.147-2.053,2.416-3.55,3.806
		c-1.309,1.21-2.252,1.983-2.83,2.316c-0.422,0.235-0.74,0.354-0.959,0.354c-0.179,0-0.454-0.119-0.824-0.354
		c-0.527-0.259-0.794-0.619-0.794-1.072c0-0.089,0.011-0.191,0.032-0.306c0.175-1.204,0.822-2.602,1.936-4.2
		c1.113-1.596,2.394-2.942,3.844-4.041c0.469-0.357,1.999-0.238,2.369-0.23c0.36,0.016,2.079,0.171,0.944,0.869
		c-0.462,0.285,0.135,0.135,0.135,0.208c0,0.131-0.104,0.196-0.315,0.196c-0.079,0-0.154-0.012-0.224-0.036
		c-0.71-0.246-1.279-0.238-1.709,0.024c-0.939,0.562-1.979,1.549-3.118,2.964c-1.32,1.625-2.113,3.089-2.384,4.389
		c-0.009,0.058-0.016,0.111-0.016,0.159c0,0.204,0.102,0.305,0.301,0.305c0.339,0,0.746-0.191,1.216-0.578
		c1.122-0.891,2.325-2.006,3.606-3.345c1.313-1.384,2.152-2.43,2.524-3.134c0.27-0.518,0.446-0.882,0.525-1.093
		c0.13-0.364-1.485-1.066,0.421-0.545c0.135,0.037,0.502,0.165,1.051,0.497c0.23,0.138,0.356,0.264,0.377,0.378
		C205.892,90.915,205.846,91.085,205.736,91.328"/>
	<path clip-path="url(#XMLID_41_)" fill="none" stroke="#46166B" stroke-width="3.6" d="M205.736,91.328
		c-0.923,2.065-1.561,3.798-1.912,5.199c0.151-0.11-0.898-0.955-0.652-1.185c0.244-0.229,0.397-0.364,0.458-0.404
		c0.141-0.142,0.29-0.213,0.45-0.213c0.149,0,0.226,0.061,0.226,0.18c0,0.073-0.04,0.158-0.119,0.254
		c-0.943,1.123,0.516,3.214-0.54,4.263c-0.284,0.282-0.317,0.296-0.498,0.296c-0.17,0-0.487-0.13-0.948-0.39
		c-0.269-0.146-0.425-0.269-0.465-0.366c-0.049-0.089-0.049-0.268,0-0.535c0.422-2.063,0.949-3.777,1.58-5.143
		c-0.87,1.147-2.053,2.416-3.55,3.806c-1.309,1.21-2.252,1.983-2.83,2.316c-0.422,0.235-0.74,0.354-0.959,0.354
		c-0.179,0-0.454-0.119-0.824-0.354c-0.527-0.259-0.794-0.619-0.794-1.072c0-0.089,0.011-0.191,0.032-0.306
		c0.175-1.204,0.822-2.602,1.936-4.2c1.113-1.596,2.394-2.942,3.844-4.041c0.469-0.357,1.999-0.238,2.369-0.23
		c0.36,0.016,2.079,0.171,0.944,0.869c-0.462,0.285,0.135,0.135,0.135,0.208c0,0.131-0.104,0.196-0.315,0.196
		c-0.079,0-0.154-0.012-0.224-0.036c-0.71-0.246-1.279-0.238-1.709,0.024c-0.939,0.562-1.979,1.549-3.118,2.964
		c-1.32,1.625-2.113,3.089-2.384,4.389c-0.009,0.058-0.016,0.111-0.016,0.159c0,0.204,0.102,0.305,0.301,0.305
		c0.339,0,0.746-0.191,1.216-0.578c1.122-0.891,2.325-2.006,3.606-3.345c1.313-1.384,2.152-2.43,2.524-3.134
		c0.27-0.518,0.446-0.882,0.525-1.093c0.13-0.364-1.485-1.066,0.421-0.545c0.135,0.037,0.502,0.165,1.051,0.497
		c0.23,0.138,0.356,0.264,0.377,0.378C205.892,90.915,205.846,91.085,205.736,91.328z"/>
	<path clip-path="url(#XMLID_41_)" fill="#46166B" d="M219.46,90.999c-1.389,5.193-2.692,9.077-3.911,11.652
		c-2.359,5.004-5.067,7.508-8.124,7.508c-1.786,0-18.848-6.66-20.905-8.229c-0.181-0.138-0.271-0.283-0.271-0.435
		c0-0.243,0.139-0.364,0.42-0.364c0.141,0,0.275,0.045,0.404,0.134c1.629,1.12,18.222,7.555,19.501,7.555
		c2.349,0,4.482-1.585,6.401-4.756c1.51-2.484,2.823-5.817,3.944-10c0.069-0.298,0.184-0.756,0.344-1.372
		c-1.053,1.381-2.229,2.742-3.532,4.081c-1.253,1.29-2.242,2.179-2.962,2.663c-0.401,0.266-0.722,0.399-0.962,0.399
		c-0.19,0-0.417-0.271-0.618-0.44c-0.211-0.219,0.52-0.682,0.193-0.522c-0.964,0.467,0.717,0.284,0,0
		c-0.012-0.005-0.048,0.088-0.048-0.302c0-0.192-0.356,0.562-0.193,0.522c0.486-0.526,0.5-2.313,0.928-4.059
		c0.324-1.376,0.549-2.681,0.669-3.919c0.02-0.291-0.024-0.436-0.136-0.436c-0.03,0,0.765-0.177,0.323,0.117
		c-0.708,0.483,0.144,1.758-0.241,1.704c-0.138-0.02,0.241-0.874,0.241-0.989c0-0.056,0.385-0.385-0.145-0.521
		c-0.314-0.082-0.049,0.357-0.145-0.495c-0.077-0.683,0.027-1.197,0.208-1.197c0.14,0,0.465-0.158,0.708-0.067
		c0.515-0.062,0.669,0.11,0.729,0.11c0.342,0,0.515,0.212,0.515,0.633c0,0.705-0.252,2.084-0.756,4.139
		c-0.505,2.054-0.918,3.383-1.239,3.982c0.998-0.642,2.292-1.898,3.889-3.772c1.556-1.825,2.524-3.198,2.904-4.124
		c0.02-0.544,0.484-0.693,0.755-0.693c0.208,0,0.731,0.036,1.301,0.385C219.967,90.083,219.6,90.464,219.46,90.999"/>
	<path clip-path="url(#XMLID_41_)" fill="none" stroke="#46166B" stroke-width="3.6" d="M219.46,90.999
		c-1.389,5.193-2.692,9.077-3.911,11.652c-2.359,5.004-5.067,7.508-8.124,7.508c-1.786,0-18.848-6.66-20.905-8.229
		c-0.181-0.138-0.271-0.283-0.271-0.435c0-0.243,0.139-0.364,0.42-0.364c0.141,0,0.275,0.045,0.404,0.134
		c1.629,1.12,18.222,7.555,19.501,7.555c2.349,0,4.482-1.585,6.401-4.756c1.51-2.484,2.823-5.817,3.944-10
		c0.069-0.298,0.184-0.756,0.344-1.372c-1.053,1.381-2.229,2.742-3.532,4.081c-1.253,1.29-2.242,2.179-2.962,2.663
		c-0.401,0.266-0.722,0.399-0.962,0.399c-0.19,0-0.417-0.271-0.618-0.44c-0.211-0.219,0.52-0.682,0.193-0.522
		c-0.964,0.467,0.717,0.284,0,0c-0.012-0.005-0.048,0.088-0.048-0.302c0-0.192-0.356,0.562-0.193,0.522
		c0.486-0.526,0.5-2.313,0.928-4.059c0.324-1.376,0.549-2.681,0.669-3.919c0.02-0.291-0.024-0.436-0.136-0.436
		c-0.03,0,0.765-0.177,0.323,0.117c-0.708,0.483,0.144,1.758-0.241,1.704c-0.138-0.02,0.241-0.874,0.241-0.989
		c0-0.056,0.385-0.385-0.145-0.521c-0.314-0.082-0.049,0.357-0.145-0.495c-0.077-0.683,0.027-1.197,0.208-1.197
		c0.14,0,0.465-0.158,0.708-0.067c0.515-0.062,0.669,0.11,0.729,0.11c0.342,0,0.515,0.212,0.515,0.633
		c0,0.705-0.252,2.084-0.756,4.139c-0.505,2.054-0.918,3.383-1.239,3.982c0.998-0.642,2.292-1.898,3.889-3.772
		c1.556-1.825,2.524-3.198,2.904-4.124c0.02-0.544,0.484-0.693,0.755-0.693c0.208,0,0.731,0.036,1.301,0.385
		C219.967,90.083,219.6,90.464,219.46,90.999z"/>
	<path clip-path="url(#XMLID_41_)" fill="#46166B" d="M119.625,108.357c-0.483,1.58-1.043,2.798-1.679,3.657
		c-0.292,0.405-0.58,0.608-0.862,0.608c-0.112,0-0.246-0.021-0.408-0.062c-0.766-0.183-1.149-0.405-1.149-0.664
		c0-0.128,0.104-0.213,0.313-0.253c0.875-1.063,1.392-2.339,1.552-3.829c-0.546-0.394-1.061-0.592-1.547-0.592
		c-1.031,0-2.252,0.742-3.66,2.225c-1.3,1.388-2.427,3.035-3.379,4.938c-0.993,1.984-1.47,3.639-1.435,4.961
		c0.01,0.767,0.292,1.339,0.849,1.717c0.406,0.275,0.869,0.412,1.386,0.412c0.298,0,0.64-0.047,1.028-0.144
		c0.953-0.243,2.055-0.71,3.307-1.402c1.189-0.661,1.983-1.423,2.978-2.018c1.18-0.706,0.253,0.229,0.304-0.11
		c0.029-0.177,0.708-0.596,0.876-0.596c0.139,0,0.242,0.073,0.312,0.219c0.357,0.728,0.209,0.973,0.209,1.255
		c0,0.268-0.242,0.384-0.512,0.619c-0.18,0.146-0.602,0.425-1.268,0.837c-2.11,1.288-3.921,2.089-5.434,2.404
		c-0.467,0.096-0.896,0.145-1.283,0.145c-0.816,0-1.438-0.222-1.866-0.667c-1.941-0.59-2.911-1.491-2.911-2.704
		c0-1.958,0.632-4.059,1.899-6.307c1.086-1.948,2.426-3.662,4.021-5.141c1.534-1.415,2.776-2.215,3.737-2.208
		c3.279,0.025,3.305,0.523,3.857,0.712c0.834,0.285-2.042,0.024-1.255,0.542c0.05-0.342,0.186-0.513,0.409-0.513
		c0.243,0,0.848,0.054,1.425,0.41c0.363,0.227,0.351,0.569,0.351,0.78C119.792,107.73,119.736,107.985,119.625,108.357"/>
	<path clip-path="url(#XMLID_41_)" fill="none" stroke="#46166B" stroke-width="3.6" d="M119.625,108.357
		c-0.483,1.58-1.043,2.798-1.679,3.657c-0.292,0.405-0.58,0.608-0.862,0.608c-0.112,0-0.246-0.021-0.408-0.062
		c-0.766-0.183-1.149-0.405-1.149-0.664c0-0.128,0.104-0.213,0.313-0.253c0.875-1.063,1.392-2.339,1.552-3.829
		c-0.546-0.394-1.061-0.592-1.547-0.592c-1.031,0-2.252,0.742-3.66,2.225c-1.3,1.388-2.427,3.035-3.379,4.938
		c-0.993,1.984-1.47,3.639-1.435,4.961c0.01,0.767,0.292,1.339,0.849,1.717c0.406,0.275,0.869,0.412,1.386,0.412
		c0.298,0,0.64-0.047,1.028-0.144c0.953-0.243,2.055-0.71,3.307-1.402c1.189-0.661,1.983-1.423,2.978-2.018
		c1.18-0.706,0.253,0.229,0.304-0.11c0.029-0.177,0.708-0.596,0.876-0.596c0.139,0,0.242,0.073,0.312,0.219
		c0.357,0.728,0.209,0.973,0.209,1.255c0,0.268-0.242,0.384-0.512,0.619c-0.18,0.146-0.602,0.425-1.268,0.837
		c-2.11,1.288-3.921,2.089-5.434,2.404c-0.467,0.096-0.896,0.145-1.283,0.145c-0.816,0-1.438-0.222-1.866-0.667
		c-1.941-0.59-2.911-1.491-2.911-2.704c0-1.958,0.632-4.059,1.899-6.307c1.086-1.948,2.426-3.662,4.021-5.141
		c1.534-1.415,2.776-2.215,3.737-2.208c3.279,0.025,3.305,0.523,3.857,0.712c0.834,0.285-2.042,0.024-1.255,0.542
		c0.05-0.342,0.186-0.513,0.409-0.513c0.243,0,0.848,0.054,1.425,0.41c0.363,0.227,0.351,0.569,0.351,0.78
		C119.792,107.73,119.736,107.985,119.625,108.357z"/>
	<path clip-path="url(#XMLID_41_)" fill="#46166B" d="M145.299,59.319c-1.107,0.835-2.349,2.609-3.724,5.322
		c-1.856,3.646-19.62,51.163-20.775,56.308c-0.081,0.396,0.004,0.68,0.253,0.85c0.5,0.333,0.835,0.498,1.005,0.498
		c0.189,0,0.394-0.25,0.613-0.752c0.81-1.753,1.955-3.472,3.433-5.154c1.119-1.277,2.063-2.165,2.833-2.667
		c0.42-0.274,0.694-0.411,0.824-0.411c0.2,0,0.285,0.246,0.254,0.741c-0.102,1.729-1.015,4.343-2.743,7.845
		c-0.131,0.243-0.096,0.421,0.104,0.535c0.491,0.283,0.866,0.425,1.128,0.425c0.229,0,0.411-0.13,0.541-0.389
		c0.31-0.55,0.506-0.89,0.586-1.019c0.959-1.312,0.797-4.288,1.376-4.968c0.13-0.154-0.434,1.357-0.434,1.236
		c0-0.105-0.114,0.37-0.066,0.233c2.432-6.875-0.713,0.613,0,0c-0.668,0.652-0.093,1.292-0.402,1.629
		c0.846-2.046,1.355-3.789,1.524-5.23c0.02-0.154,0.03-0.294,0.03-0.424c0-0.461-0.13-0.786-0.39-0.972
		c-0.069-0.049-0.118-0.113-0.648-0.291c-0.182-0.116-0.952-0.192-1.012-0.192c-0.21,0-0.528-0.034-0.978,0.29
		c-2.098,1.514-3.961,3.538-5.591,6.071c1.267-5.648,20.1-54.032,22.107-56.833C147.16,59.201,145.299,59.319,145.299,59.319"/>
	<path clip-path="url(#XMLID_41_)" fill="none" stroke="#46166B" stroke-width="3.6" d="M145.299,59.319
		c-1.107,0.835-2.349,2.609-3.724,5.322c-1.856,3.646-19.62,51.163-20.775,56.308c-0.081,0.396,0.004,0.68,0.253,0.85
		c0.5,0.333,0.835,0.498,1.005,0.498c0.189,0,0.394-0.25,0.613-0.752c0.81-1.753,1.955-3.472,3.433-5.154
		c1.119-1.277,2.063-2.165,2.833-2.667c0.42-0.274,0.694-0.411,0.824-0.411c0.2,0,0.285,0.246,0.254,0.741
		c-0.102,1.729-1.015,4.343-2.743,7.845c-0.131,0.243-0.096,0.421,0.104,0.535c0.491,0.283,0.866,0.425,1.128,0.425
		c0.229,0,0.411-0.13,0.541-0.389c0.31-0.55,0.506-0.89,0.586-1.019c0.959-1.312,0.797-4.288,1.376-4.968
		c0.13-0.154-0.434,1.357-0.434,1.236c0-0.105-0.114,0.37-0.066,0.233c2.432-6.875-0.713,0.613,0,0
		c-0.668,0.652-0.093,1.292-0.402,1.629c0.846-2.046,1.355-3.789,1.524-5.23c0.02-0.154,0.03-0.294,0.03-0.424
		c0-0.461-0.13-0.786-0.39-0.972c-0.069-0.049-0.118-0.113-0.648-0.291c-0.182-0.116-0.952-0.192-1.012-0.192
		c-0.21,0-0.528-0.034-0.978,0.29c-2.098,1.514-3.961,3.538-5.591,6.071c1.267-5.648,20.1-54.032,22.107-56.833
		C147.16,59.201,145.299,59.319,145.299,59.319z"/>
	<path clip-path="url(#XMLID_41_)" fill="#46166B" d="M145.982,113.569c-1.331,1.998-2.327,4.344-2.986,7.037
		c0.28-0.395-0.189-1.556,0.21-2.168c0.049-0.113,0.128-0.169,0.238-0.169c0.15,0,0.049-0.292,0.049-0.138
		c0,0.048,0.161,0.468,0.131,0.525c-0.638,1.177-0.249,2.745-0.448,3.382c-0.119,0.403-0.279,0.604-0.478,0.604
		c-0.198,0-0.587-0.157-1.167-0.473c-0.309-0.179-0.413-0.494-0.313-0.949c0.417-1.766,0.922-3.303,1.511-4.61
		c-1.935,2.546-3.557,4.423-4.87,5.632c-0.29,0.267-0.606,0.4-0.946,0.4c-0.28,0-0.61-0.086-0.992-0.259
		c-0.689-0.097-1.036-0.39-1.036-0.879c0-0.088,0.01-0.186,0.029-0.292c0.248-2.325,0.76-4.257,1.54-5.793
		c-0.163,0.129,0.091,0.178-0.235,0.425c-0.127,0.089-0.006,0.845-0.052,0.5c-0.025-0.187-0.058-0.362,0.052-0.5
		c0.539-0.637-0.148,0.418,0.045-0.269c0.166-0.592,0.802-2.169,1.139-2.516c0.18-0.177,0.371-0.266,0.569-0.266
		c0.267,0,0.663,0.128,1.18,0.387c0.141,0.073,0.209,0.146,0.209,0.217l-0.332,0.402c-0.507,0.615-1.042,1.701-1.607,3.252
		c-0.615,1.685-0.929,3.058-0.939,4.117c0,0.348,0.089,0.522,0.271,0.522c0.16,0,0.423-0.15,0.783-0.45
		c0.773-0.662,1.892-1.914,3.357-3.757c1.294-1.625,2.076-2.684,2.35-3.178c0.45-0.824,0.816-1.308,1.098-1.454
		c0.181-0.097,0.34-0.146,0.48-0.146c0.14,0,0.413,0.085,0.813,0.255c0.404,0.17,0.604,0.294,0.604,0.375
		c0,0.024-0.036,0.057-0.105,0.098S146.013,113.521,145.982,113.569"/>
	<path clip-path="url(#XMLID_41_)" fill="none" stroke="#46166B" stroke-width="3.6" d="M145.982,113.569
		c-1.331,1.998-2.327,4.344-2.986,7.037c0.28-0.395-0.189-1.556,0.21-2.168c0.049-0.113,0.128-0.169,0.238-0.169
		c0.15,0,0.049-0.292,0.049-0.138c0,0.048,0.161,0.468,0.131,0.525c-0.638,1.177-0.249,2.745-0.448,3.382
		c-0.119,0.403-0.279,0.604-0.478,0.604c-0.198,0-0.587-0.157-1.167-0.473c-0.309-0.179-0.413-0.494-0.313-0.949
		c0.417-1.766,0.922-3.303,1.511-4.61c-1.935,2.546-3.557,4.423-4.87,5.632c-0.29,0.267-0.606,0.4-0.946,0.4
		c-0.28,0-0.61-0.086-0.992-0.259c-0.689-0.097-1.036-0.39-1.036-0.879c0-0.088,0.01-0.186,0.029-0.292
		c0.248-2.325,0.76-4.257,1.54-5.793c-0.163,0.129,0.091,0.178-0.235,0.425c-0.127,0.089-0.006,0.845-0.052,0.5
		c-0.025-0.187-0.058-0.362,0.052-0.5c0.539-0.637-0.148,0.418,0.045-0.269c0.166-0.592,0.802-2.169,1.139-2.516
		c0.18-0.177,0.371-0.266,0.569-0.266c0.267,0,0.663,0.128,1.18,0.387c0.141,0.073,0.209,0.146,0.209,0.217l-0.332,0.402
		c-0.507,0.615-1.042,1.701-1.607,3.252c-0.615,1.685-0.929,3.058-0.939,4.117c0,0.348,0.089,0.522,0.271,0.522
		c0.16,0,0.423-0.15,0.783-0.45c0.773-0.662,1.892-1.914,3.357-3.757c1.294-1.625,2.076-2.684,2.35-3.178
		c0.45-0.824,0.816-1.308,1.098-1.454c0.181-0.097,0.34-0.146,0.48-0.146c0.14,0,0.413,0.085,0.813,0.255
		c0.404,0.17,0.604,0.294,0.604,0.375c0,0.024-0.036,0.057-0.105,0.098S146.013,113.521,145.982,113.569z"/>
	<path clip-path="url(#XMLID_41_)" fill="#46166B" d="M161.406,90.821c-1.331,1.999-2.327,4.345-2.986,7.038
		c0.28-0.395-0.189-1.556,0.209-2.168c0.049-0.112,0.128-0.169,0.239-0.169c0.148,0,0.048-0.291,0.048-0.138
		c0,0.049,0.161,0.468,0.13,0.525c-0.638,1.177-0.248,2.745-0.448,3.382c-0.119,0.403-0.279,0.604-0.478,0.604
		c-0.198,0-0.587-0.157-1.167-0.473c-0.309-0.179-0.413-0.494-0.314-0.949c0.418-1.766,0.923-3.303,1.512-4.61
		c-1.935,2.546-3.557,4.423-4.87,5.632c-0.29,0.267-0.607,0.4-0.946,0.4c-0.28,0-0.611-0.086-0.993-0.259
		c-0.689-0.097-1.036-0.39-1.036-0.879c0-0.088,0.01-0.186,0.029-0.292c0.248-2.325,0.76-4.257,1.541-5.793
		c-0.163,0.13,0.091,0.178-0.235,0.426c-0.128,0.088-0.006,0.844-0.052,0.5c-0.024-0.187-0.058-0.363,0.052-0.5
		c0.539-0.637-0.148,0.417,0.044-0.27c0.166-0.593,0.802-2.169,1.14-2.516c0.179-0.177,0.371-0.266,0.568-0.266
		c0.267,0,0.663,0.127,1.18,0.387c0.141,0.073,0.21,0.146,0.21,0.217l-0.333,0.402c-0.506,0.615-1.042,1.701-1.607,3.252
		c-0.615,1.685-0.93,3.058-0.939,4.117c0,0.348,0.089,0.522,0.27,0.522c0.161,0,0.423-0.15,0.783-0.45
		c0.773-0.661,1.893-1.913,3.358-3.757c1.294-1.625,2.076-2.683,2.35-3.177c0.45-0.824,0.816-1.308,1.099-1.454
		c0.18-0.097,0.339-0.146,0.479-0.146s0.414,0.085,0.813,0.255c0.403,0.17,0.604,0.294,0.604,0.375c0,0.024-0.036,0.057-0.106,0.098
		S161.437,90.773,161.406,90.821"/>
	<path clip-path="url(#XMLID_41_)" fill="none" stroke="#46166B" stroke-width="3.6" d="M161.406,90.821
		c-1.331,1.999-2.327,4.345-2.986,7.038c0.28-0.395-0.189-1.556,0.209-2.168c0.049-0.112,0.128-0.169,0.239-0.169
		c0.148,0,0.048-0.291,0.048-0.138c0,0.049,0.161,0.468,0.13,0.525c-0.638,1.177-0.248,2.745-0.448,3.382
		c-0.119,0.403-0.279,0.604-0.478,0.604c-0.198,0-0.587-0.157-1.167-0.473c-0.309-0.179-0.413-0.494-0.314-0.949
		c0.418-1.766,0.923-3.303,1.512-4.61c-1.935,2.546-3.557,4.423-4.87,5.632c-0.29,0.267-0.607,0.4-0.946,0.4
		c-0.28,0-0.611-0.086-0.993-0.259c-0.689-0.097-1.036-0.39-1.036-0.879c0-0.088,0.01-0.186,0.029-0.292
		c0.248-2.325,0.76-4.257,1.541-5.793c-0.163,0.13,0.091,0.178-0.235,0.426c-0.128,0.088-0.006,0.844-0.052,0.5
		c-0.024-0.187-0.058-0.363,0.052-0.5c0.539-0.637-0.148,0.417,0.044-0.27c0.166-0.593,0.802-2.169,1.14-2.516
		c0.179-0.177,0.371-0.266,0.568-0.266c0.267,0,0.663,0.127,1.18,0.387c0.141,0.073,0.21,0.146,0.21,0.217l-0.333,0.402
		c-0.506,0.615-1.042,1.701-1.607,3.252c-0.615,1.685-0.93,3.058-0.939,4.117c0,0.348,0.089,0.522,0.27,0.522
		c0.161,0,0.423-0.15,0.783-0.45c0.773-0.661,1.893-1.913,3.358-3.757c1.294-1.625,2.076-2.683,2.35-3.177
		c0.45-0.824,0.816-1.308,1.099-1.454c0.18-0.097,0.339-0.146,0.479-0.146s0.414,0.085,0.813,0.255
		c0.403,0.17,0.604,0.294,0.604,0.375c0,0.024-0.036,0.057-0.106,0.098S161.437,90.773,161.406,90.821z"/>
	<path clip-path="url(#XMLID_41_)" fill="#46166B" d="M156.71,113.236c0,1.066-0.172,2.081-0.517,3.05
		c-0.111,0.292-0.259,0.439-0.447,0.439c-0.137,0-0.443-0.161-0.92-0.481c-0.236-0.16-0.296-0.39-0.18-0.686
		c0.273-0.729,0.412-1.314,0.412-1.757c0-0.152-0.04-0.228-0.121-0.228c-0.119,0-0.314,0.144-0.584,0.434
		c-2.076,2.183-3.627,4.631-4.655,7.344c-0.329,0.861-0.609,1.292-0.838,1.292c-0.091,0-0.484-0.141-1.185-0.425
		c-0.338-0.137-0.452-0.403-0.342-0.8c0.702-2.483,1.499-4.859,2.555-7.088c-0.739,0.631,0.044,1.147-0.157,1.382
		c-0.08,0.098,0.454,0.36,0.314,0.36c-0.169,0-0.626-0.153-0.626-0.275c0-0.072-0.08-0.103,0-0.193
		c0.49-0.479-0.26-1.462,0.559-2.445c0.251-0.356,0.5-0.536,0.751-0.536c0.18,0,0.543,0.114,1.091,0.341
		c0.311,0.129,0.361,0.303,0.151,0.521c-0.22,0.237-0.634,1.068-1.242,2.496c-0.581,1.388-0.98,2.474-1.199,3.262
		c1.352-2.446,2.892-4.604,4.614-6.477c0.326-0.356,0.619,0.021,0.506-0.266c-0.04-0.1,1.244-0.276,1.554-0.103
		c0.417,0.04,0.325,0.223,0.435,0.289C156.81,112.783,156.71,112.944,156.71,113.236"/>
	<path clip-path="url(#XMLID_41_)" fill="none" stroke="#46166B" stroke-width="3.6" d="M156.71,113.236
		c0,1.066-0.172,2.081-0.517,3.05c-0.111,0.292-0.259,0.439-0.447,0.439c-0.137,0-0.443-0.161-0.92-0.481
		c-0.236-0.16-0.296-0.39-0.18-0.686c0.273-0.729,0.412-1.314,0.412-1.757c0-0.152-0.04-0.228-0.121-0.228
		c-0.119,0-0.314,0.144-0.584,0.434c-2.076,2.183-3.627,4.631-4.655,7.344c-0.329,0.861-0.609,1.292-0.838,1.292
		c-0.091,0-0.484-0.141-1.185-0.425c-0.338-0.137-0.452-0.403-0.342-0.8c0.702-2.483,1.499-4.859,2.555-7.088
		c-0.739,0.631,0.044,1.147-0.157,1.382c-0.08,0.098,0.454,0.36,0.314,0.36c-0.169,0-0.626-0.153-0.626-0.275
		c0-0.072-0.08-0.103,0-0.193c0.49-0.479-0.26-1.462,0.559-2.445c0.251-0.356,0.5-0.536,0.751-0.536c0.18,0,0.543,0.114,1.091,0.341
		c0.311,0.129,0.361,0.303,0.151,0.521c-0.22,0.237-0.634,1.068-1.242,2.496c-0.581,1.388-0.98,2.474-1.199,3.262
		c1.352-2.446,2.892-4.604,4.614-6.477c0.326-0.356,0.619,0.021,0.506-0.266c-0.04-0.1,1.244-0.276,1.554-0.103
		c0.417,0.04,0.325,0.223,0.435,0.289C156.81,112.783,156.71,112.944,156.71,113.236z"/>
	<path clip-path="url(#XMLID_41_)" fill="#46166B" d="M166.235,113.436c0,1.254-0.216,2.265-0.649,3.031
		c-0.184,0.316-0.466,0.389-0.851,0.222c-0.562-0.251-0.846-0.457-0.846-0.615c0-0.074,0.068-0.149,0.205-0.23
		c0.355-0.772,0.518-1.372,0.489-1.798c-0.021-0.362-0.246-0.543-0.678-0.543c-0.052,0-0.126-0.01-0.226-0.029
		c-0.102-0.021-0.182-0.031-0.241-0.031c-0.352,0-0.783,0.267-1.296,0.801c-0.564,0.6-1.1,1.435-1.612,2.504
		c-0.424,0.883-0.703,1.639-0.844,2.271c-0.112,0.453-0.165,0.867-0.165,1.24c0,1.24,0.486,1.847,1.465,1.822
		c0.854-0.016,2.109-0.888,3.764-2.617c0.16-0.156,0.305-0.234,0.436-0.234s0.196,0.065,0.196,0.195
		c0,0.065-0.025,0.146-0.075,0.243c-0.532,1.06-1.232,1.992-2.096,2.798c-0.214,0.204-0.585,0.305-1.118,0.305
		c-0.321,0-0.714-0.058-1.178-0.172c-0.925-0.049-1.666-0.287-2.219-0.717c-0.593-0.46-0.87-1.064-0.829-1.808
		c0.041-0.857,0.41-2.046,1.113-3.567c0.749-1.651,1.535-2.848,2.359-3.594c0.378-0.338,1.22-0.58,1.481-0.58
		c0.26,0,0.53-0.083,1.446,0c0.456,0.041,0.857,0.049,1.205,0.165C166.183,112.735,166.235,112.985,166.235,113.436"/>
	<path clip-path="url(#XMLID_41_)" fill="none" stroke="#46166B" stroke-width="3.6" d="M166.235,113.436
		c0,1.254-0.216,2.265-0.649,3.031c-0.184,0.316-0.466,0.389-0.851,0.222c-0.562-0.251-0.846-0.457-0.846-0.615
		c0-0.074,0.068-0.149,0.205-0.23c0.355-0.772,0.518-1.372,0.489-1.798c-0.021-0.362-0.246-0.543-0.678-0.543
		c-0.052,0-0.126-0.01-0.226-0.029c-0.102-0.021-0.182-0.031-0.241-0.031c-0.352,0-0.783,0.267-1.296,0.801
		c-0.564,0.6-1.1,1.435-1.612,2.504c-0.424,0.883-0.703,1.639-0.844,2.271c-0.112,0.453-0.165,0.867-0.165,1.24
		c0,1.24,0.486,1.847,1.465,1.822c0.854-0.016,2.109-0.888,3.764-2.617c0.16-0.156,0.305-0.234,0.436-0.234s0.196,0.065,0.196,0.195
		c0,0.065-0.025,0.146-0.075,0.243c-0.532,1.06-1.232,1.992-2.096,2.798c-0.214,0.204-0.585,0.305-1.118,0.305
		c-0.321,0-0.714-0.058-1.178-0.172c-0.925-0.049-1.666-0.287-2.219-0.717c-0.593-0.46-0.87-1.064-0.829-1.808
		c0.041-0.857,0.41-2.046,1.113-3.567c0.749-1.651,1.535-2.848,2.359-3.594c0.378-0.338,1.22-0.58,1.481-0.58
		c0.26,0,0.53-0.083,1.446,0c0.456,0.041,0.857,0.049,1.205,0.165C166.183,112.735,166.235,112.985,166.235,113.436z"/>
	<path clip-path="url(#XMLID_41_)" fill="#46166B" d="M176.895,102.966c0.129,0.082-0.166,0.581-0.241,0.495
		c-0.289-0.33-0.072-0.673,0.145-0.138c0.109,0.272,1.253,0.22,0.916-0.604c-0.419-1.025-1.707,0.631-0.505,0.631
		c0.608,0-0.41,0.782-1.16,1.772c-2.634,3.491-4.585,8.062-5.85,13.71c1.628-2.533,3.608-4.409,5.708-5.921
		c0.616-0.444,2.806,0.438,1.012-0.33c-0.289-0.124-0.609,0.09,0,0c0.594-0.088,1.439,0.325,1.509,0.373
		c0.259,0.187,0.39,0.511,0.39,0.973c0,0.129-0.011,0.27-0.03,0.423c-0.171,1.442-0.678,3.185-1.525,5.23
		c0.308-0.337,0.216-1.458,0.885-2.109c0.161-0.136,0.47-2.17,0.362-2.17c-0.084,0-0.814,4.537-0.073,1.154
		c0.026-0.12-0.159,0.534-0.289,0.687c-0.245,0.287,1.012-1.593-1.36,4.309c-0.054,0.133-0.277,0.469-0.585,1.02
		c-0.13,0.258-0.313,0.389-0.542,0.389c-0.261,0-0.637-0.142-1.127-0.426c-0.201-0.113-0.236-0.292-0.104-0.535
		c1.729-3.502,2.641-6.117,2.743-7.845c0.03-0.494-0.055-0.741-0.256-0.741c-0.13,0-0.404,0.138-0.824,0.412
		c-0.77,0.502-1.714,1.39-2.832,2.667c-1.48,1.682-2.624,3.4-3.432,5.154c-0.221,0.501-0.425,0.751-0.615,0.751
		c-0.169,0-0.505-0.166-1.004-0.498c-0.249-0.17-0.334-0.454-0.255-0.851c1.157-5.145,2.662-9.538,4.519-13.185
		c1.377-2.713,2.618-4.487,3.726-5.322c0.278-0.211,0.631-0.293,0.887-0.245C177.955,102.362,176.466,102.708,176.895,102.966
		C177.394,103.297,176.396,102.636,176.895,102.966"/>
	<path clip-path="url(#XMLID_41_)" fill="none" stroke="#46166B" stroke-width="3.6" d="M176.895,102.966
		c0.129,0.082-0.166,0.581-0.241,0.495c-0.289-0.33-0.072-0.673,0.145-0.138c0.109,0.272,1.253,0.22,0.916-0.604
		c-0.419-1.025-1.707,0.631-0.505,0.631c0.608,0-0.41,0.782-1.16,1.772c-2.634,3.491-4.585,8.062-5.85,13.71
		c1.628-2.533,3.608-4.409,5.708-5.921c0.616-0.444,2.806,0.438,1.012-0.33c-0.289-0.124-0.609,0.09,0,0
		c0.594-0.088,1.439,0.325,1.509,0.373c0.259,0.187,0.39,0.511,0.39,0.973c0,0.129-0.011,0.27-0.03,0.423
		c-0.171,1.442-0.678,3.185-1.525,5.23c0.308-0.337,0.216-1.458,0.885-2.109c0.161-0.136,0.47-2.17,0.362-2.17
		c-0.084,0-0.814,4.537-0.073,1.154c0.026-0.12-0.159,0.534-0.289,0.687c-0.245,0.287,1.012-1.593-1.36,4.309
		c-0.054,0.133-0.277,0.469-0.585,1.02c-0.13,0.258-0.313,0.389-0.542,0.389c-0.261,0-0.637-0.142-1.127-0.426
		c-0.201-0.113-0.236-0.292-0.104-0.535c1.729-3.502,2.641-6.117,2.743-7.845c0.03-0.494-0.055-0.741-0.256-0.741
		c-0.13,0-0.404,0.138-0.824,0.412c-0.77,0.502-1.714,1.39-2.832,2.667c-1.48,1.682-2.624,3.4-3.432,5.154
		c-0.221,0.501-0.425,0.751-0.615,0.751c-0.169,0-0.505-0.166-1.004-0.498c-0.249-0.17-0.334-0.454-0.255-0.851
		c1.157-5.145,2.662-9.538,4.519-13.185c1.377-2.713,2.618-4.487,3.726-5.322c0.278-0.211,0.631-0.293,0.887-0.245
		C177.955,102.362,176.466,102.708,176.895,102.966C177.394,103.297,176.396,102.636,176.895,102.966z"/>
	<path clip-path="url(#XMLID_41_)" fill="#46166B" d="M146.047,80c0.129,0.081-0.167,0.58-0.241,0.494
		c-0.289-0.329-0.073-0.673,0.145-0.137c0.11,0.272,1.253,0.22,0.916-0.604c-0.419-1.025-1.707,0.632-0.506,0.632
		c0.608,0-0.409,0.782-1.159,1.772c-2.633,3.49-4.585,8.061-5.85,13.709c1.629-2.533,3.608-4.408,5.708-5.921
		c0.616-0.444,2.806,0.437,1.012-0.33c-0.289-0.124-0.609,0.09,0,0c0.595-0.088,1.439,0.325,1.509,0.373
		c0.259,0.187,0.39,0.511,0.39,0.972c0,0.13-0.011,0.271-0.03,0.424c-0.171,1.441-0.678,3.184-1.525,5.23
		c0.308-0.338,0.217-1.458,0.885-2.11c0.161-0.136,0.471-2.17,0.362-2.17c-0.083,0-0.814,4.537-0.072,1.154
		c0.027-0.12-0.159,0.533-0.29,0.687c-0.244,0.286,1.013-1.593-1.36,4.309c-0.054,0.134-0.277,0.469-0.586,1.019
		c-0.13,0.259-0.312,0.389-0.541,0.389c-0.261,0-0.637-0.142-1.128-0.426c-0.2-0.113-0.235-0.291-0.103-0.535
		c1.729-3.502,2.641-6.117,2.743-7.845c0.03-0.495-0.056-0.741-0.255-0.741c-0.13,0-0.405,0.138-0.824,0.412
		c-0.77,0.503-1.713,1.391-2.832,2.668c-1.479,1.682-2.624,3.4-3.432,5.153c-0.221,0.502-0.425,0.752-0.614,0.752
		c-0.169,0-0.505-0.166-1.005-0.499c-0.249-0.17-0.334-0.453-0.254-0.85c1.156-5.146,2.661-9.539,4.518-13.185
		c1.377-2.713,2.618-4.487,3.726-5.322c0.278-0.211,0.631-0.293,0.888-0.244C147.107,79.395,145.617,79.741,146.047,80
		C146.545,80.33,145.548,79.669,146.047,80"/>
	<path clip-path="url(#XMLID_41_)" fill="none" stroke="#46166B" stroke-width="3.6" d="M146.047,80
		c0.129,0.081-0.167,0.58-0.241,0.494c-0.289-0.329-0.073-0.673,0.145-0.137c0.11,0.272,1.253,0.22,0.916-0.604
		c-0.419-1.025-1.707,0.632-0.506,0.632c0.608,0-0.409,0.782-1.159,1.772c-2.633,3.49-4.585,8.061-5.85,13.709
		c1.629-2.533,3.608-4.408,5.708-5.921c0.616-0.444,2.806,0.437,1.012-0.33c-0.289-0.124-0.609,0.09,0,0
		c0.595-0.088,1.439,0.325,1.509,0.373c0.259,0.187,0.39,0.511,0.39,0.972c0,0.13-0.011,0.271-0.03,0.424
		c-0.171,1.441-0.678,3.184-1.525,5.23c0.308-0.338,0.217-1.458,0.885-2.11c0.161-0.136,0.471-2.17,0.362-2.17
		c-0.083,0-0.814,4.537-0.072,1.154c0.027-0.12-0.159,0.533-0.29,0.687c-0.244,0.286,1.013-1.593-1.36,4.309
		c-0.054,0.134-0.277,0.469-0.586,1.019c-0.13,0.259-0.312,0.389-0.541,0.389c-0.261,0-0.637-0.142-1.128-0.426
		c-0.2-0.113-0.235-0.291-0.103-0.535c1.729-3.502,2.641-6.117,2.743-7.845c0.03-0.495-0.056-0.741-0.255-0.741
		c-0.13,0-0.405,0.138-0.824,0.412c-0.77,0.503-1.713,1.391-2.832,2.668c-1.479,1.682-2.624,3.4-3.432,5.153
		c-0.221,0.502-0.425,0.752-0.614,0.752c-0.169,0-0.505-0.166-1.005-0.499c-0.249-0.17-0.334-0.453-0.254-0.85
		c1.156-5.146,2.661-9.539,4.518-13.185c1.377-2.713,2.618-4.487,3.726-5.322c0.278-0.211,0.631-0.293,0.888-0.244
		C147.107,79.395,145.617,79.741,146.047,80C146.545,80.33,145.548,79.669,146.047,80z"/>
	<path clip-path="url(#XMLID_41_)" fill="#46166B" d="M85.829,125.739c-0.472,0-0.854,0.309-0.854,0.691
		c0,0.381,0.381,0.691,0.854,0.691h158.356c0.473,0,0.852-0.31,0.852-0.691c0-0.382-0.379-0.691-0.852-0.691H85.829z"/>
	<path clip-path="url(#XMLID_41_)" fill="none" stroke="#46166B" stroke-width="3.6" d="M85.829,125.739
		c-0.472,0-0.854,0.309-0.854,0.691c0,0.381,0.381,0.691,0.854,0.691h158.356c0.473,0,0.852-0.31,0.852-0.691
		c0-0.382-0.379-0.691-0.852-0.691H85.829z"/>
	<path clip-path="url(#XMLID_41_)" fill="#46166B" d="M109.18,133.471c-0.164,0.994-0.56,2.066-1.189,3.218
		c-0.57,1.049-1.205,1.947-1.902,2.694c-0.697,0.748-1.257,1.124-1.68,1.128c-0.523,0-1.269-0.264-2.236-0.79
		c-0.074-0.043-0.11-0.092-0.11-0.148c0-0.137,0.098-0.205,0.293-0.205c0.053,0,0.105,0.011,0.158,0.032
		c0.396,0.201,0.835,0.313,1.316,0.334c0.66,0.025,1.506-0.76,2.536-2.357c1.02-1.576,1.611-2.982,1.775-4.22
		c0.053-0.399-0.212-0.694-0.792-0.887c-0.143-0.042-0.262-0.06-0.357-0.051c-1.02,0.116-2.005,0.415-2.957,0.899
		c-0.497,0.959-0.999,2.094-1.506,3.405c-0.555,1.43-0.957,2.667-1.206,3.713c-0.053,0.213-0.164,0.32-0.333,0.32
		c-0.063,0-0.138-0.015-0.222-0.044c-0.275-0.116-0.455-0.21-0.54-0.282c-0.116-0.099-0.174-0.234-0.174-0.406
		c0-0.359,0.071-0.79,0.214-1.291c0.037-0.124,0.091-0.186,0.165-0.186c0.07,0,0.251,0.099,0.548,0.295
		c0.718-1.982,1.4-3.681,2.044-5.094c-1.178,0.6-2.087,1.178-2.727,1.734c-0.147,0.133-0.222,0.287-0.222,0.463
		c0,0.158,0.063,0.337,0.191,0.539c0.126,0.202,0.189,0.317,0.189,0.347c0,0.073-0.061,0.109-0.183,0.109
		c-0.105,0-0.185-0.023-0.238-0.071c-0.661-0.629-0.991-1.064-0.991-1.304c0-0.252,0.212-0.533,0.635-0.84
		c0.893-0.656,2.187-1.379,3.883-2.172c0.281-0.531,0.483-0.796,0.611-0.796c0.095,0,0.29,0.115,0.586,0.347
		c0.29-0.107,0.582-0.214,0.873-0.321c0.242-0.085,0.44-0.128,0.594-0.128c0.254,0,0.595,0.116,1.022,0.346
		c0.022-0.017,0.056-0.025,0.103-0.025c0.296,0,0.749,0.223,1.355,0.668c0.328,0.245,0.492,0.508,0.492,0.79
		C109.204,133.302,109.195,133.381,109.18,133.471"/>
	<path clip-path="url(#XMLID_41_)" fill="none" stroke="#46166B" d="M109.18,133.471c-0.164,0.994-0.56,2.066-1.189,3.218
		c-0.57,1.049-1.205,1.947-1.902,2.694c-0.697,0.748-1.257,1.124-1.68,1.128c-0.523,0-1.269-0.264-2.236-0.79
		c-0.074-0.043-0.11-0.092-0.11-0.148c0-0.137,0.098-0.205,0.293-0.205c0.053,0,0.105,0.011,0.158,0.032
		c0.396,0.201,0.835,0.313,1.316,0.334c0.66,0.025,1.506-0.76,2.536-2.357c1.02-1.576,1.611-2.982,1.775-4.22
		c0.053-0.399-0.212-0.694-0.792-0.887c-0.143-0.042-0.262-0.06-0.357-0.051c-1.02,0.116-2.005,0.415-2.957,0.899
		c-0.497,0.959-0.999,2.094-1.506,3.405c-0.555,1.43-0.957,2.667-1.206,3.713c-0.053,0.213-0.164,0.32-0.333,0.32
		c-0.063,0-0.138-0.015-0.222-0.044c-0.275-0.116-0.455-0.21-0.54-0.282c-0.116-0.099-0.174-0.234-0.174-0.406
		c0-0.359,0.071-0.79,0.214-1.291c0.037-0.124,0.091-0.186,0.165-0.186c0.07,0,0.251,0.099,0.548,0.295
		c0.718-1.982,1.4-3.681,2.044-5.094c-1.178,0.6-2.087,1.178-2.727,1.734c-0.147,0.133-0.222,0.287-0.222,0.463
		c0,0.158,0.063,0.337,0.191,0.539c0.126,0.202,0.189,0.317,0.189,0.347c0,0.073-0.061,0.109-0.183,0.109
		c-0.105,0-0.185-0.023-0.238-0.071c-0.661-0.629-0.991-1.064-0.991-1.304c0-0.252,0.212-0.533,0.635-0.84
		c0.893-0.656,2.187-1.379,3.883-2.172c0.281-0.531,0.483-0.796,0.611-0.796c0.095,0,0.29,0.115,0.586,0.347
		c0.29-0.107,0.582-0.214,0.873-0.321c0.242-0.085,0.44-0.128,0.594-0.128c0.254,0,0.595,0.116,1.022,0.346
		c0.022-0.017,0.056-0.025,0.103-0.025c0.296,0,0.749,0.223,1.355,0.668c0.328,0.245,0.492,0.508,0.492,0.79
		C109.204,133.302,109.195,133.381,109.18,133.471z"/>
	<path clip-path="url(#XMLID_41_)" fill="#46166B" d="M114.055,136.297c-0.01,0.381-0.124,0.886-0.341,1.516
		c-0.344,0.993-0.83,1.764-1.458,2.312c-0.333,0.291-0.703,0.437-1.11,0.437c-0.158,0-0.362-0.028-0.61-0.083
		c-0.498-0.025-0.901-0.152-1.213-0.379c-0.337-0.248-0.496-0.567-0.475-0.958c0.021-0.453,0.214-1.087,0.579-1.901
		c0.401-0.886,0.819-1.523,1.251-1.914c0.206-0.188,0.375-0.283,0.507-0.283c0.179,0,0.47,0.15,0.872,0.45
		c0.111-0.043,0.338-0.122,0.682-0.237c0.174-0.047,0.307-0.071,0.396-0.071c0.206,0,0.437,0.157,0.69,0.469
		C113.988,135.848,114.065,136.061,114.055,136.297 M113.143,136.483c0.037-0.287,0.056-0.469,0.056-0.546
		c0-0.18-0.069-0.27-0.207-0.27c-0.053,0-0.122,0.009-0.206,0.025l-1.228,0.405c-0.143,0.047-0.225,0.07-0.246,0.07
		c-0.042,0-0.084-0.041-0.127-0.122c-0.307,0.304-0.591,0.742-0.855,1.316c-0.207,0.45-0.349,0.852-0.428,1.208
		c-0.059,0.24-0.087,0.458-0.087,0.655c0,0.66,0.251,0.981,0.753,0.963c0.201-0.005,0.417-0.068,0.65-0.192
		c0.443-0.244,0.858-0.732,1.244-1.465C112.831,137.843,113.059,137.16,113.143,136.483"/>
	<path clip-path="url(#XMLID_41_)" fill="none" stroke="#46166B" d="M114.055,136.297c-0.01,0.381-0.124,0.886-0.341,1.516
		c-0.344,0.993-0.83,1.764-1.458,2.312c-0.333,0.291-0.703,0.437-1.11,0.437c-0.158,0-0.362-0.028-0.61-0.083
		c-0.498-0.025-0.901-0.152-1.213-0.379c-0.337-0.248-0.496-0.567-0.475-0.958c0.021-0.453,0.214-1.087,0.579-1.901
		c0.401-0.886,0.819-1.523,1.251-1.914c0.206-0.188,0.375-0.283,0.507-0.283c0.179,0,0.47,0.15,0.872,0.45
		c0.111-0.043,0.338-0.122,0.682-0.237c0.174-0.047,0.307-0.071,0.396-0.071c0.206,0,0.437,0.157,0.69,0.469
		C113.988,135.848,114.065,136.061,114.055,136.297z M113.143,136.483c0.037-0.287,0.056-0.469,0.056-0.546
		c0-0.18-0.069-0.27-0.207-0.27c-0.053,0-0.122,0.009-0.206,0.025l-1.228,0.405c-0.143,0.047-0.225,0.07-0.246,0.07
		c-0.042,0-0.084-0.041-0.127-0.122c-0.307,0.304-0.591,0.742-0.855,1.316c-0.207,0.45-0.349,0.852-0.428,1.208
		c-0.059,0.24-0.087,0.458-0.087,0.655c0,0.66,0.251,0.981,0.753,0.963c0.201-0.005,0.417-0.068,0.65-0.192
		c0.443-0.244,0.858-0.732,1.244-1.465C112.831,137.843,113.059,137.16,113.143,136.483z"/>
	<path clip-path="url(#XMLID_41_)" fill="#46166B" d="M116.852,135.995c-0.126,0.579-0.457,1.54-0.991,2.884
		c0.154-0.112,0.365-0.315,0.634-0.61c0.038-0.039,0.075-0.058,0.111-0.058c0.085,0,0.095,0.06,0.033,0.18
		c-0.027,0.046-0.25,0.34-0.667,0.879c-0.316,0.411-0.549,0.775-0.697,1.092c-0.047,0.098-0.134,0.147-0.261,0.147
		s-0.299-0.05-0.516-0.147c-0.137-0.061-0.206-0.106-0.206-0.135c0-0.026,0.029-0.082,0.088-0.168
		c0.285-0.406,0.602-1.087,0.951-2.042c0.333-0.925,0.521-1.613,0.563-2.062c0.015-0.192-0.009-0.289-0.072-0.289
		c-0.047,0-0.132,0.047-0.253,0.141l-0.492,0.373c-0.175,0.129-0.262,0.135-0.262,0.019c0-0.035,0.024-0.077,0.072-0.128
		c0.249-0.283,0.513-0.55,0.792-0.803c0.085-0.073,0.167-0.109,0.246-0.109c0.084,0,0.209,0.047,0.373,0.141
		c0.243,0.052,0.377,0.084,0.404,0.096c0.121,0.06,0.182,0.171,0.182,0.334C116.884,135.809,116.874,135.896,116.852,135.995
		 M117.97,133.182c0.084,0.051,0.127,0.109,0.127,0.174c0,0.124-0.228,0.316-0.683,0.578c-0.3,0.167-0.592,0.227-0.872,0.179
		c-0.159-0.025-0.296-0.072-0.413-0.141c-0.037-0.026-0.064-0.053-0.082-0.081c-0.019-0.027-0.023-0.05-0.013-0.067
		c0.017-0.017,0.047-0.021,0.095-0.013c0.487-0.343,0.806-0.589,0.959-0.739c0.122-0.111,0.208-0.167,0.262-0.167
		C117.447,132.905,117.653,132.998,117.97,133.182"/>
	<path clip-path="url(#XMLID_41_)" fill="none" stroke="#46166B" d="M116.852,135.995c-0.126,0.579-0.457,1.54-0.991,2.884
		c0.154-0.112,0.365-0.315,0.634-0.61c0.038-0.039,0.075-0.058,0.111-0.058c0.085,0,0.095,0.06,0.033,0.18
		c-0.027,0.046-0.25,0.34-0.667,0.879c-0.316,0.411-0.549,0.775-0.697,1.092c-0.047,0.098-0.134,0.147-0.261,0.147
		s-0.299-0.05-0.516-0.147c-0.137-0.061-0.206-0.106-0.206-0.135c0-0.026,0.029-0.082,0.088-0.168
		c0.285-0.406,0.602-1.087,0.951-2.042c0.333-0.925,0.521-1.613,0.563-2.062c0.015-0.192-0.009-0.289-0.072-0.289
		c-0.047,0-0.132,0.047-0.253,0.141l-0.492,0.373c-0.175,0.129-0.262,0.135-0.262,0.019c0-0.035,0.024-0.077,0.072-0.128
		c0.249-0.283,0.513-0.55,0.792-0.803c0.085-0.073,0.167-0.109,0.246-0.109c0.084,0,0.209,0.047,0.373,0.141
		c0.243,0.052,0.377,0.084,0.404,0.096c0.121,0.06,0.182,0.171,0.182,0.334C116.884,135.809,116.874,135.896,116.852,135.995z
		 M117.97,133.182c0.084,0.051,0.127,0.109,0.127,0.174c0,0.124-0.228,0.316-0.683,0.578c-0.3,0.167-0.592,0.227-0.872,0.179
		c-0.159-0.025-0.296-0.072-0.413-0.141c-0.037-0.026-0.064-0.053-0.082-0.081c-0.019-0.027-0.023-0.05-0.013-0.067
		c0.017-0.017,0.047-0.021,0.095-0.013c0.487-0.343,0.806-0.589,0.959-0.739c0.122-0.111,0.208-0.167,0.262-0.167
		C117.447,132.905,117.653,132.998,117.97,133.182z"/>
	<path clip-path="url(#XMLID_41_)" fill="#46166B" d="M123.717,138.076c-0.316,0.39-0.729,0.955-1.236,1.695
		c-0.095,0.193-0.188,0.386-0.277,0.578c-0.074,0.133-0.172,0.199-0.293,0.199c-0.096,0-0.235-0.031-0.42-0.096
		c-0.206-0.068-0.309-0.138-0.309-0.206c0-0.03,0.035-0.096,0.103-0.199c0.344-0.565,0.65-1.27,0.919-2.113
		c0.291-0.886,0.415-1.563,0.372-2.03c-0.011-0.188-0.063-0.283-0.158-0.283c-0.069,0-0.171,0.054-0.31,0.161
		c-1.331,1.053-2.483,2.461-3.456,4.226c-0.122,0.219-0.265,0.327-0.428,0.327c-0.116,0-0.309-0.054-0.579-0.161
		c-0.105-0.038-0.161-0.074-0.167-0.109c0-0.017,0.029-0.076,0.087-0.179c0.306-0.544,0.61-1.233,0.911-2.068
		c0.323-0.903,0.505-1.608,0.547-2.113c0.011-0.154,0.006-0.231-0.015-0.231c-0.005,0-0.08,0.058-0.222,0.173
		c-0.143,0.116-0.341,0.266-0.595,0.45c-0.047,0.038-0.101,0.058-0.158,0.058c-0.074,0-0.111-0.023-0.111-0.071
		c0-0.035,0.026-0.072,0.079-0.115c0.227-0.236,0.525-0.529,0.896-0.881c0.079-0.072,0.161-0.108,0.246-0.108
		c0.127,0,0.237,0.074,0.333,0.224c0.427,0.103,0.628,0.261,0.602,0.475c-0.058,0.472-0.357,1.321-0.896,2.55
		c0.354-0.552,0.87-1.17,1.545-1.853c0.677-0.683,1.179-1.087,1.506-1.211c0.163-0.06,0.28-0.09,0.349-0.09s0.18,0.047,0.333,0.141
		c0.439,0.125,0.655,0.33,0.65,0.617c0,0.3-0.09,0.781-0.27,1.446c-0.143,0.547-0.275,0.974-0.396,1.277
		c0.154-0.158,0.349-0.363,0.587-0.616c0.042-0.043,0.084-0.064,0.127-0.064c0.08,0,0.119,0.041,0.119,0.122
		C123.733,138.025,123.728,138.051,123.717,138.076"/>
	<path clip-path="url(#XMLID_41_)" fill="none" stroke="#46166B" d="M123.717,138.076c-0.316,0.39-0.729,0.955-1.236,1.695
		c-0.095,0.193-0.188,0.386-0.277,0.578c-0.074,0.133-0.172,0.199-0.293,0.199c-0.096,0-0.235-0.031-0.42-0.096
		c-0.206-0.068-0.309-0.138-0.309-0.206c0-0.03,0.035-0.096,0.103-0.199c0.344-0.565,0.65-1.27,0.919-2.113
		c0.291-0.886,0.415-1.563,0.372-2.03c-0.011-0.188-0.063-0.283-0.158-0.283c-0.069,0-0.171,0.054-0.31,0.161
		c-1.331,1.053-2.483,2.461-3.456,4.226c-0.122,0.219-0.265,0.327-0.428,0.327c-0.116,0-0.309-0.054-0.579-0.161
		c-0.105-0.038-0.161-0.074-0.167-0.109c0-0.017,0.029-0.076,0.087-0.179c0.306-0.544,0.61-1.233,0.911-2.068
		c0.323-0.903,0.505-1.608,0.547-2.113c0.011-0.154,0.006-0.231-0.015-0.231c-0.005,0-0.08,0.058-0.222,0.173
		c-0.143,0.116-0.341,0.266-0.595,0.45c-0.047,0.038-0.101,0.058-0.158,0.058c-0.074,0-0.111-0.023-0.111-0.071
		c0-0.035,0.026-0.072,0.079-0.115c0.227-0.236,0.525-0.529,0.896-0.881c0.079-0.072,0.161-0.108,0.246-0.108
		c0.127,0,0.237,0.074,0.333,0.224c0.427,0.103,0.628,0.261,0.602,0.475c-0.058,0.472-0.357,1.321-0.896,2.55
		c0.354-0.552,0.87-1.17,1.545-1.853c0.677-0.683,1.179-1.087,1.506-1.211c0.163-0.06,0.28-0.09,0.349-0.09s0.18,0.047,0.333,0.141
		c0.439,0.125,0.655,0.33,0.65,0.617c0,0.3-0.09,0.781-0.27,1.446c-0.143,0.547-0.275,0.974-0.396,1.277
		c0.154-0.158,0.349-0.363,0.587-0.616c0.042-0.043,0.084-0.064,0.127-0.064c0.08,0,0.119,0.041,0.119,0.122
		C123.733,138.025,123.728,138.051,123.717,138.076z"/>
	<path clip-path="url(#XMLID_41_)" fill="#46166B" d="M130.09,135.821c-1.623,6.821-3.731,10.23-6.325,10.227
		c-0.935,0-1.947-0.418-3.036-1.253c-0.1-0.077-0.15-0.157-0.15-0.238c0-0.124,0.071-0.186,0.213-0.186
		c0.075,0,0.146,0.023,0.214,0.071c0.862,0.595,1.633,0.892,2.314,0.892c2.177,0,3.992-2.59,5.445-7.771
		c-0.882,1.229-1.651,2.109-2.306,2.64c-0.264,0.219-0.5,0.327-0.706,0.327c-0.19,0-0.424-0.086-0.706-0.257
		c-0.501-0.201-0.742-0.53-0.721-0.989c0.032-0.562,0.298-1.257,0.8-2.087c0.492-0.81,1.004-1.419,1.538-1.831
		c0.302-0.23,0.574-0.347,0.817-0.347c0.18,0,0.378,0.064,0.594,0.193c0.032,0.021,0.243,0.174,0.634,0.456
		c0.079,0.056,0.119,0.111,0.119,0.167c0,0.077-0.063,0.116-0.19,0.116c-0.079,0-0.168-0.02-0.27-0.058
		c-0.158-0.068-0.314-0.103-0.467-0.103c-0.222,0-0.423,0.064-0.604,0.193c-0.386,0.274-0.789,0.719-1.211,1.336
		c-0.46,0.676-0.744,1.292-0.849,1.849c-0.026,0.15-0.04,0.281-0.04,0.392c0,0.317,0.106,0.476,0.317,0.476
		c0.143,0,0.293-0.058,0.452-0.173c0.629-0.437,1.252-1.068,1.871-1.895c0.576-0.762,0.986-1.462,1.229-2.101
		c0.09-0.226,0.135-0.443,0.135-0.648c0-0.163,0.048-0.244,0.143-0.244c0.1,0,0.297,0.09,0.587,0.27
		C130.106,135.351,130.159,135.543,130.09,135.821"/>
	<path clip-path="url(#XMLID_41_)" fill="none" stroke="#46166B" d="M130.09,135.821c-1.623,6.821-3.731,10.23-6.325,10.227
		c-0.935,0-1.947-0.418-3.036-1.253c-0.1-0.077-0.15-0.157-0.15-0.238c0-0.124,0.071-0.186,0.213-0.186
		c0.075,0,0.146,0.023,0.214,0.071c0.862,0.595,1.633,0.892,2.314,0.892c2.177,0,3.992-2.59,5.445-7.771
		c-0.882,1.229-1.651,2.109-2.306,2.64c-0.264,0.219-0.5,0.327-0.706,0.327c-0.19,0-0.424-0.086-0.706-0.257
		c-0.501-0.201-0.742-0.53-0.721-0.989c0.032-0.562,0.298-1.257,0.8-2.087c0.492-0.81,1.004-1.419,1.538-1.831
		c0.302-0.23,0.574-0.347,0.817-0.347c0.18,0,0.378,0.064,0.594,0.193c0.032,0.021,0.243,0.174,0.634,0.456
		c0.079,0.056,0.119,0.111,0.119,0.167c0,0.077-0.063,0.116-0.19,0.116c-0.079,0-0.168-0.02-0.27-0.058
		c-0.158-0.068-0.314-0.103-0.467-0.103c-0.222,0-0.423,0.064-0.604,0.193c-0.386,0.274-0.789,0.719-1.211,1.336
		c-0.46,0.676-0.744,1.292-0.849,1.849c-0.026,0.15-0.04,0.281-0.04,0.392c0,0.317,0.106,0.476,0.317,0.476
		c0.143,0,0.293-0.058,0.452-0.173c0.629-0.437,1.252-1.068,1.871-1.895c0.576-0.762,0.986-1.462,1.229-2.101
		c0.09-0.226,0.135-0.443,0.135-0.648c0-0.163,0.048-0.244,0.143-0.244c0.1,0,0.297,0.09,0.587,0.27
		C130.106,135.351,130.159,135.543,130.09,135.821z"/>
	<path clip-path="url(#XMLID_41_)" fill="#46166B" d="M141.774,132.957c-0.254,0.835-0.547,1.479-0.88,1.934
		c-0.153,0.214-0.304,0.321-0.452,0.321c-0.059,0-0.129-0.011-0.214-0.032c-0.402-0.098-0.603-0.216-0.603-0.354
		c0-0.068,0.056-0.113,0.167-0.135c0.464-0.564,0.739-1.244,0.824-2.036c-0.291-0.209-0.566-0.314-0.824-0.314
		c-0.549-0.005-1.2,0.387-1.95,1.175c-0.693,0.737-1.292,1.61-1.8,2.621c-0.529,1.054-0.782,1.932-0.761,2.633
		c0.005,0.407,0.155,0.711,0.452,0.913c0.217,0.145,0.462,0.219,0.737,0.219c0.159,0,0.341-0.026,0.547-0.078
		c0.507-0.128,1.094-0.376,1.76-0.745c0.634-0.351,1.163-0.709,1.585-1.073c0.132-0.115,0.211-0.263,0.237-0.443
		c0.016-0.094,0.068-0.142,0.159-0.142c0.074,0,0.129,0.039,0.167,0.116c0.19,0.385,0.285,0.652,0.285,0.803
		c0,0.141-0.071,0.274-0.214,0.397c-0.095,0.078-0.32,0.225-0.673,0.444c-1.121,0.681-2.083,1.104-2.885,1.272
		c-0.249,0.051-0.476,0.076-0.682,0.076c-0.434,0-0.764-0.117-0.991-0.353c-1.03-0.312-1.545-0.79-1.545-1.432
		c0-1.036,0.335-2.149,1.006-3.34c0.576-1.032,1.287-1.94,2.133-2.723c0.813-0.75,1.474-1.14,1.981-1.169
		c0.185-0.013,0.398,0.049,0.642,0.187c0.032,0.017,0.277,0.177,0.737,0.481c0.026-0.171,0.098-0.257,0.213-0.257
		c0.128,0,0.342,0.095,0.643,0.283c0.19,0.12,0.285,0.235,0.285,0.347C141.861,132.625,141.832,132.76,141.774,132.957"/>
	<path clip-path="url(#XMLID_41_)" fill="none" stroke="#46166B" d="M141.774,132.957c-0.254,0.835-0.547,1.479-0.88,1.934
		c-0.153,0.214-0.304,0.321-0.452,0.321c-0.059,0-0.129-0.011-0.214-0.032c-0.402-0.098-0.603-0.216-0.603-0.354
		c0-0.068,0.056-0.113,0.167-0.135c0.464-0.564,0.739-1.244,0.824-2.036c-0.291-0.209-0.566-0.314-0.824-0.314
		c-0.549-0.005-1.2,0.387-1.95,1.175c-0.693,0.737-1.292,1.61-1.8,2.621c-0.529,1.054-0.782,1.932-0.761,2.633
		c0.005,0.407,0.155,0.711,0.452,0.913c0.217,0.145,0.462,0.219,0.737,0.219c0.159,0,0.341-0.026,0.547-0.078
		c0.507-0.128,1.094-0.376,1.76-0.745c0.634-0.351,1.163-0.709,1.585-1.073c0.132-0.115,0.211-0.263,0.237-0.443
		c0.016-0.094,0.068-0.142,0.159-0.142c0.074,0,0.129,0.039,0.167,0.116c0.19,0.385,0.285,0.652,0.285,0.803
		c0,0.141-0.071,0.274-0.214,0.397c-0.095,0.078-0.32,0.225-0.673,0.444c-1.121,0.681-2.083,1.104-2.885,1.272
		c-0.249,0.051-0.476,0.076-0.682,0.076c-0.434,0-0.764-0.117-0.991-0.353c-1.03-0.312-1.545-0.79-1.545-1.432
		c0-1.036,0.335-2.149,1.006-3.34c0.576-1.032,1.287-1.94,2.133-2.723c0.813-0.75,1.474-1.14,1.981-1.169
		c0.185-0.013,0.398,0.049,0.642,0.187c0.032,0.017,0.277,0.177,0.737,0.481c0.026-0.171,0.098-0.257,0.213-0.257
		c0.128,0,0.342,0.095,0.643,0.283c0.19,0.12,0.285,0.235,0.285,0.347C141.861,132.625,141.832,132.76,141.774,132.957z"/>
	<path clip-path="url(#XMLID_41_)" fill="#46166B" d="M148.265,130.395c0.069,0.042,0.104,0.089,0.104,0.141
		c0,0.078-0.062,0.116-0.183,0.116c-0.053,0-0.108-0.013-0.166-0.039c-0.243-0.099-0.426-0.148-0.547-0.148
		c-0.323,0-0.682,0.262-1.078,0.784c-1.395,1.841-2.429,4.252-3.099,7.232c0.861-1.34,1.846-2.411,2.957-3.212
		c0.238-0.171,0.412-0.257,0.523-0.257c0.032,0,0.164,0.06,0.396,0.18c0.279,0.094,0.438,0.155,0.476,0.18
		c0.137,0.099,0.205,0.27,0.205,0.514c0,0.069-0.005,0.144-0.016,0.225c-0.09,0.762-0.359,1.685-0.809,2.769
		c0.164-0.18,0.422-0.443,0.777-0.79c0.085-0.073,0.156-0.11,0.214-0.11c0.058,0,0.088,0.028,0.088,0.084
		c0,0.063-0.035,0.137-0.104,0.218c-0.307,0.36-0.714,0.886-1.221,1.58c-0.043,0.068-0.146,0.249-0.309,0.539
		c-0.068,0.137-0.164,0.206-0.285,0.206c-0.138,0-0.335-0.075-0.595-0.225c-0.106-0.06-0.125-0.153-0.055-0.282
		c0.908-1.85,1.39-3.231,1.442-4.143c0.016-0.261-0.029-0.392-0.135-0.392c-0.069,0-0.213,0.073-0.436,0.219
		c-0.406,0.265-0.905,0.736-1.497,1.413c-0.783,0.891-1.388,1.801-1.816,2.73c-0.116,0.265-0.224,0.398-0.325,0.398
		c-0.089,0-0.267-0.088-0.531-0.264c-0.132-0.089-0.177-0.239-0.135-0.45c0.614-2.718,1.411-5.042,2.394-6.969
		c0.729-1.434,1.387-2.373,1.974-2.813c0.148-0.111,0.293-0.167,0.436-0.167c0.148,0,0.335,0.068,0.563,0.206
		C147.738,130.043,148.001,130.218,148.265,130.395"/>
	<path clip-path="url(#XMLID_41_)" fill="none" stroke="#46166B" d="M148.265,130.395c0.069,0.042,0.104,0.089,0.104,0.141
		c0,0.078-0.062,0.116-0.183,0.116c-0.053,0-0.108-0.013-0.166-0.039c-0.243-0.099-0.426-0.148-0.547-0.148
		c-0.323,0-0.682,0.262-1.078,0.784c-1.395,1.841-2.429,4.252-3.099,7.232c0.861-1.34,1.846-2.411,2.957-3.212
		c0.238-0.171,0.412-0.257,0.523-0.257c0.032,0,0.164,0.06,0.396,0.18c0.279,0.094,0.438,0.155,0.476,0.18
		c0.137,0.099,0.205,0.27,0.205,0.514c0,0.069-0.005,0.144-0.016,0.225c-0.09,0.762-0.359,1.685-0.809,2.769
		c0.164-0.18,0.422-0.443,0.777-0.79c0.085-0.073,0.156-0.11,0.214-0.11c0.058,0,0.088,0.028,0.088,0.084
		c0,0.063-0.035,0.137-0.104,0.218c-0.307,0.36-0.714,0.886-1.221,1.58c-0.043,0.068-0.146,0.249-0.309,0.539
		c-0.068,0.137-0.164,0.206-0.285,0.206c-0.138,0-0.335-0.075-0.595-0.225c-0.106-0.06-0.125-0.153-0.055-0.282
		c0.908-1.85,1.39-3.231,1.442-4.143c0.016-0.261-0.029-0.392-0.135-0.392c-0.069,0-0.213,0.073-0.436,0.219
		c-0.406,0.265-0.905,0.736-1.497,1.413c-0.783,0.891-1.388,1.801-1.816,2.73c-0.116,0.265-0.224,0.398-0.325,0.398
		c-0.089,0-0.267-0.088-0.531-0.264c-0.132-0.089-0.177-0.239-0.135-0.45c0.614-2.718,1.411-5.042,2.394-6.969
		c0.729-1.434,1.387-2.373,1.974-2.813c0.148-0.111,0.293-0.167,0.436-0.167c0.148,0,0.335,0.068,0.563,0.206
		C147.738,130.043,148.001,130.218,148.265,130.395z"/>
	<path clip-path="url(#XMLID_41_)" fill="#46166B" d="M154.773,135.706c-0.703,1.058-1.229,2.299-1.578,3.726
		c0.148-0.21,0.328-0.478,0.539-0.803c0.026-0.06,0.069-0.09,0.127-0.09c0.08,0,0.118,0.041,0.118,0.123
		c0,0.025-0.007,0.053-0.023,0.083c-0.338,0.625-0.561,1.107-0.667,1.445c-0.063,0.214-0.147,0.321-0.253,0.321
		c-0.106,0-0.312-0.084-0.618-0.25c-0.164-0.095-0.22-0.262-0.167-0.502c0.221-0.933,0.488-1.744,0.8-2.434
		c-1.019,1.344-1.876,2.336-2.567,2.974c-0.155,0.141-0.32,0.212-0.5,0.212c-0.148,0-0.322-0.05-0.523-0.147
		c-0.365-0.052-0.547-0.206-0.547-0.463c0-0.047,0.005-0.099,0.016-0.154c0.132-1.225,0.408-2.242,0.825-3.051
		c-0.09,0.069-0.225,0.169-0.404,0.301c-0.069,0.047-0.122,0.061-0.159,0.039c-0.043-0.025-0.034-0.075,0.024-0.147
		c0.286-0.339,0.455-0.562,0.508-0.668c0.163-0.334,0.335-0.593,0.515-0.777c0.095-0.094,0.195-0.142,0.301-0.142
		c0.143,0,0.351,0.069,0.626,0.206c0.074,0.038,0.111,0.077,0.111,0.116l-0.175,0.212c-0.264,0.326-0.544,0.899-0.839,1.722
		c-0.322,0.89-0.487,1.616-0.491,2.177c0,0.184,0.047,0.276,0.142,0.276c0.084,0,0.221-0.079,0.412-0.238
		c0.407-0.352,0.996-1.015,1.767-1.991c0.682-0.861,1.094-1.422,1.237-1.683c0.237-0.437,0.43-0.694,0.579-0.771
		c0.094-0.052,0.179-0.077,0.252-0.077c0.074,0,0.217,0.044,0.429,0.135c0.211,0.09,0.316,0.156,0.316,0.199
		c0,0.013-0.019,0.03-0.055,0.052C154.815,135.657,154.789,135.68,154.773,135.706"/>
	<path clip-path="url(#XMLID_41_)" fill="none" stroke="#46166B" d="M154.773,135.706c-0.703,1.058-1.229,2.299-1.578,3.726
		c0.148-0.21,0.328-0.478,0.539-0.803c0.026-0.06,0.069-0.09,0.127-0.09c0.08,0,0.118,0.041,0.118,0.123
		c0,0.025-0.007,0.053-0.023,0.083c-0.338,0.625-0.561,1.107-0.667,1.445c-0.063,0.214-0.147,0.321-0.253,0.321
		c-0.106,0-0.312-0.084-0.618-0.25c-0.164-0.095-0.22-0.262-0.167-0.502c0.221-0.933,0.488-1.744,0.8-2.434
		c-1.019,1.344-1.876,2.336-2.567,2.974c-0.155,0.141-0.32,0.212-0.5,0.212c-0.148,0-0.322-0.05-0.523-0.147
		c-0.365-0.052-0.547-0.206-0.547-0.463c0-0.047,0.005-0.099,0.016-0.154c0.132-1.225,0.408-2.242,0.825-3.051
		c-0.09,0.069-0.225,0.169-0.404,0.301c-0.069,0.047-0.122,0.061-0.159,0.039c-0.043-0.025-0.034-0.075,0.024-0.147
		c0.286-0.339,0.455-0.562,0.508-0.668c0.163-0.334,0.335-0.593,0.515-0.777c0.095-0.094,0.195-0.142,0.301-0.142
		c0.143,0,0.351,0.069,0.626,0.206c0.074,0.038,0.111,0.077,0.111,0.116l-0.175,0.212c-0.264,0.326-0.544,0.899-0.839,1.722
		c-0.322,0.89-0.487,1.616-0.491,2.177c0,0.184,0.047,0.276,0.142,0.276c0.084,0,0.221-0.079,0.412-0.238
		c0.407-0.352,0.996-1.015,1.767-1.991c0.682-0.861,1.094-1.422,1.237-1.683c0.237-0.437,0.43-0.694,0.579-0.771
		c0.094-0.052,0.179-0.077,0.252-0.077c0.074,0,0.217,0.044,0.429,0.135c0.211,0.09,0.316,0.156,0.316,0.199
		c0,0.013-0.019,0.03-0.055,0.052C154.815,135.657,154.789,135.68,154.773,135.706z"/>
	<path clip-path="url(#XMLID_41_)" fill="#46166B" d="M160.179,135.533c0,0.561-0.093,1.096-0.277,1.606
		c-0.059,0.154-0.138,0.231-0.238,0.231c-0.075,0-0.238-0.086-0.492-0.257c-0.126-0.085-0.159-0.207-0.095-0.366
		c0.148-0.389,0.222-0.702,0.222-0.938c0-0.081-0.021-0.122-0.063-0.122c-0.063,0-0.166,0.078-0.309,0.231
		c-1.099,1.161-1.92,2.463-2.465,3.905c-0.175,0.458-0.322,0.688-0.444,0.688c-0.047,0-0.257-0.075-0.626-0.225
		c-0.18-0.072-0.24-0.214-0.182-0.424c0.417-1.481,0.866-2.732,1.347-3.751c-0.392,0.334-0.64,0.563-0.745,0.688
		c-0.043,0.051-0.101,0.077-0.175,0.077c-0.089,0-0.134-0.032-0.134-0.096c0-0.039,0.021-0.082,0.063-0.128
		c0.259-0.253,0.605-0.638,1.038-1.156c0.132-0.188,0.264-0.283,0.396-0.283c0.095,0,0.288,0.06,0.579,0.18
		c0.164,0.068,0.19,0.16,0.08,0.276c-0.117,0.124-0.335,0.563-0.659,1.317c-0.306,0.732-0.518,1.306-0.634,1.722
		c0.719-1.298,1.535-2.443,2.45-3.437c0.174-0.188,0.314-0.282,0.42-0.282c0.096,0,0.225,0.051,0.389,0.154
		c0.222,0.021,0.362,0.049,0.42,0.083C160.135,135.275,160.179,135.378,160.179,135.533"/>
	<path clip-path="url(#XMLID_41_)" fill="none" stroke="#46166B" d="M160.179,135.533c0,0.561-0.093,1.096-0.277,1.606
		c-0.059,0.154-0.138,0.231-0.238,0.231c-0.075,0-0.238-0.086-0.492-0.257c-0.126-0.085-0.159-0.207-0.095-0.366
		c0.148-0.389,0.222-0.702,0.222-0.938c0-0.081-0.021-0.122-0.063-0.122c-0.063,0-0.166,0.078-0.309,0.231
		c-1.099,1.161-1.92,2.463-2.465,3.905c-0.175,0.458-0.322,0.688-0.444,0.688c-0.047,0-0.257-0.075-0.626-0.225
		c-0.18-0.072-0.24-0.214-0.182-0.424c0.417-1.481,0.866-2.732,1.347-3.751c-0.392,0.334-0.64,0.563-0.745,0.688
		c-0.043,0.051-0.101,0.077-0.175,0.077c-0.089,0-0.134-0.032-0.134-0.096c0-0.039,0.021-0.082,0.063-0.128
		c0.259-0.253,0.605-0.638,1.038-1.156c0.132-0.188,0.264-0.283,0.396-0.283c0.095,0,0.288,0.06,0.579,0.18
		c0.164,0.068,0.19,0.16,0.08,0.276c-0.117,0.124-0.335,0.563-0.659,1.317c-0.306,0.732-0.518,1.306-0.634,1.722
		c0.719-1.298,1.535-2.443,2.45-3.437c0.174-0.188,0.314-0.282,0.42-0.282c0.096,0,0.225,0.051,0.389,0.154
		c0.222,0.021,0.362,0.049,0.42,0.083C160.135,135.275,160.179,135.378,160.179,135.533z"/>
	<path clip-path="url(#XMLID_41_)" fill="#46166B" d="M164.578,135.629c0,0.664-0.113,1.199-0.34,1.605
		c-0.095,0.167-0.243,0.206-0.444,0.117c-0.296-0.133-0.444-0.243-0.444-0.329c0-0.038,0.035-0.079,0.104-0.122
		c0.18-0.411,0.261-0.73,0.245-0.957c-0.01-0.192-0.129-0.289-0.356-0.289c-0.026,0-0.065-0.005-0.119-0.016
		c-0.053-0.011-0.095-0.016-0.126-0.016c-0.185,0-0.412,0.142-0.682,0.423c-0.296,0.317-0.579,0.758-0.848,1.324
		c-0.222,0.467-0.37,0.867-0.444,1.201c-0.059,0.24-0.087,0.458-0.087,0.655c0,0.655,0.256,0.976,0.769,0.963
		c0.449-0.008,1.107-0.464,1.974-1.368c0.085-0.081,0.161-0.122,0.23-0.122c0.068,0,0.103,0.034,0.103,0.103
		c0,0.035-0.013,0.078-0.039,0.129c-0.28,0.557-0.647,1.047-1.102,1.47c-0.111,0.107-0.308,0.161-0.587,0.161
		c-0.169,0-0.375-0.028-0.618-0.083c-0.486-0.025-0.875-0.152-1.165-0.38c-0.312-0.243-0.458-0.562-0.437-0.957
		c0.021-0.453,0.217-1.083,0.586-1.888c0.396-0.874,0.811-1.507,1.245-1.901c0.201-0.18,0.369-0.27,0.507-0.27
		c0.137,0,0.407,0.095,0.808,0.282c0.217-0.064,0.431-0.096,0.643-0.096C164.37,135.269,164.578,135.39,164.578,135.629"/>
	<path clip-path="url(#XMLID_41_)" fill="none" stroke="#46166B" d="M164.578,135.629c0,0.664-0.113,1.199-0.34,1.605
		c-0.095,0.167-0.243,0.206-0.444,0.117c-0.296-0.133-0.444-0.243-0.444-0.329c0-0.038,0.035-0.079,0.104-0.122
		c0.18-0.411,0.261-0.73,0.245-0.957c-0.01-0.192-0.129-0.289-0.356-0.289c-0.026,0-0.065-0.005-0.119-0.016
		c-0.053-0.011-0.095-0.016-0.126-0.016c-0.185,0-0.412,0.142-0.682,0.423c-0.296,0.317-0.579,0.758-0.848,1.324
		c-0.222,0.467-0.37,0.867-0.444,1.201c-0.059,0.24-0.087,0.458-0.087,0.655c0,0.655,0.256,0.976,0.769,0.963
		c0.449-0.008,1.107-0.464,1.974-1.368c0.085-0.081,0.161-0.122,0.23-0.122c0.068,0,0.103,0.034,0.103,0.103
		c0,0.035-0.013,0.078-0.039,0.129c-0.28,0.557-0.647,1.047-1.102,1.47c-0.111,0.107-0.308,0.161-0.587,0.161
		c-0.169,0-0.375-0.028-0.618-0.083c-0.486-0.025-0.875-0.152-1.165-0.38c-0.312-0.243-0.458-0.562-0.437-0.957
		c0.021-0.453,0.217-1.083,0.586-1.888c0.396-0.874,0.811-1.507,1.245-1.901c0.201-0.18,0.369-0.27,0.507-0.27
		c0.137,0,0.407,0.095,0.808,0.282c0.217-0.064,0.431-0.096,0.643-0.096C164.37,135.269,164.578,135.39,164.578,135.629z"/>
	<path clip-path="url(#XMLID_41_)" fill="#46166B" d="M171.364,130.395c0.068,0.042,0.103,0.089,0.103,0.141
		c0,0.078-0.061,0.116-0.183,0.116c-0.052,0-0.107-0.013-0.166-0.039c-0.244-0.099-0.426-0.148-0.548-0.148
		c-0.322,0-0.681,0.262-1.077,0.784c-1.395,1.841-2.429,4.252-3.1,7.232c0.862-1.34,1.847-2.411,2.957-3.212
		c0.238-0.171,0.413-0.257,0.523-0.257c0.032,0,0.163,0.06,0.396,0.18c0.281,0.094,0.439,0.155,0.476,0.18
		c0.137,0.099,0.206,0.27,0.206,0.514c0,0.069-0.005,0.144-0.016,0.225c-0.089,0.762-0.359,1.685-0.809,2.769
		c0.164-0.18,0.423-0.443,0.777-0.79c0.084-0.073,0.156-0.11,0.214-0.11c0.058,0,0.087,0.028,0.087,0.084
		c0,0.063-0.035,0.137-0.103,0.218c-0.306,0.36-0.713,0.886-1.22,1.58c-0.043,0.068-0.146,0.249-0.31,0.539
		c-0.068,0.137-0.164,0.206-0.285,0.206c-0.137,0-0.335-0.075-0.594-0.225c-0.107-0.06-0.125-0.153-0.056-0.282
		c0.909-1.85,1.39-3.231,1.442-4.143c0.016-0.261-0.029-0.392-0.134-0.392c-0.069,0-0.215,0.073-0.437,0.219
		c-0.407,0.265-0.906,0.736-1.499,1.413c-0.782,0.891-1.387,1.801-1.815,2.73c-0.117,0.265-0.225,0.398-0.325,0.398
		c-0.089,0-0.267-0.088-0.53-0.264c-0.132-0.089-0.178-0.239-0.135-0.45c0.612-2.718,1.411-5.042,2.393-6.969
		c0.729-1.434,1.388-2.373,1.974-2.813c0.148-0.111,0.294-0.167,0.436-0.167c0.148,0,0.335,0.068,0.563,0.206
		C170.835,130.043,171.099,130.218,171.364,130.395"/>
	<path clip-path="url(#XMLID_41_)" fill="none" stroke="#46166B" d="M171.364,130.395c0.068,0.042,0.103,0.089,0.103,0.141
		c0,0.078-0.061,0.116-0.183,0.116c-0.052,0-0.107-0.013-0.166-0.039c-0.244-0.099-0.426-0.148-0.548-0.148
		c-0.322,0-0.681,0.262-1.077,0.784c-1.395,1.841-2.429,4.252-3.1,7.232c0.862-1.34,1.847-2.411,2.957-3.212
		c0.238-0.171,0.413-0.257,0.523-0.257c0.032,0,0.163,0.06,0.396,0.18c0.281,0.094,0.439,0.155,0.476,0.18
		c0.137,0.099,0.206,0.27,0.206,0.514c0,0.069-0.005,0.144-0.016,0.225c-0.089,0.762-0.359,1.685-0.809,2.769
		c0.164-0.18,0.423-0.443,0.777-0.79c0.084-0.073,0.156-0.11,0.214-0.11c0.058,0,0.087,0.028,0.087,0.084
		c0,0.063-0.035,0.137-0.103,0.218c-0.306,0.36-0.713,0.886-1.22,1.58c-0.043,0.068-0.146,0.249-0.31,0.539
		c-0.068,0.137-0.164,0.206-0.285,0.206c-0.137,0-0.335-0.075-0.594-0.225c-0.107-0.06-0.125-0.153-0.056-0.282
		c0.909-1.85,1.39-3.231,1.442-4.143c0.016-0.261-0.029-0.392-0.134-0.392c-0.069,0-0.215,0.073-0.437,0.219
		c-0.407,0.265-0.906,0.736-1.499,1.413c-0.782,0.891-1.387,1.801-1.815,2.73c-0.117,0.265-0.225,0.398-0.325,0.398
		c-0.089,0-0.267-0.088-0.53-0.264c-0.132-0.089-0.178-0.239-0.135-0.45c0.612-2.718,1.411-5.042,2.393-6.969
		c0.729-1.434,1.388-2.373,1.974-2.813c0.148-0.111,0.294-0.167,0.436-0.167c0.148,0,0.335,0.068,0.563,0.206
		C170.835,130.043,171.099,130.218,171.364,130.395z"/>
	<path clip-path="url(#XMLID_41_)" fill="#46166B" d="M185.354,133.471c-0.164,0.994-0.561,2.066-1.188,3.218
		c-0.571,1.049-1.205,1.947-1.903,2.694c-0.698,0.748-1.258,1.124-1.68,1.128c-0.523,0-1.269-0.264-2.235-0.79
		c-0.074-0.043-0.111-0.092-0.111-0.148c0-0.137,0.098-0.205,0.293-0.205c0.053,0,0.106,0.011,0.159,0.032
		c0.396,0.201,0.834,0.313,1.315,0.334c0.661,0.025,1.505-0.76,2.536-2.357c1.02-1.576,1.612-2.982,1.775-4.22
		c0.053-0.399-0.211-0.694-0.792-0.887c-0.143-0.042-0.262-0.06-0.357-0.051c-1.019,0.116-2.004,0.415-2.956,0.899
		c-0.497,0.959-0.998,2.094-1.506,3.405c-0.554,1.43-0.957,2.667-1.205,3.713c-0.053,0.213-0.164,0.32-0.333,0.32
		c-0.064,0-0.138-0.015-0.222-0.044c-0.275-0.116-0.455-0.21-0.54-0.282c-0.116-0.099-0.173-0.234-0.173-0.406
		c0-0.359,0.071-0.79,0.214-1.291c0.037-0.124,0.092-0.186,0.167-0.186c0.069,0,0.25,0.099,0.546,0.295
		c0.719-1.982,1.4-3.681,2.045-5.094c-1.178,0.6-2.087,1.178-2.727,1.734c-0.148,0.133-0.221,0.287-0.221,0.463
		c0,0.158,0.063,0.337,0.19,0.539c0.126,0.202,0.189,0.317,0.189,0.347c0,0.073-0.06,0.109-0.182,0.109
		c-0.105,0-0.185-0.023-0.237-0.071c-0.661-0.629-0.992-1.064-0.992-1.304c0-0.252,0.211-0.533,0.635-0.84
		c0.893-0.656,2.187-1.379,3.883-2.172c0.28-0.531,0.483-0.796,0.61-0.796c0.095,0,0.291,0.115,0.587,0.347
		c0.291-0.107,0.581-0.214,0.872-0.321c0.243-0.085,0.441-0.128,0.594-0.128c0.253,0,0.595,0.116,1.023,0.346
		c0.021-0.017,0.055-0.025,0.103-0.025c0.296,0,0.748,0.223,1.356,0.668c0.328,0.245,0.491,0.508,0.491,0.79
		C185.377,133.302,185.37,133.381,185.354,133.471"/>
	<path clip-path="url(#XMLID_41_)" fill="none" stroke="#46166B" d="M185.354,133.471c-0.164,0.994-0.561,2.066-1.188,3.218
		c-0.571,1.049-1.205,1.947-1.903,2.694c-0.698,0.748-1.258,1.124-1.68,1.128c-0.523,0-1.269-0.264-2.235-0.79
		c-0.074-0.043-0.111-0.092-0.111-0.148c0-0.137,0.098-0.205,0.293-0.205c0.053,0,0.106,0.011,0.159,0.032
		c0.396,0.201,0.834,0.313,1.315,0.334c0.661,0.025,1.505-0.76,2.536-2.357c1.02-1.576,1.612-2.982,1.775-4.22
		c0.053-0.399-0.211-0.694-0.792-0.887c-0.143-0.042-0.262-0.06-0.357-0.051c-1.019,0.116-2.004,0.415-2.956,0.899
		c-0.497,0.959-0.998,2.094-1.506,3.405c-0.554,1.43-0.957,2.667-1.205,3.713c-0.053,0.213-0.164,0.32-0.333,0.32
		c-0.064,0-0.138-0.015-0.222-0.044c-0.275-0.116-0.455-0.21-0.54-0.282c-0.116-0.099-0.173-0.234-0.173-0.406
		c0-0.359,0.071-0.79,0.214-1.291c0.037-0.124,0.092-0.186,0.167-0.186c0.069,0,0.25,0.099,0.546,0.295
		c0.719-1.982,1.4-3.681,2.045-5.094c-1.178,0.6-2.087,1.178-2.727,1.734c-0.148,0.133-0.221,0.287-0.221,0.463
		c0,0.158,0.063,0.337,0.19,0.539c0.126,0.202,0.189,0.317,0.189,0.347c0,0.073-0.06,0.109-0.182,0.109
		c-0.105,0-0.185-0.023-0.237-0.071c-0.661-0.629-0.992-1.064-0.992-1.304c0-0.252,0.211-0.533,0.635-0.84
		c0.893-0.656,2.187-1.379,3.883-2.172c0.28-0.531,0.483-0.796,0.61-0.796c0.095,0,0.291,0.115,0.587,0.347
		c0.291-0.107,0.581-0.214,0.872-0.321c0.243-0.085,0.441-0.128,0.594-0.128c0.253,0,0.595,0.116,1.023,0.346
		c0.021-0.017,0.055-0.025,0.103-0.025c0.296,0,0.748,0.223,1.356,0.668c0.328,0.245,0.491,0.508,0.491,0.79
		C185.377,133.302,185.37,133.381,185.354,133.471z"/>
	<path clip-path="url(#XMLID_41_)" fill="#46166B" d="M187.375,135.995c-0.126,0.579-0.457,1.54-0.99,2.884
		c0.153-0.112,0.364-0.315,0.634-0.61c0.037-0.039,0.074-0.058,0.111-0.058c0.084,0,0.095,0.06,0.032,0.18
		c-0.027,0.046-0.249,0.34-0.666,0.879c-0.317,0.411-0.55,0.775-0.698,1.092c-0.048,0.098-0.135,0.147-0.262,0.147
		c-0.126,0-0.298-0.05-0.515-0.147c-0.138-0.061-0.206-0.106-0.206-0.135c0-0.026,0.029-0.082,0.087-0.168
		c0.286-0.406,0.603-1.087,0.951-2.042c0.334-0.925,0.521-1.613,0.563-2.062c0.016-0.192-0.007-0.289-0.072-0.289
		c-0.047,0-0.132,0.047-0.253,0.141l-0.492,0.373c-0.174,0.129-0.261,0.135-0.261,0.019c0-0.035,0.024-0.077,0.071-0.128
		c0.248-0.283,0.513-0.55,0.793-0.803c0.084-0.073,0.167-0.109,0.246-0.109c0.084,0,0.208,0.047,0.373,0.141
		c0.243,0.052,0.377,0.084,0.404,0.096c0.122,0.06,0.183,0.171,0.183,0.334C187.407,135.809,187.396,135.896,187.375,135.995
		 M188.492,133.182c0.085,0.051,0.127,0.109,0.127,0.174c0,0.124-0.227,0.316-0.682,0.578c-0.301,0.167-0.592,0.227-0.872,0.179
		c-0.159-0.025-0.296-0.072-0.412-0.141c-0.038-0.026-0.065-0.053-0.084-0.081c-0.019-0.027-0.023-0.05-0.012-0.067
		c0.016-0.017,0.048-0.021,0.096-0.013c0.485-0.343,0.805-0.589,0.958-0.739c0.122-0.111,0.208-0.167,0.262-0.167
		C187.969,132.905,188.175,132.998,188.492,133.182"/>
	<path clip-path="url(#XMLID_41_)" fill="none" stroke="#46166B" d="M187.375,135.995c-0.126,0.579-0.457,1.54-0.99,2.884
		c0.153-0.112,0.364-0.315,0.634-0.61c0.037-0.039,0.074-0.058,0.111-0.058c0.084,0,0.095,0.06,0.032,0.18
		c-0.027,0.046-0.249,0.34-0.666,0.879c-0.317,0.411-0.55,0.775-0.698,1.092c-0.048,0.098-0.135,0.147-0.262,0.147
		c-0.126,0-0.298-0.05-0.515-0.147c-0.138-0.061-0.206-0.106-0.206-0.135c0-0.026,0.029-0.082,0.087-0.168
		c0.286-0.406,0.603-1.087,0.951-2.042c0.334-0.925,0.521-1.613,0.563-2.062c0.016-0.192-0.007-0.289-0.072-0.289
		c-0.047,0-0.132,0.047-0.253,0.141l-0.492,0.373c-0.174,0.129-0.261,0.135-0.261,0.019c0-0.035,0.024-0.077,0.071-0.128
		c0.248-0.283,0.513-0.55,0.793-0.803c0.084-0.073,0.167-0.109,0.246-0.109c0.084,0,0.208,0.047,0.373,0.141
		c0.243,0.052,0.377,0.084,0.404,0.096c0.122,0.06,0.183,0.171,0.183,0.334C187.407,135.809,187.396,135.896,187.375,135.995z
		 M188.492,133.182c0.085,0.051,0.127,0.109,0.127,0.174c0,0.124-0.227,0.316-0.682,0.578c-0.301,0.167-0.592,0.227-0.872,0.179
		c-0.159-0.025-0.296-0.072-0.412-0.141c-0.038-0.026-0.065-0.053-0.084-0.081c-0.019-0.027-0.023-0.05-0.012-0.067
		c0.016-0.017,0.048-0.021,0.096-0.013c0.485-0.343,0.805-0.589,0.958-0.739c0.122-0.111,0.208-0.167,0.262-0.167
		C187.969,132.905,188.175,132.998,188.492,133.182z"/>
	<path clip-path="url(#XMLID_41_)" fill="#46166B" d="M194.873,130.722c0.079,0.047,0.119,0.099,0.119,0.154
		c0,0.085-0.066,0.128-0.198,0.128c-0.058,0-0.113-0.011-0.167-0.032c-0.301-0.133-0.568-0.199-0.8-0.199
		c-0.174,0-0.331,0.034-0.467,0.103c-0.53,0.274-1.367,1.705-2.514,4.291c0.856,0.107,1.398,0.161,1.625,0.161
		c0.122,0,0.183,0.037,0.183,0.109c0,0.082-0.061,0.132-0.183,0.154c-0.617,0.094-1.247,0.155-1.886,0.18
		c-0.724,1.734-1.29,3.346-1.697,4.836c-0.328,1.203-0.491,2.062-0.491,2.576c0,0.043,0.008,0.108,0.023,0.196
		s0.024,0.156,0.024,0.202c0,0.068-0.029,0.103-0.087,0.103c-0.079,0-0.268-0.073-0.563-0.218c-0.354-0.167-0.508-0.365-0.46-0.591
		c0.443-1.901,1.223-4.265,2.338-7.091c-0.412,0.021-0.66,0.03-0.746,0.025c-0.11-0.013-0.188-0.056-0.229-0.128
		c-0.058-0.115-0.087-0.179-0.087-0.192c0-0.065,0.084-0.113,0.253-0.148c0.243-0.047,0.486-0.092,0.729-0.135
		c0.223-0.052,0.352-0.123,0.389-0.212c0.851-1.995,1.52-3.357,2.005-4.085c0.402-0.599,0.785-0.898,1.149-0.898
		C193.486,130.009,194.065,130.247,194.873,130.722"/>
	<path clip-path="url(#XMLID_41_)" fill="none" stroke="#46166B" d="M194.873,130.722c0.079,0.047,0.119,0.099,0.119,0.154
		c0,0.085-0.066,0.128-0.198,0.128c-0.058,0-0.113-0.011-0.167-0.032c-0.301-0.133-0.568-0.199-0.8-0.199
		c-0.174,0-0.331,0.034-0.467,0.103c-0.53,0.274-1.367,1.705-2.514,4.291c0.856,0.107,1.398,0.161,1.625,0.161
		c0.122,0,0.183,0.037,0.183,0.109c0,0.082-0.061,0.132-0.183,0.154c-0.617,0.094-1.247,0.155-1.886,0.18
		c-0.724,1.734-1.29,3.346-1.697,4.836c-0.328,1.203-0.491,2.062-0.491,2.576c0,0.043,0.008,0.108,0.023,0.196
		s0.024,0.156,0.024,0.202c0,0.068-0.029,0.103-0.087,0.103c-0.079,0-0.268-0.073-0.563-0.218c-0.354-0.167-0.508-0.365-0.46-0.591
		c0.443-1.901,1.223-4.265,2.338-7.091c-0.412,0.021-0.66,0.03-0.746,0.025c-0.11-0.013-0.188-0.056-0.229-0.128
		c-0.058-0.115-0.087-0.179-0.087-0.192c0-0.065,0.084-0.113,0.253-0.148c0.243-0.047,0.486-0.092,0.729-0.135
		c0.223-0.052,0.352-0.123,0.389-0.212c0.851-1.995,1.52-3.357,2.005-4.085c0.402-0.599,0.785-0.898,1.149-0.898
		C193.486,130.009,194.065,130.247,194.873,130.722z"/>
	<path clip-path="url(#XMLID_41_)" fill="#46166B" d="M198.82,130.722c0.079,0.047,0.119,0.099,0.119,0.154
		c0,0.085-0.066,0.128-0.198,0.128c-0.059,0-0.113-0.011-0.167-0.032c-0.301-0.133-0.568-0.199-0.8-0.199
		c-0.175,0-0.331,0.034-0.468,0.103c-0.528,0.274-1.366,1.705-2.513,4.291c0.857,0.107,1.398,0.161,1.625,0.161
		c0.122,0,0.183,0.037,0.183,0.109c0,0.082-0.061,0.132-0.183,0.154c-0.618,0.094-1.247,0.155-1.886,0.18
		c-0.724,1.734-1.291,3.346-1.696,4.836c-0.328,1.203-0.492,2.062-0.492,2.576c0,0.043,0.008,0.108,0.024,0.196
		c0.016,0.088,0.024,0.156,0.024,0.202c0,0.068-0.029,0.103-0.087,0.103c-0.08,0-0.267-0.073-0.562-0.218
		c-0.354-0.167-0.508-0.365-0.46-0.591c0.443-1.901,1.223-4.265,2.337-7.091c-0.412,0.021-0.66,0.03-0.745,0.025
		c-0.11-0.013-0.188-0.056-0.229-0.128c-0.058-0.115-0.087-0.179-0.087-0.192c0-0.065,0.084-0.113,0.253-0.148
		c0.243-0.047,0.486-0.092,0.729-0.135c0.222-0.052,0.351-0.123,0.388-0.212c0.851-1.995,1.519-3.357,2.005-4.085
		c0.402-0.599,0.785-0.898,1.149-0.898C197.433,130.009,198.012,130.247,198.82,130.722"/>
	<path clip-path="url(#XMLID_41_)" fill="none" stroke="#46166B" d="M198.82,130.722c0.079,0.047,0.119,0.099,0.119,0.154
		c0,0.085-0.066,0.128-0.198,0.128c-0.059,0-0.113-0.011-0.167-0.032c-0.301-0.133-0.568-0.199-0.8-0.199
		c-0.175,0-0.331,0.034-0.468,0.103c-0.528,0.274-1.366,1.705-2.513,4.291c0.857,0.107,1.398,0.161,1.625,0.161
		c0.122,0,0.183,0.037,0.183,0.109c0,0.082-0.061,0.132-0.183,0.154c-0.618,0.094-1.247,0.155-1.886,0.18
		c-0.724,1.734-1.291,3.346-1.696,4.836c-0.328,1.203-0.492,2.062-0.492,2.576c0,0.043,0.008,0.108,0.024,0.196
		c0.016,0.088,0.024,0.156,0.024,0.202c0,0.068-0.029,0.103-0.087,0.103c-0.08,0-0.267-0.073-0.562-0.218
		c-0.354-0.167-0.508-0.365-0.46-0.591c0.443-1.901,1.223-4.265,2.337-7.091c-0.412,0.021-0.66,0.03-0.745,0.025
		c-0.11-0.013-0.188-0.056-0.229-0.128c-0.058-0.115-0.087-0.179-0.087-0.192c0-0.065,0.084-0.113,0.253-0.148
		c0.243-0.047,0.486-0.092,0.729-0.135c0.222-0.052,0.351-0.123,0.388-0.212c0.851-1.995,1.519-3.357,2.005-4.085
		c0.402-0.599,0.785-0.898,1.149-0.898C197.433,130.009,198.012,130.247,198.82,130.722z"/>
	<path clip-path="url(#XMLID_41_)" fill="#46166B" d="M200.247,138.532c-1.284,1.332-2.188,1.997-2.711,1.997
		c-0.249,0-0.563-0.139-0.943-0.417c-0.396-0.15-0.595-0.351-0.595-0.604c0-0.047,0.005-0.096,0.016-0.147
		c0.095-0.586,0.288-1.235,0.579-1.946c-0.196-0.082-0.293-0.159-0.293-0.231c0-0.061,0.055-0.09,0.167-0.09
		c0.084,0,0.172,0.019,0.262,0.058c0.47-0.857,0.893-1.465,1.268-1.824c0.243-0.24,0.463-0.36,0.658-0.36
		c0.09,0,0.312,0.062,0.667,0.186c-0.027-0.128,0.018-0.203,0.134-0.225h0.373c0.227,0,0.34,0.032,0.34,0.097
		c0,0.013-0.008,0.049-0.024,0.109c-0.015,0.06-0.023,0.116-0.023,0.166c0,0.155,0.002,0.346,0.008,0.572
		c0.004,0.227,0.007,0.379,0.007,0.457c0,0.53-0.18,0.9-0.538,1.111c-0.329,0.192-0.698,0.289-1.11,0.289
		c-0.217,0-0.576-0.047-1.078-0.141c-0.09,0.132-0.191,0.391-0.301,0.777c-0.149,0.488-0.217,0.921-0.207,1.297
		c0.005,0.223,0.093,0.334,0.263,0.334c0.063,0,0.145-0.013,0.245-0.038c0.612-0.176,1.466-0.711,2.56-1.606
		c0.069-0.056,0.138-0.083,0.207-0.083c0.1,0,0.15,0.039,0.15,0.116C200.326,138.432,200.299,138.481,200.247,138.532
		 M199.32,135.693c0-0.167-0.045-0.25-0.135-0.25c-0.058,0-0.143,0.034-0.254,0.102c-0.518,0.339-0.972,0.932-1.363,1.78
		c0.106,0.012,0.291,0.026,0.555,0.038c0.428,0.013,0.747-0.066,0.959-0.238c0.158-0.129,0.245-0.34,0.261-0.636
		C199.327,136.708,199.32,136.443,199.32,135.693"/>
	<path clip-path="url(#XMLID_41_)" fill="none" stroke="#46166B" d="M200.247,138.532c-1.284,1.332-2.188,1.997-2.711,1.997
		c-0.249,0-0.563-0.139-0.943-0.417c-0.396-0.15-0.595-0.351-0.595-0.604c0-0.047,0.005-0.096,0.016-0.147
		c0.095-0.586,0.288-1.235,0.579-1.946c-0.196-0.082-0.293-0.159-0.293-0.231c0-0.061,0.055-0.09,0.167-0.09
		c0.084,0,0.172,0.019,0.262,0.058c0.47-0.857,0.893-1.465,1.268-1.824c0.243-0.24,0.463-0.36,0.658-0.36
		c0.09,0,0.312,0.062,0.667,0.186c-0.027-0.128,0.018-0.203,0.134-0.225h0.373c0.227,0,0.34,0.032,0.34,0.097
		c0,0.013-0.008,0.049-0.024,0.109c-0.015,0.06-0.023,0.116-0.023,0.166c0,0.155,0.002,0.346,0.008,0.572
		c0.004,0.227,0.007,0.379,0.007,0.457c0,0.53-0.18,0.9-0.538,1.111c-0.329,0.192-0.698,0.289-1.11,0.289
		c-0.217,0-0.576-0.047-1.078-0.141c-0.09,0.132-0.191,0.391-0.301,0.777c-0.149,0.488-0.217,0.921-0.207,1.297
		c0.005,0.223,0.093,0.334,0.263,0.334c0.063,0,0.145-0.013,0.245-0.038c0.612-0.176,1.466-0.711,2.56-1.606
		c0.069-0.056,0.138-0.083,0.207-0.083c0.1,0,0.15,0.039,0.15,0.116C200.326,138.432,200.299,138.481,200.247,138.532z
		 M199.32,135.693c0-0.167-0.045-0.25-0.135-0.25c-0.058,0-0.143,0.034-0.254,0.102c-0.518,0.339-0.972,0.932-1.363,1.78
		c0.106,0.012,0.291,0.026,0.555,0.038c0.428,0.013,0.747-0.066,0.959-0.238c0.158-0.129,0.245-0.34,0.261-0.636
		C199.327,136.708,199.32,136.443,199.32,135.693z"/>
	<path clip-path="url(#XMLID_41_)" fill="#46166B" d="M205.883,135.533c0,0.561-0.093,1.096-0.277,1.606
		c-0.059,0.154-0.138,0.231-0.238,0.231c-0.074,0-0.237-0.086-0.491-0.257c-0.126-0.085-0.159-0.207-0.095-0.366
		c0.147-0.389,0.222-0.702,0.222-0.938c0-0.081-0.021-0.122-0.064-0.122c-0.063,0-0.166,0.078-0.308,0.231
		c-1.1,1.161-1.921,2.463-2.466,3.905c-0.175,0.458-0.322,0.688-0.444,0.688c-0.047,0-0.256-0.075-0.626-0.225
		c-0.18-0.072-0.241-0.214-0.182-0.424c0.417-1.481,0.866-2.732,1.347-3.751c-0.391,0.334-0.64,0.563-0.745,0.688
		c-0.042,0.051-0.101,0.077-0.174,0.077c-0.09,0-0.134-0.032-0.134-0.096c0-0.039,0.021-0.082,0.063-0.128
		c0.259-0.253,0.605-0.638,1.038-1.156c0.132-0.188,0.264-0.283,0.397-0.283c0.094,0,0.288,0.06,0.578,0.18
		c0.164,0.068,0.191,0.16,0.08,0.276c-0.117,0.124-0.335,0.563-0.658,1.317c-0.307,0.732-0.519,1.306-0.635,1.722
		c0.719-1.298,1.535-2.443,2.45-3.437c0.174-0.188,0.313-0.282,0.419-0.282c0.096,0,0.225,0.051,0.389,0.154
		c0.222,0.021,0.362,0.049,0.42,0.083C205.837,135.275,205.883,135.378,205.883,135.533"/>
	<path clip-path="url(#XMLID_41_)" fill="none" stroke="#46166B" d="M205.883,135.533c0,0.561-0.093,1.096-0.277,1.606
		c-0.059,0.154-0.138,0.231-0.238,0.231c-0.074,0-0.237-0.086-0.491-0.257c-0.126-0.085-0.159-0.207-0.095-0.366
		c0.147-0.389,0.222-0.702,0.222-0.938c0-0.081-0.021-0.122-0.064-0.122c-0.063,0-0.166,0.078-0.308,0.231
		c-1.1,1.161-1.921,2.463-2.466,3.905c-0.175,0.458-0.322,0.688-0.444,0.688c-0.047,0-0.256-0.075-0.626-0.225
		c-0.18-0.072-0.241-0.214-0.182-0.424c0.417-1.481,0.866-2.732,1.347-3.751c-0.391,0.334-0.64,0.563-0.745,0.688
		c-0.042,0.051-0.101,0.077-0.174,0.077c-0.09,0-0.134-0.032-0.134-0.096c0-0.039,0.021-0.082,0.063-0.128
		c0.259-0.253,0.605-0.638,1.038-1.156c0.132-0.188,0.264-0.283,0.397-0.283c0.094,0,0.288,0.06,0.578,0.18
		c0.164,0.068,0.191,0.16,0.08,0.276c-0.117,0.124-0.335,0.563-0.658,1.317c-0.307,0.732-0.519,1.306-0.635,1.722
		c0.719-1.298,1.535-2.443,2.45-3.437c0.174-0.188,0.313-0.282,0.419-0.282c0.096,0,0.225,0.051,0.389,0.154
		c0.222,0.021,0.362,0.049,0.42,0.083C205.837,135.275,205.883,135.378,205.883,135.533z"/>
	<path clip-path="url(#XMLID_41_)" fill="#46166B" d="M210.099,138.532c-1.284,1.332-2.188,1.997-2.71,1.997
		c-0.249,0-0.563-0.139-0.943-0.417c-0.396-0.15-0.594-0.351-0.594-0.604c0-0.047,0.004-0.096,0.015-0.147
		c0.095-0.586,0.289-1.235,0.579-1.946c-0.196-0.082-0.293-0.159-0.293-0.231c0-0.061,0.055-0.09,0.167-0.09
		c0.084,0,0.172,0.019,0.261,0.058c0.471-0.857,0.893-1.465,1.269-1.824c0.243-0.24,0.463-0.36,0.658-0.36
		c0.09,0,0.313,0.062,0.666,0.186c-0.026-0.128,0.018-0.203,0.135-0.225h0.373c0.227,0,0.34,0.032,0.34,0.097
		c0,0.013-0.008,0.049-0.023,0.109c-0.016,0.06-0.024,0.116-0.024,0.166c0,0.155,0.003,0.346,0.008,0.572
		c0.005,0.227,0.008,0.379,0.008,0.457c0,0.53-0.18,0.9-0.54,1.111c-0.327,0.192-0.698,0.289-1.11,0.289
		c-0.217,0-0.576-0.047-1.078-0.141c-0.09,0.132-0.19,0.391-0.301,0.777c-0.148,0.488-0.216,0.921-0.206,1.297
		c0.005,0.223,0.092,0.334,0.261,0.334c0.063,0,0.145-0.013,0.246-0.038c0.613-0.176,1.467-0.711,2.56-1.606
		c0.069-0.056,0.138-0.083,0.206-0.083c0.101,0,0.151,0.039,0.151,0.116C210.179,138.432,210.152,138.481,210.099,138.532
		 M209.172,135.693c0-0.167-0.045-0.25-0.135-0.25c-0.058,0-0.143,0.034-0.253,0.102c-0.518,0.339-0.972,0.932-1.364,1.78
		c0.106,0.012,0.291,0.026,0.556,0.038c0.428,0.013,0.747-0.066,0.958-0.238c0.159-0.129,0.246-0.34,0.262-0.636
		C209.18,136.708,209.172,136.443,209.172,135.693"/>
	<path clip-path="url(#XMLID_41_)" fill="none" stroke="#46166B" d="M210.099,138.532c-1.284,1.332-2.188,1.997-2.71,1.997
		c-0.249,0-0.563-0.139-0.943-0.417c-0.396-0.15-0.594-0.351-0.594-0.604c0-0.047,0.004-0.096,0.015-0.147
		c0.095-0.586,0.289-1.235,0.579-1.946c-0.196-0.082-0.293-0.159-0.293-0.231c0-0.061,0.055-0.09,0.167-0.09
		c0.084,0,0.172,0.019,0.261,0.058c0.471-0.857,0.893-1.465,1.269-1.824c0.243-0.24,0.463-0.36,0.658-0.36
		c0.09,0,0.313,0.062,0.666,0.186c-0.026-0.128,0.018-0.203,0.135-0.225h0.373c0.227,0,0.34,0.032,0.34,0.097
		c0,0.013-0.008,0.049-0.023,0.109c-0.016,0.06-0.024,0.116-0.024,0.166c0,0.155,0.003,0.346,0.008,0.572
		c0.005,0.227,0.008,0.379,0.008,0.457c0,0.53-0.18,0.9-0.54,1.111c-0.327,0.192-0.698,0.289-1.11,0.289
		c-0.217,0-0.576-0.047-1.078-0.141c-0.09,0.132-0.19,0.391-0.301,0.777c-0.148,0.488-0.216,0.921-0.206,1.297
		c0.005,0.223,0.092,0.334,0.261,0.334c0.063,0,0.145-0.013,0.246-0.038c0.613-0.176,1.467-0.711,2.56-1.606
		c0.069-0.056,0.138-0.083,0.206-0.083c0.101,0,0.151,0.039,0.151,0.116C210.179,138.432,210.152,138.481,210.099,138.532z
		 M209.172,135.693c0-0.167-0.045-0.25-0.135-0.25c-0.058,0-0.143,0.034-0.253,0.102c-0.518,0.339-0.972,0.932-1.364,1.78
		c0.106,0.012,0.291,0.026,0.556,0.038c0.428,0.013,0.747-0.066,0.958-0.238c0.159-0.129,0.246-0.34,0.262-0.636
		C209.18,136.708,209.172,136.443,209.172,135.693z"/>
	<path clip-path="url(#XMLID_41_)" fill="#46166B" d="M216.741,138.076c-0.316,0.39-0.729,0.955-1.236,1.695
		c-0.095,0.193-0.188,0.386-0.278,0.578c-0.074,0.133-0.171,0.199-0.293,0.199c-0.095,0-0.235-0.031-0.42-0.096
		c-0.207-0.068-0.309-0.138-0.309-0.206c0-0.03,0.035-0.096,0.103-0.199c0.344-0.565,0.651-1.27,0.919-2.113
		c0.292-0.886,0.415-1.563,0.374-2.03c-0.011-0.188-0.064-0.283-0.159-0.283c-0.069,0-0.171,0.054-0.309,0.161
		c-1.332,1.053-2.483,2.461-3.456,4.226c-0.121,0.219-0.265,0.327-0.428,0.327c-0.116,0-0.309-0.054-0.579-0.161
		c-0.105-0.038-0.161-0.074-0.167-0.109c0-0.017,0.029-0.076,0.087-0.179c0.307-0.544,0.61-1.233,0.912-2.068
		c0.322-0.903,0.505-1.608,0.546-2.113c0.011-0.154,0.006-0.231-0.015-0.231c-0.006,0-0.079,0.058-0.222,0.173
		c-0.142,0.116-0.341,0.266-0.594,0.45c-0.047,0.038-0.1,0.058-0.159,0.058c-0.074,0-0.111-0.023-0.111-0.071
		c0-0.035,0.026-0.072,0.08-0.115c0.228-0.236,0.525-0.529,0.896-0.881c0.079-0.072,0.161-0.108,0.245-0.108
		c0.127,0,0.238,0.074,0.333,0.224c0.429,0.103,0.629,0.261,0.603,0.475c-0.058,0.472-0.356,1.321-0.896,2.55
		c0.354-0.552,0.869-1.17,1.545-1.853c0.676-0.683,1.178-1.087,1.506-1.211c0.164-0.06,0.28-0.09,0.349-0.09
		c0.068,0,0.179,0.047,0.333,0.141c0.439,0.125,0.655,0.33,0.65,0.617c0,0.3-0.09,0.781-0.27,1.446
		c-0.143,0.547-0.275,0.974-0.396,1.277c0.153-0.158,0.349-0.363,0.587-0.616c0.042-0.043,0.084-0.064,0.127-0.064
		c0.079,0,0.119,0.041,0.119,0.122C216.758,138.025,216.752,138.051,216.741,138.076"/>
	<path clip-path="url(#XMLID_41_)" fill="none" stroke="#46166B" d="M216.741,138.076c-0.316,0.39-0.729,0.955-1.236,1.695
		c-0.095,0.193-0.188,0.386-0.278,0.578c-0.074,0.133-0.171,0.199-0.293,0.199c-0.095,0-0.235-0.031-0.42-0.096
		c-0.207-0.068-0.309-0.138-0.309-0.206c0-0.03,0.035-0.096,0.103-0.199c0.344-0.565,0.651-1.27,0.919-2.113
		c0.292-0.886,0.415-1.563,0.374-2.03c-0.011-0.188-0.064-0.283-0.159-0.283c-0.069,0-0.171,0.054-0.309,0.161
		c-1.332,1.053-2.483,2.461-3.456,4.226c-0.121,0.219-0.265,0.327-0.428,0.327c-0.116,0-0.309-0.054-0.579-0.161
		c-0.105-0.038-0.161-0.074-0.167-0.109c0-0.017,0.029-0.076,0.087-0.179c0.307-0.544,0.61-1.233,0.912-2.068
		c0.322-0.903,0.505-1.608,0.546-2.113c0.011-0.154,0.006-0.231-0.015-0.231c-0.006,0-0.079,0.058-0.222,0.173
		c-0.142,0.116-0.341,0.266-0.594,0.45c-0.047,0.038-0.1,0.058-0.159,0.058c-0.074,0-0.111-0.023-0.111-0.071
		c0-0.035,0.026-0.072,0.08-0.115c0.228-0.236,0.525-0.529,0.896-0.881c0.079-0.072,0.161-0.108,0.245-0.108
		c0.127,0,0.238,0.074,0.333,0.224c0.429,0.103,0.629,0.261,0.603,0.475c-0.058,0.472-0.356,1.321-0.896,2.55
		c0.354-0.552,0.869-1.17,1.545-1.853c0.676-0.683,1.178-1.087,1.506-1.211c0.164-0.06,0.28-0.09,0.349-0.09
		c0.068,0,0.179,0.047,0.333,0.141c0.439,0.125,0.655,0.33,0.65,0.617c0,0.3-0.09,0.781-0.27,1.446
		c-0.143,0.547-0.275,0.974-0.396,1.277c0.153-0.158,0.349-0.363,0.587-0.616c0.042-0.043,0.084-0.064,0.127-0.064
		c0.079,0,0.119,0.041,0.119,0.122C216.758,138.025,216.752,138.051,216.741,138.076z"/>
	<path clip-path="url(#XMLID_41_)" fill="#46166B" d="M222.029,132.167c0.148,0.064,0.222,0.137,0.222,0.218
		c0,0.056-0.051,0.083-0.151,0.083c-0.021,0-0.054-0.003-0.099-0.01c-0.045-0.006-0.078-0.01-0.099-0.01
		c-0.201,0-0.444,0.178-0.729,0.533c-0.254,0.317-0.605,1.006-1.054,2.068c-0.043,0.095-0.059,0.149-0.048,0.167
		c0.016,0.03,0.084,0.047,0.207,0.051c0.312,0.021,0.729,0.013,1.252-0.025c0.18-0.013,0.27,0.049,0.27,0.186
		c0,0.094-0.069,0.152-0.207,0.174c-0.11,0.013-0.695,0.051-1.751,0.116c-0.635,1.502-1.021,2.774-1.158,3.815
		c-0.005,0.056-0.008,0.105-0.008,0.148c0,0.145,0.045,0.218,0.135,0.218c0.143,0,0.574-0.28,1.292-0.842
		c0.085-0.068,0.167-0.103,0.246-0.103c0.069,0,0.111,0.023,0.126,0.071c0.016,0.051-0.007,0.111-0.071,0.18
		c-0.428,0.458-0.848,0.848-1.26,1.169c-0.175,0.132-0.319,0.2-0.436,0.2s-0.296-0.075-0.54-0.226
		c-0.3-0.064-0.451-0.192-0.451-0.385c0-0.03,0.005-0.064,0.016-0.103c0.195-1.105,0.579-2.464,1.149-4.078
		c-0.28-0.031-0.534-0.06-0.761-0.091c-0.101-0.013-0.151-0.064-0.151-0.154c0-0.099,0.053-0.158,0.159-0.18
		c0.106-0.021,0.301-0.069,0.586-0.142c0.175-0.047,0.344-0.111,0.507-0.192c0.566-1.418,1.009-2.336,1.333-2.756
		c0.184-0.24,0.382-0.359,0.594-0.359C221.35,131.91,221.643,131.996,222.029,132.167"/>
	<path clip-path="url(#XMLID_41_)" fill="none" stroke="#46166B" d="M222.029,132.167c0.148,0.064,0.222,0.137,0.222,0.218
		c0,0.056-0.051,0.083-0.151,0.083c-0.021,0-0.054-0.003-0.099-0.01c-0.045-0.006-0.078-0.01-0.099-0.01
		c-0.201,0-0.444,0.178-0.729,0.533c-0.254,0.317-0.605,1.006-1.054,2.068c-0.043,0.095-0.059,0.149-0.048,0.167
		c0.016,0.03,0.084,0.047,0.207,0.051c0.312,0.021,0.729,0.013,1.252-0.025c0.18-0.013,0.27,0.049,0.27,0.186
		c0,0.094-0.069,0.152-0.207,0.174c-0.11,0.013-0.695,0.051-1.751,0.116c-0.635,1.502-1.021,2.774-1.158,3.815
		c-0.005,0.056-0.008,0.105-0.008,0.148c0,0.145,0.045,0.218,0.135,0.218c0.143,0,0.574-0.28,1.292-0.842
		c0.085-0.068,0.167-0.103,0.246-0.103c0.069,0,0.111,0.023,0.126,0.071c0.016,0.051-0.007,0.111-0.071,0.18
		c-0.428,0.458-0.848,0.848-1.26,1.169c-0.175,0.132-0.319,0.2-0.436,0.2s-0.296-0.075-0.54-0.226
		c-0.3-0.064-0.451-0.192-0.451-0.385c0-0.03,0.005-0.064,0.016-0.103c0.195-1.105,0.579-2.464,1.149-4.078
		c-0.28-0.031-0.534-0.06-0.761-0.091c-0.101-0.013-0.151-0.064-0.151-0.154c0-0.099,0.053-0.158,0.159-0.18
		c0.106-0.021,0.301-0.069,0.586-0.142c0.175-0.047,0.344-0.111,0.507-0.192c0.566-1.418,1.009-2.336,1.333-2.756
		c0.184-0.24,0.382-0.359,0.594-0.359C221.35,131.91,221.643,131.996,222.029,132.167z"/>
	<path clip-path="url(#XMLID_41_)" fill="#46166B" d="M227.665,130.395c0.069,0.042,0.103,0.087,0.103,0.135
		c0,0.081-0.061,0.122-0.183,0.122c-0.052,0-0.108-0.013-0.166-0.039c-0.244-0.099-0.426-0.148-0.548-0.148
		c-0.332,0-0.696,0.262-1.093,0.784c-1.438,1.897-2.46,4.348-3.067,7.354c-0.016,0.081-0.042,0.19-0.079,0.328
		c0.121-0.103,0.301-0.27,0.539-0.501c0.137-0.133,0.237-0.2,0.301-0.2c0.137,0,0.147,0.067,0.031,0.2
		c-0.507,0.586-0.843,1.201-1.007,1.843c-0.058,0.159-0.132,0.238-0.222,0.238c-0.042,0-0.098-0.019-0.166-0.058
		c-0.271-0.146-0.423-0.231-0.46-0.257c-0.106-0.085-0.159-0.197-0.159-0.334c0-0.068,0.013-0.152,0.04-0.251
		c0.613-2.727,1.403-5.05,2.37-6.969c0.729-1.447,1.382-2.385,1.958-2.813c0.159-0.12,0.318-0.178,0.476-0.174
		c0.143,0.004,0.327,0.078,0.555,0.218C227.147,130.045,227.406,130.218,227.665,130.395"/>
	<path clip-path="url(#XMLID_41_)" fill="none" stroke="#46166B" d="M227.665,130.395c0.069,0.042,0.103,0.087,0.103,0.135
		c0,0.081-0.061,0.122-0.183,0.122c-0.052,0-0.108-0.013-0.166-0.039c-0.244-0.099-0.426-0.148-0.548-0.148
		c-0.332,0-0.696,0.262-1.093,0.784c-1.438,1.897-2.46,4.348-3.067,7.354c-0.016,0.081-0.042,0.19-0.079,0.328
		c0.121-0.103,0.301-0.27,0.539-0.501c0.137-0.133,0.237-0.2,0.301-0.2c0.137,0,0.147,0.067,0.031,0.2
		c-0.507,0.586-0.843,1.201-1.007,1.843c-0.058,0.159-0.132,0.238-0.222,0.238c-0.042,0-0.098-0.019-0.166-0.058
		c-0.271-0.146-0.423-0.231-0.46-0.257c-0.106-0.085-0.159-0.197-0.159-0.334c0-0.068,0.013-0.152,0.04-0.251
		c0.613-2.727,1.403-5.05,2.37-6.969c0.729-1.447,1.382-2.385,1.958-2.813c0.159-0.12,0.318-0.178,0.476-0.174
		c0.143,0.004,0.327,0.078,0.555,0.218C227.147,130.045,227.406,130.218,227.665,130.395z"/>
	<path clip-path="url(#XMLID_41_)" fill="#46166B" d="M230.241,135.917c-0.734,2.746-1.425,4.799-2.069,6.161
		c-1.247,2.646-2.679,3.97-4.296,3.97c-0.945,0-1.963-0.418-3.052-1.253c-0.095-0.073-0.142-0.15-0.142-0.231
		c0-0.128,0.074-0.192,0.222-0.192c0.074,0,0.145,0.023,0.214,0.071c0.862,0.595,1.631,0.892,2.307,0.892
		c1.242,0,2.371-0.839,3.385-2.518c0.797-1.315,1.493-3.079,2.084-5.293c0.038-0.158,0.098-0.4,0.183-0.725
		c-0.555,0.732-1.176,1.454-1.862,2.164c-0.662,0.686-1.182,1.157-1.562,1.414c-0.212,0.142-0.381,0.212-0.507,0.212
		c-0.101,0-0.204-0.045-0.31-0.135c-0.11-0.116-0.225-0.229-0.341-0.341c-0.053-0.052-0.08-0.099-0.08-0.141v-0.013
		c0.011-0.052,0.059-0.088,0.143-0.11c0.254-0.278,0.492-0.879,0.713-1.805c0.169-0.728,0.286-1.419,0.349-2.074
		c0.011-0.154-0.012-0.231-0.071-0.231c-0.016,0-0.14,0.077-0.373,0.231c-0.369,0.252-0.571,0.378-0.603,0.378
		c-0.074,0-0.111-0.029-0.111-0.09c0-0.03,0.016-0.06,0.048-0.09c0.089-0.09,0.29-0.315,0.602-0.674
		c0.28-0.321,0.467-0.482,0.563-0.482c0.074,0,0.174,0.026,0.301,0.077c0.27-0.034,0.421-0.051,0.452-0.051
		c0.18,0,0.27,0.111,0.27,0.334c0,0.373-0.132,1.102-0.396,2.187c-0.265,1.086-0.481,1.788-0.65,2.104
		c0.528-0.338,1.214-1.001,2.061-1.991c0.825-0.964,1.337-1.689,1.538-2.178c0.01-0.287,0.087-0.43,0.229-0.43
		c0.111,0,0.317,0.092,0.618,0.276C230.267,135.443,230.314,135.636,230.241,135.917"/>
	<path clip-path="url(#XMLID_41_)" fill="none" stroke="#46166B" d="M230.241,135.917c-0.734,2.746-1.425,4.799-2.069,6.161
		c-1.247,2.646-2.679,3.97-4.296,3.97c-0.945,0-1.963-0.418-3.052-1.253c-0.095-0.073-0.142-0.15-0.142-0.231
		c0-0.128,0.074-0.192,0.222-0.192c0.074,0,0.145,0.023,0.214,0.071c0.862,0.595,1.631,0.892,2.307,0.892
		c1.242,0,2.371-0.839,3.385-2.518c0.797-1.315,1.493-3.079,2.084-5.293c0.038-0.158,0.098-0.4,0.183-0.725
		c-0.555,0.732-1.176,1.454-1.862,2.164c-0.662,0.686-1.182,1.157-1.562,1.414c-0.212,0.142-0.381,0.212-0.507,0.212
		c-0.101,0-0.204-0.045-0.31-0.135c-0.11-0.116-0.225-0.229-0.341-0.341c-0.053-0.052-0.08-0.099-0.08-0.141v-0.013
		c0.011-0.052,0.059-0.088,0.143-0.11c0.254-0.278,0.492-0.879,0.713-1.805c0.169-0.728,0.286-1.419,0.349-2.074
		c0.011-0.154-0.012-0.231-0.071-0.231c-0.016,0-0.14,0.077-0.373,0.231c-0.369,0.252-0.571,0.378-0.603,0.378
		c-0.074,0-0.111-0.029-0.111-0.09c0-0.03,0.016-0.06,0.048-0.09c0.089-0.09,0.29-0.315,0.602-0.674
		c0.28-0.321,0.467-0.482,0.563-0.482c0.074,0,0.174,0.026,0.301,0.077c0.27-0.034,0.421-0.051,0.452-0.051
		c0.18,0,0.27,0.111,0.27,0.334c0,0.373-0.132,1.102-0.396,2.187c-0.265,1.086-0.481,1.788-0.65,2.104
		c0.528-0.338,1.214-1.001,2.061-1.991c0.825-0.964,1.337-1.689,1.538-2.178c0.01-0.287,0.087-0.43,0.229-0.43
		c0.111,0,0.317,0.092,0.618,0.276C230.267,135.443,230.314,135.636,230.241,135.917z"/>
	
		<line clip-path="url(#XMLID_41_)" fill="none" stroke="#46166B" stroke-width="5.04" stroke-linecap="round" x1="100.787" y1="76.813" x2="182.052" y2="69.807"/>
	<path clip-path="url(#XMLID_41_)" fill="#46166B" d="M172.038,90.654c0,1.066-0.172,2.081-0.517,3.05
		c-0.11,0.292-0.258,0.439-0.447,0.439c-0.136,0-0.442-0.162-0.919-0.482c-0.237-0.159-0.296-0.389-0.179-0.686
		c0.272-0.729,0.412-1.314,0.412-1.757c0-0.152-0.04-0.229-0.121-0.229c-0.119,0-0.313,0.145-0.584,0.435
		c-2.076,2.182-3.627,4.631-4.655,7.344c-0.329,0.861-0.609,1.292-0.838,1.292c-0.09,0-0.484-0.142-1.184-0.425
		c-0.338-0.138-0.452-0.404-0.342-0.8c0.702-2.483,1.499-4.859,2.555-7.088c-0.738,0.631,0.044,1.147-0.156,1.383
		c-0.081,0.097,0.454,0.359,0.313,0.359c-0.168,0-0.626-0.153-0.626-0.274c0-0.073-0.08-0.104,0-0.193
		c0.49-0.48-0.26-1.463,0.558-2.446c0.251-0.356,0.501-0.536,0.751-0.536c0.18,0,0.543,0.115,1.092,0.342
		c0.31,0.129,0.361,0.303,0.149,0.522c-0.219,0.237-0.634,1.068-1.241,2.496c-0.581,1.388-0.98,2.474-1.199,3.261
		c1.352-2.446,2.892-4.604,4.614-6.477c0.325-0.356,0.619,0.021,0.506-0.267c-0.04-0.1,1.244-0.276,1.554-0.103
		c0.417,0.041,0.325,0.223,0.434,0.289C172.137,90.201,172.038,90.362,172.038,90.654"/>
	<path clip-path="url(#XMLID_41_)" fill="none" stroke="#46166B" stroke-width="3.6" d="M172.038,90.654
		c0,1.066-0.172,2.081-0.517,3.05c-0.11,0.292-0.258,0.439-0.447,0.439c-0.136,0-0.442-0.162-0.919-0.482
		c-0.237-0.159-0.296-0.389-0.179-0.686c0.272-0.729,0.412-1.314,0.412-1.757c0-0.152-0.04-0.229-0.121-0.229
		c-0.119,0-0.313,0.145-0.584,0.435c-2.076,2.182-3.627,4.631-4.655,7.344c-0.329,0.861-0.609,1.292-0.838,1.292
		c-0.09,0-0.484-0.142-1.184-0.425c-0.338-0.138-0.452-0.404-0.342-0.8c0.702-2.483,1.499-4.859,2.555-7.088
		c-0.738,0.631,0.044,1.147-0.156,1.383c-0.081,0.097,0.454,0.359,0.313,0.359c-0.168,0-0.626-0.153-0.626-0.274
		c0-0.073-0.08-0.104,0-0.193c0.49-0.48-0.26-1.463,0.558-2.446c0.251-0.356,0.501-0.536,0.751-0.536
		c0.18,0,0.543,0.115,1.092,0.342c0.31,0.129,0.361,0.303,0.149,0.522c-0.219,0.237-0.634,1.068-1.241,2.496
		c-0.581,1.388-0.98,2.474-1.199,3.261c1.352-2.446,2.892-4.604,4.614-6.477c0.325-0.356,0.619,0.021,0.506-0.267
		c-0.04-0.1,1.244-0.276,1.554-0.103c0.417,0.041,0.325,0.223,0.434,0.289C172.137,90.201,172.038,90.362,172.038,90.654z"/>
</g>
</svg>
