<?xml version="1.0" encoding="UTF-8" standalone="no"?>
<svg width="38px" height="43px" viewBox="0 0 38 43" version="1.1" xmlns="http://www.w3.org/2000/svg" xmlns:xlink="http://www.w3.org/1999/xlink" xmlns:sketch="http://www.bohemiancoding.com/sketch/ns">
    <!-- Generator: Sketch 3.2.1 (9971) - http://www.bohemiancoding.com/sketch -->
    <title>campus-ah</title>
    <desc>Created with Sketch.</desc>
    <defs>
        <path id="path-1" d="M0,0.417 L232.689,0.417 L232.689,42.939 L0,42.939 L0,0.417 Z"></path>
        <path id="path-3" d="M0,0.417 L232.689,0.417 L232.689,42.939 L0,42.939"></path>
        <path id="path-5" d="M0,0.417 L232.689,0.417 L232.689,42.939 L0,42.939 L0,0.417 Z"></path>
        <path id="path-7" d="M0,0.417 L232.689,0.417 L232.689,42.939 L0,42.939 L0,0.417 Z"></path>
        <path id="path-9" d="M0,0.417 L232.689,0.417 L232.689,42.939 L0,42.939"></path>
    </defs>
    <g id="Page-1" stroke="none" stroke-width="1" fill="none" fill-rule="evenodd" sketch:type="MSPage">
        <g id="Campus_Icons_Outline" sketch:type="MSLayerGroup" transform="translate(-195.000000, 0.000000)">
            <g id="Group-3">
                <mask id="mask-2" sketch:name="Clip 2" fill="white">
                    <use xlink:href="#path-1"></use>
                </mask>
                <g id="Clip-2"></g>
                <path d="M214.249,0.417 L195.813,11.058 L195.813,32.354 L214.249,43 L232.689,32.354 L232.689,11.058 L214.249,0.417 L214.249,0.417 Z M214.25,2.727 L230.689,12.213 L230.689,31.199 L214.25,40.69 L197.813,31.199 L197.813,12.213 L214.25,2.727 L214.25,2.727 Z" id="Fill-1" fill="#FFFFFF" sketch:type="MSShapeGroup" mask="url(#mask-2)"></path>
            </g>
            <path d="M211.371,23.352 L210.059,17.251 L210.021,17.251 L208.71,23.352 L211.371,23.352 L211.371,23.352 Z M211.732,14.893 L215.325,28.466 L212.473,28.466 L211.846,25.595 L208.235,25.595 L207.608,28.466 L204.756,28.466 L208.349,14.893 L211.732,14.893 L211.732,14.893 Z" id="Fill-4" fill="#FFFFFF" sketch:type="MSShapeGroup"></path>
            <g id="Group-8">
                <mask id="mask-4" sketch:name="Clip 6" fill="white">
                    <use xlink:href="#path-3"></use>
                </mask>
                <g id="Clip-6"></g>
                <path d="M218.822,14.893 L218.822,19.285 L218.86,19.285 C219.367,18.41 220.197,17.973 221.351,17.973 C222.187,17.973 222.83,18.201 223.28,18.657 C223.73,19.114 223.955,19.854 223.955,20.882 L223.955,28.466 L221.332,28.466 L221.332,21.413 C221.332,20.882 221.242,20.511 221.065,20.302 C220.888,20.092 220.603,19.987 220.21,19.987 C219.285,19.987 218.822,20.552 218.822,21.679 L218.822,28.466 L216.199,28.466 L216.199,14.893 L218.822,14.893" id="Fill-5" fill="#FFFFFF" sketch:type="MSShapeGroup" mask="url(#mask-4)"></path>
            </g>
            <g id="Group-13">
                <mask id="mask-6" sketch:name="Clip 11" fill="white">
                    <use xlink:href="#path-5"></use>
                </mask>
                <g id="Clip-11"></g>
            </g>
            <g id="Group-18">
                <mask id="mask-8" sketch:name="Clip 16" fill="white">
                    <use xlink:href="#path-7"></use>
                </mask>
                <g id="Clip-16"></g>
            </g>
            <g id="Group-23">
                <mask id="mask-10" sketch:name="Clip 21" fill="white">
                    <use xlink:href="#path-9"></use>
                </mask>
                <g id="Clip-21"></g>
            </g>
        </g>
    </g>
</svg>