<?xml version="1.0" encoding="UTF-8" standalone="no"?>
<svg width="37px" height="43px" viewBox="0 0 37 43" version="1.1" xmlns="http://www.w3.org/2000/svg" xmlns:xlink="http://www.w3.org/1999/xlink" xmlns:sketch="http://www.bohemiancoding.com/sketch/ns">
    <!-- Generator: Sketch 3.2.1 (9971) - http://www.bohemiancoding.com/sketch -->
    <title>campus-me</title>
    <desc>Created with Sketch.</desc>
    <defs>
        <path id="path-1" d="M0,0.417 L232.689,0.417 L232.689,42.939 L0,42.939 L0,0.417 Z"></path>
        <path id="path-3" d="M0,0.417 L232.689,0.417 L232.689,42.939 L0,42.939"></path>
        <path id="path-5" d="M0,0.417 L232.689,0.417 L232.689,42.939 L0,42.939 L0,0.417 Z"></path>
        <path id="path-7" d="M0,0.417 L232.689,0.417 L232.689,42.939 L0,42.939 L0,0.417 Z"></path>
        <path id="path-9" d="M0,0.417 L232.689,0.417 L232.689,42.939 L0,42.939"></path>
    </defs>
    <g id="Page-1" stroke="none" stroke-width="1" fill="none" fill-rule="evenodd" sketch:type="MSPage">
        <g id="Campus_Icons_Outline" sketch:type="MSLayerGroup">
            <g id="Group-3">
                <mask id="mask-2" sketch:name="Clip 2" fill="white">
                    <use xlink:href="#path-1"></use>
                </mask>
                <g id="Clip-2"></g>
            </g>
            <g id="Group-8">
                <mask id="mask-4" sketch:name="Clip 6" fill="white">
                    <use xlink:href="#path-3"></use>
                </mask>
                <g id="Clip-6"></g>
            </g>
            <g id="Group-13">
                <mask id="mask-6" sketch:name="Clip 11" fill="white">
                    <use xlink:href="#path-5"></use>
                </mask>
                <g id="Clip-11"></g>
                <path d="M18.441,0.417 L0,11.058 L0,32.354 L18.441,43 L36.874,32.354 L36.874,11.058 L18.441,0.417 L18.441,0.417 Z M18.441,2.727 L34.874,12.213 L34.874,31.2 L18.441,40.69 L2,31.199 L2,12.213 L18.441,2.727 L18.441,2.727 Z" id="Fill-12" fill="#FFFFFF" sketch:type="MSShapeGroup" mask="url(#mask-6)"></path>
            </g>
            <path d="M12.131,14.91 L14.07,24.49 L14.108,24.49 L16.066,14.91 L20.115,14.91 L20.115,28.483 L17.606,28.483 L17.606,17.647 L17.568,17.647 L15.154,28.483 L13.024,28.483 L10.61,17.647 L10.572,17.647 L10.572,28.483 L8.063,28.483 L8.063,14.91 L12.131,14.91" id="Fill-14" fill="#FFFFFF" sketch:type="MSShapeGroup"></path>
            <g id="Group-18">
                <mask id="mask-8" sketch:name="Clip 16" fill="white">
                    <use xlink:href="#path-7"></use>
                </mask>
                <g id="Clip-16"></g>
                <path d="M26.844,21.174 C26.806,20.876 26.739,20.623 26.644,20.413 C26.549,20.204 26.416,20.046 26.245,19.937 C26.074,19.83 25.856,19.777 25.589,19.777 C25.323,19.777 25.104,19.837 24.933,19.957 C24.762,20.078 24.626,20.236 24.524,20.432 C24.423,20.629 24.35,20.847 24.306,21.088 C24.262,21.328 24.24,21.57 24.24,21.811 L24.24,22.209 L26.92,22.209 C26.907,21.817 26.882,21.472 26.844,21.174 L26.844,21.174 Z M24.24,24.585 C24.24,24.889 24.262,25.185 24.306,25.469 C24.35,25.755 24.423,26.008 24.524,26.23 C24.626,26.451 24.759,26.628 24.924,26.762 C25.088,26.895 25.291,26.961 25.532,26.961 C25.976,26.961 26.299,26.804 26.502,26.486 C26.704,26.17 26.844,25.689 26.92,25.042 L29.277,25.042 C29.226,26.234 28.909,27.14 28.326,27.761 C27.744,28.381 26.825,28.691 25.57,28.691 C24.62,28.691 23.878,28.532 23.346,28.216 C22.814,27.9 22.421,27.482 22.168,26.961 C21.914,26.442 21.758,25.86 21.702,25.213 C21.645,24.567 21.616,23.921 21.616,23.275 C21.616,22.59 21.664,21.931 21.758,21.296 C21.854,20.664 22.044,20.099 22.329,19.606 C22.615,19.111 23.023,18.719 23.555,18.427 C24.088,18.135 24.797,17.99 25.684,17.99 C26.444,17.99 27.069,18.114 27.557,18.36 C28.044,18.607 28.428,18.957 28.707,19.406 C28.985,19.856 29.175,20.4 29.277,21.041 C29.378,21.681 29.429,22.394 29.429,23.179 L29.429,23.768 L24.24,23.768 L24.24,24.585 L24.24,24.585 Z" id="Fill-15" fill="#FFFFFF" sketch:type="MSShapeGroup" mask="url(#mask-8)"></path>
            </g>
            <g id="Group-23">
                <mask id="mask-10" sketch:name="Clip 21" fill="white">
                    <use xlink:href="#path-9"></use>
                </mask>
                <g id="Clip-21"></g>
            </g>
        </g>
    </g>
</svg>