<?xml version="1.0" encoding="UTF-8" standalone="no"?>
<svg width="314px" height="174px" viewBox="0 0 314 174" version="1.1" xmlns="http://www.w3.org/2000/svg" xmlns:xlink="http://www.w3.org/1999/xlink" xmlns:sketch="http://www.bohemiancoding.com/sketch/ns">
    <!-- Generator: Sketch 3.2.1 (9971) - http://www.bohemiancoding.com/sketch -->
    <title>Untitled 3</title>
    <desc>Created with Sketch.</desc>
    <defs>
        <path id="path-1" d="M0.019,173.018 L313.98,173.018 L313.98,0.981 L0.019,0.981"></path>
    </defs>
    <g id="Page-1" stroke="none" stroke-width="1" fill="none" fill-rule="evenodd" sketch:type="MSPage">
        <g id="Central-Identity-Guide-PREVIEW" sketch:type="MSLayerGroup" transform="translate(-239.000000, -219.000000)">
            <g id="Group-27" transform="translate(239.000000, 219.000000)">
                <mask id="mask-2" sketch:name="Clip 4" fill="white">
                    <use xlink:href="#path-1"></use>
                </mask>
                <g id="Clip-4"></g>
                <path d="M45.5357,169.7094 C42.7397,169.7094 40.8057,167.3794 40.8057,164.5824 L40.8057,164.5364 C40.8057,161.7394 42.7857,159.4564 45.5357,159.4564 C47.1667,159.4564 48.4487,160.1544 49.7067,161.2974 L51.9907,158.6644 C50.4757,157.1724 48.6347,156.1474 45.5587,156.1474 C40.5487,156.1474 37.0537,159.9454 37.0537,164.5824 L37.0537,164.6294 C37.0537,169.3124 40.6187,173.0184 45.4187,173.0184 C48.5647,173.0184 50.4287,171.8994 52.1067,170.1054 L49.8237,167.7984 C48.5417,168.9634 47.3997,169.7094 45.5357,169.7094" id="Fill-3" fill="#FFFFFF" sketch:type="MSShapeGroup" mask="url(#mask-2)"></path>
                <path d="M65.1784,162.8817 L58.5604,162.8817 L58.5604,156.4267 L54.9724,156.4267 L54.9724,172.7387 L58.5604,172.7387 L58.5604,166.1907 L65.1784,166.1907 L65.1784,172.7387 L68.7674,172.7387 L68.7674,156.4267 L65.1784,156.4267 L65.1784,162.8817 Z" id="Fill-5" fill="#FFFFFF" sketch:type="MSShapeGroup" mask="url(#mask-2)"></path>
                <path d="M82.6543,162.0424 C82.6543,163.4174 81.6523,164.3504 79.9043,164.3504 L76.2693,164.3504 L76.2693,159.6664 L79.8343,159.6664 C81.5823,159.6664 82.6543,160.4584 82.6543,161.9964 L82.6543,162.0424 Z M86.2893,161.8564 L86.2893,161.8094 C86.2893,158.4544 83.9823,156.4264 80.1373,156.4264 L72.6813,156.4264 L72.6813,172.7384 L76.2693,172.7384 L76.2693,167.5184 L79.0893,167.5184 L82.5843,172.7384 L86.7783,172.7384 L82.7943,166.9134 C84.8683,166.1444 86.2893,164.4894 86.2893,161.8564 L86.2893,161.8564 Z" id="Fill-6" fill="#FFFFFF" sketch:type="MSShapeGroup" mask="url(#mask-2)"></path>
                <path d="M89.691,172.739 L93.28,172.739 L93.28,156.427 L89.691,156.427 L89.691,172.739 Z" id="Fill-7" fill="#FFFFFF" sketch:type="MSShapeGroup" mask="url(#mask-2)"></path>
                <path d="M103.9748,162.9751 C101.1548,162.2521 100.4558,161.9031 100.4558,160.8311 L100.4558,160.7851 C100.4558,159.9921 101.1788,159.3631 102.5528,159.3631 C103.9278,159.3631 105.3498,159.9691 106.7938,160.9711 L108.6588,158.2681 C107.0038,156.9391 104.9768,156.1931 102.5998,156.1931 C99.2678,156.1931 96.8908,158.1521 96.8908,161.1101 L96.8908,161.1571 C96.8908,164.3961 99.0108,165.3051 102.2968,166.1441 C105.0228,166.8431 105.5828,167.3091 105.5828,168.2181 L105.5828,168.2641 C105.5828,169.2201 104.6968,169.8031 103.2288,169.8031 C101.3648,169.8031 99.8268,169.0341 98.3588,167.8221 L96.2388,170.3621 C98.1958,172.1091 100.6888,172.9721 103.1588,172.9721 C106.6778,172.9721 109.1478,171.1541 109.1478,167.9151 L109.1478,167.8681 C109.1478,165.0251 107.2838,163.8371 103.9748,162.9751" id="Fill-8" fill="#FFFFFF" sketch:type="MSShapeGroup" mask="url(#mask-2)"></path>
                <path d="M110.752,159.7357 L115.715,159.7357 L115.715,172.7387 L119.303,172.7387 L119.303,159.7357 L124.267,159.7357 L124.267,156.4267 L110.752,156.4267 L110.752,159.7357 Z" id="Fill-9" fill="#FFFFFF" sketch:type="MSShapeGroup" mask="url(#mask-2)"></path>
                <path d="M127.179,172.739 L130.767,172.739 L130.767,156.427 L127.179,156.427 L127.179,172.739 Z" id="Fill-10" fill="#FFFFFF" sketch:type="MSShapeGroup" mask="url(#mask-2)"></path>
                <path d="M139.8789,165.9111 L142.0459,160.6211 L144.2129,165.9111 L139.8789,165.9111 Z M140.4379,156.3101 L133.4469,172.7391 L137.1059,172.7391 L138.5959,169.0801 L145.4949,169.0801 L146.9859,172.7391 L150.7369,172.7391 L143.7469,156.3101 L140.4379,156.3101 Z" id="Fill-11" fill="#FFFFFF" sketch:type="MSShapeGroup" mask="url(#mask-2)"></path>
                <path d="M164.2054,166.4698 L156.5624,156.4268 L153.2524,156.4268 L153.2524,172.7388 L156.7944,172.7388 L156.7944,162.3688 L164.6954,172.7388 L167.7474,172.7388 L167.7474,156.4268 L164.2054,156.4268 L164.2054,166.4698 Z" id="Fill-12" fill="#FFFFFF" sketch:type="MSShapeGroup" mask="url(#mask-2)"></path>
                <path d="M186.4111,169.7094 C183.6151,169.7094 181.6801,167.3794 181.6801,164.5824 L181.6801,164.5364 C181.6801,161.7394 183.6611,159.4564 186.4111,159.4564 C188.0421,159.4564 189.3241,160.1544 190.5821,161.2974 L192.8651,158.6644 C191.3511,157.1724 189.5101,156.1474 186.4341,156.1474 C181.4241,156.1474 177.9291,159.9454 177.9291,164.5824 L177.9291,164.6294 C177.9291,169.3124 181.4941,173.0184 186.2941,173.0184 C189.4401,173.0184 191.3041,171.8994 192.9821,170.1054 L190.6981,167.7984 C189.4161,168.9634 188.2741,169.7094 186.4111,169.7094" id="Fill-13" fill="#FFFFFF" sketch:type="MSShapeGroup" mask="url(#mask-2)"></path>
                <path d="M206.0538,162.8817 L199.4348,162.8817 L199.4348,156.4267 L195.8468,156.4267 L195.8468,172.7387 L199.4348,172.7387 L199.4348,166.1907 L206.0538,166.1907 L206.0538,172.7387 L209.6418,172.7387 L209.6418,156.4267 L206.0538,156.4267 L206.0538,162.8817 Z" id="Fill-14" fill="#FFFFFF" sketch:type="MSShapeGroup" mask="url(#mask-2)"></path>
                <path d="M223.9255,165.7714 C223.9255,168.3574 222.5965,169.6864 220.4065,169.6864 C218.2165,169.6864 216.8875,168.3114 216.8875,165.6544 L216.8875,156.4264 L213.2995,156.4264 L213.2995,165.7484 C213.2995,170.5474 215.9795,172.9954 220.3605,172.9954 C224.7415,172.9954 227.5135,170.5714 227.5135,165.6314 L227.5135,156.4264 L223.9255,156.4264 L223.9255,165.7714 Z" id="Fill-15" fill="#FFFFFF" sketch:type="MSShapeGroup" mask="url(#mask-2)"></path>
                <path d="M241.1449,162.0424 C241.1449,163.4174 240.1429,164.3504 238.3959,164.3504 L234.7609,164.3504 L234.7609,159.6664 L238.3259,159.6664 C240.0739,159.6664 241.1449,160.4584 241.1449,161.9964 L241.1449,162.0424 Z M244.7799,161.8564 L244.7799,161.8094 C244.7799,158.4544 242.4739,156.4264 238.6279,156.4264 L231.1709,156.4264 L231.1709,172.7384 L234.7609,172.7384 L234.7609,167.5184 L237.5799,167.5184 L241.0759,172.7384 L245.2689,172.7384 L241.2849,166.9134 C243.3579,166.1444 244.7799,164.4894 244.7799,161.8564 L244.7799,161.8564 Z" id="Fill-16" fill="#FFFFFF" sketch:type="MSShapeGroup" mask="url(#mask-2)"></path>
                <path d="M255.7782,169.7094 C252.9822,169.7094 251.0472,167.3794 251.0472,164.5824 L251.0472,164.5364 C251.0472,161.7394 253.0282,159.4564 255.7782,159.4564 C257.4092,159.4564 258.6912,160.1544 259.9492,161.2974 L262.2322,158.6644 C260.7182,157.1724 258.8772,156.1474 255.8012,156.1474 C250.7912,156.1474 247.2962,159.9454 247.2962,164.5824 L247.2962,164.6294 C247.2962,169.3124 250.8612,173.0184 255.6612,173.0184 C258.8072,173.0184 260.6712,171.8994 262.3492,170.1054 L260.0652,167.7984 C258.7832,168.9634 257.6412,169.7094 255.7782,169.7094" id="Fill-17" fill="#FFFFFF" sketch:type="MSShapeGroup" mask="url(#mask-2)"></path>
                <path d="M275.4209,162.8817 L268.8029,162.8817 L268.8029,156.4267 L265.2139,156.4267 L265.2139,172.7387 L268.8029,172.7387 L268.8029,166.1907 L275.4209,166.1907 L275.4209,172.7387 L279.0089,172.7387 L279.0089,156.4267 L275.4209,156.4267 L275.4209,162.8817 Z" id="Fill-18" fill="#FFFFFF" sketch:type="MSShapeGroup" mask="url(#mask-2)"></path>
                <path d="M30.653,139.8818 C25.03,139.8818 19.864,137.5988 16.108,133.4548 C12.424,129.3878 10.395,123.8958 10.395,117.9888 C10.395,105.6048 19.104,96.2658 30.653,96.2658 C36.743,96.2658 41.953,98.5308 47.501,103.5988 L53.827,96.3128 C49.044,91.7998 42.533,87.2688 30.739,87.2688 C13.226,87.2688 0.019,100.5488 0.019,118.1598 C0.019,126.5248 3.086,134.2698 8.655,139.9698 C14.268,145.7148 21.958,148.8798 30.308,148.8798 C40.169,148.8798 47.13,145.8888 54.252,138.5718 L47.95,132.1908 C42.803,136.9458 38.069,139.8818 30.653,139.8818" id="Fill-19" fill="#FFFFFF" sketch:type="MSShapeGroup" mask="url(#mask-2)"></path>
                <path d="M91.6967,138.0239 L67.3177,138.0239 L67.3177,128.5939 L88.4887,128.5939 L88.4887,119.8039 L67.3177,119.8039 L67.3177,110.6939 L91.3757,110.6939 L91.3757,101.9039 L57.5017,101.9039 L57.5017,146.8129 L91.6967,146.8129 L91.6967,138.0239 Z" id="Fill-20" fill="#FFFFFF" sketch:type="MSShapeGroup" mask="url(#mask-2)"></path>
                <path d="M96.2703,146.8129 L106.0223,146.8129 L106.0223,118.2649 L127.7703,146.8129 L136.1753,146.8129 L136.1753,101.9039 L126.4233,101.9039 L126.4233,129.5549 L105.3803,101.9039 L96.2703,101.9039 L96.2703,146.8129 Z" id="Fill-21" fill="#FFFFFF" sketch:type="MSShapeGroup" mask="url(#mask-2)"></path>
                <path d="M164.5398,146.8129 L164.5398,111.0149 L178.2048,111.0149 L178.2048,101.9039 L140.9958,101.9039 L140.9958,111.0149 L154.6608,111.0149 L154.6608,146.8129 L164.5398,146.8129 Z" id="Fill-22" fill="#FFFFFF" sketch:type="MSShapeGroup" mask="url(#mask-2)"></path>
                <path d="M210.4846,117.3659 C210.4846,121.1509 207.7256,123.7169 202.9136,123.7169 L192.9056,123.7169 L192.9056,110.8219 L202.7206,110.8219 C207.5336,110.8219 210.4846,113.0029 210.4846,117.2369 L210.4846,117.3659 Z M243.5516,113.4519 L249.5186,128.0159 L237.5856,128.0159 L243.5516,113.4519 Z M253.0466,136.7409 L257.1526,146.8129 L267.4826,146.8129 L248.2346,101.5839 L239.1256,101.5839 L220.6306,145.0449 L210.8686,130.7749 C216.5786,128.6579 220.4926,124.1019 220.4926,116.8519 L220.4926,116.7249 C220.4926,107.4859 214.1406,101.9039 203.5556,101.9039 L183.0256,101.9039 L183.0256,146.8129 L192.9056,146.8129 L192.9056,132.4429 L200.6686,132.4429 L210.2916,146.8129 L219.8786,146.8129 L221.8396,146.8129 L229.9506,146.8129 L234.0566,136.7409 L253.0466,136.7409 Z" id="Fill-23" fill="#FFFFFF" sketch:type="MSShapeGroup" mask="url(#mask-2)"></path>
                <path d="M282.2915,137.9017 L282.2915,87.2687 L272.4335,87.2687 L272.4335,146.8127 L313.9805,146.8127 L313.9805,137.9017 L282.2915,137.9017 Z" id="Fill-24" fill="#FFFFFF" sketch:type="MSShapeGroup" mask="url(#mask-2)"></path>
                <path d="M119.6895,96.6716 L130.1935,67.3436 L107.7685,67.3436 L107.7475,67.3436 L99.8035,89.5356 L119.6895,96.6716 Z" id="Fill-25" fill="#FFFFFF" sketch:type="MSShapeGroup" mask="url(#mask-2)"></path>
                <path d="M227.8646,96.7381 L235.0016,76.8521 L139.1686,42.4591 L151.4696,8.1181 L131.5836,0.9811 L119.2826,35.3231 L87.5656,23.9401 L80.4296,43.8261 L227.8646,96.7381 Z" id="Fill-26" fill="#FFFFFF" sketch:type="MSShapeGroup" mask="url(#mask-2)"></path>
            </g>
        </g>
    </g>
</svg>