<?xml version="1.0" standalone="no"?>
<!DOCTYPE svg PUBLIC "-//W3C//DTD SVG 1.1//EN" "http://www.w3.org/Graphics/SVG/1.1/DTD/svg11.dtd" >
<svg xmlns="http://www.w3.org/2000/svg">
<metadata></metadata>
<defs>
<font id="equiplight" horiz-adv-x="819" >
<font-face units-per-em="2048" ascent="1536" descent="-512" />
<missing-glyph horiz-adv-x="446" />
<glyph unicode="ff" horiz-adv-x="1337" d="M55 883v129h160v75q0 111 21.5 177t64.5 110q90 101 266 101q109 0 168 -41v-138h-8q-56 45 -160 45q-115 0 -164 -67q-41 -53 -41 -189v-73h246v-129h-246v-883h-147v883h-160zM715 883v129h153v116q0 111 21.5 177t64.5 110q90 101 265 101q106 0 161 -41v-138h-8 q-53 45 -153 45q-113 0 -162 -67q-41 -53 -41 -189v-114h254v-129h-254v-883h-148v883h-153z" />
<glyph unicode="fi" horiz-adv-x="1216" d="M55 883v129h160v116q0 111 21.5 177t64.5 110q90 101 260 101q102 0 150 -31v-137h-9q-46 34 -141 34q-111 0 -158 -67q-41 -53 -41 -189v-114h275v-129h-275v-883h-147v883h-160zM793 1343q0 50 29.5 77.5t68.5 27.5t68.5 -27.5t29.5 -77.5q0 -45 -28 -73.5t-70 -28.5 q-43 0 -70.5 27t-27.5 75zM817 0v1012h150v-1012h-150z" />
<glyph unicode="fl" horiz-adv-x="1171" d="M55 883v129h160v116q0 111 21.5 177t64.5 110q90 101 258 101q104 0 154 -31v-137h-8q-44 34 -146 34q-107 0 -156 -67q-41 -57 -41 -189v-114h248v-129h-248v-883h-147v883h-160zM817 0v1491h148v-1491h-148z" />
<glyph unicode="ffi" horiz-adv-x="1869" d="M55 883v129h160v75q0 111 21.5 177t64.5 110q90 101 266 101q109 0 168 -41v-138h-8q-56 45 -160 45q-115 0 -164 -67q-41 -53 -41 -189v-73h246v-129h-246v-883h-147v883h-160zM715 883v129h153v116q0 111 21.5 177t64.5 110q90 101 258 101q104 0 152 -31v-137h-8 q-48 34 -142 34q-110 0 -157 -67q-41 -53 -41 -189v-114h274v-129h-274v-883h-148v883h-153zM1444 1343q0 50 30.5 77.5t69.5 27.5t68.5 -27.5t29.5 -77.5q0 -45 -28 -73.5t-70 -28.5q-43 0 -71.5 27t-28.5 75zM1470 0v1012h150v-1012h-150z" />
<glyph unicode="ffl" horiz-adv-x="1824" d="M55 883v129h160v75q0 111 21.5 177t64.5 110q90 101 266 101q109 0 168 -41v-138h-8q-56 45 -160 45q-115 0 -164 -67q-41 -53 -41 -189v-73h246v-129h-246v-883h-147v883h-160zM709 883v129h159v116q0 111 21.5 177t64.5 110q90 101 258 101q104 0 154 -31v-137h-8 q-44 34 -146 34q-106 0 -155 -67q-41 -53 -41 -189v-114h248v-129h-248v-883h-148v883h-159zM1470 0v1491h148v-1491h-148z" />
<glyph unicode="fb" horiz-adv-x="2002" d="M55 883v129h160v116q0 111 21.5 177t64.5 110q90 101 264 101q99 0 156 -37v-138h-8q-54 41 -146 41q-115 0 -164 -67q-41 -57 -41 -189v-114h254v-129h-254v-883h-147v883h-160zM815 0v1491h148v-668q49 93 158.5 155t238.5 62q219 0 358.5 -144.5t139.5 -385.5 q0 -119 -41.5 -220.5t-111.5 -170t-164 -107.5t-198 -39q-129 0 -230 50.5t-157 136.5v-160h-141zM963 346q39 -107 142 -171t228 -64q164 0 268.5 111t104.5 288q0 179 -106.5 285t-264.5 106q-122 0 -227 -68.5t-145 -183.5v-303z" />
<glyph unicode="ffb" horiz-adv-x="2693" d="M55 883v129h160v75q0 111 21.5 177t64.5 110q90 101 266 101q109 0 168 -41v-138h-8q-56 45 -160 45q-115 0 -164 -67q-41 -53 -41 -189v-73h246v-129h-246v-883h-147v883h-160zM709 883v129h159v116q0 111 21.5 177t64.5 110q90 101 258 101q104 0 154 -31v-137h-8 q-48 34 -146 34q-106 0 -155 -67q-41 -53 -41 -189v-114h248v-129h-248v-883h-148v883h-159zM1470 0v1491h148v-668q51 93 160.5 155t236.5 62q219 0 358.5 -144.5t139.5 -385.5q0 -119 -41.5 -220.5t-111 -170t-163 -107.5t-196.5 -39q-130 0 -231.5 50.5t-157.5 136.5 v-160h-142zM1618 346q41 -107 143.5 -171t227.5 -64q165 0 268.5 110.5t103.5 288.5q0 179 -106 285t-264 106q-122 0 -227.5 -68.5t-145.5 -183.5v-303z" />
<glyph unicode="ffh" horiz-adv-x="2592" d="M55 883v129h160v75q0 111 21.5 177t64.5 110q90 101 266 101q109 0 168 -41v-138h-8q-56 45 -160 45q-115 0 -164 -67q-41 -53 -41 -189v-73h246v-129h-246v-883h-147v883h-160zM709 883v129h159v116q0 111 21.5 177t64.5 110q90 101 258 101q104 0 154 -31v-137h-8 q-48 34 -146 34q-106 0 -155 -67q-41 -53 -41 -189v-114h248v-129h-248v-883h-148v883h-159zM1468 0v1491h148v-643q50 84 147 136t226 52q137 0 222.5 -57.5t110.5 -159.5q21 -88 21 -223v-596h-148v573q0 154 -30 209q-60 113 -217 113q-100 0 -194.5 -53.5t-137.5 -134.5 v-707h-148z" />
<glyph unicode="ffj" horiz-adv-x="1861" d="M55 883v129h160v75q0 111 21.5 177t64.5 110q90 101 266 101q109 0 168 -41v-138h-8q-56 45 -160 45q-115 0 -164 -67q-41 -53 -41 -189v-73h246v-129h-246v-883h-147v883h-160zM715 883v129h153v116q0 111 21.5 177t64.5 110q90 101 258 101q104 0 152 -31v-137h-8 q-48 34 -142 34q-110 0 -157 -67q-41 -53 -41 -189v-114h274v-129h-274v-883h-148v883h-153zM1171 -254h9q55 -43 137 -43q80 0 115 41q23 27 30.5 73.5t7.5 133.5v1061h148v-1057q0 -117 -12.5 -183.5t-42.5 -105.5q-35 -44 -94 -70t-130 -26q-106 0 -168 37v139z M1444 1343q0 50 30.5 77.5t69.5 27.5t68.5 -27.5t29.5 -77.5q0 -45 -28 -73.5t-70 -28.5q-43 0 -71.5 27t-28.5 75z" />
<glyph unicode="ffk" horiz-adv-x="2334" d="M55 883v129h160v75q0 111 21.5 177t64.5 110q90 101 266 101q109 0 168 -41v-138h-8q-56 45 -160 45q-115 0 -164 -67q-41 -53 -41 -189v-73h246v-129h-246v-883h-147v883h-160zM709 883v129h159v116q0 111 21.5 177t64.5 110q90 101 258 101q104 0 154 -31v-137h-8 q-48 34 -146 34q-106 0 -155 -67q-41 -53 -41 -189v-114h248v-129h-248v-883h-148v883h-159zM1468 0v1491h148v-920l457 441h204l-385 -359l430 -653h-184l-356 553l-166 -156v-397h-148z" />
<glyph unicode="fh" horiz-adv-x="1906" d="M55 883v129h160v116q0 111 21.5 177t64.5 110q90 101 258 101q44 0 87.5 -10.5t66.5 -24.5v-138h-8q-55 39 -146 39q-107 0 -156 -67q-41 -57 -41 -189v-114h248v-129h-248v-883h-147v883h-160zM817 0v1491h148v-643q50 84 146 136t224 52q137 0 223 -57.5t111 -159.5 q21 -77 21 -223v-596h-148v573q0 149 -29 209q-60 113 -217 113q-100 0 -194 -53.5t-137 -134.5v-707h-148z" />
<glyph unicode="fj" horiz-adv-x="1216" d="M55 883v129h160v116q0 111 21.5 177t64.5 110q90 101 260 101q102 0 150 -31v-137h-9q-46 34 -141 34q-111 0 -158 -67q-41 -53 -41 -189v-114h275v-129h-275v-883h-147v883h-160zM524 -254h8q58 -43 138 -43q79 0 114 41q23 28 31 74.5t8 132.5v1061h150v-1057 q0 -115 -13.5 -182t-44.5 -107q-35 -44 -93 -70t-128 -26q-106 0 -170 37v139zM799 1343q0 51 30 78t70 27q39 0 68.5 -27.5t29.5 -77.5q0 -45 -28.5 -73.5t-71.5 -28.5q-42 0 -70 27t-28 75z" />
<glyph unicode="fk" horiz-adv-x="1681" d="M55 883v129h160v116q0 111 21.5 177t64.5 110q90 101 258 101q44 0 87.5 -10.5t66.5 -24.5v-138h-8q-55 39 -146 39q-107 0 -156 -67q-41 -57 -41 -189v-114h248v-129h-248v-883h-147v883h-160zM817 0v1491h148v-920l456 441h205l-385 -359l430 -653h-184l-357 553 l-165 -156v-397h-148z" />
<glyph unicode=" "  horiz-adv-x="446" />
<glyph unicode="&#x09;" horiz-adv-x="446" />
<glyph unicode="&#xa0;" horiz-adv-x="446" />
<glyph unicode="!" horiz-adv-x="595" d="M199 90q0 56 34 86.5t80 30.5q44 0 78.5 -30.5t34.5 -86.5q0 -50 -33.5 -81.5t-81.5 -31.5q-47 0 -79.5 31t-32.5 82zM223 1411h176q0 -187 -28 -979h-119q-29 822 -29 979z" />
<glyph unicode="&#x22;" horiz-adv-x="749" d="M104 1444h166l-37 -572h-90zM446 1444h164l-37 -572h-90z" />
<glyph unicode="#" horiz-adv-x="1257" d="M88 436v127h277l34 256h-262v127h281l63 447h107l-64 -447h277l63 447h107l-64 -447h248v-127h-266l-35 -256h252v-127h-270l-66 -465h-106l65 465h-276l-66 -465h-106l65 465h-258zM471 563h277l34 256h-276z" />
<glyph unicode="$" horiz-adv-x="1146" d="M109 139v183h8q76 -85 188.5 -136t229.5 -59v473l-123 41q-143 48 -212 139t-69 211q0 156 103.5 256.5t300.5 118.5v207h92v-203q97 -3 201.5 -40t150.5 -83v-172h-10q-61 65 -155 105.5t-187 46.5v-484l96 -30q170 -55 245.5 -134.5t75.5 -211.5q0 -74 -23 -137.5 t-70.5 -116.5t-130 -86.5t-193.5 -40.5v-215h-92v213q-119 5 -236.5 46.5t-189.5 108.5zM291 1004q0 -78 46 -131.5t177 -94.5l21 -6v455q-69 -6 -119 -27t-76 -53.5t-37.5 -67.5t-11.5 -75zM627 129q133 9 193.5 63t60.5 154q0 79 -56.5 128t-197.5 97v-442z" />
<glyph unicode="%" horiz-adv-x="1759" d="M68 938q0 203 95.5 322.5t244.5 119.5q155 0 244 -117t89 -321q0 -205 -92 -323.5t-246 -118.5q-153 0 -244 117.5t-91 320.5zM193 940q0 -157 58 -244.5t155 -87.5q99 0 154.5 86.5t55.5 245.5t-55.5 246.5t-152.5 87.5q-98 0 -156.5 -88t-58.5 -246zM479 -25l690 1422 h105l-688 -1422h-107zM1006 420q0 203 94.5 322.5t245.5 119.5q155 0 243 -117t88 -321q0 -205 -91.5 -323.5t-244.5 -118.5q-154 0 -244.5 117.5t-90.5 320.5zM1130 422q0 -157 57 -244.5t154 -87.5q99 0 156 87t57 245t-56.5 246t-154.5 88t-155.5 -88t-57.5 -246z" />
<glyph unicode="&#x26;" horiz-adv-x="1435" d="M106 391q0 136 67.5 229t213.5 156q-92 126 -92 268t107.5 241t297.5 99q170 0 258 -71v-162h-8q-88 94 -256 94q-116 0 -178.5 -57t-62.5 -148q0 -104 92 -221q128 -157 487 -489q33 39 58.5 116.5t25.5 151.5q0 108 -22 168h151q19 -56 19 -158q0 -225 -129 -381 q105 -97 256 -219v-8h-213q-93 72 -138 115q-172 -144 -415 -144q-232 0 -375.5 120t-143.5 300zM264 401q0 -126 98.5 -208t270.5 -82q180 0 297 100q-299 272 -467 459q-199 -77 -199 -269z" />
<glyph unicode="'" horiz-adv-x="401" d="M104 1444h166l-37 -572h-90z" />
<glyph unicode="(" horiz-adv-x="763" d="M92 578q0 618 498 938h143v-9q-157 -109 -264 -239.5t-168 -305t-61 -382.5q0 -538 493 -918v-8h-141q-76 50 -143 109.5t-134.5 145t-115 182t-77.5 223t-30 264.5z" />
<glyph unicode=")" horiz-adv-x="763" d="M-2 -338q157 109 264.5 239.5t168.5 305.5t61 383q0 536 -494 917v9h141q76 -50 143 -109.5t134.5 -145t115 -182t77.5 -223t30 -264.5q0 -618 -498 -938h-143v8z" />
<glyph unicode="*" horiz-adv-x="860" d="M45 1124l39 119q144 -46 293 -113q-19 190 -21 314h125q0 -84 -18 -318q181 80 295 117l39 -119q-124 -37 -310 -82q138 -150 203 -241l-100 -74q-98 137 -174 264q-68 -117 -170 -264l-101 70q87 126 203 245q-204 50 -303 82z" />
<glyph unicode="+" horiz-adv-x="1433" d="M184 547v115h475v473h115v-473h475v-115h-475v-475h-112v475h-478z" />
<glyph unicode="," horiz-adv-x="460" d="M12 -317q79 64 127.5 166.5t48.5 220.5q0 104 -32 174h166q28 -55 28 -162q0 -124 -60 -233.5t-145 -174.5h-133v9z" />
<glyph unicode="-" horiz-adv-x="657" d="M80 489v138h493v-138h-493z" />
<glyph unicode="." horiz-adv-x="460" d="M127 90q0 56 34.5 86.5t80.5 30.5q44 0 78 -30.5t34 -86.5q0 -50 -33 -81.5t-81 -31.5q-47 0 -80 31t-33 82z" />
<glyph unicode="/" horiz-adv-x="802" d="M-31 -117l699 1614h127l-699 -1614h-127z" />
<glyph unicode="0" horiz-adv-x="1179" d="M74 680q0 322 142 516.5t370 194.5q237 0 371.5 -192t134.5 -519q0 -324 -139.5 -516.5t-372.5 -192.5t-369.5 192t-136.5 517zM231 682q0 -267 95.5 -419t259.5 -152q160 0 253 152t93 419q0 268 -92.5 419.5t-253.5 151.5q-164 0 -259.5 -151.5t-95.5 -419.5z" />
<glyph unicode="1" horiz-adv-x="1179" d="M252 1057v147l328 189h116v-1393h-155v1214z" />
<glyph unicode="2" horiz-adv-x="1179" d="M102 0v88q39 36 129 116.5t139.5 126t121 114.5t129.5 130q100 105 148 210t48 196q0 118 -71.5 194t-213.5 76q-104 0 -207.5 -52.5t-179.5 -151.5h-8v165q71 80 182.5 129.5t223.5 49.5q211 0 323.5 -108t112.5 -292q0 -215 -197 -448q-57 -66 -200.5 -198t-241.5 -208 q207 2 709 2v-139h-947z" />
<glyph unicode="3" horiz-adv-x="1179" d="M147 90v170h9q69 -72 168.5 -110.5t199.5 -38.5q93 0 159.5 24t100.5 65t49 86t15 97q0 74 -46 134t-132 87q-94 27 -207 27h-60v137h64q152 0 225 45q115 65 115 209q0 99 -67 164t-197 65q-87 0 -192.5 -44.5t-168.5 -127.5h-8v160q62 67 168.5 109.5t212.5 42.5 q197 0 303.5 -97.5t106.5 -269.5q0 -106 -64.5 -192t-177.5 -125q129 -24 207 -106.5t78 -213.5q0 -193 -131.5 -304.5t-350.5 -111.5q-104 0 -207.5 30.5t-171.5 88.5z" />
<glyph unicode="4" horiz-adv-x="1179" d="M74 356v101l690 934h129v-902h227v-133h-227v-356h-152v356h-667zM256 489h485q0 365 9 676q-138 -206 -494 -676z" />
<glyph unicode="5" horiz-adv-x="1179" d="M141 88v168h9q82 -74 183.5 -109.5t196.5 -35.5q168 0 257.5 85.5t89.5 235.5q0 148 -88 217.5t-244 69.5q-96 0 -184 -33t-152 -86h-8l78 762h686v-139h-564l-49 -430q43 29 117 49t143 20q91 0 167 -24.5t134 -74t90.5 -131t32.5 -188.5q0 -119 -40.5 -211t-112 -148.5 t-163 -85t-198.5 -28.5q-224 0 -381 117z" />
<glyph unicode="6" horiz-adv-x="1179" d="M125 625q0 166 33.5 298.5t89 218.5t132.5 143.5t159.5 81.5t173.5 24q93 0 179.5 -20.5t141.5 -63.5v-172h-10q-106 116 -307 116q-210 0 -321.5 -154t-119.5 -423q48 95 152.5 156t228.5 61q90 0 166.5 -27.5t135.5 -81.5t92.5 -140t33.5 -196q0 -224 -127 -349.5 t-325 -125.5q-72 0 -139 17t-136 63t-119 117t-82 188.5t-32 268.5zM295 498q3 -102 35 -187q32 -89 110.5 -145.5t180.5 -56.5q132 0 220.5 82t88.5 245q0 157 -84 236.5t-219 79.5q-125 0 -217.5 -77.5t-114.5 -176.5z" />
<glyph unicode="7" horiz-adv-x="1179" d="M119 1223v139h913v-105q-293 -642 -526 -1257h-166q214 547 532 1223h-753z" />
<glyph unicode="8" horiz-adv-x="1179" d="M106 356q0 120 74.5 206t208.5 128q-105 42 -168 125.5t-63 202.5q0 161 122.5 267t305.5 106q193 0 309.5 -99t116.5 -270q0 -107 -65 -191t-171 -116q130 -38 204.5 -127t74.5 -221q0 -176 -131 -286t-344 -110q-136 0 -242 44t-169 132t-63 209zM262 367 q0 -83 46 -142t117.5 -86.5t158.5 -27.5q139 0 227 69t88 189q0 119 -92 186t-236 78q-134 -14 -221.5 -84.5t-87.5 -181.5zM309 1020q0 -119 77 -181t204 -73q266 35 266 254q0 104 -74 168.5t-200 64.5q-119 0 -196 -67t-77 -166z" />
<glyph unicode="9" horiz-adv-x="1179" d="M88 915q0 144 66.5 254t174 166t234.5 56q73 0 138 -16.5t130.5 -62t112 -116.5t76 -188.5t29.5 -270.5q0 -142 -21 -258.5t-60.5 -199t-92 -143.5t-118 -96.5t-135.5 -52t-149 -16.5q-102 0 -200.5 26.5t-153.5 72.5v159h8q63 -60 154 -89t190 -29q111 0 193 43.5 t131 123t73.5 180t28.5 226.5q-50 -95 -149.5 -156t-225.5 -61q-88 0 -165.5 28t-138 82.5t-95.5 141.5t-35 196zM244 924q0 -153 84 -234.5t217 -81.5q129 0 214.5 74.5t114.5 181.5q0 84 -22 162q-28 100 -105.5 162.5t-181.5 62.5q-61 0 -117 -19.5t-102.5 -57.5 t-74 -102.5t-27.5 -147.5z" />
<glyph unicode=":" horiz-adv-x="501" d="M168 90q0 56 34.5 86.5t80.5 30.5q44 0 78 -30.5t34 -86.5q0 -50 -33 -81.5t-81 -31.5q-47 0 -80 31t-33 82zM168 899q0 57 34.5 87t80.5 30q45 0 78.5 -30t33.5 -87q0 -50 -33 -81.5t-81 -31.5q-47 0 -80 31t-33 82z" />
<glyph unicode=";" horiz-adv-x="501" d="M53 -317q79 64 127.5 166.5t48.5 220.5q0 104 -32 174h165q29 -57 29 -162q0 -124 -60 -233.5t-145 -174.5h-133v9zM172 899q0 57 34.5 87t80.5 30q45 0 78.5 -30t33.5 -87q0 -50 -33 -81.5t-81 -31.5q-47 0 -80 31t-33 82z" />
<glyph unicode="&#x3c;" horiz-adv-x="1433" d="M233 539v118l924 455v-135l-795 -375l795 -369v-137z" />
<glyph unicode="=" horiz-adv-x="1433" d="M184 348v115h1065v-115h-1065zM184 735v115h1065v-115h-1065z" />
<glyph unicode="&#x3e;" horiz-adv-x="1433" d="M274 96v135l797 377l-797 367v137l924 -444v-117z" />
<glyph unicode="?" horiz-adv-x="876" d="M68 1153v152q59 61 158 99t194 38q189 0 288 -84.5t99 -249.5q0 -104 -58 -190.5t-212 -198.5q-80 -57 -104 -118.5t-27 -168.5h-121q0 44 1 68t4.5 60.5t12.5 60.5t23.5 53.5t38.5 55t57 50.5q121 89 172 161.5t51 150.5q0 100 -62 155.5t-188 55.5q-82 0 -166 -38.5 t-153 -111.5h-8zM233 90q0 56 34.5 86.5t80.5 30.5q44 0 78.5 -30.5t34.5 -86.5q0 -50 -33.5 -81.5t-81.5 -31.5q-47 0 -80 31t-33 82z" />
<glyph unicode="@" horiz-adv-x="1734" d="M117 440q0 176 67 336t182 276.5t276.5 185.5t342.5 69q295 0 472 -165t177 -440q0 -152 -57.5 -288.5t-155.5 -219.5t-209 -83q-107 0 -129 82q-10 27 -10 69q-59 -73 -139 -115.5t-174 -42.5q-133 0 -218 79.5t-85 228.5q0 114 50 222.5t138 186.5q139 121 303 121 q80 0 144 -35t88 -98l28 115h105l-107 -498q-20 -97 -20 -150q0 -71 61 -71q68 0 134 70t107.5 183.5t41.5 231.5q0 239 -149 383t-396 144q-152 0 -291 -60t-242 -163t-164 -248t-61 -306q0 -276 179.5 -448t467.5 -172q324 0 560 168h8l-23 -119q-232 -145 -557 -145 q-220 0 -389.5 89t-262.5 251.5t-93 375.5zM575 426q0 -108 55.5 -159.5t155.5 -51.5q83 0 168 54.5t138 152.5l53 250q-15 83 -69.5 127.5t-135.5 44.5q-54 0 -114.5 -25t-110.5 -71q-61 -58 -100.5 -146.5t-39.5 -175.5z" />
<glyph unicode="A" horiz-adv-x="1329" d="M8 0l578 1411h143l567 -1411h-172l-166 428h-614l-170 -428h-166zM397 565h508q-179 455 -250 654q-52 -141 -258 -654z" />
<glyph unicode="B" horiz-adv-x="1267" d="M176 0v1411h307q141 0 217 -8q162 -14 257.5 -98t95.5 -232q0 -130 -54.5 -207t-177.5 -123q150 -24 233 -108.5t83 -228.5q0 -129 -66.5 -226t-187.5 -139q-108 -41 -365 -41h-342zM326 133h215q199 0 280 35q164 69 164 244q0 77 -44.5 135t-117.5 84q-100 35 -256 35 h-241v-533zM326 797h202q182 0 242 32q131 75 131 226q0 79 -47 131.5t-129 75.5q-78 20 -217 20h-182v-485z" />
<glyph unicode="C" horiz-adv-x="1394" d="M106 707q0 138 40 257t110.5 205.5t165.5 149t205.5 93t228.5 30.5t235 -34t177 -91v-170h-8q-67 71 -181 112t-229 41q-164 0 -296 -69t-211 -203.5t-79 -312.5q0 -144 44.5 -259t123.5 -189t184.5 -113t229.5 -39q246 0 420 164h8v-166q-64 -60 -188 -101t-250 -41 q-206 0 -370.5 87t-262 256t-97.5 393z" />
<glyph unicode="D" horiz-adv-x="1503" d="M176 0v1411h379q231 0 391 -47q203 -58 318.5 -217t115.5 -424q0 -508 -426 -660q-174 -63 -450 -63h-328zM328 141h207q136 0 249.5 24t182.5 62q254 135 254 492q0 169 -75.5 303t-223.5 190q-141 56 -355 56h-239v-1127z" />
<glyph unicode="E" horiz-adv-x="1144" d="M176 0v1411h834v-143h-678v-465h639v-139h-639v-523h710v-141h-866z" />
<glyph unicode="F" horiz-adv-x="1069" d="M176 0v1411h805v-143h-651v-506h602v-139h-602v-623h-154z" />
<glyph unicode="G" horiz-adv-x="1503" d="M113 707q0 141 40 261t110.5 206t166 147t206 91t230.5 30q128 0 246 -33.5t182 -89.5v-172h-8q-67 70 -178.5 111.5t-243.5 41.5q-125 0 -232 -38t-187 -110t-125.5 -183.5t-45.5 -251.5q0 -143 45 -258.5t124 -190t185.5 -114t231.5 -39.5q194 0 334 75v394h-360v143 h514v-612q-92 -64 -226 -104t-280 -40q-122 0 -231.5 30.5t-200.5 92.5t-157.5 149t-103 206t-36.5 258z" />
<glyph unicode="H" horiz-adv-x="1478" d="M176 0v1411h156v-604h772v604h158v-1411h-158v664h-772v-664h-156z" />
<glyph unicode="I" horiz-adv-x="550" d="M176 0v1411h156v-1411h-156z" />
<glyph unicode="J" horiz-adv-x="825" d="M35 27v149h8q88 -61 205 -61q80 0 128.5 22.5t76.5 73.5q34 62 34 266v934h158v-948q0 -225 -45 -320q-39 -81 -125.5 -126.5t-212.5 -45.5q-131 0 -227 56z" />
<glyph unicode="K" horiz-adv-x="1290" d="M176 0v1411h156v-698l639 698h205l-512 -539l596 -872h-191l-510 760l-227 -240v-520h-156z" />
<glyph unicode="L" horiz-adv-x="1091" d="M176 0v1411h156v-1268h674v-143h-830z" />
<glyph unicode="M" horiz-adv-x="1718" d="M176 0v1411h172q408 -746 498 -926q117 234 497 926h168v-1411h-161q0 1001 6 1165q-85 -173 -465 -868h-105q-346 654 -464 868q8 -273 8 -1165h-154z" />
<glyph unicode="N" horiz-adv-x="1486" d="M176 0v1411h160q435 -610 566 -797t218 -321q-8 323 -8 1118h154v-1411h-127q-621 893 -815 1184q6 -299 6 -1184h-154z" />
<glyph unicode="O" horiz-adv-x="1656" d="M106 707q0 153 56.5 289.5t153.5 234t231 154.5t284 57q208 0 372.5 -94.5t255.5 -262t91 -378.5q0 -206 -94 -374.5t-260 -265t-371 -96.5q-203 0 -368 96t-258 264.5t-93 375.5zM264 705q0 -129 44.5 -240t120.5 -188t180.5 -120.5t221.5 -43.5q162 0 291.5 77.5 t201 213t71.5 301.5q0 165 -71 300.5t-201 215t-294 79.5q-158 0 -288 -78t-203.5 -214.5t-73.5 -302.5z" />
<glyph unicode="P" horiz-adv-x="1245" d="M176 0v1411h416q213 0 332 -43q105 -39 165 -136.5t60 -234.5q0 -321 -270 -409q-125 -41 -291 -41h-256v-547h-156zM332 686h248q184 0 272 43q137 65 137 264q0 80 -35 144t-102 94q-83 41 -266 41h-254v-586z" />
<glyph unicode="Q" horiz-adv-x="1656" d="M106 707q0 153 56.5 289.5t153.5 234t231 154.5t284 57q208 0 372.5 -94.5t255.5 -262t91 -378.5q0 -206 -95 -375t-259 -264l336 -228l-92 -129l-414 287q-95 -27 -201 -27q-203 0 -368 96t-258 264.5t-93 375.5zM264 705q0 -129 44.5 -240t120.5 -188t180.5 -120.5 t221.5 -43.5q162 0 291.5 77.5t201 213t71.5 301.5q0 165 -71 300.5t-201 215t-294 79.5q-158 0 -288 -78t-203.5 -214.5t-73.5 -302.5z" />
<glyph unicode="R" horiz-adv-x="1273" d="M176 0v1411h383q226 0 336 -39q107 -38 168 -129t61 -225q0 -148 -75 -244.5t-205 -138.5l-23 -6l393 -629h-182l-368 602q-86 -4 -125 -4h-207v-598h-156zM332 733h217q184 0 274 41q142 62 142 236q0 77 -35.5 135.5t-98.5 87.5q-90 41 -272 41h-227v-541z" />
<glyph unicode="S" horiz-adv-x="1165" d="M88 129v182h8q89 -93 219.5 -143.5t262.5 -50.5q348 0 348 250q0 89 -70.5 141.5t-243.5 107.5l-196 64q-305 97 -305 360q0 180 137.5 291t376.5 111q107 0 225.5 -34.5t169.5 -82.5v-172h-8q-73 71 -187 109t-225 38q-93 0 -160 -20.5t-103 -57t-52.5 -77.5t-16.5 -90 q0 -84 57 -142t197 -102l219 -70q178 -58 260 -140t82 -220q0 -84 -28.5 -155.5t-87.5 -129.5t-161 -91.5t-237 -33.5q-134 0 -267 42t-214 116z" />
<glyph unicode="T" horiz-adv-x="1173" d="M39 1268v143h1081v-143h-471v-1268h-155v1268h-455z" />
<glyph unicode="U" horiz-adv-x="1488" d="M166 608v803h158v-776q0 -121 11.5 -205t47.5 -151q39 -72 131.5 -118t220.5 -46q235 0 344 159q70 104 70 353v784h149v-799q0 -148 -16.5 -237.5t-56.5 -157.5q-63 -107 -191 -176.5t-301 -69.5q-180 0 -313.5 66t-194.5 190q-59 118 -59 381z" />
<glyph unicode="V" horiz-adv-x="1306" d="M6 1411h174q155 -383 250.5 -626.5t129 -333t85.5 -234.5q119 331 461 1194h172l-567 -1411h-142z" />
<glyph unicode="W" horiz-adv-x="1976" d="M31 1411h172q263 -935 319 -1167q74 265 375 1167h139q311 -956 371 -1167q76 308 324 1167h170l-424 -1411h-144q-311 969 -372 1186q-57 -194 -379 -1186h-144z" />
<glyph unicode="X" horiz-adv-x="1406" d="M23 0l546 745l-483 666h201q118 -162 200 -277t131 -184.5t66 -93.5q301 430 389 555h193l-484 -670l547 -741h-199q-360 487 -458 627q-272 -381 -451 -627h-198z" />
<glyph unicode="Y" horiz-adv-x="1288" d="M6 1411h189q343 -540 430 -696q133 222 440 696h186l-551 -842v-569h-157v569z" />
<glyph unicode="Z" horiz-adv-x="1263" d="M43 0v90q303 382 530 669.5t296 375t106 133.5h-862v143h1079v-100q-707 -901 -924 -1170h926v-141h-1151z" />
<glyph unicode="[" horiz-adv-x="645" d="M160 -334v1841h403v-104h-268v-1632h268v-105h-403z" />
<glyph unicode="\" horiz-adv-x="802" d="M-27 1497h127l699 -1614h-127z" />
<glyph unicode="]" horiz-adv-x="610" d="M20 -227h267v1632h-267v104h402v-1841h-402v105z" />
<glyph unicode="^" horiz-adv-x="1456" d="M262 575l383 807h137l385 -807h-133l-321 670l-318 -670h-133z" />
<glyph unicode="_" horiz-adv-x="1073" d="M0 -160h1073v-100h-1073v100z" />
<glyph unicode="`" horiz-adv-x="430" d="M-43 1511v9h213l264 -330v-8h-141z" />
<glyph unicode="a" horiz-adv-x="1103" d="M92 281q0 100 52.5 166.5t138.5 99.5q72 29 150 39t188 10q81 0 151 -12v86q0 100 -41 149q-64 78 -209 78q-82 0 -183 -34t-165 -101h-8v149q73 63 177.5 96t205.5 33q183 0 282 -96q48 -46 69.5 -109t21.5 -171q0 -37 -1 -171t-1 -178q0 -112 12 -147q19 -47 78 -47 q45 0 82 16v-127q-44 -24 -115 -24q-76 0 -124 35.5t-60 103.5q-109 -152 -334 -152q-165 0 -266 86.5t-101 221.5zM246 285q0 -78 63.5 -127t175.5 -49q92 0 167.5 37t121.5 104q-2 39 -2 211q-79 14 -162 14q-152 0 -235 -29q-129 -42 -129 -161z" />
<glyph unicode="b" horiz-adv-x="1316" d="M166 0v1491h147v-668q51 94 160 155.5t238 61.5q219 0 358 -144.5t139 -385.5q0 -119 -41 -220.5t-111 -170t-164 -107.5t-198 -39q-129 0 -230 50.5t-157 136.5v-160h-141zM313 346q41 -107 143.5 -171t227.5 -64q165 0 269 110.5t104 288.5q0 179 -106.5 285 t-264.5 106q-122 0 -227.5 -68.5t-145.5 -183.5v-303z" />
<glyph unicode="c" horiz-adv-x="1042" d="M96 500q0 235 155.5 387.5t391.5 152.5q98 0 187.5 -29.5t136.5 -78.5v-166h-9q-49 62 -139 98.5t-180 36.5q-77 0 -147 -26t-124.5 -75t-87 -125t-32.5 -169q0 -97 34.5 -175t91 -124.5t124.5 -71t141 -24.5q203 0 324 133h8v-158q-137 -113 -348 -113q-107 0 -203 37.5 t-168 104.5t-114 167t-42 218z" />
<glyph unicode="d" horiz-adv-x="1316" d="M96 498q0 106 30.5 196t82 153t119.5 107t143.5 65t153.5 21q249 0 372 -178v627h142v-1489h-144v184q-48 -94 -145.5 -152.5t-239.5 -58.5q-98 0 -189.5 34.5t-164 99t-116.5 166t-44 225.5zM248 500q0 -97 32.5 -173t87.5 -121.5t121 -69t138 -23.5q120 0 219.5 62 t144.5 183v312q-40 113 -140.5 173t-213.5 60q-75 0 -142.5 -23.5t-124 -70t-89.5 -126.5t-33 -183z" />
<glyph unicode="e" horiz-adv-x="1140" d="M96 500q0 125 42.5 229.5t113.5 171t161 103t187 36.5q216 0 333.5 -126.5t119.5 -346.5q0 -73 -6 -112h-797q11 -151 118 -247.5t283 -96.5q103 0 198.5 33.5t166.5 101.5h8v-152q-60 -54 -170 -87.5t-217 -33.5q-246 0 -393.5 146t-147.5 381zM252 584h649v16 q0 145 -80.5 227t-230.5 82q-54 0 -108 -18.5t-103.5 -56t-84 -102.5t-42.5 -148z" />
<glyph unicode="f" horiz-adv-x="686" d="M55 883v129h160v116q0 111 21.5 177t64.5 110q90 101 264 101q105 0 164 -41v-138h-8q-56 45 -154 45q-115 0 -164 -67q-41 -53 -41 -189v-114h254v-129h-254v-883h-147v883h-160z" />
<glyph unicode="g" horiz-adv-x="1280" d="M98 500q0 110 32 202t84.5 153t121.5 104t141.5 62t145.5 19q122 0 215.5 -49.5t132.5 -130.5v152h141v-914q0 -212 -65 -317q-56 -97 -169 -151t-280 -54q-124 0 -228 34t-161 83v160h8q69 -64 173.5 -101t217.5 -37q218 0 303 123q56 75 56 256v107 q-43 -87 -137.5 -144t-227.5 -57q-103 0 -193.5 33t-160 95t-110 158t-40.5 214zM250 502q0 -89 30.5 -160t83 -114.5t118.5 -66t141 -22.5q119 0 209.5 60.5t132.5 165.5v319q-39 104 -129 161.5t-209 57.5q-73 0 -139 -24.5t-120 -72t-86 -126t-32 -178.5z" />
<glyph unicode="h" horiz-adv-x="1218" d="M166 0v1491h147v-643q50 84 146 136t225 52q137 0 223 -57.5t111 -159.5q20 -74 20 -223v-596h-147v573q0 152 -31 209q-56 113 -215 113q-100 0 -194.5 -53.5t-137.5 -134.5v-707h-147z" />
<glyph unicode="i" horiz-adv-x="530" d="M150 1343q0 50 29.5 77.5t68.5 27.5t69.5 -27.5t30.5 -77.5q0 -45 -29 -73.5t-71 -28.5q-43 0 -70.5 27t-27.5 75zM174 0v1012h150v-1012h-150z" />
<glyph unicode="j" horiz-adv-x="530" d="M-127 -254h8q55 -43 137 -43q80 0 115 41q23 28 31 74.5t8 132.5v1061h147v-1057q0 -117 -12.5 -183.5t-42.5 -105.5q-35 -44 -93.5 -70t-127.5 -26q-106 0 -170 37v139zM147 1343q0 50 30 77.5t69 27.5t69.5 -27.5t30.5 -77.5q0 -45 -29 -73.5t-71 -28.5q-43 0 -71 27 t-28 75z" />
<glyph unicode="k" horiz-adv-x="1036" d="M170 0v1491h147v-940l457 461h205l-389 -373l434 -639h-184l-357 535l-166 -158v-377h-147z" />
<glyph unicode="l" horiz-adv-x="520" d="M166 0v1491h147v-1491h-147z" />
<glyph unicode="m" horiz-adv-x="1873" d="M166 0v1012h145v-166q48 84 144 137t219 53q255 0 311 -192q51 82 149.5 137t235.5 55q133 0 215 -57t109 -160q18 -76 18 -223v-596h-147v573q0 149 -29 209q-46 113 -207 113q-102 0 -189 -53t-128 -133q2 -27 2 -117v-592h-148v573q0 148 -26 209q-50 113 -207 113 q-102 0 -189.5 -53t-130.5 -133v-709h-147z" />
<glyph unicode="n" horiz-adv-x="1218" d="M166 0v1012h145v-166q48 84 146 137t227 53q137 0 223 -57.5t111 -159.5q20 -74 20 -223v-596h-147v573q0 152 -31 209q-56 113 -215 113q-100 0 -194.5 -53.5t-137.5 -134.5v-707h-147z" />
<glyph unicode="o" horiz-adv-x="1259" d="M96 506q0 149 71 272t193 192.5t269 69.5q232 0 380 -149.5t148 -384.5q0 -148 -69.5 -270.5t-191.5 -192.5t-271 -70t-270.5 69.5t-190 191.5t-68.5 272zM248 506q0 -172 109 -282.5t272 -110.5q164 0 269.5 113.5t105.5 279.5q0 168 -106 281.5t-271 113.5 q-162 0 -270.5 -113.5t-108.5 -281.5z" />
<glyph unicode="p" horiz-adv-x="1316" d="M166 -397v1409h145v-193q46 95 159.5 158t242.5 63q99 0 188 -34.5t157.5 -99t109 -165t40.5 -223.5q0 -130 -43.5 -233.5t-117 -167.5t-165 -97.5t-192.5 -33.5q-116 0 -221 49t-156 133v-565h-147zM313 360q33 -81 97.5 -135.5t134 -77t143.5 -22.5q72 0 136 23 t117 68.5t84.5 123t31.5 178.5q0 99 -34.5 175.5t-90 120t-118 65.5t-126.5 22q-73 0 -144 -24.5t-135.5 -82.5t-95.5 -141v-293z" />
<glyph unicode="q" horiz-adv-x="1302" d="M96 500q0 106 31 196.5t82.5 153t119.5 107t142 65t150 20.5q118 0 216 -46.5t154 -135.5v152h139v-1409h-145v600q-41 -97 -147 -156t-234 -59q-100 0 -189.5 31.5t-161.5 92t-114.5 161t-42.5 227.5zM248 502q0 -98 30.5 -172.5t83.5 -117.5t117.5 -64t138.5 -21 q118 0 219.5 63t143.5 183v297q-40 119 -137.5 176t-216.5 57q-67 0 -131 -22.5t-121 -67.5t-92 -125.5t-35 -185.5z" />
<glyph unicode="r" horiz-adv-x="780" d="M166 0v1012h145v-162q21 71 98 130.5t183 59.5q74 0 123 -30v-160h-8q-47 33 -125 33q-102 0 -170.5 -49t-98.5 -134v-700h-147z" />
<glyph unicode="s" horiz-adv-x="913" d="M92 84v164h8q65 -67 166.5 -102t200.5 -35q128 0 180.5 39t52.5 108q0 62 -42 98.5t-162 69.5l-160 45q-232 66 -232 272q0 134 105.5 215.5t288.5 81.5q83 0 176 -24.5t131 -59.5v-157h-8q-54 50 -143.5 78t-170.5 28q-117 0 -172 -40t-55 -107q0 -58 38 -96t124 -62 l176 -49q134 -38 197 -105t63 -172q0 -131 -97.5 -216t-295.5 -85q-100 0 -206 30t-163 81z" />
<glyph unicode="t" horiz-adv-x="716" d="M49 887v125h162q0 13 8 295h137v-295h277v-125h-277v-555q0 -106 27 -158q12 -25 47.5 -41t81.5 -16q94 0 154 45h8v-135q-65 -50 -199 -50q-67 0 -126.5 25.5t-88.5 69.5q-51 72 -51 247v568h-160z" />
<glyph unicode="u" horiz-adv-x="1218" d="M158 432v578h147v-557q0 -157 31 -224q23 -51 79.5 -82.5t143.5 -31.5q99 0 186.5 48t137.5 120v727h147v-1010h-141v141q-117 -168 -363 -168q-143 0 -230 57t-116 160q-22 81 -22 242z" />
<glyph unicode="v" horiz-adv-x="1038" d="M8 1012h168q233 -569 326 -815q80 214 338 815h159l-438 -1012h-123z" />
<glyph unicode="w" horiz-adv-x="1581" d="M33 1012h162q185 -583 241 -793q70 224 279 793h123q254 -693 286 -795q77 279 236 795h156l-332 -1012h-119q-263 718 -293 813q-37 -127 -285 -813h-122z" />
<glyph unicode="x" horiz-adv-x="1101" d="M25 0l389 520l-365 492h191q82 -112 140.5 -193.5t97 -136t50.5 -70.5q65 105 283 400h182l-368 -484l397 -528h-195q-87 119 -157.5 214t-105 141t-54.5 75q-118 -171 -305 -430h-180z" />
<glyph unicode="y" horiz-adv-x="1040" d="M12 1012h168q232 -552 340 -842q69 196 322 842h162l-424 -1047q-84 -209 -129 -274q-86 -129 -252 -129q-103 0 -164 37v139h8q48 -39 147 -39q96 0 150 78q37 54 72 155l28 74z" />
<glyph unicode="z" horiz-adv-x="999" d="M53 0v94q262 318 654 785h-607v133h801v-103q-481 -585 -655 -778h665v-131h-858z" />
<glyph unicode="{" horiz-adv-x="737" d="M49 539v96q83 12 125 40.5t61 91.5t19 183v238q0 82 17 141.5t44.5 96t71 58t89.5 29t106 7.5h77v-103h-81q-42 0 -73 -9.5t-59 -33.5t-42.5 -71t-14.5 -117v-230q0 -72 -4 -124.5t-16 -90t-24 -60.5t-37 -41.5t-46 -28t-59 -23.5q68 -15 106.5 -50t59 -112.5 t20.5 -210.5v-227q0 -70 14.5 -118t42.5 -71.5t59.5 -33t74.5 -9.5h79v-102h-77q-61 0 -106 7t-89 27.5t-71.5 56.5t-44.5 96.5t-17 144.5v233q0 76 -8 129.5t-23 88t-41.5 55.5t-56.5 31t-76 16z" />
<glyph unicode="|" horiz-adv-x="481" d="M160 -377v1944h133v-1944h-133z" />
<glyph unicode="}" horiz-adv-x="692" d="M20 -246h70q42 0 73.5 9.5t59.5 33.5t43 71.5t15 117.5v233q0 73 4 125t15.5 90t23.5 61.5t36.5 41.5t45.5 28t59 23q-68 15 -106 50.5t-58 113t-20 211.5v231q0 70 -15 117t-44 71t-61 33.5t-75 9.5h-66v101h66q62 0 107 -7t89 -27.5t71.5 -56t44 -96t16.5 -143.5v-240 q0 -95 10.5 -154.5t36.5 -94t60.5 -49t92.5 -21.5v-94q-83 -13 -124 -42t-58.5 -91.5t-17.5 -184.5v-239q0 -102 -24 -170t-71.5 -103t-102 -48t-130.5 -13h-66v102z" />
<glyph unicode="~" horiz-adv-x="1433" d="M170 543q84 114 160 162.5t162 48.5q46 0 98.5 -20t146.5 -75q120 -71 201 -71q64 0 115 37.5t110 130.5l88 -66q-73 -114 -144.5 -168.5t-170.5 -54.5q-102 0 -242 80q-150 88 -211 88t-114.5 -39t-114.5 -125z" />
<glyph unicode="&#xa1;" horiz-adv-x="587" d="M127 942q0 50 33.5 81.5t81.5 31.5q49 0 81.5 -31t32.5 -82q0 -56 -34 -86.5t-80 -30.5t-80.5 30t-34.5 87zM156 -379q0 180 26 979h121q29 -822 29 -979h-176z" />
<glyph unicode="&#xa2;" horiz-adv-x="1110" d="M143 500q0 210 122.5 350.5t318.5 165.5v213h92v-207q92 -3 175 -30t126 -72v-160h-8q-49 55 -130.5 88.5t-162.5 36.5v-760q183 6 299 125h8v-152q-129 -102 -307 -110v-213h-92v217q-191 20 -316 154.5t-125 353.5zM297 506q0 -162 81.5 -256.5t205.5 -118.5v746 q-127 -23 -207 -118t-80 -253z" />
<glyph unicode="&#xa3;" horiz-adv-x="1218" d="M125 0v106q262 139 262 332q0 73 -25 133h-202v117h168q-66 189 -66 301q0 184 123.5 293t353.5 109q97 0 184.5 -25.5t145.5 -73.5v-168h-8q-60 62 -148 94.5t-174 32.5q-313 0 -313 -262q0 -97 68 -301h432v-117h-402q19 -84 19 -139q0 -178 -178 -293h755v-139h-995z " />
<glyph unicode="&#xa4;" horiz-adv-x="1247" d="M141 1057l90 86l134 -137q108 86 258 86q148 0 254 -82l135 137l86 -88l-133 -139q88 -112 88 -263q0 -156 -88 -262l135 -141l-90 -86l-131 139q-115 -86 -263 -86t-254 78l-133 -133l-86 88l136 139q-89 105 -89 262q0 145 86 265zM317 662q0 -142 85 -230t221 -88 q130 0 215.5 88t85.5 225q0 136 -85 225t-216 89q-132 0 -219 -88.5t-87 -220.5z" />
<glyph unicode="&#xa5;" horiz-adv-x="1306" d="M49 1354h189q321 -502 407 -658q76 130 414 658h182l-364 -557h233v-92h-291l-100 -154v-27h391v-94h-391v-430h-156v430h-379v94h379v27l-98 154h-281v92h222z" />
<glyph unicode="&#xa6;" horiz-adv-x="481" d="M160 -193v674h133v-674h-133zM160 791v673h133v-673h-133z" />
<glyph unicode="&#xa7;" horiz-adv-x="1028" d="M90 657q0 98 60 166.5t155 98.5q-68 48 -101.5 106.5t-33.5 142.5q0 43 12 83.5t40.5 80t71 68.5t107 47t144.5 18q95 0 178 -25.5t129 -68.5v-157h-8q-58 59 -138.5 91.5t-166.5 32.5q-111 0 -163 -45.5t-52 -113.5q0 -55 31 -97.5t106 -85.5q33 -19 109 -58.5 t135.5 -74t109.5 -71.5q63 -46 87 -101.5t24 -128.5q0 -91 -54 -161t-145 -101q78 -54 108.5 -113t30.5 -133q0 -141 -104.5 -229t-292.5 -88q-108 0 -209 33.5t-166 93.5v162h8q70 -75 173.5 -115.5t199.5 -40.5q116 0 175 44.5t59 123.5q0 53 -26 91t-87 75 q-51 33 -173.5 96.5t-184.5 106.5q-80 56 -114 114.5t-34 132.5zM236 684q0 -54 27.5 -93.5t90.5 -78.5q141 -87 275 -147q58 16 103.5 62t45.5 116q0 53 -28.5 92.5t-90.5 79.5q-28 19 -79 46.5t-108.5 56.5t-74.5 38q-52 -4 -106.5 -53t-54.5 -119z" />
<glyph unicode="&#xa8;" horiz-adv-x="430" d="M-74 1343q0 47 30 74t69 27q37 0 66.5 -26.5t29.5 -74.5q0 -44 -27 -70t-69 -26t-70.5 26.5t-28.5 69.5zM281 1343q0 47 29 74t67 27q39 0 68.5 -26.5t29.5 -74.5q0 -43 -28 -69.5t-70 -26.5q-41 0 -68.5 26.5t-27.5 69.5z" />
<glyph unicode="&#xa9;" horiz-adv-x="1695" d="M104 707q0 206 97 375t267 265.5t378 96.5q215 0 386 -96.5t265 -264.5t94 -376q0 -206 -96 -374.5t-266.5 -265t-380.5 -96.5q-157 0 -295.5 57t-236.5 155t-155 234t-57 290zM182 707q0 -140 50 -264t137.5 -212.5t211.5 -140t267 -51.5q190 0 343.5 87t239 240 t85.5 341t-85.5 340.5t-239.5 240.5t-345 88q-188 0 -340.5 -88t-238 -241.5t-85.5 -339.5zM412 711q0 135 63 241.5t170 164t238 57.5q81 0 156 -22t112 -62v-138h-8q-45 50 -117.5 78.5t-146.5 28.5q-139 0 -239.5 -93.5t-100.5 -250.5q0 -166 99.5 -258t240.5 -92 q157 0 268 102h8v-127q-112 -90 -289 -90q-193 0 -323.5 126.5t-130.5 334.5z" />
<glyph unicode="&#xaa;" horiz-adv-x="749" d="M70 778q0 65 32.5 109.5t83.5 64.5q83 33 226 33q44 0 94 -8v27q0 66 -21 100q-33 49 -127 49q-54 0 -120.5 -21t-108.5 -63h-8v115q49 40 118 61t138 21q121 0 186 -62q30 -30 44 -70.5t14 -113.5q0 -22 -1.5 -94t-1.5 -101q0 -78 9 -96q11 -29 53 -29q27 0 49 11v-107 q-27 -16 -78 -16q-54 0 -90 23.5t-43 66.5q-76 -98 -213 -98q-105 0 -170 55.5t-65 142.5zM188 778q0 -45 35.5 -72.5t100.5 -27.5q119 0 184 92q-2 25 -2 111q-45 10 -100 10q-108 -3 -162 -27q-56 -26 -56 -86z" />
<glyph unicode="&#xab;" horiz-adv-x="962" d="M47 516l283 377h159l-278 -377l281 -377h-160zM416 516l282 377h158l-278 -377l280 -377h-158z" />
<glyph unicode="&#xac;" horiz-adv-x="1433" d="M168 547v115h1065v-590h-117v475h-948z" />
<glyph unicode="&#xad;" horiz-adv-x="657" d="M80 489v138h493v-138h-493z" />
<glyph unicode="&#xae;" horiz-adv-x="1695" d="M104 707q0 206 97 375t267 265.5t378 96.5q215 0 386 -96.5t265 -264.5t94 -376q0 -206 -96 -374.5t-266.5 -265t-380.5 -96.5q-157 0 -295.5 57t-236.5 155t-155 234t-57 290zM182 707q0 -140 50 -264t137.5 -212.5t211.5 -140t267 -51.5q190 0 343.5 87t239 240 t85.5 341t-85.5 340.5t-239.5 240.5t-345 88q-188 0 -340.5 -88t-238 -241.5t-85.5 -339.5zM561 252v911h275q141 0 215 -26q69 -25 109 -84.5t40 -145.5q0 -89 -50.5 -151.5t-137.5 -89.5l243 -414h-133l-223 389q-37 -4 -94 -4h-125v-385h-119zM680 737h131q122 0 186 27 q82 33 82 137q0 49 -23.5 89t-66.5 54q-52 17 -168 17h-141v-324z" />
<glyph unicode="&#xaf;" horiz-adv-x="430" d="M-82 1210v125h598v-125h-598z" />
<glyph unicode="&#xb0;" horiz-adv-x="636" d="M39 1174q0 125 80.5 204.5t199.5 79.5q122 0 198.5 -78t76.5 -200q0 -121 -82 -201t-199 -80t-195.5 79.5t-78.5 195.5zM131 1176q0 -81 50 -137t134 -56t135.5 56.5t51.5 142.5q0 79 -50.5 134.5t-136.5 55.5q-84 0 -134 -56t-50 -140z" />
<glyph unicode="&#xb1;" horiz-adv-x="1433" d="M184 0v115h1065v-115h-1065zM184 727v115h475v456h115v-456h475v-115h-475v-463h-112v463h-478z" />
<glyph unicode="&#xb2;" d="M63 819v70q209 168 334 293q121 121 121 235q0 68 -44 112t-128 44q-147 0 -252 -123h-8v121q49 51 123 80.5t149 29.5q138 0 212.5 -67t74.5 -182q0 -141 -127 -275q-36 -40 -121 -113.5t-147 -119.5q129 2 440 2v-107h-627z" />
<glyph unicode="&#xb3;" d="M96 872v129h8q45 -45 108.5 -68.5t129.5 -23.5q107 0 152 44t45 108q0 42 -27.5 77t-79.5 48q-46 14 -135 14h-37v103h41q93 0 143 26q68 36 68 117q0 57 -40.5 92t-119.5 35q-58 0 -123.5 -26t-107.5 -77h-8v119q43 40 113.5 66t140.5 26q133 0 202.5 -60.5t69.5 -166.5 q0 -66 -42.5 -118.5t-117.5 -75.5q88 -15 138.5 -67t50.5 -132q0 -121 -88.5 -190.5t-235.5 -69.5q-66 0 -133.5 18t-114.5 53z" />
<glyph unicode="&#xb4;" horiz-adv-x="430" d="M-43 1182v8l262 330h205v-9l-328 -329h-139z" />
<glyph unicode="&#xb5;" horiz-adv-x="1210" d="M158 -432v1442h147v-561q0 -156 33 -220q62 -108 221 -108q103 0 190 47t134 129v713h147v-1010h-141v156q-106 -179 -340 -179q-78 0 -144 26.5t-98 76.5v-512h-149z" />
<glyph unicode="&#xb6;" horiz-adv-x="1144" d="M88 924q0 231 143 359t451 128h313v-1706h-86v1628h-237v-1628h-86v762q-231 0 -364.5 129.5t-133.5 327.5z" />
<glyph unicode="&#xb7;" horiz-adv-x="460" d="M96 528q0 58 34 87.5t81 29.5q45 0 79 -30t34 -87q0 -50 -33 -80t-82 -30t-81 29.5t-32 80.5z" />
<glyph unicode="&#xb8;" horiz-adv-x="430" d="M10 -362h8q27 -21 66 -32.5t68 -11.5q129 0 129 99q0 42 -33.5 68t-95.5 26q-44 0 -78 -12l-6 4l71 241h105l-45 -145h10q89 0 145 -46t56 -130q0 -99 -67 -154t-183 -55q-41 0 -84 12t-66 29v107z" />
<glyph unicode="&#xb9;" d="M158 1442v112l217 119h92v-854h-123v721z" />
<glyph unicode="&#xba;" horiz-adv-x="804" d="M55 928q0 81 31.5 147t82 106.5t110 62.5t120.5 22q143 0 241.5 -85.5t98.5 -248.5q0 -87 -30 -155.5t-79.5 -109.5t-110 -62t-126.5 -21q-64 0 -122.5 20.5t-107.5 61t-78.5 108.5t-29.5 154zM174 928q0 -120 65 -180t158 -60q95 0 160.5 61t65.5 181q0 119 -64 176 t-164 57q-92 0 -156.5 -60t-64.5 -175z" />
<glyph unicode="&#xbb;" horiz-adv-x="962" d="M61 893h160l285 -377l-283 -377h-160l279 377zM428 893h160l284 -377l-282 -377h-160l279 377z" />
<glyph unicode="&#xbc;" horiz-adv-x="1759" d="M150 1141v112l217 119h92v-854h-123v721zM422 -25l690 1422h105l-689 -1422h-106zM889 215v76l442 571h101v-547h145v-100h-145v-215h-119v215h-424zM1022 315h291q0 20 6 383q-64 -95 -297 -383z" />
<glyph unicode="&#xbd;" horiz-adv-x="1759" d="M119 1141v112l217 119h92v-854h-123v721zM379 -25l690 1422h105l-689 -1422h-106zM965 0v70q209 168 333 292q121 121 121 236q0 68 -44 112t-128 44q-147 0 -252 -123h-8v121q49 51 123 80.5t150 29.5q138 0 212 -67.5t74 -182.5q0 -140 -127 -274q-36 -40 -121 -114 t-147 -120q129 2 440 2v-106h-626z" />
<glyph unicode="&#xbe;" horiz-adv-x="1759" d="M115 571v129h8q92 -92 237 -92q107 0 152 44t45 108q0 42 -27.5 77t-78.5 48q-46 14 -136 14h-36v102h40q92 0 144 27q67 36 67 117q0 57 -40.5 92t-118.5 35q-58 0 -124 -26t-108 -77h-8v119q43 40 113.5 66t140.5 26q133 0 202.5 -60.5t69.5 -166.5q0 -67 -42.5 -119.5 t-116.5 -75.5q88 -15 138 -66.5t50 -131.5q0 -121 -88.5 -190.5t-235.5 -69.5q-66 0 -133 18t-114 53zM498 -25l690 1422h104l-688 -1422h-106zM936 215v76l442 571h101v-547h145v-100h-145v-215h-119v215h-424zM1069 315h291q0 20 6 383q-64 -95 -297 -383z" />
<glyph unicode="&#xbf;" horiz-adv-x="847" d="M31 -76q0 104 58 190.5t212 198.5q80 57 104 118.5t27 168.5h121q0 -44 -1 -68t-4.5 -60.5t-12.5 -60.5t-23.5 -53.5t-38.5 -55t-57 -50.5q-121 -90 -172 -161.5t-51 -149.5q0 -100 61.5 -155.5t185.5 -55.5q84 0 168.5 38t153.5 111h8v-151q-60 -61 -159 -99.5 t-193 -38.5q-189 0 -288 84.5t-99 249.5zM377 942q0 50 32.5 81.5t82.5 31.5q47 0 79.5 -31t32.5 -82q0 -56 -34.5 -86.5t-80.5 -30.5q-45 0 -78.5 30t-33.5 87z" />
<glyph unicode="&#xc0;" horiz-adv-x="1329" d="M8 0l578 1411h143l567 -1411h-172l-166 428h-614l-170 -428h-166zM285 1802v8h237l314 -266v-8h-164zM397 565h508q-179 455 -250 654q-52 -141 -258 -654z" />
<glyph unicode="&#xc1;" horiz-adv-x="1329" d="M8 0l578 1411h143l567 -1411h-172l-166 428h-614l-170 -428h-166zM397 565h508q-179 455 -250 654q-52 -141 -258 -654zM463 1536v8l311 266h238v-8l-385 -266h-164z" />
<glyph unicode="&#xc2;" horiz-adv-x="1329" d="M8 0l578 1411h143l567 -1411h-172l-166 428h-614l-170 -428h-166zM305 1536v8l295 266h98l293 -266v-8h-153l-195 143l-182 -143h-156zM397 565h508q-179 455 -250 654q-52 -141 -258 -654z" />
<glyph unicode="&#xc3;" horiz-adv-x="1329" d="M8 0l578 1411h143l567 -1411h-172l-166 428h-614l-170 -428h-166zM309 1542q9 118 63.5 179t133.5 61q68 0 162 -62q77 -51 125 -51q36 0 55.5 26t25.5 91h111q-7 -123 -61.5 -185.5t-128.5 -62.5q-41 0 -75 12t-93 45q-94 56 -125 56q-66 0 -80 -109h-113zM397 565h508 q-179 455 -250 654q-52 -141 -258 -654z" />
<glyph unicode="&#xc4;" horiz-adv-x="1329" d="M8 0l578 1411h143l567 -1411h-172l-166 428h-614l-170 -428h-166zM358 1655q0 48 29 74t68 26t68.5 -26t29.5 -74q0 -42 -28 -69t-70 -27q-41 0 -69 26.5t-28 69.5zM397 565h508q-179 455 -250 654q-52 -141 -258 -654zM725 1655q0 48 29 74t69 26q38 0 67.5 -26.5 t29.5 -73.5q0 -42 -28.5 -69t-70.5 -27q-41 0 -68.5 26.5t-27.5 69.5z" />
<glyph unicode="&#xc5;" horiz-adv-x="1329" d="M8 0l578 1411h143l567 -1411h-172l-166 428h-614l-170 -428h-166zM397 565h508q-179 455 -250 654q-52 -141 -258 -654zM451 1673q0 88 61 144.5t152 56.5t147.5 -56t56.5 -145q0 -85 -60.5 -142.5t-148.5 -57.5t-148 57t-60 143zM530 1673q0 -54 35.5 -91.5t98.5 -37.5 q56 0 90 38t34 93q0 57 -36 92t-93 35q-58 0 -93.5 -36.5t-35.5 -92.5z" />
<glyph unicode="&#xc6;" horiz-adv-x="1990" d="M0 0l940 1411h909v-143h-680v-465h639v-139h-639v-523h713v-141h-868v440h-531l-295 -440h-188zM559 578h455v696q-87 -142 -455 -696z" />
<glyph unicode="&#xc7;" horiz-adv-x="1394" d="M106 707q0 138 40 257t110.5 205.5t165.5 149t205.5 93t228.5 30.5t235 -34t177 -91v-170h-8q-67 71 -181 112t-229 41q-164 0 -296 -69t-211 -203.5t-79 -312.5q0 -144 44.5 -259t123.5 -189t184.5 -113t229.5 -39q246 0 420 164h8v-166q-64 -60 -188 -101t-250 -41 q-5 0 -15.5 1t-15.5 1l-31 -102h10q92 0 148.5 -50t56.5 -136q0 -99 -68 -154t-186 -55q-43 0 -85.5 11.5t-65.5 29.5v108h8q54 -43 141 -43q125 0 125 101q0 44 -34 71t-97 27q-45 0 -80 -14l-6 4l61 211q-129 20 -238 79t-189 150t-124.5 218.5t-44.5 277.5z" />
<glyph unicode="&#xc8;" horiz-adv-x="1144" d="M176 0v1411h834v-143h-678v-465h639v-139h-639v-523h710v-141h-866zM209 1802v8h237l314 -266v-8h-164z" />
<glyph unicode="&#xc9;" horiz-adv-x="1144" d="M176 0v1411h834v-143h-678v-465h639v-139h-639v-523h710v-141h-866zM440 1536v8l312 266h237v-8l-385 -266h-164z" />
<glyph unicode="&#xca;" horiz-adv-x="1144" d="M176 0v1411h834v-143h-678v-465h639v-139h-639v-523h710v-141h-866zM258 1536v8l295 266h98l293 -266v-8h-153l-195 143l-182 -143h-156z" />
<glyph unicode="&#xcb;" horiz-adv-x="1144" d="M176 0v1411h834v-143h-678v-465h639v-139h-639v-523h710v-141h-866zM319 1655q0 48 29 74t68 26t68.5 -26t29.5 -74q0 -42 -28 -69t-70 -27q-41 0 -69 26.5t-28 69.5zM686 1655q0 48 29 74t69 26q38 0 67.5 -26.5t29.5 -73.5q0 -42 -28.5 -69t-70.5 -27q-41 0 -68.5 26.5 t-27.5 69.5z" />
<glyph unicode="&#xcc;" horiz-adv-x="550" d="M-92 1802v8h237l314 -266v-8h-164zM190 0v1411h156v-1411h-156z" />
<glyph unicode="&#xcd;" horiz-adv-x="550" d="M86 1536v8l311 266h238v-8l-385 -266h-164zM186 0v1411h156v-1411h-156z" />
<glyph unicode="&#xce;" horiz-adv-x="550" d="M-86 1536v8l295 266h98l293 -266v-8h-154l-194 143l-182 -143h-156zM176 0v1411h156v-1411h-156z" />
<glyph unicode="&#xcf;" horiz-adv-x="550" d="M-29 1655q0 48 29 74t68 26t68.5 -26t29.5 -74q0 -42 -28 -69t-70 -27q-41 0 -69 26.5t-28 69.5zM184 0v1411h156v-1411h-156zM338 1655q0 48 29 74t69 26q38 0 67 -26t29 -74q0 -42 -28 -69t-70 -27q-41 0 -68.5 26.5t-27.5 69.5z" />
<glyph unicode="&#xd0;" horiz-adv-x="1503" d="M23 666v135h163v610h379q231 0 391 -47q203 -58 319 -217.5t116 -423.5q0 -508 -426 -660q-174 -63 -451 -63h-328v666h-163zM338 141h207q136 0 249.5 24t182.5 62q254 135 254 492q0 169 -75.5 303t-223.5 190q-141 56 -354 56h-240v-467h455v-135h-455v-525z" />
<glyph unicode="&#xd1;" horiz-adv-x="1486" d="M176 0v1411h160q435 -610 566 -797t218 -321q-8 323 -8 1118h154v-1411h-127q-621 893 -815 1184q6 -299 6 -1184h-154zM395 1542q9 118 63.5 179t133.5 61q68 0 162 -62q77 -51 125 -51q36 0 56 26.5t26 90.5h110q-7 -123 -61.5 -185.5t-128.5 -62.5q-41 0 -75 12 t-93 45q-94 56 -125 56q-66 0 -80 -109h-113z" />
<glyph unicode="&#xd2;" horiz-adv-x="1656" d="M106 707q0 153 56.5 289.5t153.5 234t231 154.5t284 57q208 0 372.5 -94.5t255.5 -262t91 -378.5q0 -206 -94 -374.5t-260 -265t-371 -96.5q-203 0 -368 96t-258 264.5t-93 375.5zM264 705q0 -129 44.5 -240t120.5 -188t180.5 -120.5t221.5 -43.5q162 0 291.5 77.5 t201 213t71.5 301.5q0 165 -71 300.5t-201 215t-294 79.5q-158 0 -288 -78t-203.5 -214.5t-73.5 -302.5zM449 1802v8h237l313 -266v-8h-163z" />
<glyph unicode="&#xd3;" horiz-adv-x="1656" d="M106 707q0 153 56.5 289.5t153.5 234t231 154.5t284 57q208 0 372.5 -94.5t255.5 -262t91 -378.5q0 -206 -94 -374.5t-260 -265t-371 -96.5q-203 0 -368 96t-258 264.5t-93 375.5zM264 705q0 -129 44.5 -240t120.5 -188t180.5 -120.5t221.5 -43.5q162 0 291.5 77.5 t201 213t71.5 301.5q0 165 -71 300.5t-201 215t-294 79.5q-158 0 -288 -78t-203.5 -214.5t-73.5 -302.5zM616 1536v8l312 266h237v-8l-385 -266h-164z" />
<glyph unicode="&#xd4;" horiz-adv-x="1656" d="M106 707q0 153 56.5 289.5t153.5 234t231 154.5t284 57q208 0 372.5 -94.5t255.5 -262t91 -378.5q0 -206 -94 -374.5t-260 -265t-371 -96.5q-203 0 -368 96t-258 264.5t-93 375.5zM264 705q0 -129 44.5 -240t120.5 -188t180.5 -120.5t221.5 -43.5q162 0 291.5 77.5 t201 213t71.5 301.5q0 165 -71 300.5t-201 215t-294 79.5q-158 0 -288 -78t-203.5 -214.5t-73.5 -302.5zM485 1536v8l295 266h99l292 -266v-8h-153l-195 143l-182 -143h-156z" />
<glyph unicode="&#xd5;" horiz-adv-x="1656" d="M106 707q0 153 56.5 289.5t153.5 234t231 154.5t284 57q208 0 372.5 -94.5t255.5 -262t91 -378.5q0 -206 -94 -374.5t-260 -265t-371 -96.5q-203 0 -368 96t-258 264.5t-93 375.5zM264 705q0 -129 44.5 -240t120.5 -188t180.5 -120.5t221.5 -43.5q162 0 291.5 77.5 t201 213t71.5 301.5q0 165 -71 300.5t-201 215t-294 79.5q-158 0 -288 -78t-203.5 -214.5t-73.5 -302.5zM485 1542q9 118 63.5 179t133.5 61q68 0 162 -62q77 -51 125 -51q36 0 56 26.5t26 90.5h110q-7 -123 -61.5 -185.5t-128.5 -62.5q-41 0 -75 12t-93 45q-94 56 -125 56 q-66 0 -80 -109h-113z" />
<glyph unicode="&#xd6;" horiz-adv-x="1656" d="M106 707q0 153 56.5 289.5t153.5 234t231 154.5t284 57q208 0 372.5 -94.5t255.5 -262t91 -378.5q0 -206 -94 -374.5t-260 -265t-371 -96.5q-203 0 -368 96t-258 264.5t-93 375.5zM264 705q0 -129 44.5 -240t120.5 -188t180.5 -120.5t221.5 -43.5q162 0 291.5 77.5 t201 213t71.5 301.5q0 165 -71 300.5t-201 215t-294 79.5q-158 0 -288 -78t-203.5 -214.5t-73.5 -302.5zM537 1655q0 48 28.5 74t67.5 26t68.5 -26t29.5 -74q0 -42 -28 -69t-70 -27q-41 0 -68.5 26.5t-27.5 69.5zM903 1655q0 48 29 74t69 26q38 0 67.5 -26.5t29.5 -73.5 q0 -42 -28.5 -69t-70.5 -27q-41 0 -68.5 26.5t-27.5 69.5z" />
<glyph unicode="&#xd7;" horiz-adv-x="1497" d="M281 252l368 366l-368 373l86 88l368 -370l369 368l82 -84l-369 -368l367 -367l-86 -88l-367 367l-369 -371z" />
<glyph unicode="&#xd8;" horiz-adv-x="1656" d="M106 707q0 153 56.5 289.5t153.5 234t231 154.5t284 57q188 0 345 -80l100 154h133l-139 -213q132 -100 206 -254t74 -342q0 -206 -94 -374.5t-260 -265t-371 -96.5q-195 0 -356 90l-94 -145h-129l131 205q-128 101 -199.5 253t-71.5 333zM264 705q0 -141 51.5 -258 t143.5 -197l637 985q-124 65 -267 65q-158 0 -288 -78t-203.5 -214.5t-73.5 -302.5zM549 184q124 -71 282 -71q162 0 291.5 77.5t201 213t71.5 301.5q0 141 -54.5 264t-152.5 205z" />
<glyph unicode="&#xd9;" horiz-adv-x="1488" d="M166 608v803h158v-776q0 -121 11.5 -205t47.5 -151q39 -72 131.5 -118t220.5 -46q235 0 344 159q70 104 70 353v784h149v-799q0 -148 -16.5 -237.5t-56.5 -157.5q-63 -107 -191 -176.5t-301 -69.5q-180 0 -313.5 66t-194.5 190q-59 118 -59 381zM358 1802v8h238l313 -266 v-8h-164z" />
<glyph unicode="&#xda;" horiz-adv-x="1488" d="M166 608v803h158v-776q0 -121 11.5 -205t47.5 -151q39 -72 131.5 -118t220.5 -46q235 0 344 159q70 104 70 353v784h149v-799q0 -148 -16.5 -237.5t-56.5 -157.5q-63 -107 -191 -176.5t-301 -69.5q-180 0 -313.5 66t-194.5 190q-59 118 -59 381zM561 1536v8l311 266h238 v-8l-385 -266h-164z" />
<glyph unicode="&#xdb;" horiz-adv-x="1488" d="M166 608v803h158v-776q0 -121 11.5 -205t47.5 -151q39 -72 131.5 -118t220.5 -46q235 0 344 159q70 104 70 353v784h149v-799q0 -148 -16.5 -237.5t-56.5 -157.5q-63 -107 -191 -176.5t-301 -69.5q-180 0 -313.5 66t-194.5 190q-59 118 -59 381zM389 1536v8l295 266h98 l293 -266v-8h-153l-195 143l-182 -143h-156z" />
<glyph unicode="&#xdc;" horiz-adv-x="1488" d="M166 608v803h158v-776q0 -121 11.5 -205t47.5 -151q39 -72 131.5 -118t220.5 -46q235 0 344 159q70 104 70 353v784h149v-799q0 -148 -16.5 -237.5t-56.5 -157.5q-63 -107 -191 -176.5t-301 -69.5q-180 0 -313.5 66t-194.5 190q-59 118 -59 381zM440 1655q0 48 29 74 t68 26t68.5 -26t29.5 -74q0 -42 -28 -69t-70 -27q-41 0 -69 26.5t-28 69.5zM807 1655q0 48 29 74t69 26q38 0 67 -26t29 -74q0 -42 -28 -69t-70 -27q-41 0 -68.5 26.5t-27.5 69.5z" />
<glyph unicode="&#xdd;" horiz-adv-x="1288" d="M6 1411h189q343 -540 430 -696q133 222 440 696h186l-551 -842v-569h-157v569zM461 1536v8l311 266h238v-8l-385 -266h-164z" />
<glyph unicode="&#xde;" horiz-adv-x="1245" d="M176 0v1411h156v-250h276q202 0 324 -49q103 -40 160 -138t57 -233q0 -148 -64.5 -254.5t-197.5 -150.5q-112 -37 -287 -37h-268v-299h-156zM332 436h256q193 0 276 47q125 66 125 252q0 180 -125 240q-90 47 -262 47h-270v-586z" />
<glyph unicode="&#xdf;" horiz-adv-x="1253" d="M166 0v971q0 245 70 360q56 89 154.5 137t217.5 48q107 0 187.5 -34.5t124.5 -90.5t65 -117t21 -125q0 -90 -23.5 -159.5t-82.5 -128t-155 -93.5q169 -9 273 -109.5t104 -279.5q0 -183 -106 -294.5t-293 -111.5q-169 0 -272 74v150h8q96 -86 258 -86q118 0 186 67.5 t68 200.5q0 152 -105 226.5t-323 74.5h-35v135h33q140 0 224.5 86.5t84.5 228.5q0 105 -62.5 178.5t-181.5 73.5q-78 0 -140 -28.5t-97 -79.5q-58 -89 -58 -287v-987h-145z" />
<glyph unicode="&#xe0;" horiz-adv-x="1103" d="M96 281q0 100 52.5 166.5t138.5 99.5q72 29 150 39t188 10q81 0 151 -12v86q0 100 -41 149q-64 78 -209 78q-82 0 -183 -34t-165 -101h-8v149q73 63 177.5 96t205.5 33q184 0 283 -96q48 -46 69 -108.5t21 -171.5q0 -37 -1 -171t-1 -178q0 -112 12 -147q19 -47 78 -47 q45 0 82 16v-127q-44 -24 -115 -24q-76 0 -124 35.5t-60 103.5q-109 -152 -334 -152q-165 0 -266 86.5t-101 221.5zM180 1511v9h213l264 -330v-8h-141zM250 285q0 -78 63.5 -127t175.5 -49q92 0 167.5 37t121.5 104q-2 39 -2 211q-79 14 -162 14q-152 0 -235 -29 q-129 -42 -129 -161z" />
<glyph unicode="&#xe1;" horiz-adv-x="1103" d="M96 281q0 100 52.5 166.5t138.5 99.5q72 29 150 39t188 10q81 0 151 -12v86q0 100 -41 149q-64 78 -209 78q-82 0 -183 -34t-165 -101h-8v149q73 63 177.5 96t205.5 33q184 0 283 -96q48 -46 69 -108.5t21 -171.5q0 -37 -1 -171t-1 -178q0 -112 12 -147q19 -47 78 -47 q45 0 82 16v-127q-44 -24 -115 -24q-76 0 -124 35.5t-60 103.5q-109 -152 -334 -152q-165 0 -266 86.5t-101 221.5zM250 285q0 -78 63.5 -127t175.5 -49q92 0 167.5 37t121.5 104q-2 39 -2 211q-79 14 -162 14q-152 0 -235 -29q-129 -42 -129 -161zM389 1182v8l262 330h205 v-9l-328 -329h-139z" />
<glyph unicode="&#xe2;" horiz-adv-x="1103" d="M96 281q0 100 52.5 166.5t138.5 99.5q72 29 150 39t188 10q81 0 151 -12v86q0 100 -41 149q-64 78 -209 78q-82 0 -183 -34t-165 -101h-8v149q73 63 177.5 96t205.5 33q184 0 283 -96q48 -46 69 -108.5t21 -171.5q0 -37 -1 -171t-1 -178q0 -112 12 -147q19 -47 78 -47 q45 0 82 16v-127q-44 -24 -115 -24q-76 0 -124 35.5t-60 103.5q-109 -152 -334 -152q-165 0 -266 86.5t-101 221.5zM213 1178v8l272 321h86l275 -321v-8h-141l-183 182l-174 -182h-135zM250 285q0 -78 63.5 -127t175.5 -49q92 0 167.5 37t121.5 104q-2 39 -2 211 q-79 14 -162 14q-152 0 -235 -29q-129 -42 -129 -161z" />
<glyph unicode="&#xe3;" horiz-adv-x="1103" d="M96 281q0 100 52.5 166.5t138.5 99.5q72 29 150 39t188 10q81 0 151 -12v86q0 100 -41 149q-64 78 -209 78q-82 0 -183 -34t-165 -101h-8v149q73 63 177.5 96t205.5 33q184 0 283 -96q48 -46 69 -108.5t21 -171.5q0 -37 -1 -171t-1 -178q0 -112 12 -147q19 -47 78 -47 q45 0 82 16v-127q-44 -24 -115 -24q-76 0 -124 35.5t-60 103.5q-109 -152 -334 -152q-165 0 -266 86.5t-101 221.5zM203 1221q9 118 61 179.5t131 61.5q38 0 71 -13t81 -46q73 -53 117 -53q36 0 53 24.5t24 91.5h109q-7 -123 -59.5 -187.5t-122.5 -64.5q-40 0 -70 11.5 t-90 46.5q-5 3 -14 8q-72 43 -97 46l-8 1q-33 0 -52 -25t-26 -81h-108zM250 285q0 -78 63.5 -127t175.5 -49q92 0 167.5 37t121.5 104q-2 39 -2 211q-79 14 -162 14q-152 0 -235 -29q-129 -42 -129 -161z" />
<glyph unicode="&#xe4;" horiz-adv-x="1103" d="M96 281q0 100 52.5 166.5t138.5 99.5q72 29 150 39t188 10q81 0 151 -12v86q0 100 -41 149q-64 78 -209 78q-82 0 -183 -34t-165 -101h-8v149q73 63 177.5 96t205.5 33q184 0 283 -96q48 -46 69 -108.5t21 -171.5q0 -37 -1 -171t-1 -178q0 -112 12 -147q19 -47 78 -47 q45 0 82 16v-127q-44 -24 -115 -24q-76 0 -124 35.5t-60 103.5q-109 -152 -334 -152q-165 0 -266 86.5t-101 221.5zM250 285q0 -78 63.5 -127t175.5 -49q92 0 167.5 37t121.5 104q-2 39 -2 211q-79 14 -162 14q-152 0 -235 -29q-129 -42 -129 -161zM258 1343q0 47 30 74 t68 27t67.5 -26.5t29.5 -74.5q0 -43 -27.5 -69.5t-69.5 -26.5t-70 26.5t-28 69.5zM612 1343q0 47 29.5 74t67.5 27q39 0 68.5 -26.5t29.5 -74.5q0 -43 -28 -69.5t-70 -26.5q-41 0 -69 26.5t-28 69.5z" />
<glyph unicode="&#xe5;" horiz-adv-x="1103" d="M96 281q0 100 52.5 166.5t138.5 99.5q72 29 150 39t188 10q81 0 151 -12v86q0 100 -41 149q-64 78 -209 78q-82 0 -183 -34t-165 -101h-8v149q73 63 177.5 96t205.5 33q184 0 283 -96q48 -46 69 -108.5t21 -171.5q0 -37 -1 -171t-1 -178q0 -112 12 -147q19 -47 78 -47 q45 0 82 16v-127q-44 -24 -115 -24q-76 0 -124 35.5t-60 103.5q-109 -152 -334 -152q-165 0 -266 86.5t-101 221.5zM250 285q0 -78 63.5 -127t175.5 -49q92 0 167.5 37t121.5 104q-2 39 -2 211q-79 14 -162 14q-152 0 -235 -29q-129 -42 -129 -161zM334 1370 q0 90 60.5 147.5t152.5 57.5t149.5 -57t57.5 -148q0 -86 -61 -145.5t-150 -59.5t-149 58.5t-60 146.5zM412 1370q0 -57 36 -96t99 -39q58 0 93.5 40t35.5 97q0 58 -37 95.5t-96 37.5t-95 -38.5t-36 -96.5z" />
<glyph unicode="&#xe6;" horiz-adv-x="1789" d="M96 283q0 96 49 163t134 101q69 28 149.5 37.5t198.5 9.5q85 0 159 -12v71q0 107 -38 162q-54 82 -216 82q-83 0 -183.5 -33t-166.5 -96h-8v143q76 63 178 96t205 33q270 0 338 -188q60 89 163.5 138.5t215.5 49.5q221 0 338.5 -124t120.5 -349q0 -60 -7 -106h-796 q6 -156 116 -253t287 -97q217 0 365 139h8v-150q-61 -58 -170 -92.5t-217 -34.5q-143 0 -254 49.5t-180 139.5q-165 -189 -424 -189q-164 0 -264.5 87t-100.5 223zM252 289q0 -80 61 -130t172 -50q95 0 192.5 45.5t147.5 111.5q-30 67 -37 195q-67 12 -170 12 q-162 0 -249 -31q-117 -43 -117 -153zM930 588h651v14q0 144 -81 225.5t-234 81.5q-77 0 -148 -33t-125 -108t-63 -180z" />
<glyph unicode="&#xe7;" horiz-adv-x="1042" d="M96 500q0 235 155.5 387.5t391.5 152.5q98 0 187.5 -29.5t136.5 -78.5v-166h-9q-49 62 -139 98.5t-180 36.5q-77 0 -147 -26t-124.5 -75t-87 -125t-32.5 -169q0 -97 34.5 -175t91 -124.5t124.5 -71t141 -24.5q203 0 324 133h8v-158q-137 -113 -348 -113h-9l-30 -98h10 q89 0 145 -46t56 -130q0 -99 -67 -154t-183 -55q-41 0 -84 12t-66 29v107h8q27 -21 66 -32.5t68 -11.5q129 0 129 99q0 42 -33.5 68t-95.5 26q-43 0 -78 -12l-6 4l59 205q-183 35 -299.5 173t-116.5 343z" />
<glyph unicode="&#xe8;" horiz-adv-x="1140" d="M96 500q0 125 42.5 229.5t113.5 171t161 103t187 36.5q216 0 333.5 -126.5t119.5 -346.5q0 -73 -6 -112h-797q11 -151 118 -247.5t283 -96.5q103 0 198.5 33.5t166.5 101.5h8v-152q-60 -54 -170 -87.5t-217 -33.5q-246 0 -393.5 146t-147.5 381zM250 1511v9h213l264 -330 v-8h-141zM252 584h649v16q0 145 -80.5 227t-230.5 82q-54 0 -108 -18.5t-103.5 -56t-84 -102.5t-42.5 -148z" />
<glyph unicode="&#xe9;" horiz-adv-x="1140" d="M96 500q0 125 42.5 229.5t113.5 171t161 103t187 36.5q216 0 333.5 -126.5t119.5 -346.5q0 -73 -6 -112h-797q11 -151 118 -247.5t283 -96.5q103 0 198.5 33.5t166.5 101.5h8v-152q-60 -54 -170 -87.5t-217 -33.5q-246 0 -393.5 146t-147.5 381zM252 584h649v16 q0 145 -80.5 227t-230.5 82q-54 0 -108 -18.5t-103.5 -56t-84 -102.5t-42.5 -148zM414 1182v8l262 330h205v-9l-328 -329h-139z" />
<glyph unicode="&#xea;" horiz-adv-x="1140" d="M96 500q0 125 42.5 229.5t113.5 171t161 103t187 36.5q216 0 333.5 -126.5t119.5 -346.5q0 -73 -6 -112h-797q11 -151 118 -247.5t283 -96.5q103 0 198.5 33.5t166.5 101.5h8v-152q-60 -54 -170 -87.5t-217 -33.5q-246 0 -393.5 146t-147.5 381zM252 584h649v16 q0 145 -80.5 227t-230.5 82q-54 0 -108 -18.5t-103.5 -56t-84 -102.5t-42.5 -148zM285 1178v8l272 321h86l275 -321v-8h-142l-182 182l-174 -182h-135z" />
<glyph unicode="&#xeb;" horiz-adv-x="1140" d="M96 500q0 125 42.5 229.5t113.5 171t161 103t187 36.5q216 0 333.5 -126.5t119.5 -346.5q0 -73 -6 -112h-797q11 -151 118 -247.5t283 -96.5q103 0 198.5 33.5t166.5 101.5h8v-152q-60 -54 -170 -87.5t-217 -33.5q-246 0 -393.5 146t-147.5 381zM252 584h649v16 q0 145 -80.5 227t-230.5 82q-54 0 -108 -18.5t-103.5 -56t-84 -102.5t-42.5 -148zM317 1343q0 47 30 74t69 27q37 0 66.5 -26.5t29.5 -74.5q0 -44 -27 -70t-69 -26t-70.5 26.5t-28.5 69.5zM672 1343q0 47 29 74t67 27q39 0 68.5 -26.5t29.5 -74.5q0 -43 -28 -69.5t-70 -26.5 q-41 0 -68.5 26.5t-27.5 69.5z" />
<glyph unicode="&#xec;" horiz-adv-x="530" d="M-100 1511v9h213l264 -330v-8h-141zM170 0v1012h149v-1012h-149z" />
<glyph unicode="&#xed;" horiz-adv-x="530" d="M109 1182v8l262 330h204v-9l-327 -329h-139zM195 0v1012h149v-1012h-149z" />
<glyph unicode="&#xee;" horiz-adv-x="530" d="M-59 1178v8l272 321h86l274 -321v-8h-141l-182 182l-174 -182h-135zM188 0v1012h150v-1012h-150z" />
<glyph unicode="&#xef;" horiz-adv-x="530" d="M-23 1343q0 47 30 74t69 27q37 0 66.5 -26.5t29.5 -74.5q0 -44 -27 -70t-69 -26t-70.5 26.5t-28.5 69.5zM190 0v1012h150v-1012h-150zM332 1343q0 47 29 74t67 27q39 0 68.5 -26.5t29.5 -74.5q0 -43 -28 -69.5t-70 -26.5q-41 0 -68.5 26.5t-27.5 69.5z" />
<glyph unicode="&#xf0;" horiz-adv-x="1261" d="M96 510q0 101 32 187t85 146t122 102.5t144 62.5t150 20q107 0 200 -41.5t144 -120.5q-11 71 -58.5 167t-130.5 181l-239 -137v129l151 86q-114 86 -260 127l41 109q199 -54 340 -164l209 119v-129l-121 -70q252 -268 252 -727q0 -119 -29 -217t-78.5 -165t-117.5 -113.5 t-144.5 -67.5t-160.5 -21q-100 0 -191.5 31t-169 93t-124 168.5t-46.5 244.5zM248 510q0 -83 21 -151t57 -113.5t84.5 -76.5t102 -44.5t112.5 -13.5q75 0 141.5 24t120.5 71t85.5 126.5t31.5 181.5q0 98 -31.5 173t-86 118t-121 64.5t-142.5 21.5q-97 0 -180.5 -41.5 t-139 -130t-55.5 -209.5z" />
<glyph unicode="&#xf1;" horiz-adv-x="1218" d="M166 0v1012h145v-166q48 84 146 137t227 53q137 0 223 -57.5t111 -159.5q20 -74 20 -223v-596h-147v573q0 152 -31 209q-56 113 -215 113q-100 0 -194.5 -53.5t-137.5 -134.5v-707h-147zM270 1221q9 118 61.5 179.5t131.5 61.5q37 0 70 -13t81 -46q73 -53 117 -53 q36 0 53.5 25t24.5 91h109q-7 -123 -60 -187.5t-123 -64.5q-40 0 -70 11.5t-90 46.5q-6 4 -18.5 11t-17.5 10t-14.5 8.5t-14 8t-11.5 6t-11.5 5l-10.5 3.5t-10.5 2.5t-9.5 0.5q-33 0 -52 -25t-26 -81h-109z" />
<glyph unicode="&#xf2;" horiz-adv-x="1259" d="M96 506q0 149 71 272t193 192.5t269 69.5q232 0 380 -149.5t148 -384.5q0 -148 -69.5 -270.5t-191.5 -192.5t-271 -70t-270.5 69.5t-190 191.5t-68.5 272zM248 506q0 -172 109 -282.5t272 -110.5q164 0 269.5 113.5t105.5 279.5q0 168 -106 281.5t-271 113.5 q-162 0 -270.5 -113.5t-108.5 -281.5zM287 1511v9h213l264 -330v-8h-141z" />
<glyph unicode="&#xf3;" horiz-adv-x="1259" d="M96 506q0 149 71 272t193 192.5t269 69.5q232 0 380 -149.5t148 -384.5q0 -148 -69.5 -270.5t-191.5 -192.5t-271 -70t-270.5 69.5t-190 191.5t-68.5 272zM248 506q0 -172 109 -282.5t272 -110.5q164 0 269.5 113.5t105.5 279.5q0 168 -106 281.5t-271 113.5 q-162 0 -270.5 -113.5t-108.5 -281.5zM451 1182v8l262 330h205v-9l-328 -329h-139z" />
<glyph unicode="&#xf4;" horiz-adv-x="1259" d="M96 506q0 149 71 272t193 192.5t269 69.5q232 0 380 -149.5t148 -384.5q0 -148 -69.5 -270.5t-191.5 -192.5t-271 -70t-270.5 69.5t-190 191.5t-68.5 272zM248 506q0 -172 109 -282.5t272 -110.5q164 0 269.5 113.5t105.5 279.5q0 168 -106 281.5t-271 113.5 q-162 0 -270.5 -113.5t-108.5 -281.5zM301 1178v8l272 321h86l275 -321v-8h-141l-183 182l-174 -182h-135z" />
<glyph unicode="&#xf5;" horiz-adv-x="1259" d="M96 506q0 149 71 272t193 192.5t269 69.5q232 0 380 -149.5t148 -384.5q0 -148 -69.5 -270.5t-191.5 -192.5t-271 -70t-270.5 69.5t-190 191.5t-68.5 272zM248 506q0 -172 109 -282.5t272 -110.5q164 0 269.5 113.5t105.5 279.5q0 168 -106 281.5t-271 113.5 q-162 0 -270.5 -113.5t-108.5 -281.5zM287 1221q9 118 61 179.5t131 61.5q38 0 71 -13t81 -46q73 -53 117 -53q36 0 53 24.5t24 91.5h109q-7 -123 -59.5 -187.5t-122.5 -64.5q-40 0 -70 11.5t-90 46.5q-5 3 -14 8q-72 43 -97 46l-8 1q-33 0 -52 -25t-26 -81h-108z" />
<glyph unicode="&#xf6;" horiz-adv-x="1259" d="M96 506q0 149 71 272t193 192.5t269 69.5q232 0 380 -149.5t148 -384.5q0 -148 -69.5 -270.5t-191.5 -192.5t-271 -70t-270.5 69.5t-190 191.5t-68.5 272zM248 506q0 -172 109 -282.5t272 -110.5q164 0 269.5 113.5t105.5 279.5q0 168 -106 281.5t-271 113.5 q-162 0 -270.5 -113.5t-108.5 -281.5zM336 1343q0 47 30 74t68 27q37 0 66.5 -26.5t29.5 -74.5q0 -44 -27 -70t-69 -26t-70 26.5t-28 69.5zM690 1343q0 47 29 74t67 27q39 0 69 -26.5t30 -74.5q0 -43 -28.5 -69.5t-70.5 -26.5q-41 0 -68.5 26.5t-27.5 69.5z" />
<glyph unicode="&#xf7;" horiz-adv-x="1433" d="M184 547v117h1065v-117h-1065zM635 262q0 45 23 67.5t61 22.5q80 0 80 -90q0 -42 -24 -64t-60 -22q-34 0 -57 21.5t-23 64.5zM635 932q0 45 23 67.5t61 22.5q35 0 57.5 -21.5t22.5 -68.5q0 -42 -24 -64t-60 -22q-34 0 -57 21t-23 65z" />
<glyph unicode="&#xf8;" horiz-adv-x="1259" d="M96 506q0 149 71 272t193 192.5t269 69.5q127 0 243 -53l86 133h115l-119 -184q96 -71 149.5 -182.5t53.5 -247.5q0 -148 -69.5 -270.5t-191.5 -192.5t-271 -70q-132 0 -252 60l-84 -133h-115l119 184q-93 73 -145 182.5t-52 239.5zM248 506q0 -186 123 -299l422 657 q-79 37 -166 37q-162 0 -270.5 -113.5t-108.5 -281.5zM451 154q80 -41 178 -41q164 0 269.5 113.5t105.5 279.5q0 92 -34 171.5t-96 133.5z" />
<glyph unicode="&#xf9;" horiz-adv-x="1218" d="M158 432v578h147v-557q0 -157 31 -224q23 -51 79.5 -82.5t143.5 -31.5q99 0 186.5 48t137.5 120v727h147v-1010h-141v141q-117 -168 -363 -168q-143 0 -230 57t-116 160q-22 81 -22 242zM246 1511v9h213l264 -330v-8h-141z" />
<glyph unicode="&#xfa;" horiz-adv-x="1218" d="M158 432v578h147v-557q0 -157 31 -224q23 -51 79.5 -82.5t143.5 -31.5q99 0 186.5 48t137.5 120v727h147v-1010h-141v141q-117 -168 -363 -168q-143 0 -230 57t-116 160q-22 81 -22 242zM442 1182v8l263 330h204v-9l-327 -329h-140z" />
<glyph unicode="&#xfb;" horiz-adv-x="1218" d="M158 432v578h147v-557q0 -157 31 -224q23 -51 79.5 -82.5t143.5 -31.5q99 0 186.5 48t137.5 120v727h147v-1010h-141v141q-117 -168 -363 -168q-143 0 -230 57t-116 160q-22 81 -22 242zM276 1178v8l273 321h86l274 -321v-8h-141l-182 182l-174 -182h-136z" />
<glyph unicode="&#xfc;" horiz-adv-x="1218" d="M158 432v578h147v-557q0 -157 31 -224q23 -51 79.5 -82.5t143.5 -31.5q99 0 186.5 48t137.5 120v727h147v-1010h-141v141q-117 -168 -363 -168q-143 0 -230 57t-116 160q-22 81 -22 242zM315 1343q0 47 30 74t69 27q37 0 66.5 -26.5t29.5 -74.5q0 -44 -27 -70t-69 -26 t-70.5 26.5t-28.5 69.5zM670 1343q0 47 29 74t67 27q39 0 68.5 -26.5t29.5 -74.5q0 -43 -28 -69.5t-70 -26.5q-41 0 -68.5 26.5t-27.5 69.5z" />
<glyph unicode="&#xfd;" horiz-adv-x="1040" d="M12 1012h168q232 -552 340 -842q69 196 322 842h162l-424 -1047q-84 -209 -129 -274q-86 -129 -252 -129q-103 0 -164 37v139h8q48 -39 147 -39q96 0 150 78q37 54 72 155l28 74zM358 1182v8l263 330h204v-9l-327 -329h-140z" />
<glyph unicode="&#xfe;" horiz-adv-x="1316" d="M166 -397v1888h147v-670q46 95 158.5 157t241.5 62q99 0 188 -34.5t157.5 -99t109 -165t40.5 -223.5q0 -130 -43.5 -233.5t-117 -167.5t-165 -97.5t-192.5 -33.5q-116 0 -221 49t-156 133v-565h-147zM313 360q33 -81 97 -135.5t133 -77t143 -22.5q72 0 136.5 23t118 68.5 t85 123t31.5 178.5q0 99 -34.5 175.5t-90 120t-118 65.5t-126.5 22q-73 0 -144 -24.5t-135.5 -82.5t-95.5 -141v-293z" />
<glyph unicode="&#xff;" horiz-adv-x="1040" d="M12 1012h168q232 -552 340 -842q69 196 322 842h162l-424 -1047q-84 -209 -129 -274q-86 -129 -252 -129q-103 0 -164 37v139h8q48 -39 147 -39q96 0 150 78q37 54 72 155l28 74zM229 1343q0 47 30 74t69 27q37 0 66.5 -26.5t29.5 -74.5q0 -44 -27 -70t-69 -26 t-70.5 26.5t-28.5 69.5zM584 1343q0 47 29 74t67 27q39 0 68.5 -26.5t29.5 -74.5q0 -43 -28 -69.5t-70 -26.5q-41 0 -68.5 26.5t-27.5 69.5z" />
<glyph unicode="&#x100;" horiz-adv-x="1329" d="M8 0l578 1411h143l567 -1411h-172l-166 428h-614l-170 -428h-166zM350 1583v125h619v-125h-619zM397 565h508q-179 455 -250 654q-52 -141 -258 -654z" />
<glyph unicode="&#x101;" horiz-adv-x="1103" d="M96 281q0 100 52.5 166.5t138.5 99.5q72 29 150 39t188 10q81 0 151 -12v86q0 100 -41 149q-64 78 -209 78q-82 0 -183 -34t-165 -101h-8v149q73 63 177.5 96t205.5 33q184 0 283 -96q48 -46 69 -108.5t21 -171.5q0 -37 -1 -171t-1 -178q0 -112 12 -147q19 -47 78 -47 q45 0 82 16v-127q-44 -24 -115 -24q-76 0 -124 35.5t-60 103.5q-109 -152 -334 -152q-165 0 -266 86.5t-101 221.5zM250 285q0 -78 63.5 -127t175.5 -49q92 0 167.5 37t121.5 104q-2 39 -2 211q-79 14 -162 14q-152 0 -235 -29q-129 -42 -129 -161zM258 1210v125h598v-125 h-598z" />
<glyph unicode="&#x102;" horiz-adv-x="1329" d="M8 0l578 1411h143l567 -1411h-172l-166 428h-614l-170 -428h-166zM346 1810h117q8 -172 186 -172q182 0 191 172h121q-2 -128 -85 -212.5t-229 -84.5q-142 0 -221.5 81.5t-79.5 215.5zM397 565h508q-179 455 -250 654q-52 -141 -258 -654z" />
<glyph unicode="&#x103;" horiz-adv-x="1103" d="M96 281q0 100 52.5 166.5t138.5 99.5q72 29 150 39t188 10q81 0 151 -12v86q0 100 -41 149q-64 78 -209 78q-82 0 -183 -34t-165 -101h-8v149q73 63 177.5 96t205.5 33q184 0 283 -96q48 -46 69 -108.5t21 -171.5q0 -37 -1 -171t-1 -178q0 -112 12 -147q19 -47 78 -47 q45 0 82 16v-127q-44 -24 -115 -24q-76 0 -124 35.5t-60 103.5q-109 -152 -334 -152q-165 0 -266 86.5t-101 221.5zM246 1462h114q4 -94 51.5 -138t125.5 -44q171 0 180 182h119q-2 -132 -80 -218.5t-221 -86.5q-138 0 -213.5 84t-75.5 221zM250 285q0 -78 63.5 -127 t175.5 -49q92 0 167.5 37t121.5 104q-2 39 -2 211q-79 14 -162 14q-152 0 -235 -29q-129 -42 -129 -161z" />
<glyph unicode="&#x104;" horiz-adv-x="1329" d="M8 0l578 1411h143l567 -1411h-43q-118 -74 -165.5 -134.5t-47.5 -139.5q0 -59 37.5 -92t106.5 -33q76 0 123 32h8v-102q-76 -43 -170 -43q-104 0 -173 57.5t-69 167.5q0 90 54 160t167 127l-166 428h-614l-170 -428h-166zM397 565h508q-179 455 -250 654 q-52 -141 -258 -654z" />
<glyph unicode="&#x105;" horiz-adv-x="1103" d="M96 281q0 100 52.5 166.5t138.5 99.5q72 29 150 39t188 10q81 0 151 -12v86q0 100 -41 149q-64 78 -209 78q-82 0 -183 -34t-165 -101h-8v149q73 63 177.5 96t205.5 33q184 0 283 -96q48 -46 69 -108.5t21 -171.5q0 -37 -1 -171t-1 -178q0 -112 12 -147q19 -47 78 -47 q45 0 82 16v-127q-44 -24 -115 -24q-6 0 -17 1t-16 1q-99 -66 -139.5 -124t-40.5 -128q0 -55 36.5 -88t98.5 -33q72 0 125 33h8v-99q-70 -45 -164 -45q-101 0 -169 57.5t-68 162.5q0 179 231 290q-58 39 -69 111q-109 -152 -334 -152q-165 0 -266 86.5t-101 221.5zM250 285 q0 -78 63.5 -127t175.5 -49q92 0 167.5 37t121.5 104q-2 39 -2 211q-79 14 -162 14q-152 0 -235 -29q-129 -42 -129 -161z" />
<glyph unicode="&#x106;" horiz-adv-x="1394" d="M106 707q0 138 40 257t110.5 205.5t165.5 149t205.5 93t228.5 30.5t235 -34t177 -91v-170h-8q-67 71 -181 112t-229 41q-164 0 -296 -69t-211 -203.5t-79 -312.5q0 -144 44.5 -259t123.5 -189t184.5 -113t229.5 -39q246 0 420 164h8v-166q-64 -60 -188 -101t-250 -41 q-206 0 -370.5 87t-262 256t-97.5 393zM614 1536v8l312 266h237v-8l-385 -266h-164z" />
<glyph unicode="&#x107;" horiz-adv-x="1042" d="M96 500q0 235 155.5 387.5t391.5 152.5q98 0 187.5 -29.5t136.5 -78.5v-166h-9q-49 62 -139 98.5t-180 36.5q-77 0 -147 -26t-124.5 -75t-87 -125t-32.5 -169q0 -97 34.5 -175t91 -124.5t124.5 -71t141 -24.5q203 0 324 133h8v-158q-137 -113 -348 -113q-107 0 -203 37.5 t-168 104.5t-114 167t-42 218zM438 1182v8l262 330h205v-9l-327 -329h-140z" />
<glyph unicode="&#x108;" horiz-adv-x="1394" d="M106 707q0 138 40 257t110.5 205.5t165.5 149t205.5 93t228.5 30.5t235 -34t177 -91v-170h-8q-67 71 -181 112t-229 41q-164 0 -296 -69t-211 -203.5t-79 -312.5q0 -144 44.5 -259t123.5 -189t184.5 -113t229.5 -39q246 0 420 164h8v-166q-64 -60 -188 -101t-250 -41 q-206 0 -370.5 87t-262 256t-97.5 393zM453 1536v8l295 266h98l293 -266v-8h-154l-194 143l-183 -143h-155z" />
<glyph unicode="&#x109;" horiz-adv-x="1042" d="M96 500q0 235 155.5 387.5t391.5 152.5q98 0 187.5 -29.5t136.5 -78.5v-166h-9q-49 62 -139 98.5t-180 36.5q-77 0 -147 -26t-124.5 -75t-87 -125t-32.5 -169q0 -97 34.5 -175t91 -124.5t124.5 -71t141 -24.5q203 0 324 133h8v-158q-137 -113 -348 -113q-107 0 -203 37.5 t-168 104.5t-114 167t-42 218zM299 1178v8l272 321h86l275 -321v-8h-141l-183 182l-174 -182h-135z" />
<glyph unicode="&#x10a;" horiz-adv-x="1394" d="M106 707q0 138 40 257t110.5 205.5t165.5 149t205.5 93t228.5 30.5t235 -34t177 -91v-170h-8q-67 71 -181 112t-229 41q-164 0 -296 -69t-211 -203.5t-79 -312.5q0 -144 44.5 -259t123.5 -189t184.5 -113t229.5 -39q246 0 420 164h8v-166q-64 -60 -188 -101t-250 -41 q-206 0 -370.5 87t-262 256t-97.5 393zM674 1655q0 48 28.5 74t67.5 26t68.5 -26t29.5 -74q0 -42 -28 -69t-70 -27q-41 0 -68.5 26.5t-27.5 69.5z" />
<glyph unicode="&#x10b;" horiz-adv-x="1042" d="M96 500q0 235 155.5 387.5t391.5 152.5q98 0 187.5 -29.5t136.5 -78.5v-166h-9q-49 62 -139 98.5t-180 36.5q-77 0 -147 -26t-124.5 -75t-87 -125t-32.5 -169q0 -97 34.5 -175t91 -124.5t124.5 -71t141 -24.5q203 0 324 133h8v-158q-137 -113 -348 -113q-107 0 -203 37.5 t-168 104.5t-114 167t-42 218zM502 1343q0 47 30 74t68 27q37 0 66.5 -26.5t29.5 -74.5q0 -44 -27 -70t-69 -26t-70 26.5t-28 69.5z" />
<glyph unicode="&#x10c;" horiz-adv-x="1394" d="M106 707q0 138 40 257t110.5 205.5t165.5 149t205.5 93t228.5 30.5t235 -34t177 -91v-170h-8q-67 71 -181 112t-229 41q-164 0 -296 -69t-211 -203.5t-79 -312.5q0 -144 44.5 -259t123.5 -189t184.5 -113t229.5 -39q246 0 420 164h8v-166q-64 -60 -188 -101t-250 -41 q-206 0 -370.5 87t-262 256t-97.5 393zM442 1802v8h154l192 -143l183 143h151v-8l-291 -266h-96z" />
<glyph unicode="&#x10d;" horiz-adv-x="1042" d="M96 500q0 235 155.5 387.5t391.5 152.5q98 0 187.5 -29.5t136.5 -78.5v-166h-9q-49 62 -139 98.5t-180 36.5q-77 0 -147 -26t-124.5 -75t-87 -125t-32.5 -169q0 -97 34.5 -175t91 -124.5t124.5 -71t141 -24.5q203 0 324 133h8v-158q-137 -113 -348 -113q-107 0 -203 37.5 t-168 104.5t-114 167t-42 218zM272 1503v8h140l184 -182l174 182h135v-8l-272 -321h-86z" />
<glyph unicode="&#x10e;" horiz-adv-x="1503" d="M176 0v1411h379q231 0 391 -47q203 -58 318.5 -217t115.5 -424q0 -508 -426 -660q-174 -63 -450 -63h-328zM315 1802v8h154l193 -143l182 143h151v-8l-290 -266h-97zM328 141h207q136 0 249.5 24t182.5 62q254 135 254 492q0 169 -75.5 303t-223.5 190q-141 56 -355 56 h-239v-1127z" />
<glyph unicode="&#x10f;" horiz-adv-x="1316" d="M96 498q0 106 30.5 196t82 153t119.5 107t143.5 65t153.5 21q249 0 372 -178v627h142v-1489h-144v184q-48 -94 -145.5 -152.5t-239.5 -58.5q-98 0 -189.5 34.5t-164 99t-116.5 166t-44 225.5zM248 500q0 -97 32.5 -173t87.5 -121.5t121 -69t138 -23.5q120 0 219.5 62 t144.5 183v312q-40 113 -140.5 173t-213.5 60q-75 0 -142.5 -23.5t-124 -70t-89.5 -126.5t-33 -183zM1190 1040v9q65 54 109 132t44 169q0 82 -26 141h149q23 -50 23 -129q0 -96 -50.5 -180.5t-121.5 -141.5h-127z" />
<glyph unicode="&#x110;" horiz-adv-x="1503" d="M23 666v135h163v610h379q231 0 391 -47q203 -58 319 -217.5t116 -423.5q0 -508 -426 -660q-174 -63 -451 -63h-328v666h-163zM338 141h207q136 0 249.5 24t182.5 62q254 135 254 492q0 169 -75.5 303t-223.5 190q-141 56 -354 56h-240v-467h455v-135h-455v-525z" />
<glyph unicode="&#x111;" horiz-adv-x="1316" d="M96 498q0 106 30.5 196t82 153t119.5 107t143.5 65t153.5 21q249 0 372 -178v277h-301v118h301v232h142v-232h151v-118h-151v-1139h-144v184q-48 -94 -145.5 -152.5t-239.5 -58.5q-98 0 -189.5 34.5t-164 99t-116.5 166t-44 225.5zM248 500q0 -97 32.5 -173t87.5 -121.5 t121 -69t138 -23.5q120 0 219.5 62t144.5 183v312q-40 113 -140.5 173t-213.5 60q-75 0 -142.5 -23.5t-124 -70t-89.5 -126.5t-33 -183z" />
<glyph unicode="&#x112;" horiz-adv-x="1144" d="M176 0v1411h834v-143h-678v-465h639v-139h-639v-523h710v-141h-866zM307 1583v125h619v-125h-619z" />
<glyph unicode="&#x113;" horiz-adv-x="1140" d="M96 500q0 125 42.5 229.5t113.5 171t161 103t187 36.5q216 0 333.5 -126.5t119.5 -346.5q0 -73 -6 -112h-797q11 -151 118 -247.5t283 -96.5q103 0 198.5 33.5t166.5 101.5h8v-152q-60 -54 -170 -87.5t-217 -33.5q-246 0 -393.5 146t-147.5 381zM252 584h649v16 q0 145 -80.5 227t-230.5 82q-54 0 -108 -18.5t-103.5 -56t-84 -102.5t-42.5 -148zM317 1210v125h598v-125h-598z" />
<glyph unicode="&#x114;" horiz-adv-x="1144" d="M176 0v1411h834v-143h-678v-465h639v-139h-639v-523h710v-141h-866zM297 1810h117q8 -172 186 -172q182 0 191 172h120q-2 -128 -84.5 -212.5t-228.5 -84.5q-142 0 -221.5 81.5t-79.5 215.5z" />
<glyph unicode="&#x115;" horiz-adv-x="1140" d="M96 500q0 125 42.5 229.5t113.5 171t161 103t187 36.5q216 0 333.5 -126.5t119.5 -346.5q0 -73 -6 -112h-797q11 -151 118 -247.5t283 -96.5q103 0 198.5 33.5t166.5 101.5h8v-152q-60 -54 -170 -87.5t-217 -33.5q-246 0 -393.5 146t-147.5 381zM252 584h649v16 q0 145 -80.5 227t-230.5 82q-54 0 -108 -18.5t-103.5 -56t-84 -102.5t-42.5 -148zM309 1462h115q4 -94 51 -138t125 -44q171 0 180 182h119q-2 -132 -80 -218.5t-221 -86.5q-138 0 -213.5 84t-75.5 221z" />
<glyph unicode="&#x116;" horiz-adv-x="1144" d="M176 0v1411h834v-143h-678v-465h639v-139h-639v-523h710v-141h-866zM508 1655q0 48 28.5 74t67.5 26t68.5 -26t29.5 -74q0 -42 -28 -69t-70 -27q-41 0 -68.5 26.5t-27.5 69.5z" />
<glyph unicode="&#x117;" horiz-adv-x="1140" d="M96 500q0 125 42.5 229.5t113.5 171t161 103t187 36.5q216 0 333.5 -126.5t119.5 -346.5q0 -73 -6 -112h-797q11 -151 118 -247.5t283 -96.5q103 0 198.5 33.5t166.5 101.5h8v-152q-60 -54 -170 -87.5t-217 -33.5q-246 0 -393.5 146t-147.5 381zM252 584h649v16 q0 145 -80.5 227t-230.5 82q-54 0 -108 -18.5t-103.5 -56t-84 -102.5t-42.5 -148zM500 1343q0 47 30 74t68 27q37 0 66.5 -26.5t29.5 -74.5q0 -44 -27 -70t-69 -26t-70 26.5t-28 69.5z" />
<glyph unicode="&#x118;" horiz-adv-x="1144" d="M176 0v1411h834v-143h-678v-465h639v-139h-639v-523h710v-141h-73q-118 -74 -165.5 -134.5t-47.5 -139.5q0 -59 37.5 -92t105.5 -33q76 0 123 32h8v-102q-76 -43 -170 -43q-104 0 -173 57.5t-69 167.5q0 173 218 287h-660z" />
<glyph unicode="&#x119;" horiz-adv-x="1140" d="M96 500q0 125 42.5 229.5t113.5 171t161 103t187 36.5q216 0 333.5 -126.5t119.5 -346.5q0 -73 -6 -112h-797q11 -151 118 -247.5t283 -96.5q103 0 198.5 33.5t166.5 101.5h8v-152q-91 -81 -264 -108q-96 -65 -136 -123t-40 -127q0 -55 36.5 -88t98.5 -33q72 0 125 33h8 v-99q-70 -45 -164 -45q-101 0 -169 57.5t-68 162.5q0 145 157 249q-233 9 -372.5 153.5t-139.5 373.5zM252 584h649v16q0 145 -80.5 227t-230.5 82q-54 0 -108 -18.5t-103.5 -56t-84 -102.5t-42.5 -148z" />
<glyph unicode="&#x11a;" horiz-adv-x="1144" d="M176 0v1411h834v-143h-678v-465h639v-139h-639v-523h710v-141h-866zM262 1802v8h154l192 -143l183 143h151v-8l-291 -266h-96z" />
<glyph unicode="&#x11b;" horiz-adv-x="1140" d="M96 500q0 125 42.5 229.5t113.5 171t161 103t187 36.5q216 0 333.5 -126.5t119.5 -346.5q0 -73 -6 -112h-797q11 -151 118 -247.5t283 -96.5q103 0 198.5 33.5t166.5 101.5h8v-152q-60 -54 -170 -87.5t-217 -33.5q-246 0 -393.5 146t-147.5 381zM252 584h649v16 q0 145 -80.5 227t-230.5 82q-54 0 -108 -18.5t-103.5 -56t-84 -102.5t-42.5 -148zM279 1473v8h139l184 -183l174 183h135v-8l-272 -322h-86z" />
<glyph unicode="&#x11c;" horiz-adv-x="1503" d="M113 707q0 141 40 261t110.5 206t166 147t206 91t230.5 30q128 0 246 -33.5t182 -89.5v-172h-8q-67 70 -178.5 111.5t-243.5 41.5q-125 0 -232 -38t-187 -110t-125.5 -183.5t-45.5 -251.5q0 -143 45 -258.5t124 -190t185.5 -114t231.5 -39.5q194 0 334 75v394h-360v143 h514v-612q-92 -64 -226 -104t-280 -40q-122 0 -231.5 30.5t-200.5 92.5t-157.5 149t-103 206t-36.5 258zM467 1536v8l295 266h98l293 -266v-8h-154l-194 143l-182 -143h-156z" />
<glyph unicode="&#x11d;" horiz-adv-x="1280" d="M98 502q0 110 32 202t84.5 153t121.5 104t141.5 62t145.5 19q122 0 215.5 -49.5t132.5 -130.5v152h141v-914q0 -212 -65 -317q-56 -97 -169 -151t-280 -54q-124 0 -228 34t-161 83v160h8q69 -64 173.5 -101t217.5 -37q218 0 303 123q56 75 56 256v107 q-43 -87 -137.5 -144t-227.5 -57q-103 0 -193.5 33t-160 95t-110 158t-40.5 214zM250 504q0 -89 30.5 -160t83 -114.5t118.5 -66t141 -22.5q119 0 209.5 60.5t132.5 165.5v319q-39 104 -129 161.5t-209 57.5q-73 0 -139 -24.5t-120 -72t-86 -126t-32 -178.5zM322 1178v8 l272 321h86l274 -321v-8h-141l-182 182l-174 -182h-135z" />
<glyph unicode="&#x11e;" horiz-adv-x="1503" d="M113 707q0 141 40 261t110.5 206t166 147t206 91t230.5 30q128 0 246 -33.5t182 -89.5v-172h-8q-67 70 -178.5 111.5t-243.5 41.5q-125 0 -232 -38t-187 -110t-125.5 -183.5t-45.5 -251.5q0 -143 45 -258.5t124 -190t185.5 -114t231.5 -39.5q194 0 334 75v394h-360v143 h514v-612q-92 -64 -226 -104t-280 -40q-122 0 -231.5 30.5t-200.5 92.5t-157.5 149t-103 206t-36.5 258zM498 1810h116q8 -172 187 -172q181 0 190 172h121q-2 -128 -84.5 -212.5t-228.5 -84.5q-142 0 -221.5 81.5t-79.5 215.5z" />
<glyph unicode="&#x11f;" horiz-adv-x="1280" d="M98 500q0 110 32 202t84.5 153t121.5 104t141.5 62t145.5 19q122 0 215.5 -49.5t132.5 -130.5v152h141v-914q0 -212 -65 -317q-56 -97 -169 -151t-280 -54q-124 0 -228 34t-161 83v160h8q69 -64 173.5 -101t217.5 -37q218 0 303 123q56 75 56 256v107 q-43 -87 -137.5 -144t-227.5 -57q-103 0 -193.5 33t-160 95t-110 158t-40.5 214zM250 502q0 -89 30.5 -160t83 -114.5t118.5 -66t141 -22.5q119 0 209.5 60.5t132.5 165.5v319q-39 104 -129 161.5t-209 57.5q-73 0 -139 -24.5t-120 -72t-86 -126t-32 -178.5zM346 1462h115 q4 -94 51 -138t125 -44q171 0 180 182h119q-2 -132 -80 -218.5t-221 -86.5q-138 0 -213.5 84t-75.5 221z" />
<glyph unicode="&#x120;" horiz-adv-x="1503" d="M113 707q0 141 40 261t110.5 206t166 147t206 91t230.5 30q128 0 246 -33.5t182 -89.5v-172h-8q-67 70 -178.5 111.5t-243.5 41.5q-125 0 -232 -38t-187 -110t-125.5 -183.5t-45.5 -251.5q0 -143 45 -258.5t124 -190t185.5 -114t231.5 -39.5q194 0 334 75v394h-360v143 h514v-612q-92 -64 -226 -104t-280 -40q-122 0 -231.5 30.5t-200.5 92.5t-157.5 149t-103 206t-36.5 258zM674 1655q0 48 28.5 74t67.5 26t68.5 -26t29.5 -74q0 -42 -28 -69t-70 -27q-41 0 -68.5 26.5t-27.5 69.5z" />
<glyph unicode="&#x121;" horiz-adv-x="1280" d="M98 500q0 110 32 202t84.5 153t121.5 104t141.5 62t145.5 19q122 0 215.5 -49.5t132.5 -130.5v152h141v-914q0 -212 -65 -317q-56 -97 -169 -151t-280 -54q-124 0 -228 34t-161 83v160h8q69 -64 173.5 -101t217.5 -37q218 0 303 123q56 75 56 256v107 q-43 -87 -137.5 -144t-227.5 -57q-103 0 -193.5 33t-160 95t-110 158t-40.5 214zM250 502q0 -89 30.5 -160t83 -114.5t118.5 -66t141 -22.5q119 0 209.5 60.5t132.5 165.5v319q-39 104 -129 161.5t-209 57.5q-73 0 -139 -24.5t-120 -72t-86 -126t-32 -178.5zM514 1343 q0 47 30 74t68 27t67.5 -26.5t29.5 -74.5q0 -43 -27.5 -69.5t-69.5 -26.5t-70 26.5t-28 69.5z" />
<glyph unicode="&#x122;" horiz-adv-x="1503" d="M113 707q0 141 40 261t110.5 206t166 147t206 91t230.5 30q128 0 246 -33.5t182 -89.5v-172h-8q-67 70 -178.5 111.5t-243.5 41.5q-125 0 -232 -38t-187 -110t-125.5 -183.5t-45.5 -251.5q0 -143 45 -258.5t124 -190t185.5 -114t231.5 -39.5q194 0 334 75v394h-360v143 h514v-612q-92 -64 -226 -104t-280 -40q-122 0 -231.5 30.5t-200.5 92.5t-157.5 149t-103 206t-36.5 258zM592 -578q64 53 107.5 133.5t43.5 172.5q0 82 -26 141h149q23 -50 23 -129q0 -96 -50 -183t-120 -143h-127v8z" />
<glyph unicode="&#x123;" horiz-adv-x="1280" d="M98 500q0 110 32 202t84.5 153t121.5 104t141.5 62t145.5 19q122 0 215.5 -49.5t132.5 -130.5v152h141v-914q0 -212 -65 -317q-56 -97 -169 -151t-280 -54q-124 0 -228 34t-161 83v160h8q69 -64 173.5 -101t217.5 -37q218 0 303 123q56 75 56 256v107 q-43 -87 -137.5 -144t-227.5 -57q-103 0 -193.5 33t-160 95t-110 158t-40.5 214zM250 502q0 -89 30.5 -160t83 -114.5t118.5 -66t141 -22.5q119 0 209.5 60.5t132.5 165.5v319q-39 104 -129 161.5t-209 57.5q-73 0 -139 -24.5t-120 -72t-86 -126t-32 -178.5zM526 1307 q0 96 50 180t122 141h129v-8q-65 -53 -109 -131.5t-44 -169.5q0 -83 26 -141h-151q-23 50 -23 129z" />
<glyph unicode="&#x124;" horiz-adv-x="1478" d="M176 0v1411h156v-604h772v604h158v-1411h-158v664h-772v-664h-156zM381 1536v8l295 266h98l293 -266v-8h-154l-194 143l-182 -143h-156z" />
<glyph unicode="&#x125;" horiz-adv-x="1218" d="M-72 1569v8l295 266h99l292 -266v-8h-153l-195 143l-182 -143h-156zM166 0v1491h147v-643q50 84 146 136t225 52q137 0 223 -57.5t111 -159.5q20 -74 20 -223v-596h-147v573q0 152 -31 209q-56 113 -215 113q-100 0 -194.5 -53.5t-137.5 -134.5v-707h-147z" />
<glyph unicode="&#x126;" horiz-adv-x="1478" d="M23 977v135h153v299h156v-299h772v299h158v-299h172v-135h-172v-977h-158v664h-772v-664h-156v977h-153zM332 807h772v170h-772v-170z" />
<glyph unicode="&#x127;" horiz-adv-x="1218" d="M23 1139v118h143v234h147v-234h303v-118h-303v-291q50 84 146 136t225 52q137 0 223 -57.5t111 -159.5q20 -74 20 -223v-596h-147v573q0 152 -31 209q-56 113 -215 113q-100 0 -194.5 -53.5t-137.5 -134.5v-707h-147v1139h-143z" />
<glyph unicode="&#x128;" horiz-adv-x="550" d="M-74 1542q9 118 63.5 179t133.5 61q68 0 162 -62q77 -51 125 -51q36 0 56 26.5t26 90.5h110q-7 -123 -61.5 -185.5t-128.5 -62.5q-41 0 -75 12t-93 45q-94 56 -125 56q-66 0 -80 -109h-113zM188 0v1411h156v-1411h-156z" />
<glyph unicode="&#x129;" horiz-adv-x="530" d="M-70 1221q9 118 61.5 179.5t131.5 61.5q37 0 70 -13t81 -46q73 -53 117 -53q36 0 53.5 25t24.5 91h109q-7 -123 -60 -187.5t-123 -64.5q-40 0 -69 11.5t-90 46.5q-5 3 -14 8q-72 43 -97 46l-8 1q-33 0 -52 -25t-26 -81h-109zM188 0v1012h150v-1012h-150z" />
<glyph unicode="&#x12a;" horiz-adv-x="550" d="M-33 1583v125h619v-125h-619zM188 0v1411h156v-1411h-156z" />
<glyph unicode="&#x12b;" horiz-adv-x="530" d="M-31 1210v125h598v-125h-598zM188 0v1012h150v-1012h-150z" />
<glyph unicode="&#x12c;" horiz-adv-x="550" d="M-33 1810h117q8 -172 186 -172q182 0 191 172h121q-2 -128 -85 -212.5t-229 -84.5q-142 0 -221.5 81.5t-79.5 215.5zM188 0v1411h156v-1411h-156z" />
<glyph unicode="&#x12d;" horiz-adv-x="530" d="M-35 1462h115q4 -94 51 -138t125 -44q171 0 180 182h119q-2 -132 -80 -218.5t-221 -86.5q-138 0 -213.5 84t-75.5 221zM188 0v1012h150v-1012h-150z" />
<glyph unicode="&#x12e;" horiz-adv-x="550" d="M-23 -287q0 173 220 287v1411h155v-1411h-24q-118 -74 -165.5 -134.5t-47.5 -139.5q0 -59 37.5 -92t105.5 -33q76 0 123 32h8v-102q-76 -43 -170 -43q-104 0 -173 57.5t-69 167.5z" />
<glyph unicode="&#x12f;" horiz-adv-x="530" d="M-10 -276q0 166 203 276v1012h149v-1012h-20q-109 -71 -154 -131t-45 -133q0 -55 36.5 -88t98.5 -33q72 0 125 33h8v-99q-70 -45 -164 -45q-101 0 -169 57.5t-68 162.5zM168 1343q0 50 29.5 77.5t68.5 27.5t70 -27.5t31 -77.5q0 -45 -29.5 -73.5t-71.5 -28.5 q-43 0 -70.5 27t-27.5 75z" />
<glyph unicode="&#x130;" horiz-adv-x="550" d="M164 1655q0 48 28.5 74t67.5 26t68.5 -26t29.5 -74q0 -42 -28 -69t-70 -27q-41 0 -68.5 26.5t-27.5 69.5zM188 0v1411h156v-1411h-156z" />
<glyph unicode="&#x131;" horiz-adv-x="530" d="M170 0v1012h149v-1012h-149z" />
<glyph unicode="&#x132;" horiz-adv-x="1376" d="M176 0v1411h156v-1411h-156zM561 27v149h8q88 -61 205 -61q80 0 128.5 22.5t76.5 73.5q35 64 35 266v934h157v-948q0 -225 -45 -320q-39 -81 -125.5 -126.5t-212.5 -45.5q-131 0 -227 56z" />
<glyph unicode="&#x133;" horiz-adv-x="1060" d="M150 1343q0 50 29.5 77.5t68.5 27.5t69.5 -27.5t30.5 -77.5q0 -45 -29 -73.5t-71 -28.5q-43 0 -70.5 27t-27.5 75zM174 0v1012h150v-1012h-150zM369 -254h8q55 -43 137 -43q80 0 115 41q23 28 31 74.5t8 132.5v1061h147v-1057q0 -117 -12.5 -183.5t-42.5 -105.5 q-35 -44 -93.5 -70t-127.5 -26q-106 0 -170 37v139zM643 1343q0 50 29.5 77.5t68.5 27.5t70 -27.5t31 -77.5q0 -45 -29.5 -73.5t-71.5 -28.5q-43 0 -70.5 27t-27.5 75z" />
<glyph unicode="&#x134;" horiz-adv-x="825" d="M35 27v149h8q88 -61 205 -61q80 0 128.5 22.5t76.5 73.5q34 62 34 266v934h158v-948q0 -225 -45 -320q-39 -81 -125.5 -126.5t-212.5 -45.5q-131 0 -227 56zM209 1536v8l295 266h98l293 -266v-8h-154l-194 143l-182 -143h-156z" />
<glyph unicode="&#x135;" horiz-adv-x="530" d="M-127 -254h8q55 -43 137 -43q80 0 115 41q23 28 31 74.5t8 132.5v1061h147v-1057q0 -117 -12.5 -183.5t-42.5 -105.5q-35 -44 -93.5 -70t-127.5 -26q-106 0 -170 37v139zM-72 1178v8l275 321h86l274 -321v-8h-141l-182 182l-174 -182h-138z" />
<glyph unicode="&#x136;" horiz-adv-x="1290" d="M176 0v1411h156v-698l639 698h205l-512 -539l596 -872h-191l-510 760l-227 -240v-520h-156zM455 -578q64 53 107.5 133.5t43.5 172.5q0 82 -26 141h149q23 -50 23 -129q0 -96 -50 -183t-120 -143h-127v8z" />
<glyph unicode="&#x137;" horiz-adv-x="1036" d="M170 0v1491h147v-940l457 461h205l-389 -373l434 -639h-184l-357 535l-166 -158v-377h-147zM356 -578q64 53 108 134t44 172q0 80 -27 141h150q22 -48 22 -129q0 -96 -50 -183t-120 -143h-127v8z" />
<glyph unicode="&#x138;" horiz-adv-x="1036" d="M170 0v1012h147v-451l457 451h205l-387 -367l432 -645h-184l-357 543l-166 -158v-385h-147z" />
<glyph unicode="&#x139;" horiz-adv-x="1091" d="M113 1536v8l311 266h238v-8l-386 -266h-163zM182 0v1411h156v-1268h674v-143h-830z" />
<glyph unicode="&#x13a;" horiz-adv-x="520" d="M80 1577v8l311 266h238v-8l-385 -266h-164zM182 0v1491h148v-1491h-148z" />
<glyph unicode="&#x13b;" horiz-adv-x="1091" d="M176 0v1411h156v-1268h674v-143h-830zM385 -578q64 53 108 134t44 172q0 80 -27 141h149q23 -50 23 -129q0 -96 -50 -183t-120 -143h-127v8z" />
<glyph unicode="&#x13c;" horiz-adv-x="520" d="M41 -578q64 53 108 134t44 172q0 80 -27 141h149q23 -50 23 -129q0 -96 -50 -183t-120 -143h-127v8zM178 0v1491h148v-1491h-148z" />
<glyph unicode="&#x13d;" horiz-adv-x="1091" d="M143 1536v8l312 266h237v-8l-385 -266h-164zM195 0v1411h155v-1268h674v-143h-829z" />
<glyph unicode="&#x13e;" horiz-adv-x="520" d="M166 0v1491h147v-1491h-147zM381 1040v9q65 54 109.5 132t44.5 169q0 80 -27 141h149q23 -50 23 -129q0 -96 -50.5 -180.5t-121.5 -141.5h-127z" />
<glyph unicode="&#x13f;" horiz-adv-x="1091" d="M176 0v1411h156v-1268h674v-143h-830zM668 657q0 56 33.5 86.5t80.5 30.5q45 0 79 -30t34 -87q0 -50 -33.5 -81t-81.5 -31q-47 0 -79.5 30.5t-32.5 81.5z" />
<glyph unicode="&#x140;" horiz-adv-x="745" d="M170 0v1491h147v-1491h-147zM506 655q0 55 32 84t74 29q43 0 76 -29.5t33 -83.5q0 -49 -31 -78.5t-78 -29.5q-46 0 -76 29t-30 79z" />
<glyph unicode="&#x141;" horiz-adv-x="1091" d="M23 422v149l153 93v747h156v-655l338 205v-150l-338 -205v-463h674v-143h-830v514z" />
<glyph unicode="&#x142;" horiz-adv-x="520" d="M23 489v132l143 84v786h147v-698l162 96v-131l-162 -96v-662h-147v573z" />
<glyph unicode="&#x143;" horiz-adv-x="1486" d="M176 0v1411h160q435 -610 566 -797t218 -321q-8 323 -8 1118h154v-1411h-127q-621 893 -815 1184q6 -299 6 -1184h-154zM557 1536v8l311 266h238v-8l-385 -266h-164z" />
<glyph unicode="&#x144;" horiz-adv-x="1218" d="M166 0v1012h145v-166q48 84 146 137t227 53q137 0 223 -57.5t111 -159.5q20 -74 20 -223v-596h-147v573q0 152 -31 209q-56 113 -215 113q-100 0 -194.5 -53.5t-137.5 -134.5v-707h-147zM449 1182v8l262 330h204v-9l-327 -329h-139z" />
<glyph unicode="&#x145;" horiz-adv-x="1486" d="M176 0v1411h160q435 -610 566 -797t218 -321q-8 323 -8 1118h154v-1411h-127q-621 893 -815 1184q6 -299 6 -1184h-154zM537 -578q64 53 107.5 133.5t43.5 172.5q0 82 -26 141h149q23 -50 23 -129q0 -96 -50 -183t-120 -143h-127v8z" />
<glyph unicode="&#x146;" horiz-adv-x="1218" d="M166 0v1012h145v-166q48 84 146 137t227 53q137 0 223 -57.5t111 -159.5q20 -74 20 -223v-596h-147v573q0 152 -31 209q-56 113 -215 113q-100 0 -194.5 -53.5t-137.5 -134.5v-707h-147zM408 -578q64 53 107.5 133.5t43.5 172.5q0 80 -27 141h150q23 -50 23 -129 q0 -96 -50 -183t-120 -143h-127v8z" />
<glyph unicode="&#x147;" horiz-adv-x="1486" d="M176 0v1411h160q435 -610 566 -797t218 -321q-8 323 -8 1118h154v-1411h-127q-621 893 -815 1184q6 -299 6 -1184h-154zM571 1536v8l312 266h237v-8l-385 -266h-164z" />
<glyph unicode="&#x148;" horiz-adv-x="1218" d="M166 0v1012h145v-166q48 84 146 137t227 53q137 0 223 -57.5t111 -159.5q20 -74 20 -223v-596h-147v573q0 152 -31 209q-56 113 -215 113q-100 0 -194.5 -53.5t-137.5 -134.5v-707h-147zM279 1503v8h139l184 -182l174 182h135v-8l-272 -321h-86z" />
<glyph unicode="&#x149;" horiz-adv-x="1218" d="M10 1122v8q65 54 109.5 132.5t44.5 169.5q0 80 -27 141h150q22 -48 22 -129q0 -96 -50.5 -180.5t-121.5 -141.5h-127zM166 0v1012h145v-166q48 84 146 137t227 53q137 0 223 -57.5t111 -159.5q20 -74 20 -223v-596h-147v573q0 152 -31 209q-56 113 -215 113 q-100 0 -194.5 -53.5t-137.5 -134.5v-707h-147z" />
<glyph unicode="&#x14a;" horiz-adv-x="1486" d="M176 0v1411h160q435 -610 566 -797t218 -321q-8 323 -8 1118h154v-1485q0 -115 -12.5 -181t-43.5 -105q-34 -45 -92.5 -71t-128.5 -26q-104 0 -170 35v141h8q55 -43 138 -43q77 0 112 41q23 26 31 72.5t8 132.5v113q-607 868 -792 1149q6 -297 6 -1184h-154z" />
<glyph unicode="&#x14b;" horiz-adv-x="1218" d="M166 0v1012h145v-166q48 84 146 137t227 53q137 0 223 -57.5t111 -159.5q20 -74 20 -223v-641q0 -117 -12.5 -183.5t-42.5 -105.5q-35 -44 -94 -70t-129 -26q-106 0 -170 37v139h8q58 -43 137 -43q82 0 117 41q23 28 31 74.5t8 132.5v622q0 152 -31 209q-56 113 -215 113 q-100 0 -194.5 -53.5t-137.5 -134.5v-707h-147z" />
<glyph unicode="&#x14c;" horiz-adv-x="1656" d="M106 707q0 153 56.5 289.5t153.5 234t231 154.5t284 57q208 0 372.5 -94.5t255.5 -262t91 -378.5q0 -206 -94 -374.5t-260 -265t-371 -96.5q-203 0 -368 96t-258 264.5t-93 375.5zM264 705q0 -129 44.5 -240t120.5 -188t180.5 -120.5t221.5 -43.5q162 0 291.5 77.5 t201 213t71.5 301.5q0 165 -71 300.5t-201 215t-294 79.5q-158 0 -288 -78t-203.5 -214.5t-73.5 -302.5zM518 1583v125h619v-125h-619z" />
<glyph unicode="&#x14d;" horiz-adv-x="1259" d="M96 506q0 149 71 272t193 192.5t269 69.5q232 0 380 -149.5t148 -384.5q0 -148 -69.5 -270.5t-191.5 -192.5t-271 -70t-270.5 69.5t-190 191.5t-68.5 272zM248 506q0 -172 109 -282.5t272 -110.5q164 0 269.5 113.5t105.5 279.5q0 168 -106 281.5t-271 113.5 q-162 0 -270.5 -113.5t-108.5 -281.5zM332 1210v125h598v-125h-598z" />
<glyph unicode="&#x14e;" horiz-adv-x="1656" d="M106 707q0 153 56.5 289.5t153.5 234t231 154.5t284 57q208 0 372.5 -94.5t255.5 -262t91 -378.5q0 -206 -94 -374.5t-260 -265t-371 -96.5q-203 0 -368 96t-258 264.5t-93 375.5zM264 705q0 -129 44.5 -240t120.5 -188t180.5 -120.5t221.5 -43.5q162 0 291.5 77.5 t201 213t71.5 301.5q0 165 -71 300.5t-201 215t-294 79.5q-158 0 -288 -78t-203.5 -214.5t-73.5 -302.5zM528 1810h117q8 -172 186 -172q182 0 191 172h121q-2 -128 -85 -212.5t-229 -84.5q-142 0 -221.5 81.5t-79.5 215.5z" />
<glyph unicode="&#x14f;" horiz-adv-x="1259" d="M96 506q0 149 71 272t193 192.5t269 69.5q232 0 380 -149.5t148 -384.5q0 -148 -69.5 -270.5t-191.5 -192.5t-271 -70t-270.5 69.5t-190 191.5t-68.5 272zM248 506q0 -172 109 -282.5t272 -110.5q164 0 269.5 113.5t105.5 279.5q0 168 -106 281.5t-271 113.5 q-162 0 -270.5 -113.5t-108.5 -281.5zM328 1462h114q4 -94 51 -138t125 -44q172 0 181 182h119q-2 -132 -80.5 -218.5t-221.5 -86.5q-138 0 -213 84t-75 221z" />
<glyph unicode="&#x150;" horiz-adv-x="1656" d="M106 707q0 153 56.5 289.5t153.5 234t231 154.5t284 57q208 0 372.5 -94.5t255.5 -262t91 -378.5q0 -206 -94 -374.5t-260 -265t-371 -96.5q-203 0 -368 96t-258 264.5t-93 375.5zM264 705q0 -129 44.5 -240t120.5 -188t180.5 -120.5t221.5 -43.5q162 0 291.5 77.5 t201 213t71.5 301.5q0 165 -71 300.5t-201 215t-294 79.5q-158 0 -288 -78t-203.5 -214.5t-73.5 -302.5zM508 1536v8l280 268h203v-8l-350 -268h-133zM844 1536v8l280 268h205v-8l-352 -268h-133z" />
<glyph unicode="&#x151;" horiz-adv-x="1259" d="M96 506q0 149 71 272t193 192.5t269 69.5q232 0 380 -149.5t148 -384.5q0 -148 -69.5 -270.5t-191.5 -192.5t-271 -70t-270.5 69.5t-190 191.5t-68.5 272zM248 506q0 -172 109 -282.5t272 -110.5q164 0 269.5 113.5t105.5 279.5q0 168 -106 281.5t-271 113.5 q-162 0 -270.5 -113.5t-108.5 -281.5zM328 1178v8l233 330h191v-9l-295 -329h-129zM659 1178v8l234 330h190v-9l-295 -329h-129z" />
<glyph unicode="&#x152;" horiz-adv-x="2267" d="M109 702q0 136 39 255t108 207t160.5 151t198.5 95t221 32q163 0 294.5 -58t208.5 -174v201h836v-143h-678v-465h637v-139h-637v-523h711v-141h-869v217q-82 -124 -216.5 -185t-297.5 -61q-115 0 -222 31.5t-196.5 94.5t-156 150t-104 204t-37.5 251zM266 713 q0 -137 44 -250.5t120 -189t179 -117t220 -41.5q177 0 310 80t200 229v567q-63 149 -194 229t-316 80q-158 0 -286.5 -74t-202.5 -208.5t-74 -304.5z" />
<glyph unicode="&#x153;" horiz-adv-x="1992" d="M96 508q0 126 47.5 230t124 168t169 99t186.5 35q148 0 263 -59t173 -184q60 117 176 180t242 63q223 0 340 -124.5t120 -348.5q0 -59 -6 -112h-794q11 -154 116 -249t287 -95q222 0 363 135h8v-152q-66 -57 -171.5 -89t-211.5 -32q-335 0 -471 250q-67 -126 -181 -188 t-255 -62q-98 0 -189.5 33.5t-167.5 97.5t-122 169t-46 235zM248 512q0 -99 32.5 -178t87 -126t119 -71t134.5 -24q74 0 139 24.5t117 72t82 126t30 178.5q0 98 -31 174t-84.5 121.5t-119 68.5t-138.5 23q-70 0 -135 -25.5t-117.5 -72.5t-84 -122.5t-31.5 -168.5zM1139 584 h647v14q0 146 -82 228.5t-234 82.5q-53 0 -107 -20t-102.5 -57.5t-82 -102t-39.5 -145.5z" />
<glyph unicode="&#x154;" horiz-adv-x="1273" d="M176 0v1411h383q226 0 336 -39q107 -38 168 -129t61 -225q0 -148 -75 -244.5t-205 -138.5l-23 -6l393 -629h-182l-368 602q-86 -4 -125 -4h-207v-598h-156zM332 733h217q184 0 274 41q142 62 142 236q0 77 -35.5 135.5t-98.5 87.5q-90 41 -272 41h-227v-541zM453 1536v8 l311 266h237v-8l-385 -266h-163z" />
<glyph unicode="&#x155;" horiz-adv-x="780" d="M166 0v1012h145v-162q21 71 98 130.5t183 59.5q74 0 123 -30v-160h-8q-47 33 -125 33q-102 0 -170.5 -49t-98.5 -134v-700h-147zM303 1182v8l262 330h205v-9l-328 -329h-139z" />
<glyph unicode="&#x156;" horiz-adv-x="1273" d="M176 0v1411h383q226 0 336 -39q107 -38 168 -129t61 -225q0 -148 -75 -244.5t-205 -138.5l-23 -6l393 -629h-182l-368 602q-86 -4 -125 -4h-207v-598h-156zM332 733h217q184 0 274 41q142 62 142 236q0 77 -35.5 135.5t-98.5 87.5q-90 41 -272 41h-227v-541zM430 -578 q64 53 108 134t44 172q0 80 -27 141h150q22 -48 22 -129q0 -96 -50 -183t-120 -143h-127v8z" />
<glyph unicode="&#x157;" horiz-adv-x="780" d="M37 -578q64 53 107.5 133.5t43.5 172.5q0 82 -26 141h149q23 -50 23 -129q0 -96 -50 -183t-120 -143h-127v8zM174 0v1012h145v-162q21 71 98 130.5t183 59.5q74 0 123 -30v-160h-8q-47 33 -125 33q-102 0 -169.5 -49t-98.5 -134v-700h-148z" />
<glyph unicode="&#x158;" horiz-adv-x="1273" d="M176 0v1411h383q226 0 336 -39q107 -38 168 -129t61 -225q0 -148 -75 -244.5t-205 -138.5l-23 -6l393 -629h-182l-368 602q-86 -4 -125 -4h-207v-598h-156zM231 1802v8h154l193 -143l182 143h151v-8l-290 -266h-97zM332 733h217q184 0 274 41q142 62 142 236 q0 77 -35.5 135.5t-98.5 87.5q-90 41 -272 41h-227v-541z" />
<glyph unicode="&#x159;" horiz-adv-x="780" d="M102 1503v8h140l184 -182l174 182h135v-8l-272 -321h-86zM178 0v1012h146v-162q21 72 98 131t182 59q74 0 123 -30v-160h-8q-47 33 -125 33q-102 0 -169.5 -49t-98.5 -134v-700h-148z" />
<glyph unicode="&#x15a;" horiz-adv-x="1165" d="M88 129v182h8q89 -93 219.5 -143.5t262.5 -50.5q348 0 348 250q0 89 -70.5 141.5t-243.5 107.5l-196 64q-305 97 -305 360q0 180 137.5 291t376.5 111q107 0 225.5 -34.5t169.5 -82.5v-172h-8q-73 71 -187 109t-225 38q-93 0 -160 -20.5t-103 -57t-52.5 -77.5t-16.5 -90 q0 -84 57 -142t197 -102l219 -70q178 -58 260 -140t82 -220q0 -84 -28.5 -155.5t-87.5 -129.5t-161 -91.5t-237 -33.5q-134 0 -267 42t-214 116zM412 1536v8l311 266h238v-8l-386 -266h-163z" />
<glyph unicode="&#x15b;" horiz-adv-x="913" d="M92 84v164h8q65 -67 166.5 -102t200.5 -35q128 0 180.5 39t52.5 108q0 62 -42 98.5t-162 69.5l-160 45q-232 66 -232 272q0 134 105.5 215.5t288.5 81.5q83 0 176 -24.5t131 -59.5v-157h-8q-54 50 -143.5 78t-170.5 28q-117 0 -172 -40t-55 -107q0 -58 38 -96t124 -62 l176 -49q134 -38 197 -105t63 -172q0 -131 -97.5 -216t-295.5 -85q-100 0 -206 30t-163 81zM299 1182v8l262 330h205v-9l-328 -329h-139z" />
<glyph unicode="&#x15c;" horiz-adv-x="1165" d="M88 129v182h8q88 -95 218 -144.5t264 -49.5q348 0 348 250q0 89 -71 142.5t-243 106.5l-196 64q-305 95 -305 360q0 180 137.5 291t376.5 111q107 0 225.5 -34.5t169.5 -82.5v-172h-8q-73 71 -187 109t-225 38q-93 0 -160 -20.5t-103 -57t-52.5 -77.5t-16.5 -90 q0 -84 57 -142t197 -102l219 -70q179 -59 260.5 -140.5t81.5 -219.5q0 -84 -28.5 -155.5t-87.5 -129.5t-161 -91.5t-237 -33.5q-136 0 -269 41.5t-212 116.5zM260 1573v8l291 285h94l289 -285v-8h-148l-194 160l-182 -160h-150z" />
<glyph unicode="&#x15d;" horiz-adv-x="913" d="M92 84v164h8q65 -67 166.5 -102t200.5 -35q128 0 180.5 39t52.5 108q0 62 -42 98.5t-162 69.5l-160 45q-232 66 -232 272q0 134 105.5 215.5t288.5 81.5q83 0 176 -24.5t131 -59.5v-157h-8q-54 50 -143.5 78t-170.5 28q-117 0 -172 -40t-55 -107q0 -58 38 -96t124 -62 l176 -49q134 -38 197 -105t63 -172q0 -131 -97.5 -216t-295.5 -85q-100 0 -206 30t-163 81zM168 1178v8l272 321h86l275 -321v-8h-142l-182 182l-174 -182h-135z" />
<glyph unicode="&#x15e;" horiz-adv-x="1165" d="M88 129v182h8q89 -93 219.5 -143.5t262.5 -50.5q348 0 348 250q0 89 -70.5 141.5t-243.5 107.5l-196 64q-305 97 -305 360q0 180 137.5 291t376.5 111q107 0 225.5 -34.5t169.5 -82.5v-172h-8q-73 71 -187 109t-225 38q-93 0 -160 -20.5t-103 -57t-52.5 -77.5t-16.5 -90 q0 -84 57 -142t197 -102l219 -70q178 -58 260 -140t82 -220q0 -82 -27.5 -152t-83.5 -127.5t-153 -92t-225 -38.5l-31 -100h10q92 0 148.5 -50t56.5 -136q0 -99 -68 -154t-186 -55q-43 0 -85.5 11.5t-65.5 29.5v108h8q54 -43 141 -43q125 0 125 101q0 44 -34 71t-97 27 q-45 0 -80 -14l-6 4l59 204q-118 11 -225.5 50.5t-175.5 103.5z" />
<glyph unicode="&#x15f;" horiz-adv-x="913" d="M92 84v164h8q65 -67 166.5 -102t200.5 -35q128 0 180.5 39t52.5 108q0 62 -42 98.5t-162 69.5l-160 45q-232 66 -232 272q0 134 105.5 215.5t288.5 81.5q83 0 176 -24.5t131 -59.5v-157h-8q-54 50 -143.5 78t-170.5 28q-117 0 -172 -40t-55 -107q0 -58 38 -96t124 -62 l176 -49q134 -38 197 -105t63 -172q0 -125 -89 -208.5t-269 -90.5l-31 -100h10q89 0 145 -46t56 -130q0 -99 -67 -154t-183 -55q-41 0 -84 12t-66 29v107h9q27 -21 65.5 -32.5t67.5 -11.5q129 0 129 99q0 42 -33.5 68t-95.5 26q-44 0 -78 -12l-6 4l57 198q-87 8 -169 36 t-130 71z" />
<glyph unicode="&#x160;" horiz-adv-x="1165" d="M88 129v182h8q89 -93 219.5 -143.5t262.5 -50.5q348 0 348 250q0 89 -70.5 141.5t-243.5 107.5l-196 64q-305 97 -305 360q0 180 137.5 291t376.5 111q107 0 225.5 -34.5t169.5 -82.5v-172h-8q-73 71 -187 109t-225 38q-93 0 -160 -20.5t-103 -57t-52.5 -77.5t-16.5 -90 q0 -84 57 -142t197 -102l219 -70q178 -58 260 -140t82 -220q0 -84 -28.5 -155.5t-87.5 -129.5t-161 -91.5t-237 -33.5q-134 0 -267 42t-214 116zM240 1802v8h153l193 -143l182 143h152v-8l-291 -266h-97z" />
<glyph unicode="&#x161;" horiz-adv-x="913" d="M92 84v164h8q65 -67 166.5 -102t200.5 -35q128 0 180.5 39t52.5 108q0 62 -42 98.5t-162 69.5l-160 45q-232 66 -232 272q0 134 105.5 215.5t288.5 81.5q83 0 176 -24.5t131 -59.5v-157h-8q-54 50 -143.5 78t-170.5 28q-117 0 -172 -40t-55 -107q0 -58 38 -96t124 -62 l176 -49q134 -38 197 -105t63 -172q0 -131 -97.5 -216t-295.5 -85q-100 0 -206 30t-163 81zM158 1503v8h139l184 -182l174 182h136v-8l-273 -321h-86z" />
<glyph unicode="&#x162;" horiz-adv-x="1173" d="M39 1268v143h1081v-143h-471v-1268h-31l-40 -129h10q92 0 148.5 -50t56.5 -136q0 -99 -68 -154t-186 -55q-44 0 -86.5 11.5t-65.5 29.5v108h8q54 -43 142 -43q125 0 125 101q0 44 -34.5 71t-97.5 27q-44 0 -79 -14l-7 4l68 229h-18v1268h-455z" />
<glyph unicode="&#x163;" horiz-adv-x="716" d="M49 887v125h162q0 13 8 295h137v-295h277v-125h-277v-555q0 -106 27 -158q12 -25 47.5 -41t81.5 -16q94 0 154 45h8v-135q-65 -50 -199 -50q-7 0 -20 1.5t-19 1.5l-33 -105h11q89 0 144.5 -46t55.5 -130q0 -99 -66.5 -154t-182.5 -55q-41 0 -84 12t-66 29v107h8 q27 -21 65.5 -32.5t67.5 -11.5q129 0 129 99q0 42 -33.5 68t-95.5 26q-42 0 -77 -12l-7 4l68 227q-58 27 -80 66q-51 72 -51 247v568h-160z" />
<glyph unicode="&#x164;" horiz-adv-x="1173" d="M39 1268v143h1081v-143h-471v-1268h-155v1268h-455zM223 1802v8h154l192 -143l183 143h151v-8l-291 -266h-96z" />
<glyph unicode="&#x165;" horiz-adv-x="716" d="M49 887v125h162q0 13 8 295h137v-295h277v-125h-277v-555q0 -106 27 -158q12 -25 47.5 -41t81.5 -16q94 0 154 45h8v-135q-65 -50 -199 -50q-67 0 -126.5 25.5t-88.5 69.5q-51 72 -51 247v568h-160zM432 1116v8q65 54 109.5 132t44.5 169q0 81 -27 142h150 q22 -48 22 -129q0 -96 -50.5 -180.5t-121.5 -141.5h-127z" />
<glyph unicode="&#x166;" horiz-adv-x="1173" d="M39 1268v143h1081v-143h-471v-443h322v-135h-322v-690h-155v690h-312v135h312v443h-455z" />
<glyph unicode="&#x167;" horiz-adv-x="716" d="M49 887v125h162q0 13 8 295h137v-295h277v-125h-277v-230h258v-120h-258v-205q0 -106 27 -158q12 -25 47.5 -41t81.5 -16q94 0 154 45h8v-135q-65 -50 -199 -50q-67 0 -126.5 25.5t-88.5 69.5q-51 72 -51 247v218h-148v120h148v230h-160z" />
<glyph unicode="&#x168;" horiz-adv-x="1488" d="M166 608v803h158v-776q0 -121 11.5 -205t47.5 -151q39 -72 131.5 -118t220.5 -46q235 0 344 159q70 104 70 353v784h149v-799q0 -148 -16.5 -237.5t-56.5 -157.5q-63 -107 -191 -176.5t-301 -69.5q-180 0 -313.5 66t-194.5 190q-59 118 -59 381zM389 1542q9 118 63.5 179 t133.5 61q68 0 162 -62q77 -51 124 -51q36 0 56 26.5t26 90.5h111q-7 -122 -62 -185t-129 -63q-41 0 -74.5 11.5t-92.5 45.5q-94 56 -125 56q-66 0 -80 -109h-113z" />
<glyph unicode="&#x169;" horiz-adv-x="1218" d="M158 432v578h147v-557q0 -157 31 -224q23 -51 79.5 -82.5t143.5 -31.5q99 0 186.5 48t137.5 120v727h147v-1010h-141v141q-117 -168 -363 -168q-143 0 -230 57t-116 160q-22 81 -22 242zM262 1221q9 118 61.5 179.5t131.5 61.5q37 0 70 -13t81 -46q73 -53 117 -53 q36 0 53.5 25t24.5 91h108q-7 -123 -59.5 -187.5t-122.5 -64.5q-40 0 -70 11.5t-90 46.5q-6 4 -18.5 11t-17.5 10t-14.5 8.5t-14 8t-11.5 6t-11.5 5l-10.5 3.5t-10.5 2.5t-9.5 0.5q-33 0 -52 -25t-26 -81h-109z" />
<glyph unicode="&#x16a;" horiz-adv-x="1488" d="M166 608v803h158v-776q0 -121 11.5 -205t47.5 -151q39 -72 131.5 -118t220.5 -46q235 0 344 159q70 104 70 353v784h149v-799q0 -148 -16.5 -237.5t-56.5 -157.5q-63 -107 -191 -176.5t-301 -69.5q-180 0 -313.5 66t-194.5 190q-59 118 -59 381zM434 1583v125h619v-125 h-619z" />
<glyph unicode="&#x16b;" horiz-adv-x="1218" d="M158 432v578h147v-557q0 -157 31 -224q23 -51 79.5 -82.5t143.5 -31.5q99 0 186.5 48t137.5 120v727h147v-1010h-141v141q-117 -168 -363 -168q-143 0 -230 57t-116 160q-22 81 -22 242zM299 1210v125h598v-125h-598z" />
<glyph unicode="&#x16c;" horiz-adv-x="1488" d="M166 608v803h158v-776q0 -121 11.5 -205t47.5 -151q39 -72 131.5 -118t220.5 -46q235 0 344 159q70 104 70 353v784h149v-799q0 -148 -16.5 -237.5t-56.5 -157.5q-63 -107 -191 -176.5t-301 -69.5q-180 0 -313.5 66t-194.5 190q-59 118 -59 381zM434 1810h117 q8 -172 186 -172q182 0 191 172h121q-2 -128 -85 -212.5t-229 -84.5q-142 0 -221.5 81.5t-79.5 215.5z" />
<glyph unicode="&#x16d;" horiz-adv-x="1218" d="M158 432v578h147v-557q0 -157 31 -224q23 -51 79.5 -82.5t143.5 -31.5q99 0 186.5 48t137.5 120v727h147v-1010h-141v141q-117 -168 -363 -168q-143 0 -230 57t-116 160q-22 81 -22 242zM297 1462h115q4 -94 51 -138t125 -44q171 0 180 182h119q-2 -132 -80 -218.5 t-221 -86.5q-138 0 -213.5 84t-75.5 221z" />
<glyph unicode="&#x16e;" horiz-adv-x="1488" d="M166 608v803h158v-776q0 -121 11.5 -205t47.5 -151q39 -72 131.5 -118t220.5 -46q235 0 344 159q70 104 70 353v784h149v-799q0 -148 -16.5 -237.5t-56.5 -157.5q-63 -107 -191 -176.5t-301 -69.5q-180 0 -313.5 66t-194.5 190q-59 118 -59 381zM528 1673q0 88 61 144.5 t152 56.5t148 -56t57 -145q0 -85 -60.5 -142.5t-148.5 -57.5t-148.5 57t-60.5 143zM608 1673q0 -54 35 -91.5t98 -37.5q57 0 91 38t34 93q0 57 -36 92t-93 35q-58 0 -93.5 -36.5t-35.5 -92.5z" />
<glyph unicode="&#x16f;" horiz-adv-x="1218" d="M158 432v578h147v-557q0 -157 31 -224q23 -51 79.5 -82.5t143.5 -31.5q99 0 186.5 48t137.5 120v727h147v-1010h-141v141q-117 -168 -363 -168q-143 0 -230 57t-116 160q-22 81 -22 242zM389 1370q0 90 60.5 147.5t152.5 57.5t149.5 -57t57.5 -148q0 -86 -61 -145.5 t-150 -59.5t-149 58.5t-60 146.5zM467 1370q0 -57 36 -96t99 -39q58 0 93.5 40t35.5 97q0 58 -37.5 95.5t-95.5 37.5q-59 0 -95 -38.5t-36 -96.5z" />
<glyph unicode="&#x170;" horiz-adv-x="1488" d="M166 608v803h158v-776q0 -121 11.5 -205t47.5 -151q39 -72 131.5 -118t220.5 -46q235 0 344 159q70 104 70 353v784h149v-799q0 -148 -16.5 -237.5t-56.5 -157.5q-63 -107 -191 -176.5t-301 -69.5q-180 0 -313.5 66t-194.5 190q-59 118 -59 381zM426 1536v8l281 268h202 v-8l-350 -268h-133zM762 1536v8l280 268h205v-8l-352 -268h-133z" />
<glyph unicode="&#x171;" horiz-adv-x="1218" d="M158 432v578h147v-557q0 -157 31 -224q23 -51 79.5 -82.5t143.5 -31.5q99 0 186.5 48t137.5 120v727h147v-1010h-141v141q-117 -168 -363 -168q-143 0 -230 57t-116 160q-22 81 -22 242zM299 1178v8l233 330h191v-9l-295 -329h-129zM631 1178v8l233 330h191v-9l-295 -329 h-129z" />
<glyph unicode="&#x172;" horiz-adv-x="1488" d="M166 608v803h158v-776q0 -121 11.5 -205t47.5 -151q39 -72 131.5 -118t220.5 -46q235 0 344 159q70 104 70 353v784h149v-799q0 -148 -16.5 -237.5t-56.5 -157.5q-56 -92 -160.5 -158t-245.5 -82q-99 -66 -138.5 -122t-39.5 -129q0 -59 37.5 -92t105.5 -33q76 0 123 32h8 v-102q-76 -43 -170 -43q-104 0 -172.5 57.5t-68.5 167.5q0 157 170 260q-159 11 -277 76t-172 178q-59 118 -59 381z" />
<glyph unicode="&#x173;" horiz-adv-x="1218" d="M158 432v578h147v-557q0 -157 31 -224q23 -51 79.5 -82.5t143.5 -31.5q99 0 186.5 48t137.5 120v727h147v-1010h-24q-109 -71 -154 -131t-45 -133q0 -55 36.5 -88t98.5 -33q72 0 125 33h8v-99q-70 -45 -164 -45q-101 0 -169 57.5t-68 162.5q0 169 215 282v135 q-117 -168 -363 -168q-143 0 -230 57t-116 160q-22 81 -22 242z" />
<glyph unicode="&#x174;" horiz-adv-x="1976" d="M31 1411h172q263 -935 319 -1167q74 265 375 1167h139q311 -956 371 -1167q76 308 324 1167h170l-424 -1411h-144q-311 969 -372 1186q-57 -194 -379 -1186h-144zM604 1536v8l295 266h98l293 -266v-8h-153l-195 143l-182 -143h-156z" />
<glyph unicode="&#x175;" horiz-adv-x="1581" d="M33 1012h162q185 -583 241 -793q70 224 279 793h123q254 -693 286 -795q77 279 236 795h156l-332 -1012h-119q-263 718 -293 813q-37 -127 -285 -813h-122zM449 1178v8l272 321h86l274 -321v-8h-141l-182 182l-174 -182h-135z" />
<glyph unicode="&#x176;" horiz-adv-x="1288" d="M6 1411h189q343 -540 430 -696q133 222 440 696h186l-551 -842v-569h-157v569zM266 1536v8l295 266h98l293 -266v-8h-153l-195 143l-182 -143h-156z" />
<glyph unicode="&#x177;" horiz-adv-x="1040" d="M12 1012h168q232 -552 340 -842q69 196 322 842h162l-424 -1047q-84 -209 -129 -274q-86 -129 -252 -129q-103 0 -164 37v139h8q48 -39 147 -39q96 0 150 78q37 54 72 155l28 74zM190 1178v8l273 321h86l274 -321v-8h-141l-182 182l-174 -182h-136z" />
<glyph unicode="&#x178;" horiz-adv-x="1288" d="M6 1411h189q343 -540 430 -696q133 222 440 696h186l-551 -842v-569h-157v569zM330 1655q0 48 28.5 74t67.5 26t68.5 -26t29.5 -74q0 -42 -28 -69t-70 -27q-41 0 -68.5 26.5t-27.5 69.5zM696 1655q0 48 29.5 74t69.5 26q38 0 67 -26t29 -74q0 -42 -28 -69t-70 -27 q-41 0 -69 26.5t-28 69.5z" />
<glyph unicode="&#x179;" horiz-adv-x="1263" d="M43 0v90q303 382 530 669.5t296 375t106 133.5h-862v143h1079v-100q-707 -901 -924 -1170h926v-141h-1151zM483 1536v8l312 266h237v-8l-385 -266h-164z" />
<glyph unicode="&#x17a;" horiz-adv-x="999" d="M53 0v94q262 318 654 785h-607v133h801v-103q-481 -585 -655 -778h665v-131h-858zM356 1182v8l262 330h205v-9l-327 -329h-140z" />
<glyph unicode="&#x17b;" horiz-adv-x="1263" d="M43 0v90q303 382 530 669.5t296 375t106 133.5h-862v143h1079v-100q-707 -901 -924 -1170h926v-141h-1151zM557 1655q0 48 28.5 74t67.5 26t69 -26t30 -74q0 -42 -28.5 -69t-70.5 -27q-41 0 -68.5 26.5t-27.5 69.5z" />
<glyph unicode="&#x17c;" horiz-adv-x="999" d="M53 0v94q262 318 654 785h-607v133h801v-103q-481 -585 -655 -778h665v-131h-858zM399 1343q0 47 30 74t69 27q37 0 66.5 -26.5t29.5 -74.5q0 -44 -27 -70t-69 -26t-70.5 26.5t-28.5 69.5z" />
<glyph unicode="&#x17d;" horiz-adv-x="1263" d="M43 0v90q303 382 530 669.5t296 375t106 133.5h-862v143h1079v-100q-707 -901 -924 -1170h926v-141h-1151zM303 1802v8h154l192 -143l182 143h152v-8l-291 -266h-96z" />
<glyph unicode="&#x17e;" horiz-adv-x="999" d="M53 0v94q262 318 654 785h-607v133h801v-103q-481 -585 -655 -778h665v-131h-858zM166 1503v8h139l184 -182l175 182h135v-8l-273 -321h-86z" />
<glyph unicode="&#x17f;" horiz-adv-x="532" d="M166 0v1133q0 111 21 176.5t65 109.5q94 97 252 97q99 0 155 -37v-136h-8q-55 39 -149 39q-102 0 -150 -63q-41 -53 -41 -191v-1128h-145z" />
<glyph unicode="&#x192;" horiz-adv-x="993" d="M4 -94h8q21 -19 61 -32t70 -13q109 0 144 67q24 49 30 129l64 693h-188v116h196l19 191q18 164 88 239q86 95 237 95q56 0 106.5 -14t75.5 -36v-145h-8q-63 55 -162 55q-82 0 -124 -45q-49 -49 -60 -168l-16 -172h235v-116h-245l-66 -717q-11 -117 -43 -178 q-73 -134 -264 -134q-45 0 -89.5 11.5t-68.5 29.5v144z" />
<glyph unicode="&#x1fa;" horiz-adv-x="1329" d="M8 0l559 1366q-44 24 -69 65.5t-25 94.5q0 79 53 130.5t133 51.5q83 0 134 -51t51 -131q0 -51 -26 -93.5t-70 -66.5l548 -1366h-172l-166 428h-614l-170 -428h-166zM397 565h508q-179 455 -250 654q-52 -141 -258 -654zM549 1526q0 -49 29.5 -81t83.5 -32q51 0 79.5 33 t28.5 82q0 50 -31.5 80t-83.5 30q-47 0 -76.5 -31t-29.5 -81zM549 1761v8l270 242h213v-8l-350 -242h-133z" />
<glyph unicode="&#x1fb;" horiz-adv-x="1103" d="M92 281q0 100 52.5 166.5t138.5 99.5q72 29 150 39t188 10q81 0 151 -12v63q0 113 -41 168q-57 82 -209 82q-84 0 -184 -32t-164 -99h-8v149q72 62 176 93.5t207 31.5q201 0 287 -96q45 -45 65.5 -112.5t20.5 -180.5q0 -37 -1 -164.5t-1 -171.5q0 -112 12 -147 q19 -47 78 -47q45 0 82 16v-127q-44 -24 -115 -24q-76 0 -124 35.5t-60 103.5q-109 -152 -334 -152q-165 0 -266 86.5t-101 221.5zM246 285q0 -78 63.5 -127t175.5 -49q92 0 167.5 37t121.5 104q-2 39 -2 211q-79 14 -162 14q-152 0 -235 -29q-129 -42 -129 -161zM332 1370 q0 90 60.5 147.5t152.5 57.5t149.5 -57t57.5 -148q0 -86 -61 -145.5t-150 -59.5t-149 58.5t-60 146.5zM410 1370q0 -57 36 -96t99 -39q58 0 93.5 40t35.5 97q0 58 -37 95.5t-96 37.5t-95 -38.5t-36 -96.5zM424 1649v8l258 309h207v-8l-326 -309h-139z" />
<glyph unicode="&#x1fc;" horiz-adv-x="1990" d="M0 0l940 1411h909v-143h-680v-465h639v-139h-639v-523h713v-141h-868v440h-531l-295 -440h-188zM559 578h455v696q-87 -142 -455 -696zM1171 1536v8l312 266h237v-8l-385 -266h-164z" />
<glyph unicode="&#x1fd;" horiz-adv-x="1789" d="M96 283q0 96 49 163t134 101q69 28 149.5 37.5t198.5 9.5q85 0 159 -12v71q0 107 -38 162q-54 82 -216 82q-83 0 -183.5 -33t-166.5 -96h-8v143q76 63 178 96t205 33q270 0 338 -188q60 89 163.5 138.5t215.5 49.5q221 0 338.5 -124t120.5 -349q0 -60 -7 -106h-796 q6 -156 116 -253t287 -97q217 0 365 139h8v-150q-61 -58 -170 -92.5t-217 -34.5q-143 0 -254 49.5t-180 139.5q-165 -189 -424 -189q-164 0 -264.5 87t-100.5 223zM252 289q0 -80 61 -130t172 -50q95 0 192.5 45.5t147.5 111.5q-30 67 -37 195q-67 12 -170 12 q-162 0 -249 -31q-117 -43 -117 -153zM772 1182v8l262 330h205v-9l-328 -329h-139zM930 588h651v14q0 144 -81 225.5t-234 81.5q-77 0 -148 -33t-125 -108t-63 -180z" />
<glyph unicode="&#x1fe;" horiz-adv-x="1656" d="M106 707q0 153 56.5 289.5t153.5 234t231 154.5t284 57q188 0 345 -80l100 154h133l-139 -213q132 -100 206 -254t74 -342q0 -206 -94 -374.5t-260 -265t-371 -96.5q-195 0 -356 90l-94 -145h-129l131 205q-128 101 -199.5 253t-71.5 333zM264 705q0 -141 51.5 -258 t143.5 -197l637 985q-124 65 -267 65q-158 0 -288 -78t-203.5 -214.5t-73.5 -302.5zM549 184q124 -71 282 -71q162 0 291.5 77.5t201 213t71.5 301.5q0 141 -54.5 264t-152.5 205zM676 1536v8l311 266h238v-8l-385 -266h-164z" />
<glyph unicode="&#x1ff;" horiz-adv-x="1259" d="M96 506q0 149 71 272t193 192.5t269 69.5q127 0 243 -53l86 133h115l-119 -184q96 -71 149.5 -182.5t53.5 -247.5q0 -148 -69.5 -270.5t-191.5 -192.5t-271 -70q-132 0 -252 60l-84 -133h-115l119 184q-93 73 -145 182.5t-52 239.5zM248 506q0 -186 123 -299l422 657 q-79 37 -166 37q-162 0 -270.5 -113.5t-108.5 -281.5zM451 154q80 -41 178 -41q164 0 269.5 113.5t105.5 279.5q0 92 -34 171.5t-96 133.5zM485 1182v8l263 330h204v-9l-327 -329h-140z" />
<glyph unicode="&#x218;" horiz-adv-x="1165" d="M88 129v182h8q89 -93 219.5 -143.5t262.5 -50.5q348 0 348 250q0 89 -70.5 141.5t-243.5 107.5l-196 64q-305 97 -305 360q0 180 137.5 291t376.5 111q107 0 225.5 -34.5t169.5 -82.5v-172h-8q-73 71 -187 109t-225 38q-93 0 -160 -20.5t-103 -57t-52.5 -77.5t-16.5 -90 q0 -84 57 -142t197 -102l219 -70q178 -58 260 -140t82 -220q0 -84 -28.5 -155.5t-87.5 -129.5t-161 -91.5t-237 -33.5q-134 0 -267 42t-214 116zM346 -578q64 53 108 134t44 172q0 80 -27 141h150q22 -48 22 -129q0 -96 -50 -183t-120 -143h-127v8z" />
<glyph unicode="&#x219;" horiz-adv-x="913" d="M92 84v164h8q65 -67 166.5 -102t200.5 -35q128 0 180.5 39t52.5 108q0 62 -42 98.5t-162 69.5l-160 45q-232 66 -232 272q0 134 105.5 215.5t288.5 81.5q83 0 176 -24.5t131 -59.5v-157h-8q-54 50 -143.5 78t-170.5 28q-117 0 -172 -40t-55 -107q0 -58 38 -96t124 -62 l176 -49q134 -38 197 -105t63 -172q0 -131 -97.5 -216t-295.5 -85q-100 0 -206 30t-163 81zM246 -578q64 53 107.5 133.5t43.5 172.5q0 82 -26 141h149q23 -50 23 -129q0 -96 -50 -183t-120 -143h-127v8z" />
<glyph unicode="&#x21a;" horiz-adv-x="1173" d="M39 1268v143h1081v-143h-471v-1268h-155v1268h-455zM360 -578q64 53 108 134t44 172q0 80 -27 141h150q22 -48 22 -129q0 -96 -50 -183t-120 -143h-127v8z" />
<glyph unicode="&#x21b;" horiz-adv-x="716" d="M49 887v125h162q0 13 8 295h137v-295h277v-125h-277v-555q0 -106 27 -158q12 -25 47.5 -41t81.5 -16q94 0 154 45h8v-135q-65 -50 -199 -50q-67 0 -126.5 25.5t-88.5 69.5q-51 72 -51 247v568h-160zM174 -578q64 53 108 134t44 172q0 80 -27 141h150q22 -48 22 -129 q0 -96 -50 -183t-120 -143h-127v8z" />
<glyph unicode="&#x2c6;" horiz-adv-x="430" d="M-111 1178v8l273 321h86l274 -321v-8h-141l-182 182l-174 -182h-136z" />
<glyph unicode="&#x2c7;" horiz-adv-x="430" d="M-111 1503v8h140l184 -182l174 182h135v-8l-272 -321h-86z" />
<glyph unicode="&#x2d8;" horiz-adv-x="430" d="M-84 1462h115q4 -94 51 -138t125 -44q171 0 180 182h119q-2 -132 -80 -218.5t-221 -86.5q-138 0 -213.5 84t-75.5 221z" />
<glyph unicode="&#x2d9;" horiz-adv-x="430" d="M102 1343q0 47 30 74t69 27q37 0 66.5 -26.5t29.5 -74.5q0 -44 -27 -70t-69 -26t-70.5 26.5t-28.5 69.5z" />
<glyph unicode="&#x2da;" horiz-adv-x="430" d="M4 1370q0 90 60.5 147.5t152.5 57.5t149.5 -57t57.5 -148q0 -86 -61 -145.5t-150 -59.5t-149 58.5t-60 146.5zM82 1370q0 -57 36 -96t99 -39q58 0 93.5 40t35.5 97q0 58 -37 95.5t-96 37.5t-95 -38.5t-36 -96.5z" />
<glyph unicode="&#x2db;" horiz-adv-x="430" d="M6 -276q0 187 260 305h119q-137 -82 -191.5 -148t-54.5 -145q0 -55 36.5 -88t98.5 -33q72 0 125 33h9v-99q-70 -45 -164 -45q-101 0 -169.5 57.5t-68.5 162.5z" />
<glyph unicode="&#x2dc;" horiz-adv-x="430" d="M-121 1221q9 118 61.5 179.5t131.5 61.5q37 0 70 -13t81 -46q73 -53 117 -53q36 0 53.5 25t24.5 91h108q-7 -123 -59.5 -187.5t-122.5 -64.5q-40 0 -70 11.5t-90 46.5q-6 4 -18.5 11t-17.5 10t-14.5 8.5t-14 8t-11.5 6t-11.5 5l-10.5 3.5t-10.5 2.5t-9.5 0.5 q-33 0 -52 -25t-26 -81h-109z" />
<glyph unicode="&#x2dd;" horiz-adv-x="430" d="M-195 1178v8l234 330h190v-9l-295 -329h-129zM137 1178v8l234 330h190v-9l-295 -329h-129z" />
<glyph unicode="&#x394;" horiz-adv-x="1398" d="M10 0l613 1411h139l600 -1411h-1352zM221 135h928q-381 889 -461 1116q-66 -189 -467 -1116z" />
<glyph unicode="&#x3a9;" horiz-adv-x="1509" d="M106 0v133h406q-195 80 -298 241t-103 388q0 149 49.5 274.5t135 210t203 131.5t251.5 47q133 0 247.5 -47t196 -130.5t128 -205.5t46.5 -266q0 -457 -399 -643h405v-133h-522v211q172 69 265 205.5t93 333.5q0 118 -38 219t-102 169t-148.5 106t-178.5 38 q-129 0 -236.5 -65t-172 -188.5t-64.5 -283.5q0 -194 92 -332t269 -202v-211h-525z" />
<glyph unicode="&#x3bc;" horiz-adv-x="1210" d="M158 -432v1442h147v-561q0 -156 33 -220q62 -108 221 -108q103 0 190 47t134 129v713h147v-1010h-141v156q-106 -179 -340 -179q-78 0 -144 26.5t-98 76.5v-512h-149z" />
<glyph unicode="&#x3c0;" horiz-adv-x="1208" d="M109 885v125h1007v-125h-137v-508q0 -229 47 -377h-143q-41 136 -41 373v512h-461v-885h-135v885h-137z" />
<glyph unicode="&#x1e80;" horiz-adv-x="1976" d="M31 1411h172q263 -935 319 -1167q74 265 375 1167h139q311 -956 371 -1167q76 308 324 1167h170l-424 -1411h-144q-311 969 -372 1186q-57 -194 -379 -1186h-144zM559 1802v8h238l313 -266v-8h-164z" />
<glyph unicode="&#x1e81;" horiz-adv-x="1581" d="M33 1012h162q185 -583 241 -793q70 224 279 793h123q254 -693 286 -795q77 279 236 795h156l-332 -1012h-119q-263 718 -293 813q-37 -127 -285 -813h-122zM424 1511v9h213l264 -330v-8h-141z" />
<glyph unicode="&#x1e82;" horiz-adv-x="1976" d="M31 1411h172q263 -935 319 -1167q74 265 375 1167h139q311 -956 371 -1167q76 308 324 1167h170l-424 -1411h-144q-311 969 -372 1186q-57 -194 -379 -1186h-144zM799 1536v8l311 266h238v-8l-385 -266h-164z" />
<glyph unicode="&#x1e83;" horiz-adv-x="1581" d="M33 1012h162q185 -583 241 -793q70 224 279 793h123q254 -693 286 -795q77 279 236 795h156l-332 -1012h-119q-263 718 -293 813q-37 -127 -285 -813h-122zM631 1182v8l262 330h205v-9l-328 -329h-139z" />
<glyph unicode="&#x1e84;" horiz-adv-x="1976" d="M31 1411h172q263 -935 319 -1167q74 265 375 1167h139q311 -956 371 -1167q76 308 324 1167h170l-424 -1411h-144q-311 969 -372 1186q-57 -194 -379 -1186h-144zM662 1655q0 48 28.5 74t67.5 26t68.5 -26t29.5 -74q0 -42 -28 -69t-70 -27q-41 0 -68.5 26.5t-27.5 69.5z M1028 1655q0 48 29 74t69 26q38 0 67.5 -26.5t29.5 -73.5q0 -42 -28.5 -69t-70.5 -27q-41 0 -68.5 26.5t-27.5 69.5z" />
<glyph unicode="&#x1e85;" horiz-adv-x="1581" d="M33 1012h162q185 -583 241 -793q70 224 279 793h123q254 -693 286 -795q77 279 236 795h156l-332 -1012h-119q-263 718 -293 813q-37 -127 -285 -813h-122zM489 1343q0 47 30 74t69 27q37 0 66.5 -26.5t29.5 -74.5q0 -44 -27 -70t-69 -26t-70.5 26.5t-28.5 69.5z M844 1343q0 47 29 74t67 27q39 0 68.5 -26.5t29.5 -74.5q0 -43 -28 -69.5t-70 -26.5q-41 0 -68.5 26.5t-27.5 69.5z" />
<glyph unicode="&#x1ef2;" horiz-adv-x="1288" d="M6 1411h189q343 -540 430 -696q133 222 440 696h186l-551 -842v-569h-157v569zM219 1802v8h238l313 -266v-8h-164z" />
<glyph unicode="&#x1ef3;" horiz-adv-x="1040" d="M12 1012h168q232 -552 340 -842q69 196 322 842h162l-424 -1047q-84 -209 -129 -274q-86 -129 -252 -129q-103 0 -164 37v139h8q48 -39 147 -39q96 0 150 78q37 54 72 155l28 74zM131 1511v9h213l264 -330v-8h-141z" />
<glyph unicode="&#x2000;" horiz-adv-x="1005" />
<glyph unicode="&#x2001;" horiz-adv-x="2011" />
<glyph unicode="&#x2002;" horiz-adv-x="1005" />
<glyph unicode="&#x2003;" horiz-adv-x="2011" />
<glyph unicode="&#x2004;" horiz-adv-x="670" />
<glyph unicode="&#x2005;" horiz-adv-x="502" />
<glyph unicode="&#x2006;" horiz-adv-x="335" />
<glyph unicode="&#x2007;" horiz-adv-x="335" />
<glyph unicode="&#x2008;" horiz-adv-x="251" />
<glyph unicode="&#x2009;" horiz-adv-x="402" />
<glyph unicode="&#x200a;" horiz-adv-x="111" />
<glyph unicode="&#x2010;" horiz-adv-x="657" d="M80 489v138h493v-138h-493z" />
<glyph unicode="&#x2011;" horiz-adv-x="657" d="M80 489v138h493v-138h-493z" />
<glyph unicode="&#x2012;" horiz-adv-x="657" d="M80 489v138h493v-138h-493z" />
<glyph unicode="&#x2013;" horiz-adv-x="1093" d="M80 492v124h938v-124h-938z" />
<glyph unicode="&#x2014;" horiz-adv-x="1712" d="M80 492v124h1550v-124h-1550z" />
<glyph unicode="&#x2018;" horiz-adv-x="382" d="M41 1087q0 118 57 220.5t140 165.5h127v-9q-72 -62 -120 -157t-48 -203q0 -99 30 -166h-159q-27 62 -27 149z" />
<glyph unicode="&#x2019;" horiz-adv-x="382" d="M-18 938v8q72 61 120 156t48 205q0 95 -31 166h160q26 -59 26 -150q0 -120 -56.5 -222t-139.5 -163h-127z" />
<glyph unicode="&#x201a;" horiz-adv-x="380" d="M-18 -285q72 62 120 157.5t48 205.5q0 95 -31 166h160q26 -62 26 -152q0 -118 -56.5 -220t-139.5 -165h-127v8z" />
<glyph unicode="&#x201c;" horiz-adv-x="749" d="M41 1087q0 118 57 220.5t140 165.5h127v-9q-72 -62 -120 -157t-48 -203q0 -99 30 -166h-159q-27 62 -27 149zM381 1087q0 117 57.5 219.5t139.5 166.5h129v-9q-74 -62 -122 -156.5t-48 -203.5q0 -99 30 -166h-159q-27 61 -27 149z" />
<glyph unicode="&#x201d;" horiz-adv-x="749" d="M-18 938v8q72 61 120 156t48 205q0 95 -31 166h160q26 -59 26 -150q0 -120 -56.5 -222t-139.5 -163h-127zM322 938v8q73 60 121.5 155.5t48.5 205.5q0 95 -31 166h160q24 -55 24 -150q0 -119 -56.5 -221.5t-137.5 -163.5h-129z" />
<glyph unicode="&#x201e;" horiz-adv-x="749" d="M-18 -285q72 62 120 157.5t48 205.5q0 95 -31 166h160q26 -62 26 -152q0 -118 -56.5 -220t-139.5 -165h-127v8zM322 -285q73 62 121.5 157.5t48.5 205.5q0 95 -31 166h160q24 -57 24 -152q0 -118 -56.5 -220t-137.5 -165h-129v8z" />
<glyph unicode="&#x2020;" horiz-adv-x="964" d="M45 909v121h367v440h133v-442h366v-119h-366v-1091h-133v1091h-367z" />
<glyph unicode="&#x2021;" horiz-adv-x="956" d="M45 283v125h363v507h-363v123h363v432h137v-434h360v-121h-360v-507h360v-125h-360v-465h-137v465h-363z" />
<glyph unicode="&#x2022;" horiz-adv-x="714" d="M100 520q0 119 73 181.5t167 62.5q43 0 84 -14.5t76 -42.5t56.5 -76.5t21.5 -110.5q0 -104 -68.5 -170.5t-169.5 -66.5t-170.5 65t-69.5 172z" />
<glyph unicode="&#x2026;" horiz-adv-x="1800" d="M182 90q0 56 34.5 86.5t80.5 30.5q44 0 78.5 -30.5t34.5 -86.5q0 -50 -32.5 -81.5t-80.5 -31.5q-49 0 -82 31t-33 82zM766 90q0 56 34.5 86.5t80.5 30.5q44 0 78 -30.5t34 -86.5q0 -50 -32 -81.5t-80 -31.5q-49 0 -82 31t-33 82zM1348 90q0 56 34 86.5t80 30.5 t80.5 -30.5t34.5 -86.5q0 -50 -33.5 -81.5t-81.5 -31.5q-49 0 -81.5 31t-32.5 82z" />
<glyph unicode="&#x202f;" horiz-adv-x="402" />
<glyph unicode="&#x2030;" horiz-adv-x="2545" d="M68 938q0 203 95.5 322.5t244.5 119.5q155 0 244 -117t89 -321q0 -205 -92 -323.5t-246 -118.5q-153 0 -244 117.5t-91 320.5zM193 940q0 -157 58 -244.5t155 -87.5q99 0 154.5 86.5t55.5 245.5t-55.5 246.5t-152.5 87.5q-98 0 -156.5 -88t-58.5 -246zM479 -25l690 1422 h105l-688 -1422h-107zM1006 420q0 203 94.5 322.5t245.5 119.5q155 0 243 -117t88 -321q0 -205 -91.5 -323.5t-244.5 -118.5q-154 0 -244.5 117.5t-90.5 320.5zM1130 422q0 -157 57 -244.5t154 -87.5q99 0 156 87t57 245t-56.5 246t-154.5 88t-155.5 -88t-57.5 -246z M1792 420q0 203 94.5 322.5t243.5 119.5q155 0 244.5 -117t89.5 -321q0 -205 -92 -323.5t-246 -118.5q-153 0 -243.5 117.5t-90.5 320.5zM1915 422q0 -157 58 -244.5t155 -87.5q99 0 156 87t57 245t-56.5 246t-154.5 88t-156.5 -88t-58.5 -246z" />
<glyph unicode="&#x2039;" horiz-adv-x="587" d="M47 516l283 377h159l-278 -377l281 -377h-160z" />
<glyph unicode="&#x203a;" horiz-adv-x="587" d="M61 893h160l285 -377l-283 -377h-160l279 377z" />
<glyph unicode="&#x2044;" horiz-adv-x="182" d="M-315 -25l690 1422h104l-688 -1422h-106z" />
<glyph unicode="&#x205f;" horiz-adv-x="502" />
<glyph unicode="&#x2070;" d="M68 1239q0 203 95.5 322.5t244.5 119.5q155 0 244 -117t89 -321q0 -205 -92 -323.5t-246 -118.5q-153 0 -244 117.5t-91 320.5zM193 1241q0 -157 58 -244.5t155 -87.5q99 0 154.5 86.5t55.5 245.5t-55.5 246.5t-152.5 87.5q-98 0 -156.5 -88.5t-58.5 -245.5z" />
<glyph unicode="&#x2074;" d="M47 1034v76l442 571h101v-546h145v-101h-145v-215h-119v215h-424zM180 1135h291q0 20 6 383q-64 -95 -297 -383z" />
<glyph unicode="&#x2075;" d="M92 872v125h8q106 -88 244 -88q103 0 157 48.5t54 134.5q0 159 -203 159q-121 0 -215 -67h-8l51 479h459v-107h-367l-26 -239q25 17 72 27t90 10q125 0 200.5 -64t75.5 -192q0 -144 -96 -219.5t-244 -75.5q-150 0 -252 69z" />
<glyph unicode="&#x2076;" d="M74 1208q0 126 33.5 220.5t90.5 148t124.5 79t144.5 25.5q136 0 203 -53v-125h-8q-69 72 -191 72q-132 0 -201.5 -90t-74.5 -250q29 60 90.5 96.5t144.5 36.5q123 0 201 -68.5t78 -201.5q0 -138 -86 -217.5t-217 -79.5q-49 0 -94 11.5t-89 41t-76.5 74t-52.5 116.5 t-20 164zM207 1112q0 -42 14 -82q18 -54 65.5 -88.5t112.5 -34.5q79 0 132 47t53 138q0 89 -49 134.5t-129 45.5q-77 0 -131 -46t-68 -114z" />
<glyph unicode="&#x2077;" d="M78 1556v107h604v-78q-175 -364 -338 -766h-127q111 275 338 737h-477z" />
<glyph unicode="&#x2078;" d="M66 1042q0 146 170 205q-64 25 -100 77.5t-36 123.5q0 102 81.5 167.5t203.5 65.5q128 0 205.5 -61.5t77.5 -169.5q0 -67 -38.5 -115.5t-107.5 -72.5q82 -22 128 -76.5t46 -132.5q0 -113 -86.5 -182.5t-228.5 -69.5q-139 0 -227 63t-88 178zM188 1053q0 -69 57.5 -108.5 t137.5 -39.5q82 0 137 40.5t55 109.5q0 134 -202 147q-83 -8 -134 -46t-51 -103zM215 1444q0 -66 49 -103t123 -45q73 8 117.5 45.5t44.5 102.5q0 61 -45 98t-123 37q-73 0 -119.5 -38.5t-46.5 -96.5z" />
<glyph unicode="&#x2079;" d="M57 1386q0 133 92.5 214t223.5 81q50 0 94 -11t86.5 -40t72 -73.5t48 -116.5t18.5 -164q0 -128 -30 -222.5t-84.5 -148.5t-121 -79t-147.5 -25q-66 0 -128 15.5t-99 43.5v119h8q78 -70 215 -70q256 0 266 324q-27 -53 -89.5 -86t-141.5 -33q-121 0 -202 70t-81 202z M180 1391q0 -86 51 -133.5t131 -47.5q77 0 128 41t71 109q0 54 -18 106q-21 49 -65.5 79t-106.5 30q-77 0 -134 -47t-57 -137z" />
<glyph unicode="&#x207d;" horiz-adv-x="507" d="M57 1178q0 386 326 581h104v-8q-319 -212 -319 -573q0 -330 319 -566v-8h-102q-49 30 -93.5 67t-88.5 90t-75.5 113.5t-51 139t-19.5 164.5z" />
<glyph unicode="&#x207e;" horiz-adv-x="507" d="M-2 604v8q321 209 321 574q0 330 -321 565v8h104q63 -38 117 -88.5t104 -120.5t78.5 -164t28.5 -200q0 -388 -328 -582h-104z" />
<glyph unicode="&#x2080;" d="M68 160q0 203 95.5 322.5t244.5 119.5q155 0 244 -117t89 -321q0 -205 -92 -324t-246 -119q-153 0 -244 118t-91 321zM193 162q0 -157 58 -244.5t155 -87.5q99 0 154.5 86.5t55.5 245.5t-55.5 246.5t-152.5 87.5q-98 0 -156.5 -88.5t-58.5 -245.5z" />
<glyph unicode="&#x2081;" d="M158 362v113l217 119h92v-854h-123v721z" />
<glyph unicode="&#x2082;" d="M63 -190q214 172 334 292q121 121 121 236q0 68 -44 112t-128 44q-147 0 -252 -123h-8v121q49 51 123 80.5t149 29.5q138 0 212.5 -67.5t74.5 -182.5q0 -140 -127 -274q-36 -40 -121 -114t-147 -120q129 2 440 2v-106h-627v70z" />
<glyph unicode="&#x2083;" d="M96 -78h8q45 -45 108.5 -68.5t129.5 -23.5q107 0 152 44t45 108q0 42 -27.5 76.5t-79.5 47.5q-50 15 -135 15h-37v102h41q91 0 143 27q68 36 68 117q0 57 -40.5 92t-119.5 35q-58 0 -123.5 -26t-107.5 -77h-8v119q43 40 113.5 66t140.5 26q133 0 202.5 -60.5t69.5 -166.5 q0 -67 -43 -119.5t-117 -75.5q88 -15 138.5 -66.5t50.5 -131.5q0 -121 -88.5 -191t-235.5 -70q-65 0 -133 18.5t-115 53.5v129z" />
<glyph unicode="&#x2084;" d="M47 31l442 571h101v-547h145v-100h-145v-215h-119v215h-424v76zM180 55h291q0 20 6 383q-64 -95 -297 -383z" />
<glyph unicode="&#x2085;" d="M92 -82h8q106 -88 244 -88q103 0 157 48t54 134q0 160 -203 160q-119 0 -215 -68h-8l51 480h459v-107h-367l-26 -239q25 16 71.5 26t90.5 10q125 0 200.5 -64t75.5 -192q0 -144 -96 -219t-244 -75q-150 0 -252 69v125z" />
<glyph unicode="&#x2086;" d="M74 129q0 126 33.5 220.5t90.5 148t124.5 79t144.5 25.5q136 0 203 -53v-125h-8q-69 72 -191 72q-132 0 -201.5 -90t-74.5 -250q29 60 90.5 96.5t144.5 36.5q123 0 201 -69t78 -202q0 -138 -86 -217.5t-217 -79.5q-49 0 -94 11.5t-89 41t-76.5 74.5t-52.5 117t-20 164z M207 33q0 -42 14 -82q18 -54 65.5 -88.5t112.5 -34.5q80 0 132.5 46.5t52.5 137.5q0 89 -49 135t-129 46q-77 0 -131 -46t-68 -114z" />
<glyph unicode="&#x2087;" d="M78 477v107h604v-78q-175 -364 -338 -766h-127q111 275 338 737h-477z" />
<glyph unicode="&#x2088;" d="M66 -37q0 146 170 205q-64 25 -100 77.5t-36 123.5q0 102 81.5 167.5t203.5 65.5q128 0 205.5 -61.5t77.5 -169.5q0 -67 -39 -116t-107 -73q82 -22 128 -76.5t46 -132.5q0 -113 -86.5 -182.5t-228.5 -69.5q-139 0 -227 63.5t-88 178.5zM188 -27q0 -69 57.5 -108 t137.5 -39q82 0 137 40.5t55 108.5q0 39 -17.5 68t-48 45t-64 24.5t-72.5 10.5q-83 -8 -134 -46.5t-51 -103.5zM215 365q0 -66 49 -103t123 -45q73 8 117.5 45.5t44.5 102.5q0 61 -45 98t-123 37q-73 0 -119.5 -38.5t-46.5 -96.5z" />
<glyph unicode="&#x2089;" d="M57 307q0 133 92.5 214t223.5 81q50 0 94 -11t86.5 -40t72 -73.5t48 -116.5t18.5 -164q0 -128 -30 -223t-84.5 -148.5t-121 -79t-147.5 -25.5q-65 0 -127.5 16t-99.5 44v119h8q78 -70 215 -70q256 0 266 324q-27 -53 -89.5 -86t-141.5 -33q-121 0 -202 70t-81 202z M180 311q0 -86 51 -133t131 -47q77 0 128 41t71 109q0 54 -18 106q-21 49 -65.5 79t-106.5 30q-77 0 -134 -47.5t-57 -137.5z" />
<glyph unicode="&#x208d;" horiz-adv-x="507" d="M57 98q0 387 326 582h104v-8q-319 -212 -319 -574q0 -329 319 -565v-8h-102q-63 38 -117 88.5t-104 120.5t-78.5 164t-28.5 200z" />
<glyph unicode="&#x208e;" horiz-adv-x="507" d="M-2 -467q321 209 321 573q0 331 -321 566v8h104q49 -30 93.5 -67t88.5 -90t75.5 -113.5t51 -139t19.5 -164.5q0 -387 -328 -581h-104v8z" />
<glyph unicode="&#x20ac;" horiz-adv-x="1325" d="M100 487v93h156q-4 33 -4 104q0 51 2 78h-154v92h164q43 258 213 397.5t414 139.5q111 0 208.5 -28t153.5 -81v-164h-8q-58 62 -156.5 97.5t-199.5 35.5q-184 0 -308 -97.5t-159 -299.5h565v-92h-575q-2 -25 -2 -72q0 -40 4 -110h573v-93h-559q41 -192 162 -282t301 -90 q212 0 362 135h9v-154q-65 -56 -170.5 -90.5t-221.5 -34.5q-249 0 -404 133t-198 383h-168z" />
<glyph unicode="&#x2113;" horiz-adv-x="940" d="M133 250v147q61 38 117 80q-14 146 -14 242q0 266 55 420q45 121 129.5 185.5t189.5 64.5q124 0 193 -76.5t69 -216.5q0 -77 -27 -153.5t-70 -141.5t-107.5 -132t-129.5 -121t-145 -112q13 -170 75.5 -248.5t184.5 -78.5q125 0 240 110h8v-145q-112 -103 -264 -103 q-158 0 -249 91.5t-122 279.5q-50 -37 -133 -92zM373 752q0 -96 8 -174q163 126 261.5 262.5t98.5 253.5q0 87 -38.5 126.5t-100.5 39.5q-59 0 -107 -40.5t-73 -107.5q-49 -134 -49 -360z" />
<glyph unicode="&#x2122;" horiz-adv-x="1796" d="M104 1315v96h592v-96h-243v-641h-113v641h-236zM831 674v737h164q155 -338 209 -471q44 115 201 471h164v-737h-115q0 541 2 631q-6 -18 -12.5 -34.5t-17 -42t-19.5 -46.5t-28 -64.5t-34.5 -78.5t-46.5 -106t-57 -130h-84q-203 454 -223 504q6 -159 6 -633h-109z" />
<glyph unicode="&#x2126;" horiz-adv-x="1509" d="M106 0v133h406q-195 80 -298 241t-103 388q0 149 49.5 274.5t135 210t203 131.5t251.5 47q133 0 247.5 -47t196 -130.5t128 -205.5t46.5 -266q0 -457 -399 -643h405v-133h-522v211q172 69 265 205.5t93 333.5q0 118 -38 219t-102 169t-148.5 106t-178.5 38 q-129 0 -236.5 -65t-172 -188.5t-64.5 -283.5q0 -194 92 -332t269 -202v-211h-525z" />
<glyph unicode="&#x212e;" horiz-adv-x="1841" d="M92 709q0 199 111.5 367.5t302.5 266t416 97.5q168 0 321.5 -57.5t264 -155t176 -233t65.5 -285.5v-21h-1341q-13 0 -13 -8v-399q0 -20 21 -45q97 -102 229.5 -160t278.5 -58q156 0 294.5 64.5t237.5 177.5h123q-116 -132 -288.5 -208.5t-368.5 -76.5q-168 0 -322 58 t-265 156t-177 234.5t-66 285.5zM395 741q0 -10 13 -10h1028q12 0 12 10v400q0 26 -23 49q-100 97 -228.5 152t-272.5 55q-146 0 -276.5 -57t-229.5 -158q-23 -19 -23 -49v-392z" />
<glyph unicode="&#x2153;" horiz-adv-x="1759" d="M152 1141v112l217 119h92v-854h-123v721zM391 -25l690 1422h105l-688 -1422h-107zM1024 53v129h8q45 -45 108.5 -68.5t129.5 -23.5q107 0 151.5 44t44.5 108q0 42 -27.5 77t-78.5 48q-46 14 -135 14h-37v102h41q91 0 143 27q68 36 68 117q0 57 -40.5 92t-119.5 35 q-58 0 -123.5 -26t-107.5 -77h-9v119q43 40 113.5 66t140.5 26q133 0 203 -60.5t70 -166.5q0 -67 -43 -119.5t-117 -75.5q88 -15 138 -66.5t50 -131.5q0 -121 -88 -190.5t-235 -69.5q-66 0 -133.5 18t-114.5 53z" />
<glyph unicode="&#x2154;" horiz-adv-x="1759" d="M78 518v70q209 168 334 293q120 120 120 235q0 68 -44 112t-128 44q-146 0 -251 -123h-9v121q49 51 123.5 80.5t149.5 29.5q138 0 212 -67.5t74 -182.5q0 -140 -127 -274q-36 -40 -121 -113.5t-147 -119.5q129 2 441 2v-107h-627zM526 -25l691 1422h104l-688 -1422h-107z M1120 53v129h8q45 -45 108.5 -68.5t129.5 -23.5q107 0 152 44t45 108q0 42 -27.5 77t-79.5 48q-46 14 -135 14h-37v102h41q91 0 143 27q68 36 68 117q0 57 -40.5 92t-119.5 35q-58 0 -123.5 -26t-107.5 -77h-8v119q43 40 113.5 66t140.5 26q133 0 202.5 -60.5t69.5 -166.5 q0 -67 -43 -119.5t-117 -75.5q88 -15 138.5 -66.5t50.5 -131.5q0 -121 -88.5 -190.5t-235.5 -69.5q-66 0 -133.5 18t-114.5 53z" />
<glyph unicode="&#x2155;" horiz-adv-x="1759" d="M145 1141v112l217 119h93v-854h-123v721zM391 -25l690 1422h105l-688 -1422h-107zM969 53v125h8q106 -88 244 -88q103 0 157 48t54 134q0 160 -203 160q-121 0 -215 -67h-8l51 479h459v-107h-367l-27 -239q25 17 72 27t90 10q125 0 201 -64t76 -192q0 -144 -96 -219.5 t-244 -75.5q-150 0 -252 69z" />
<glyph unicode="&#x2156;" horiz-adv-x="1759" d="M76 518v70q209 168 334 293q120 120 120 235q0 68 -44 112t-128 44q-147 0 -252 -123h-8v121q49 51 123.5 80.5t149.5 29.5q138 0 212 -67.5t74 -182.5q0 -140 -127 -274q-36 -40 -121 -113.5t-147 -119.5q129 2 440 2v-107h-626zM528 -25l691 1422h104l-688 -1422h-107z M1090 53v125h8q106 -88 243 -88q103 0 157 48t54 134q0 160 -202 160q-121 0 -215 -67h-9l52 479h458v-107h-366l-27 -239q25 17 72 27t90 10q125 0 200.5 -64t75.5 -192q0 -144 -96 -219.5t-244 -75.5q-149 0 -251 69z" />
<glyph unicode="&#x2157;" horiz-adv-x="1759" d="M123 571v129h8q45 -45 108.5 -68.5t129.5 -23.5q107 0 151.5 44t44.5 108q0 42 -27.5 77t-78.5 48q-46 14 -135 14h-37v102h41q91 0 143 27q68 36 68 117q0 57 -40.5 92t-119.5 35q-58 0 -124 -26t-108 -77h-8v119q43 40 113.5 66t140.5 26q133 0 203 -60.5t70 -166.5 q0 -67 -43 -119.5t-117 -75.5q88 -15 138 -66.5t50 -131.5q0 -121 -88 -190.5t-235 -69.5q-66 0 -133.5 18t-114.5 53zM494 -25l690 1422h104l-688 -1422h-106zM1053 53v125h8q106 -88 244 -88q103 0 157 48t54 134q0 160 -203 160q-121 0 -215 -67h-8l51 479h458v-107h-366 l-27 -239q25 17 72 27t90 10q125 0 201 -64t76 -192q0 -144 -96 -219.5t-244 -75.5q-150 0 -252 69z" />
<glyph unicode="&#x2158;" horiz-adv-x="1759" d="M55 733v76l443 571h100v-546h145v-101h-145v-215h-119v215h-424zM188 834h291q0 20 6 383q-64 -95 -297 -383zM516 -25l690 1422h105l-688 -1422h-107zM1077 53v125h8q106 -88 244 -88q103 0 157 48t54 134q0 160 -203 160q-121 0 -215 -67h-8l51 479h459v-107h-367 l-26 -239q25 17 72 27t90 10q125 0 200.5 -64t75.5 -192q0 -144 -96 -219.5t-244 -75.5q-150 0 -252 69z" />
<glyph unicode="&#x215b;" horiz-adv-x="1759" d="M119 1141v112l217 119h92v-854h-123v721zM383 -25l690 1422h105l-689 -1422h-106zM961 223q0 146 169 205q-64 25 -99.5 77.5t-35.5 123.5q0 102 81.5 167.5t203.5 65.5q128 0 205.5 -61.5t77.5 -169.5q0 -67 -39 -116t-107 -73q82 -22 128 -76.5t46 -132.5 q0 -113 -86.5 -182t-228.5 -69q-139 0 -227 63t-88 178zM1083 233q0 -69 57.5 -108t137.5 -39q82 0 137 40.5t55 109.5q0 134 -202 147q-83 -8 -134 -46.5t-51 -103.5zM1110 625q0 -66 49 -103t123 -45q73 8 117.5 45.5t44.5 102.5q0 61 -45 98t-123 37q-73 0 -119.5 -38.5 t-46.5 -96.5z" />
<glyph unicode="&#x215c;" horiz-adv-x="1759" d="M115 571v129h8q92 -92 237 -92q107 0 152 44t45 108q0 42 -27.5 77t-78.5 48q-46 14 -136 14h-36v102h40q92 0 144 27q67 36 67 117q0 57 -40.5 92t-118.5 35q-58 0 -124 -26t-108 -77h-8v119q43 40 113.5 66t140.5 26q133 0 202.5 -60.5t69.5 -166.5q0 -67 -42.5 -119.5 t-116.5 -75.5q88 -15 138 -66.5t50 -131.5q0 -121 -88.5 -190.5t-235.5 -69.5q-66 0 -133 18t-114 53zM487 -25l691 1422h104l-688 -1422h-107zM1047 223q0 146 170 205q-64 25 -100 77.5t-36 123.5q0 102 81.5 167.5t203.5 65.5q128 0 205.5 -61.5t77.5 -169.5 q0 -67 -39 -116t-107 -73q82 -22 128 -76.5t46 -132.5q0 -113 -86.5 -182t-228.5 -69q-139 0 -227 63t-88 178zM1169 233q0 -69 57.5 -108t137.5 -39q82 0 137 40.5t55 109.5q0 134 -202 147q-83 -8 -134 -46.5t-51 -103.5zM1196 625q0 -66 49 -103t123 -45q73 8 117.5 45.5 t44.5 102.5q0 61 -45 98t-123 37q-73 0 -119.5 -38.5t-46.5 -96.5z" />
<glyph unicode="&#x215d;" horiz-adv-x="1759" d="M78 571v125h8q106 -88 244 -88q103 0 157 48.5t54 134.5q0 159 -203 159q-121 0 -215 -67h-8l51 479h459v-107h-367l-27 -239q25 17 72 27t90 10q125 0 201 -64t76 -192q0 -144 -96 -219.5t-244 -75.5q-150 0 -252 69zM457 -25l690 1422h104l-688 -1422h-106zM1012 223 q0 146 170 205q-64 25 -99.5 77.5t-35.5 123.5q0 102 81 167.5t203 65.5q128 0 205.5 -61.5t77.5 -169.5q0 -67 -39 -116t-107 -73q82 -22 128 -76.5t46 -132.5q0 -113 -86.5 -182t-228.5 -69q-139 0 -227 63t-88 178zM1135 233q0 -69 57 -108t137 -39q82 0 137.5 41 t55.5 109q0 134 -203 147q-83 -8 -133.5 -46.5t-50.5 -103.5zM1161 625q0 -66 49 -103t123 -45q73 8 117.5 45.5t44.5 102.5q0 61 -45 98t-123 37q-73 0 -119.5 -38.5t-46.5 -96.5z" />
<glyph unicode="&#x215e;" horiz-adv-x="1759" d="M127 1255v107h604v-78q-175 -364 -338 -766h-127q111 275 338 737h-477zM391 -25l690 1422h105l-688 -1422h-107zM952 223q0 146 170 205q-64 25 -99.5 77.5t-35.5 123.5q0 102 81.5 167.5t203.5 65.5q128 0 205 -61t77 -170q0 -67 -38.5 -116.5t-106.5 -72.5 q82 -22 128 -76.5t46 -132.5q0 -113 -86.5 -182t-228.5 -69q-139 0 -227.5 63t-88.5 178zM1075 233q0 -69 57.5 -108t137.5 -39q82 0 137 40.5t55 109.5q0 134 -202 147q-83 -8 -134 -46.5t-51 -103.5zM1102 625q0 -66 49 -103t123 -45q73 8 117.5 45.5t44.5 102.5 q0 61 -45 98t-123 37q-73 0 -119.5 -38.5t-46.5 -96.5z" />
<glyph unicode="&#x2190;" horiz-adv-x="1603" d="M86 657l94 93q318 -308 555 -557q-4 180 -4 1216h148q0 -1030 -2 -1216q15 14 66.5 68.5t178 185t299.5 303.5l101 -95l-715 -718z" />
<glyph unicode="&#x2191;" horiz-adv-x="1603" d="M59 705l719 720l92 -96q-133 -137 -243.5 -248.5t-164.5 -164t-97.5 -94.5t-51.5 -50q180 4 1217 4v-145q-1031 0 -1217 2q8 -8 67.5 -64.5t186 -180t301.5 -298.5l-94 -100z" />
<glyph unicode="&#x2192;" horiz-adv-x="1603" d="M74 631v145q1036 0 1214 -4q-8 8 -51.5 50t-97 94.5t-164 164t-244.5 248.5l98 96l715 -720l-717 -715l-94 100q175 175 302.5 299t186.5 179.5t68 64.5q-184 -2 -1216 -2z" />
<glyph unicode="&#x2193;" horiz-adv-x="1603" d="M86 752l721 721l715 -719l-101 -95q-175 176 -299 304t-179 186.5t-66 69.5q2 -186 2 -1219h-148q0 1039 4 1219q-154 -169 -555 -560z" />
<glyph unicode="&#x2196;" horiz-adv-x="1603" d="M303 201v1009h1016v-133q-230 -1 -425.5 -1h-264.5t-97 -1q180 -169 865 -854l-105 -104q-823 828 -856 862q4 -63 4 -778h-137z" />
<glyph unicode="&#x2197;" horiz-adv-x="1603" d="M211 221q500 499 636 633.5t228 220.5q-27 1 -95.5 1h-264t-424.5 1v133h1014v-1009h-138q0 652 4 778q-259 -263 -856 -862z" />
<glyph unicode="&#x2198;" horiz-adv-x="1603" d="M211 1174l104 102q761 -764 856 -860q-4 132 -4 776h138v-1008h-1014v131q278 2 784 2q-153 146 -864 857z" />
<glyph unicode="&#x2199;" horiz-adv-x="1603" d="M303 188v1010h137q0 -714 -4 -780q56 58 131 133.5t279.5 281.5t445.5 449l105 -104q-724 -722 -865 -854q28 -1 96.5 -1.5t265 -1t425.5 -2.5v-131h-1016z" />
<glyph unicode="&#x2202;" horiz-adv-x="1165" d="M104 422q0 217 129.5 343t327.5 126q108 0 192.5 -35.5t129.5 -101.5q-5 274 -94.5 411.5t-280.5 137.5q-88 0 -186 -38t-152 -98h-8v144q66 61 168.5 95t199.5 34q275 0 393.5 -188.5t118.5 -620.5q0 -146 -30.5 -266t-91.5 -209t-158 -138t-223 -49q-193 0 -314 122 t-121 331zM256 426q0 -151 85 -234t204 -83q112 0 193 59t114 176q33 112 33 236q-94 178 -322 178q-128 0 -217.5 -89t-89.5 -243z" />
<glyph unicode="&#x2206;" horiz-adv-x="1398" d="M10 0l613 1411h139l600 -1411h-1352zM221 135h928q-381 889 -461 1116q-66 -189 -467 -1116z" />
<glyph unicode="&#x220f;" horiz-adv-x="1398" d="M160 -244v1647h1050v-1647h-147v1510h-758v-1510h-145z" />
<glyph unicode="&#x2211;" horiz-adv-x="1157" d="M72 -113l516 729l-498 668v119h993v-135h-807l490 -647l-522 -727h852v-138h-1024v131z" />
<glyph unicode="&#x2212;" horiz-adv-x="1433" d="M184 547v117h1065v-117h-1065z" />
<glyph unicode="&#x2215;" horiz-adv-x="182" d="M-315 -25l690 1422h104l-688 -1422h-106z" />
<glyph unicode="&#x2219;" horiz-adv-x="460" d="M96 528q0 58 34 87.5t81 29.5q45 0 79 -30t34 -87q0 -50 -33 -80t-82 -30t-81 29.5t-32 80.5z" />
<glyph unicode="&#x221a;" horiz-adv-x="1304" d="M104 242l250 120l275 -565l481 1614h119l-543 -1784l-111 -2l-288 586l-135 -64z" />
<glyph unicode="&#x221e;" horiz-adv-x="1495" d="M111 586q0 137 81.5 223t213.5 86q95 0 168.5 -47.5t170.5 -167.5q93 110 176.5 161.5t182.5 51.5q124 0 198 -82t74 -211q0 -135 -79.5 -222t-211.5 -87q-96 0 -168 48.5t-172 168.5q-99 -117 -176 -166t-176 -49q-126 0 -204 79.5t-78 213.5zM217 596 q0 -86 51.5 -140.5t130.5 -54.5q76 0 140 47.5t137 143.5q-46 57 -70.5 84.5t-59 57.5t-68 41t-75.5 11q-79 0 -132.5 -54t-53.5 -136zM813 596q36 -41 45 -51.5t37.5 -41t39 -38.5t34 -26.5t39 -23.5t37.5 -10.5t45 -5.5q78 0 129 53.5t51 137.5q0 88 -48 141t-126 53 q-70 0 -138 -44.5t-145 -143.5z" />
<glyph unicode="&#x222b;" horiz-adv-x="669" d="M61 -223h9q24 -16 58 -24.5t56 -8.5q57 0 83 26.5t26 106.5q0 37 -6 184l-39 979q-4 98 -4 156q0 122 60 189t173 67q81 0 119 -27v-114h-8q-35 26 -101 26q-55 0 -87.5 -37.5t-32.5 -119.5q0 -48 4 -138l41 -979q6 -159 6 -186q0 -132 -54 -190t-174 -58q-79 0 -129 31 v117z" />
<glyph unicode="&#x2248;" horiz-adv-x="1456" d="M178 344q85 117 160.5 165t161.5 48q48 0 101.5 -20t148.5 -74q125 -74 202 -74q64 0 115 38t111 130l86 -65q-74 -115 -144.5 -168.5t-169.5 -53.5q-101 0 -245 82t-211 82q-64 0 -120.5 -37t-115.5 -121zM178 733q85 115 160.5 163t161.5 48q49 0 103 -19.5t147 -74.5 q126 -72 202 -72q65 0 115.5 37.5t110.5 130.5l86 -65q-74 -116 -144.5 -170t-169.5 -54q-98 0 -245 84q-144 82 -211 82q-64 0 -120.5 -37t-115.5 -122z" />
<glyph unicode="&#x2260;" horiz-adv-x="1433" d="M184 348v115h416l137 272h-553v115h609l155 315h103l-156 -315h354v-115h-409l-135 -272h544v-115h-600l-166 -336h-102l166 336h-363z" />
<glyph unicode="&#x2264;" horiz-adv-x="1433" d="M240 0v115h923v-115h-923zM240 725v119l923 434v-135l-788 -357l788 -348v-137z" />
<glyph unicode="&#x2265;" horiz-adv-x="1433" d="M268 0v115h924v-115h-924zM268 301v135l789 352l-789 353v137l924 -434v-117z" />
<glyph unicode="&#x25ca;" horiz-adv-x="1497" d="M295 715l362 712h144l354 -710l-354 -717h-144zM440 715l291 -584l281 586l-283 586z" />
<glyph unicode="&#x25fc;" horiz-adv-x="1013" d="M0 0v1014h1014v-1014h-1014z" />
<glyph horiz-adv-x="550" d="M176 0v1411h156v-1411h-156z" />
<glyph horiz-adv-x="882" d="M68 299v63h98q-2 18 -2 62v45h-96v63h104q30 159 141 244.5t269 85.5q74 0 139 -18t102 -51v-123h-8q-38 39 -100.5 62.5t-126.5 23.5q-113 0 -189 -55t-100 -169h350v-63h-360v-41q0 -26 4 -66h356v-63h-346q52 -207 287 -207q125 0 229 84h8v-117q-43 -34 -112 -55.5 t-144 -21.5q-162 0 -265 82t-132 235h-106z" />
<glyph horiz-adv-x="882" d="M68 817v64h98q-2 18 -2 61v45h-96v64h104q30 159 141 244t269 85q74 0 139 -18t102 -51v-123h-8q-38 39 -100.5 62.5t-126.5 23.5q-113 0 -189 -54.5t-100 -168.5h350v-64h-360v-41q0 -25 4 -65h356v-64h-346q52 -207 287 -207q125 0 229 84h8v-116q-43 -34 -112 -56 t-144 -22q-162 0 -265 82t-132 235h-106z" />
<glyph horiz-adv-x="1265" d="M141 440v88h146q-4 31 -4 97q0 46 2 71h-144v86h154q40 235 199 361.5t387 126.5q102 0 193 -26.5t145 -76.5v-155h-9q-54 58 -146.5 92.5t-184.5 34.5q-83 0 -153 -20.5t-127.5 -62.5t-97 -111.5t-55.5 -162.5h523v-86h-533q-2 -23 -2 -65q0 -41 4 -103h531v-88h-516 q73 -334 426 -334q194 0 340 127h8v-145q-62 -52 -160.5 -84.5t-206.5 -32.5q-230 0 -375 121t-186 348h-158z" />
<glyph horiz-adv-x="1290" d="M176 0v1411h156v-680l639 680h205l-510 -524l594 -887h-191l-510 776l-227 -235v-541h-156zM1171 1087q0 117 57.5 219.5t139.5 166.5h129v-9q-74 -62 -122 -156.5t-48 -203.5q0 -97 31 -166h-160q-27 61 -27 149z" />
<glyph horiz-adv-x="2330" d="M88 129v182h8q89 -93 219.5 -143.5t262.5 -50.5q348 0 348 250q0 89 -70.5 141.5t-243.5 107.5l-196 64q-305 97 -305 360q0 180 137.5 291t376.5 111q107 0 225.5 -34.5t169.5 -82.5v-172h-8q-73 71 -187 109t-225 38q-93 0 -160 -20.5t-103 -57t-52.5 -77.5t-16.5 -90 q0 -84 57 -142t197 -102l219 -70q178 -58 260 -140t82 -220q0 -84 -28.5 -155.5t-87.5 -129.5t-161 -91.5t-237 -33.5q-134 0 -267 42t-214 116zM1247 129v182h8q89 -93 219.5 -143.5t262.5 -50.5q348 0 348 250q0 89 -70 141.5t-243 107.5l-197 64q-305 97 -305 360 q0 180 137.5 291t376.5 111q107 0 225.5 -34.5t169.5 -82.5v-172h-8q-73 71 -187 109t-225 38q-93 0 -160 -20.5t-103 -57t-52.5 -77.5t-16.5 -90q0 -84 57 -142t197 -102l220 -70q178 -58 260 -140t82 -220q0 -84 -28.5 -155.5t-87.5 -129.5t-161 -91.5t-237 -33.5 q-134 0 -267.5 42t-214.5 116z" />
<glyph horiz-adv-x="430" d="M-72 1536v8l312 266h237v-8l-385 -266h-164z" />
<glyph horiz-adv-x="1431" d="M94 377q0 132 75.5 226t238.5 159q-129 154 -129 303q0 133 98 226t270 93q146 0 237 -69.5t91 -208.5q0 -122 -84.5 -213.5t-263.5 -165.5q156 -169 393 -389q36 41 64 123t28 176q0 73 -10 115h141q10 -48 10 -121q0 -119 -38 -224.5t-95 -170.5q80 -76 252 -228v-8 h-209l-137 121q-176 -148 -426 -148q-231 0 -368.5 114.5t-137.5 289.5zM248 381q0 -114 98.5 -194.5t263.5 -80.5q89 0 172.5 30.5t145.5 86.5q-240 222 -434 434q-246 -81 -246 -276zM428 1069q0 -119 111 -246q148 60 218 124t70 153q0 76 -51.5 119t-132.5 43 q-104 0 -159.5 -56t-55.5 -137z" />
<glyph horiz-adv-x="692" d="M57 625v96q63 10 99 26.5t60 52.5t32 91t8 147v158q0 82 17 141.5t44.5 96t71 58t89.5 29t106 7.5h65v-103h-69q-42 0 -73 -9t-59 -32.5t-42.5 -70.5t-14.5 -117v-152q0 -72 -4 -124.5t-16 -90.5t-24 -61.5t-37 -41.5t-46 -28t-59 -24q68 -14 106.5 -49t59 -113 t20.5 -211v-149q0 -70 14.5 -118t42.5 -71.5t59.5 -33t74.5 -9.5h67v-102h-65q-61 0 -106 7t-89 28t-71.5 57t-44.5 96.5t-17 143.5v155q0 125 -21.5 192.5t-61.5 93t-116 34.5z" />
<glyph horiz-adv-x="692" d="M20 -80h70q42 0 73 9.5t59 33.5t42.5 71.5t14.5 117.5v151q0 73 4.5 125.5t16 90t23.5 61t36.5 41.5t46 28t59.5 23q-68 15 -106.5 50.5t-59 113.5t-20.5 211v149q0 70 -15 117t-43 71t-60 33.5t-75 9.5h-66v101h64q62 0 107 -7t89 -27.5t71.5 -56t44 -96t16.5 -143.5 v-158q0 -95 10.5 -154.5t37 -94t61 -49t91.5 -21.5v-94q-83 -13 -124 -42t-58.5 -91.5t-17.5 -184.5v-157q0 -69 -11 -122.5t-32.5 -89.5t-49.5 -60.5t-66.5 -37.5t-78.5 -18.5t-90 -5.5h-64v102z" />
<glyph horiz-adv-x="610" d="M160 -168v1677h403v-104h-268v-1471h268v-102h-403z" />
<glyph horiz-adv-x="610" d="M20 -63h267v1468h-267v104h402v-1677h-402v105z" />
<glyph horiz-adv-x="430" d="M-94 1810h117q8 -172 186 -172q181 0 190 172h121q-2 -128 -84.5 -212.5t-228.5 -84.5q-142 0 -221.5 81.5t-79.5 215.5z" />
<glyph horiz-adv-x="714" d="M100 672q0 62 21.5 110t57 76.5t77 42.5t84.5 14q94 0 166 -62t72 -181q0 -104 -68.5 -171t-169.5 -67t-170.5 65.5t-69.5 172.5z" />
<glyph horiz-adv-x="409" d="M37 1122v8q65 54 109 132.5t44 169.5q0 82 -26 141h149q23 -50 23 -129q0 -96 -50.5 -180.5t-121.5 -141.5h-127z" />
<glyph horiz-adv-x="430" d="M-137 1802v8h153l193 -143l182 143h152v-8l-291 -266h-96z" />
<glyph horiz-adv-x="430" d="M8 -375h8q54 -43 142 -43q125 0 125 101q0 44 -34 71t-97 27q-45 0 -80 -14l-6 4l73 249h107l-47 -149h10q92 0 148.5 -50t56.5 -136q0 -99 -68 -154t-186 -55q-44 0 -86.5 11.5t-65.5 29.5v108z" />
<glyph horiz-adv-x="720" d="M88 311q0 129 81.5 217t211.5 103v131h63v-127q58 -2 110 -18.5t81 -45.5v-112h-8q-31 31 -81.5 50.5t-101.5 22.5v-438q111 3 187 76h8v-111q-75 -61 -195 -67v-131h-63v133q-128 11 -210.5 95t-82.5 222zM207 315q0 -93 49 -147.5t125 -69.5v430q-77 -14 -125.5 -69 t-48.5 -144z" />
<glyph horiz-adv-x="720" d="M88 829q0 129 81.5 217t211.5 103v131h63v-127q59 -2 111 -18.5t80 -44.5v-113h-8q-31 31 -81.5 51t-101.5 23v-439q111 3 187 76h8v-110q-76 -62 -195 -68v-131h-63v133q-128 11 -210.5 95t-82.5 222zM207 834q0 -93 49 -148t125 -70v431q-77 -14 -125.5 -69t-48.5 -144 z" />
<glyph horiz-adv-x="1042" d="M160 459q0 192 115 321t300 152v201h91v-195q84 -3 161.5 -29t118.5 -67v-156h-8q-44 49 -120 79.5t-152 33.5v-676q171 3 278 110h8v-143q-121 -94 -286 -102v-201h-91v205q-117 12 -209.5 68.5t-149 160t-56.5 238.5zM309 465q0 -149 75 -232t191 -104v664 q-118 -20 -192 -103t-74 -225z" />
<glyph horiz-adv-x="430" d="M-137 1536v8l295 266h98l293 -266v-8h-154l-194 143l-183 -143h-155z" />
<glyph horiz-adv-x="313" d="M4 -197q52 42 84.5 106t32.5 140q0 61 -23 111h125q17 -41 17 -105q0 -79 -40.5 -149t-97.5 -111h-98v8z" />
<glyph horiz-adv-x="313" d="M4 313v9q53 42 85 105.5t32 139.5q0 61 -23 111h125q17 -41 17 -105q0 -79 -40.5 -149t-97.5 -111h-98z" />
<glyph horiz-adv-x="403" d="M37 -578q64 53 107.5 133.5t43.5 172.5q0 82 -26 141h149q23 -50 23 -129q0 -96 -50 -183t-120 -143h-127v8z" />
<glyph horiz-adv-x="430" d="M-82 1655q0 48 28.5 74t67.5 26t69 -26t30 -74q0 -42 -28.5 -69t-70.5 -27q-41 0 -68.5 26.5t-27.5 69.5zM285 1655q0 48 29 74t69 26q38 0 67 -26t29 -74q0 -42 -28 -69t-70 -27q-41 0 -68.5 26.5t-27.5 69.5z" />
<glyph horiz-adv-x="759" d="M70 86v131h8q52 -52 125.5 -82t148.5 -33v263l-78 24q-190 55 -190 221q0 98 68.5 162t199.5 76v127h64v-125q64 -3 132.5 -25t98.5 -49v-127h-8q-41 38 -101.5 61.5t-121.5 28.5v-270l59 -16q116 -34 166.5 -85t50.5 -135q0 -99 -67 -165t-209 -76v-133h-64v131 q-79 3 -156.5 28.5t-125.5 67.5zM211 618q0 -43 27 -73t106 -53l8 -3v250q-141 -13 -141 -121zM416 102q76 6 110.5 35t34.5 84q0 43 -32.5 70.5t-112.5 52.5v-242z" />
<glyph horiz-adv-x="759" d="M70 604v131h8q52 -52 125.5 -81.5t148.5 -32.5v262l-78 24q-190 61 -190 221q0 98 68.5 162t199.5 76v127h64v-125q64 -3 132.5 -25t98.5 -49v-127h-8q-41 38 -101.5 61.5t-121.5 28.5v-270l59 -16q117 -34 167 -84.5t50 -134.5q0 -99 -67 -165.5t-209 -76.5v-133h-64 v131q-78 2 -155.5 28t-126.5 68zM211 1137q0 -43 27 -73.5t106 -53.5l8 -2v249q-141 -13 -141 -120zM416 621q76 6 110.5 34.5t34.5 83.5q0 43 -32.5 70.5t-112.5 52.5v-241z" />
<glyph horiz-adv-x="1136" d="M125 127v170h8q73 -76 177.5 -120t215.5 -50v418l-116 37q-134 41 -200.5 126t-66.5 193q0 143 98.5 235t284.5 107v199h88v-195q92 -3 189.5 -35.5t140.5 -74.5v-164h-8q-59 59 -146.5 94t-175.5 41v-430l88 -27q162 -50 234 -124t72 -195q0 -67 -21.5 -124 t-66.5 -105.5t-123 -79t-183 -37.5v-203h-88v201q-111 5 -223 44t-178 99zM297 915q0 -70 43 -116.5t166 -85.5l20 -6v401q-229 -18 -229 -193zM614 129q124 7 179 52t55 134q0 70 -51.5 112.5t-182.5 88.5v-387z" />
<glyph horiz-adv-x="430" d="M102 1655q0 48 29 74t68 26t68.5 -26t29.5 -74q0 -42 -28 -69t-70 -27q-41 0 -69 26.5t-28 69.5z" />
<glyph d="M66 223q0 146 170 205q-64 25 -100 77.5t-36 123.5q0 102 81.5 167.5t203.5 65.5q128 0 205.5 -61.5t77.5 -169.5q0 -67 -39 -116t-107 -73q82 -22 128 -76.5t46 -132.5q0 -113 -86.5 -182t-228.5 -69q-139 0 -227 63t-88 178zM188 233q0 -69 57.5 -108t137.5 -39 q82 0 137 40.5t55 109.5q0 134 -202 147q-83 -8 -134 -46.5t-51 -103.5zM215 625q0 -66 49 -103t123 -45q73 8 117.5 45.5t44.5 102.5q0 61 -45 98t-123 37q-73 0 -119.5 -38.5t-46.5 -96.5z" />
<glyph horiz-adv-x="1179" d="M106 356q0 120 74.5 206t208.5 128q-105 42 -168 125.5t-63 202.5q0 161 122.5 267t305.5 106q193 0 309.5 -99t116.5 -270q0 -107 -65 -191t-171 -116q130 -38 204.5 -127t74.5 -221q0 -176 -131 -286t-344 -110q-136 0 -242 44t-169 132t-63 209zM262 367 q0 -83 46 -142t117.5 -86.5t158.5 -27.5q139 0 227 69t88 189q0 119 -92 186t-236 78q-134 -14 -221.5 -84.5t-87.5 -181.5zM309 1020q0 -119 77 -181t204 -73q266 35 266 254q0 104 -74 168.5t-200 64.5q-119 0 -196 -67t-77 -166z" />
<glyph d="M66 741q0 146 170 205q-64 25 -100 77.5t-36 123.5q0 102 81.5 167.5t203.5 65.5q128 0 205.5 -61.5t77.5 -169.5q0 -67 -38.5 -115.5t-107.5 -72.5q82 -22 128 -76.5t46 -132.5q0 -113 -86.5 -182.5t-228.5 -69.5q-139 0 -227 63t-88 178zM188 752q0 -69 57.5 -108.5 t137.5 -39.5q82 0 137 40.5t55 109.5q0 130 -202 147q-84 -10 -134.5 -47t-50.5 -102zM215 1141q0 -66 48.5 -102t123.5 -44q73 8 117.5 45t44.5 103q0 61 -45 98t-123 37q-72 0 -119 -39.5t-47 -97.5z" />
<glyph horiz-adv-x="1146" d="M102 348q0 119 72 204.5t203 123.5q-103 40 -164 121.5t-61 199.5q0 156 122 259.5t297 103.5q186 0 300 -94.5t114 -261.5q0 -106 -63 -189.5t-166 -114.5q128 -40 199 -125.5t71 -214.5q0 -172 -128.5 -280.5t-334.5 -108.5q-200 0 -330.5 100.5t-130.5 276.5zM252 358 q0 -119 93.5 -185.5t221.5 -66.5q133 0 221.5 68.5t88.5 185.5t-91 183.5t-229 77.5q-131 -14 -218 -84t-87 -179zM301 999q0 -116 75 -177t197 -72q261 35 261 249q0 100 -73.5 162t-193.5 62q-113 0 -189.5 -64t-76.5 -160z" />
<glyph horiz-adv-x="1146" d="M102 348q0 119 72 204.5t203 123.5q-103 40 -164 121.5t-61 199.5q0 156 122 259.5t297 103.5q186 0 300 -94.5t114 -261.5q0 -106 -63 -189.5t-166 -114.5q128 -40 199 -125.5t71 -214.5q0 -172 -128.5 -280.5t-334.5 -108.5q-200 0 -330.5 100.5t-130.5 276.5zM252 358 q0 -119 93.5 -185.5t221.5 -66.5q133 0 221.5 68.5t88.5 185.5t-91 183.5t-229 77.5q-131 -14 -218 -84t-87 -179zM301 999q0 -116 75 -177t197 -72q261 35 261 249q0 100 -73.5 162t-193.5 62q-113 0 -189.5 -64t-76.5 -160z" />
<glyph horiz-adv-x="1712" d="M80 614v125h1550v-125h-1550z" />
<glyph horiz-adv-x="1093" d="M80 614v125h938v-125h-938z" />
<glyph horiz-adv-x="1626" d="M125 672q0 168 59.5 306t160 227t231 137.5t276.5 48.5q314 0 491 -167.5t177 -459.5q0 -66 -9 -131h-1230q9 -233 176.5 -376.5t470.5 -143.5q153 0 295.5 46t244.5 136h11v-152q-88 -76 -246 -123t-318 -47q-184 0 -333 51.5t-249 143.5t-154 221t-54 283zM285 758 h1075v33q0 102 -31.5 185.5t-94 146.5t-163.5 97.5t-233 34.5q-76 0 -150 -18.5t-144 -59t-124.5 -97.5t-90.5 -140t-44 -182z" />
<glyph d="M92 53v125h8q106 -88 244 -88q103 0 157 48t54 134q0 160 -203 160q-121 0 -215 -67h-8l51 479h459v-107h-367l-26 -239q25 17 72 27t90 10q125 0 200.5 -64t75.5 -192q0 -144 -96 -219.5t-244 -75.5q-150 0 -252 69z" />
<glyph horiz-adv-x="1128" d="M106 88v168h9q82 -74 184 -109.5t197 -35.5q168 0 257 85.5t89 235.5q0 148 -88 217.5t-244 69.5q-96 0 -184 -33t-152 -86h-8l80 762h686v-139h-565l-50 -430q43 29 117.5 49t143.5 20q91 0 166.5 -24.5t133.5 -74t90.5 -131t32.5 -188.5q0 -119 -40.5 -211t-112 -148.5 t-163 -85t-198.5 -28.5q-224 0 -381 117z" />
<glyph d="M92 571v125h8q106 -88 244 -88q103 0 157 48.5t54 134.5q0 159 -203 159q-121 0 -215 -67h-8l51 479h459v-107h-367l-26 -239q25 17 72 27t90 10q125 0 200.5 -64t75.5 -192q0 -144 -96 -219.5t-244 -75.5q-150 0 -252 69z" />
<glyph horiz-adv-x="1103" d="M115 27h8q152 -140 366 -140q162 0 249 83t87 227q0 142 -86 211t-237 69q-91 0 -174 -32.5t-146 -82.5h-10l78 734h665v-135h-546l-45 -410q44 28 110.5 46.5t132.5 18.5q188 0 302 -102.5t114 -304.5q0 -114 -40 -203.5t-110 -144t-159.5 -83t-192.5 -28.5 q-216 0 -366 113v164z" />
<glyph horiz-adv-x="1146" d="M150 27h8q152 -140 366 -140q160 0 248 83.5t88 226.5q0 142 -86.5 211t-236.5 69q-92 0 -175.5 -32.5t-146.5 -82.5h-10l78 736h667v-137h-549l-43 -410q42 28 110 46.5t134 18.5q188 0 302 -102.5t114 -304.5q0 -114 -40.5 -203.5t-110.5 -144t-159 -83t-192 -28.5 q-216 0 -366 113v164z" />
<glyph horiz-adv-x="661" d="M6 -39h8q34 -27 84 -27q68 0 92 46q12 20 19 79l39 396h-123v82h129l12 110q11 98 58 148q60 67 165 67q35 0 71 -9t54 -22v-110h-8q-38 33 -104 33q-51 0 -80 -29q-29 -26 -37 -94l-8 -94h151v-82h-159l-39 -416q-6 -73 -29 -117q-50 -94 -186 -94q-68 0 -109 25v108z " />
<glyph horiz-adv-x="661" d="M6 371v108h8q32 -26 84 -26q69 0 92 45q12 19 19 80l39 395h-123v82h129l12 110q11 98 58 148q60 67 165 67q36 0 71.5 -9t53.5 -21v-111h-8q-38 33 -104 33q-51 0 -80 -29q-29 -26 -37 -94l-8 -94h151v-82h-159l-39 -416q-6 -73 -29 -117q-50 -94 -186 -94 q-68 0 -109 25z" />
<glyph horiz-adv-x="958" d="M25 -8h8q20 -19 59 -31t68 -12q103 0 137 63q25 44 31 117l55 582h-182v112h190l15 129q14 153 86 228q82 88 227 88q123 0 176 -47v-140h-8q-60 52 -156 52q-77 0 -121 -41q-41 -38 -55 -154l-14 -115h227v-112h-238l-55 -605q-10 -104 -45 -165q-67 -125 -252 -125 q-97 0 -153 39v137z" />
<glyph d="M47 215v76l442 571h101v-547h145v-100h-145v-215h-119v215h-424zM180 315h291q0 20 6 383q-64 -95 -297 -383z" />
<glyph horiz-adv-x="1241" d="M86 356v101l723 934h129v-902h227v-133h-227v-356h-150v356h-702zM268 489h520q0 227 9 697q-25 -36 -52 -74t-49.5 -69t-73 -96.5t-83.5 -108.5t-121.5 -157t-149.5 -192z" />
<glyph d="M47 733v76l442 571h101v-546h145v-101h-145v-215h-119v215h-424zM180 834h291q0 20 6 383q-64 -95 -297 -383z" />
<glyph horiz-adv-x="1189" d="M82 100v101l719 921h127v-889h225v-133h-225v-342h-150v342h-696zM260 233h518q0 480 8 685q-16 -23 -30 -44t-34 -48t-35 -47t-44.5 -58.5t-49.5 -64t-63.5 -81l-72.5 -92.5t-91 -115.5t-106 -134.5z" />
<glyph horiz-adv-x="1146" d="M82 100v101l688 921h125v-889h227v-133h-227v-342h-147v342h-666zM260 233h488q0 252 8 670q-16 -24 -30 -44.5t-33.5 -48t-32.5 -45.5t-41 -56t-45 -60.5t-59 -78t-68 -90t-86 -114t-101 -133.5z" />
<glyph horiz-adv-x="430" d="M-72 1802v8h238l313 -266v-8h-164z" />
<glyph horiz-adv-x="960" d="M47 672l283 377h159l-278 -377l281 -377h-160zM416 672l282 377h158l-278 -377l280 -377h-158z" />
<glyph horiz-adv-x="960" d="M59 1049h160l285 -377l-283 -377h-160l279 377zM426 1049h160l284 -377l-282 -377h-160l279 377z" />
<glyph horiz-adv-x="587" d="M47 672l283 377h159l-278 -377l281 -377h-160z" />
<glyph horiz-adv-x="587" d="M61 1049h160l285 -377l-283 -377h-160l279 377z" />
<glyph horiz-adv-x="430" d="M-213 1536v8l281 268h202v-8l-350 -268h-133zM123 1536v8l280 268h205v-8l-352 -268h-133z" />
<glyph horiz-adv-x="657" d="M80 610v138h493v-138h-493z" />
<glyph horiz-adv-x="428" d="M51 297v98h324v-98h-324z" />
<glyph horiz-adv-x="428" d="M51 815v98h324v-98h-324z" />
<glyph horiz-adv-x="530" d="M150 1343q0 50 29.5 77.5t68.5 27.5t69.5 -27.5t30.5 -77.5q0 -45 -29 -73.5t-71 -28.5q-43 0 -70.5 27t-27.5 75zM174 0v1012h150v-1012h-150z" />
<glyph horiz-adv-x="430" d="M-92 1583v125h618v-125h-618z" />
<glyph d="M57 567q0 133 92.5 214t223.5 81q50 0 94 -11t86.5 -40t72 -73.5t48 -116.5t18.5 -164q0 -128 -30 -222.5t-84.5 -148.5t-121 -79t-147.5 -25q-66 0 -128 15.5t-99 43.5v119h8q78 -70 215 -70q256 0 266 324q-27 -53 -89.5 -86t-141.5 -33q-121 0 -202 70t-81 202z M180 571q0 -86 51 -133t131 -47q77 0 128 41t71 109q0 54 -18 106q-21 49 -65.5 79t-106.5 30q-77 0 -134 -47.5t-57 -137.5z" />
<glyph d="M59 1085q0 133 92.5 214t223.5 81q50 0 94 -11t86.5 -40t72 -73.5t48 -116.5t18.5 -164q0 -128 -30 -222.5t-84.5 -148.5t-121 -79t-147.5 -25q-66 0 -128 15.5t-99 43.5v119h8q78 -70 215 -70q256 0 266 324q-27 -53 -89.5 -86t-141.5 -33q-121 0 -202 70t-81 202z M182 1090q0 -86 51.5 -133.5t131.5 -47.5q76 0 127 41t71 109q0 61 -18 104q-21 51 -65 81t-107 30q-77 0 -134 -47t-57 -137z" />
<glyph horiz-adv-x="1183" d="M82 381v119h258l33 227h-244v117h262l58 395h102l-57 -395h256l57 395h98l-57 -395h235v-117h-254l-32 -227h239v-119h-258l-59 -410h-98l59 410h-256l-59 -410h-101l60 410h-242zM442 500h256l33 227h-256z" />
<glyph horiz-adv-x="430" d="M6 -287q0 99 68 175.5t207 138.5h120q-146 -88 -202 -152t-56 -149q0 -59 37.5 -92t106.5 -33q76 0 123 32h8v-102q-76 -43 -170 -43q-104 0 -173 57.5t-69 167.5z" />
<glyph d="M158 623v112l217 119h92v-854h-123v721z" />
<glyph horiz-adv-x="968" d="M150 1057v147l329 189h115v-1393h-156v1214z" />
<glyph d="M158 1141v112l217 119h92v-854h-123v721z" />
<glyph horiz-adv-x="849" d="M113 795v143l327 188h113v-1126h-152v950z" />
<glyph horiz-adv-x="1146" d="M252 795v143l328 188h112v-1126h-151v950z" />
<glyph horiz-adv-x="741" d="M92 668q0 159 37 298t104.5 245.5t151.5 188t188 144.5h142v-8q-475 -309 -475 -866q0 -266 128 -482t347 -374v-9h-142q-93 57 -174.5 136t-152.5 185t-112.5 246t-41.5 296z" />
<glyph horiz-adv-x="507" d="M57 358q0 387 326 582h104v-8q-319 -212 -319 -574q0 -329 319 -565v-8h-102q-63 38 -117 88.5t-104 120.5t-78.5 164t-28.5 200z" />
<glyph horiz-adv-x="507" d="M57 877q0 386 326 581h104v-8q-319 -212 -319 -573q0 -330 319 -566v-8h-102q-49 30 -93.5 67t-88.5 90t-75.5 113.5t-51 139t-19.5 164.5z" />
<glyph horiz-adv-x="741" d="M-4 -186q234 152 354.5 364t120.5 502q0 514 -475 856v8h141q73 -45 139 -102.5t129.5 -138t110 -171.5t74.5 -207.5t28 -242.5q0 -159 -37 -298t-104.5 -246t-151.5 -188.5t-188 -144.5h-141v9z" />
<glyph horiz-adv-x="507" d="M-2 -207q321 209 321 574q0 330 -321 565v8h104q63 -38 117 -88.5t104 -120.5t78.5 -164t28.5 -200q0 -388 -328 -582h-104v8z" />
<glyph horiz-adv-x="507" d="M-2 303v8q321 209 321 574q0 330 -321 565v8h104q63 -38 117 -88.5t104 -120.5t78.5 -164t28.5 -200q0 -388 -328 -582h-104z" />
<glyph horiz-adv-x="1755" d="M66 852q0 187 93 298.5t238 111.5q152 0 239 -109.5t87 -298.5t-89.5 -297t-240.5 -108q-150 0 -238.5 107.5t-88.5 295.5zM186 854q0 -145 56.5 -224t152.5 -79q97 0 152 78.5t55 224.5q0 145 -55 225t-150 80q-97 0 -154 -80.5t-57 -224.5zM496 -25l647 1289h100 l-645 -1289h-102zM1018 385q0 188 92.5 298t239.5 110q152 0 238.5 -108.5t86.5 -297.5t-89 -297t-240 -108t-239.5 107.5t-88.5 295.5zM1139 387q0 -145 55.5 -224t151.5 -79q98 0 153 78.5t55 224.5q0 145 -55 225t-151 80t-152.5 -80t-56.5 -225z" />
<glyph horiz-adv-x="313" d="M80 66q0 39 25.5 61.5t58.5 22.5q32 0 57 -22t25 -62q0 -35 -24 -57.5t-58 -22.5q-36 0 -60 21.5t-24 58.5z" />
<glyph horiz-adv-x="313" d="M80 584q0 39 25.5 61.5t58.5 22.5q32 0 57 -22t25 -62q0 -35 -24 -57.5t-58 -22.5q-36 0 -60 21.5t-24 58.5z" />
<glyph horiz-adv-x="462" d="M96 680q0 56 34 86.5t81 30.5q44 0 78.5 -30.5t34.5 -86.5q0 -50 -33.5 -81.5t-81.5 -31.5q-49 0 -81 31t-32 82z" />
<glyph horiz-adv-x="2533" d="M66 852q0 187 93 298.5t238 111.5q152 0 239 -109.5t87 -298.5t-89.5 -297t-240.5 -108q-150 0 -238.5 107.5t-88.5 295.5zM186 854q0 -145 56 -224t153 -79t152 78.5t55 224.5q0 145 -55.5 225t-151.5 80t-152.5 -80t-56.5 -225zM494 -25l647 1289h102l-645 -1289h-104z M1016 385q0 187 93 297.5t239 110.5q152 0 238.5 -108.5t86.5 -297.5t-89.5 -297t-240.5 -108q-150 0 -238.5 107.5t-88.5 295.5zM1137 387q0 -145 56.5 -224t152.5 -79q98 0 152 78.5t54 224.5q0 145 -54 225t-150 80q-97 0 -154 -80.5t-57 -224.5zM1794 385 q0 187 93 297.5t239 110.5q152 0 238.5 -108.5t86.5 -297.5t-89 -297t-240 -108q-150 0 -239 107.5t-89 295.5zM1915 387q0 -145 56 -224t153 -79t152 78.5t55 224.5q0 145 -55.5 225t-151.5 80t-152.5 -80t-56.5 -225z" />
<glyph horiz-adv-x="430" d="M6 1673q0 88 61 144.5t152 56.5t148 -56t57 -145q0 -85 -60.5 -142.5t-148.5 -57.5t-148.5 57t-60.5 143zM86 1673q0 -54 35 -91.5t98 -37.5q57 0 91 38t34 93q0 57 -36 92t-93 35q-58 0 -93.5 -36.5t-35.5 -92.5z" />
<glyph d="M78 737v107h604v-78q-175 -364 -338 -766h-127q111 275 338 737h-477z" />
<glyph horiz-adv-x="1011" d="M29 1223v139h913v-105q-293 -642 -526 -1257h-166q203 520 530 1223h-751z" />
<glyph d="M78 1255v107h604v-78q-175 -364 -338 -766h-127q111 275 338 737h-477z" />
<glyph horiz-adv-x="1003" d="M51 954v140h881v-105q-263 -583 -508 -1222h-166q220 563 514 1187h-721z" />
<glyph horiz-adv-x="1146" d="M121 954v140h907v-105q-283 -621 -514 -1222h-166q199 510 518 1187h-745z" />
<glyph d="M74 389q0 126 33.5 220.5t90.5 148t124.5 79t144.5 25.5q136 0 203 -53v-125h-8q-69 72 -191 72q-132 0 -201.5 -90t-74.5 -250q29 60 90.5 96.5t144.5 36.5q123 0 201 -68.5t78 -201.5q0 -138 -86 -217.5t-217 -79.5q-49 0 -94 11.5t-89 41t-76.5 74t-52.5 116.5 t-20 164zM207 293q0 -42 14 -82q18 -54 65.5 -88.5t112.5 -34.5q80 0 132.5 46.5t52.5 137.5q0 89 -49 135t-129 46q-77 0 -131 -46t-68 -114z" />
<glyph d="M74 907q0 126 33.5 220.5t90.5 148t124.5 79t144.5 25.5q136 0 203 -53v-125h-8q-69 72 -191 72q-132 0 -201.5 -90t-74.5 -250q29 60 90.5 96.5t144.5 36.5q123 0 201 -68.5t78 -201.5q0 -138 -86 -217.5t-217 -79.5q-49 0 -94 11.5t-89 41t-76.5 74t-52.5 116.5 t-20 164zM207 811q0 -42 14 -82q18 -54 65.5 -88.5t112.5 -34.5q79 0 132 47t53 138q0 89 -49 134.5t-129 45.5q-77 0 -131 -46t-68 -114z" />
<glyph horiz-adv-x="804" d="M82 0v78q170 87 170 196q0 49 -14 78h-134v82h107q-41 109 -41 178q0 113 82.5 181.5t232.5 68.5q142 0 222 -59v-125h-9q-87 78 -204 78q-193 0 -193 -150q0 -69 41 -172h270v-82h-252q15 -44 15 -78q0 -98 -109 -168h473v-106h-657z" />
<glyph horiz-adv-x="804" d="M82 518v78q170 87 170 197q0 48 -14 77h-134v82h107q-41 109 -41 178q0 113 82.5 181.5t232.5 68.5q142 0 222 -59v-125h-9q-87 78 -204 78q-193 0 -193 -150q0 -69 41 -172h270v-82h-252q15 -44 15 -77q0 -98 -109 -168h473v-107h-657z" />
<glyph horiz-adv-x="1155" d="M162 -2v100q246 127 246 301q0 58 -23 119h-190v113h157q-32 85 -47.5 142.5t-15.5 121.5q0 168 115 268.5t329 100.5q89 0 171.5 -25t137.5 -70v-157h-8q-58 56 -139 86t-162 30q-154 0 -221.5 -60t-67.5 -171q0 -79 64 -266h401v-113h-374q18 -70 18 -127 q0 -153 -168 -258h707v-135h-930z" />
<glyph d="M96 53v129h8q45 -45 108.5 -68.5t129.5 -23.5q107 0 152 44t45 108q0 42 -27.5 77t-79.5 48q-46 14 -135 14h-37v102h41q91 0 143 27q68 36 68 117q0 57 -40.5 92t-119.5 35q-58 0 -123.5 -26t-107.5 -77h-8v119q43 40 113.5 66t140.5 26q133 0 202.5 -60.5t69.5 -166.5 q0 -67 -43 -119.5t-117 -75.5q88 -15 138.5 -66.5t50.5 -131.5q0 -121 -88.5 -190.5t-235.5 -69.5q-66 0 -133.5 18t-114.5 53z" />
<glyph horiz-adv-x="1105" d="M90 90v170h8q69 -72 169.5 -110.5t201.5 -38.5q93 0 159.5 24t100.5 65t49 86t15 97q0 74 -46.5 135t-132.5 86q-98 27 -206 27h-62v137h64q151 0 227 45q113 66 113 209q0 99 -67 164t-198 65q-86 0 -190.5 -44t-169.5 -128h-8v160q64 67 170.5 109.5t212.5 42.5 q196 0 302.5 -97.5t106.5 -269.5q0 -105 -64.5 -191.5t-176.5 -125.5q129 -24 206.5 -106.5t77.5 -213.5q0 -193 -131.5 -304.5t-351.5 -111.5q-102 0 -205.5 30.5t-173.5 88.5z" />
<glyph d="M96 571v129h8q45 -45 108.5 -68.5t129.5 -23.5q107 0 152 44t45 108q0 42 -27.5 77t-79.5 48q-46 14 -135 14h-37v102h41q91 0 143 27q68 36 68 117q0 57 -40.5 92t-119.5 35q-58 0 -123.5 -26t-107.5 -77h-8v119q43 40 113.5 66t140.5 26q133 0 202.5 -60.5t69.5 -166.5 q0 -67 -43 -119.5t-117 -75.5q88 -15 138.5 -66.5t50.5 -131.5q0 -121 -88.5 -190.5t-235.5 -69.5q-66 0 -133.5 18t-114.5 53z" />
<glyph horiz-adv-x="1077" d="M109 29h8q66 -70 163 -106t197 -36q72 0 127 15.5t88.5 40t54.5 59.5t29 69.5t8 73.5q0 73 -44 137.5t-124 86.5q-76 26 -198 26h-58v131h62q140 0 217 41q106 58 106 205q0 92 -63 152.5t-188 60.5q-86 0 -187.5 -41t-163.5 -121h-8v158q61 62 164 102.5t207 40.5 q191 0 293 -93t102 -257q0 -104 -62 -188t-169 -119q122 -19 197 -104t75 -213q0 -186 -126 -293t-337 -107q-101 0 -202 29t-168 86v164z" />
<glyph horiz-adv-x="1146" d="M156 29h8q66 -70 163.5 -106t196.5 -36q72 0 127 15.5t88.5 40t54.5 59.5t29 69.5t8 73.5q0 74 -43 138t-124 86q-76 26 -199 26h-57v131h61q140 0 217 41q107 58 107 205q0 92 -63.5 152.5t-188.5 60.5q-86 0 -187.5 -41t-163.5 -121h-8v158q61 62 164 102.5t207 40.5 q191 0 293 -93t102 -257q0 -104 -62 -188t-169 -119q122 -19 197 -104t75 -213q0 -186 -126 -293t-337 -107q-100 0 -201.5 29t-168.5 86v164z" />
<glyph horiz-adv-x="430" d="M-133 1542q9 119 63.5 179.5t132.5 60.5q68 0 162 -62q77 -51 125 -51q36 0 56 26.5t26 90.5h111q-7 -122 -62 -185t-129 -63q-41 0 -75 12t-93 45q-94 56 -125 56q-34 0 -53 -26t-26 -83h-113z" />
<glyph d="M63 0v70q214 172 334 292q121 121 121 236q0 68 -44 112t-128 44q-147 0 -252 -123h-8v121q49 51 123 80.5t149 29.5q138 0 212.5 -67.5t74.5 -182.5q0 -140 -127 -274q-36 -40 -121 -114t-147 -120q129 2 440 2v-106h-627z" />
<glyph horiz-adv-x="1136" d="M88 0v88q36 32 128.5 116t140 127.5t119.5 113t130 130.5q100 106 148.5 210.5t48.5 195.5q0 118 -71.5 194t-213.5 76q-105 0 -208 -51.5t-179 -148.5h-8v166q74 80 183.5 127t221.5 47q211 0 324 -108t113 -292q0 -215 -197 -448q-57 -66 -200.5 -198t-241.5 -208 q207 2 708 2v-139h-946z" />
<glyph d="M63 518v70q209 168 334 293q121 121 121 235q0 68 -44 112t-128 44q-147 0 -252 -123h-8v121q49 51 123 80.5t149 29.5q138 0 212.5 -67.5t74.5 -182.5q0 -140 -127 -274q-36 -40 -121 -113.5t-147 -119.5q129 2 440 2v-107h-627z" />
<glyph horiz-adv-x="1116" d="M98 0v86q41 28 157.5 105.5t193 133t147.5 117.5q184 162 184 318q0 225 -258 225q-103 0 -208.5 -52t-174.5 -138h-8v157q65 76 176.5 124t227.5 48q106 0 185 -27t126 -76.5t69.5 -112t22.5 -138.5q0 -198 -176 -367q-104 -101 -373 -268q201 2 625 2v-137h-916z" />
<glyph horiz-adv-x="1146" d="M106 0v86q42 29 125.5 84.5t132.5 89t117 84t123 98.5q184 162 184 318q0 225 -260 225q-103 0 -207.5 -53t-173.5 -141h-8v159q64 76 174.5 125t227.5 49q106 0 185.5 -27t126.5 -76.5t70 -112t23 -138.5q0 -201 -176 -367q-104 -101 -373 -268q201 2 625 2v-137h-916z " />
<glyph horiz-adv-x="868" d="M29 840h147q198 -299 248 -389q39 64 256 389h141l-235 -346h147v-64h-188l-62 -90v-16h250v-64h-250v-260h-123v260h-243v64h243v16l-61 90h-182v64h141z" />
<glyph horiz-adv-x="868" d="M29 1358h147q198 -299 248 -389q39 64 256 389h141l-235 -346h147v-64h-188l-62 -90v-16h250v-64h-250v-260h-123v260h-243v64h243v16l-61 90h-182v64h141z" />
<glyph horiz-adv-x="1232" d="M35 1237h182q48 -72 108 -161.5t87 -130t62 -93.5t50 -76t34 -53t30 -49.5t24 -42.5q23 38 51.5 82.5t59.5 91t115.5 172.5t173.5 260h180l-356 -508h233v-86h-289l-98 -143v-27h387v-86h-387v-387h-150v387h-372v86h372v27l-94 143h-278v86h221z" />
<glyph d="M68 420q0 203 95.5 322.5t244.5 119.5q155 0 244 -117t89 -321q0 -205 -92 -323.5t-246 -118.5q-153 0 -244 117.5t-91 320.5zM193 422q0 -157 58 -244.5t155 -87.5q99 0 154.5 86.5t55.5 245.5t-55.5 246.5t-152.5 87.5q-98 0 -156.5 -88t-58.5 -246z" />
<glyph horiz-adv-x="1179" d="M74 680q0 322 142 516.5t370 194.5q237 0 371.5 -192t134.5 -519q0 -324 -139.5 -516.5t-372.5 -192.5t-369.5 192t-136.5 517zM231 682q0 -267 95.5 -419t259.5 -152q160 0 253 152t93 419q0 268 -92.5 419.5t-253.5 151.5q-164 0 -259.5 -151.5t-95.5 -419.5z" />
<glyph d="M68 938q0 203 95.5 322.5t244.5 119.5q155 0 244 -117t89 -321q0 -205 -92 -323.5t-246 -118.5q-153 0 -244 117.5t-91 320.5zM193 940q0 -157 58 -244.5t155 -87.5q99 0 154.5 86.5t55.5 245.5t-55.5 246.5t-152.5 87.5q-98 0 -156.5 -88t-58.5 -246z" />
<glyph horiz-adv-x="1220" d="M94 543q0 115 31 213t82 164.5t118 113.5t138.5 68.5t144.5 21.5q99 0 187 -34t159 -100.5t112.5 -177t41.5 -251.5q0 -124 -29.5 -224.5t-78.5 -167.5t-115.5 -112.5t-138 -65.5t-148.5 -20q-76 0 -147 20.5t-136.5 66t-114 111t-77.5 162t-29 212.5zM250 547 q0 -96 22 -173.5t57.5 -125.5t83 -80.5t94.5 -45.5t95 -13q70 0 130 24t110 74t79 138t29 206q0 211 -100 323.5t-248 112.5q-67 0 -128 -26.5t-112 -78.5t-81.5 -138.5t-30.5 -196.5z" />
<glyph horiz-adv-x="1146" d="M70 543q0 138 45 251.5t119 183.5t163 108t183 38q100 0 187.5 -36t156 -104.5t108 -177.5t39.5 -245q0 -120 -28 -219.5t-76 -167.5t-113 -114.5t-137 -67.5t-150 -21q-97 0 -184.5 35.5t-158 103.5t-112.5 180t-42 253zM227 547q0 -115 31 -203t82.5 -137.5 t109.5 -73.5t121 -24q149 0 245.5 109t96.5 329q0 205 -95.5 321.5t-244.5 116.5q-141 0 -243.5 -117t-102.5 -321z" />
<glyph horiz-adv-x="313" d="M80 885q0 39 25.5 61.5t58.5 22.5q32 0 57 -22t25 -62q0 -35 -24 -57.5t-58 -22.5q-36 0 -60 21.5t-24 58.5z" />
<glyph horiz-adv-x="313" d="M4 614v9q53 42 85 105.5t32 139.5q0 61 -23 111h125q17 -41 17 -105q0 -79 -40.5 -149t-97.5 -111h-98z" />
<glyph horiz-adv-x="428" d="M51 1116v98h324v-98h-324z" />
<glyph horiz-adv-x="759" d="M70 905v131h8q52 -52 125.5 -81.5t148.5 -32.5v262l-78 24q-190 55 -190 222q0 98 68.5 161.5t199.5 75.5v127h64v-125q64 -3 132.5 -25t98.5 -49v-127h-8q-41 39 -101.5 62.5t-121.5 28.5v-271l59 -16q117 -34 167 -84.5t50 -134.5q0 -99 -67 -165.5t-209 -76.5v-133 h-64v131q-78 2 -155.5 28t-126.5 68zM211 1438q0 -43 27 -73.5t106 -53.5l8 -2v250q-141 -13 -141 -121zM416 922q76 6 110.5 34.5t34.5 83.5q0 43 -32.5 70.5t-112.5 52.5v-241z" />
<glyph horiz-adv-x="720" d="M88 1130q0 129 81.5 217t211.5 103v131h63v-127q59 -2 111 -18.5t80 -44.5v-113h-8q-31 31 -81.5 51t-101.5 23v-439q111 3 187 76h8v-110q-76 -62 -195 -68v-131h-63v133q-128 11 -210.5 95t-82.5 222zM207 1135q0 -93 49 -147.5t125 -69.5v430q-77 -14 -125.5 -69 t-48.5 -144z" />
<glyph horiz-adv-x="804" d="M82 819v78q170 87 170 197q0 48 -14 77h-134v82h107q-41 109 -41 179q0 113 82.5 181t232.5 68q142 0 222 -59v-125h-9q-87 78 -204 78q-193 0 -193 -150q0 -69 41 -172h270v-82h-252q15 -44 15 -77q0 -98 -109 -168h473v-107h-657z" />
<glyph horiz-adv-x="868" d="M29 1659h147q198 -299 248 -389q39 64 256 389h141l-235 -346h147v-64h-188l-62 -90v-16h250v-64h-250v-260h-123v260h-243v64h243v16l-61 90h-182v64h141z" />
<glyph horiz-adv-x="882" d="M68 1118v64h98q-2 18 -2 61v45h-96v64h104q30 159 141 244t269 85q74 0 139 -18t102 -51v-123h-8q-38 39 -100.5 62.5t-126.5 23.5q-113 0 -189 -54.5t-100 -168.5h350v-64h-360v-41q0 -25 4 -65h356v-64h-346q52 -207 287 -207q125 0 229 84h8v-116q-43 -34 -112 -56 t-144 -22q-162 0 -265 82t-132 235h-106z" />
<glyph horiz-adv-x="661" d="M6 672v108h8q33 -26 84 -26q69 0 92 45q12 19 19 80l39 395h-123v82h129l12 110q11 98 58 148q60 67 165 67q36 0 71.5 -9t53.5 -21v-111h-8q-38 33 -104 33q-51 0 -80 -29q-29 -26 -37 -94l-8 -94h151v-82h-159l-39 -416q-6 -73 -29 -117q-50 -94 -186 -94 q-68 0 -109 25z" />
<glyph horiz-adv-x="313" d="M80 -195q0 39 25.5 61.5t58.5 22.5q32 0 57 -22t25 -62q0 -35 -24 -57t-58 -22q-37 0 -60.5 21t-23.5 58z" />
<glyph horiz-adv-x="313" d="M4 -457q52 42 84.5 106t32.5 140q0 61 -23 111h125q17 -41 17 -105q0 -79 -40.5 -149t-97.5 -111h-98v8z" />
<glyph horiz-adv-x="428" d="M51 37v98h324v-98h-324z" />
<glyph horiz-adv-x="759" d="M70 -43h8q52 -51 125.5 -80.5t148.5 -34.5v262l-78 25q-190 55 -190 221q0 98 68.5 162t199.5 76v127h64v-125q64 -3 132.5 -25t98.5 -49v-127h-8q-41 38 -101.5 61.5t-121.5 28.5v-270l59 -16q116 -34 166.5 -85t50.5 -135q0 -98 -67 -164.5t-209 -76.5v-133h-64v131 q-78 3 -155.5 29t-126.5 67v131zM211 358q0 -43 27 -73.5t106 -53.5l8 -2v250q-141 -13 -141 -121zM416 84v-240q145 9 145 117q0 43 -32.5 70.5t-112.5 52.5z" />
<glyph horiz-adv-x="720" d="M88 51q0 129 81.5 217t211.5 103v131h63v-127q58 -2 110 -18.5t81 -45.5v-112h-8q-31 31 -81.5 50.5t-101.5 22.5v-438q111 3 187 76h8v-111q-79 -61 -195 -67v-131h-63v133q-128 12 -210.5 96.5t-82.5 220.5zM207 55q0 -92 49 -147t125 -68v428q-77 -14 -125.5 -69 t-48.5 -144z" />
<glyph horiz-adv-x="804" d="M82 -182q170 87 170 196q0 49 -14 78h-134v82h107q-41 109 -41 178q0 113 82.5 181.5t232.5 68.5q142 0 222 -59v-125h-9q-87 78 -204 78q-193 0 -193 -150q0 -69 41 -172h270v-82h-252q15 -44 15 -78q0 -98 -109 -168h473v-106h-657v78z" />
<glyph horiz-adv-x="868" d="M29 580h147q194 -294 248 -390q47 76 256 390h141l-235 -347h147v-63h-188l-62 -90v-17h250v-63h-250v-260h-123v260h-243v63h243v17l-61 90h-182v63h141z" />
<glyph horiz-adv-x="882" d="M68 39v63h98q-2 18 -2 62v45h-96v63h104q30 159 141 244.5t269 85.5q73 0 138 -18.5t103 -51.5v-122h-8q-38 39 -100.5 62.5t-126.5 23.5q-113 0 -189 -55t-100 -169h350v-63h-360v-41q0 -26 4 -66h356v-63h-346q52 -207 287 -207q125 0 229 84h8v-117q-43 -34 -112 -56 t-144 -22q-162 0 -265 82.5t-132 235.5h-106z" />
<glyph horiz-adv-x="661" d="M6 -299h8q34 -27 84 -27q69 0 92 45q12 19 19 80l39 396h-123v81h129l12 111q11 98 58 148q60 67 165 67q35 0 71 -9t54 -22v-110h-8q-38 33 -104 33q-51 0 -80 -29q-29 -26 -37 -94l-8 -95h151v-81h-159l-39 -416q-6 -73 -29 -117q-50 -94 -186 -94q-70 0 -109 24v109z " />
<glyph horiz-adv-x="1159" d="M117 618q0 164 33.5 295t89.5 216t132.5 141t158 80t171.5 24q201 0 302 -84v-168h-11q-100 113 -288 113q-208 0 -317 -152.5t-120 -429.5q33 97 139.5 165.5t235.5 68.5q184 0 299 -114t115 -331q0 -222 -126.5 -346.5t-320.5 -124.5q-49 0 -96 8.5t-97 29.5t-93 53.5 t-81.5 84t-66 116.5t-43.5 156t-16 199zM285 492q0 -95 34 -185q30 -88 105 -142t176 -54q61 0 114.5 18.5t97 55.5t68.5 100.5t25 146.5q0 155 -80.5 232t-212.5 77q-126 0 -215.5 -74.5t-111.5 -174.5z" />
<glyph horiz-adv-x="1159" d="M86 662q0 140 65 247t170 161t230 54q50 0 96.5 -8t94.5 -27.5t88 -51t76.5 -81t61.5 -113.5t39.5 -153t14.5 -196q0 -163 -31 -292.5t-83.5 -213t-126.5 -139t-155.5 -78.5t-174.5 -23q-95 0 -187.5 25t-146.5 69v156h8q60 -57 147.5 -85t178.5 -28q110 0 193 43 t134 121t77 179t28 225q-38 -97 -141.5 -162.5t-235.5 -65.5q-86 0 -161 27.5t-133.5 80t-92 137.5t-33.5 192zM238 670q0 -148 79.5 -225.5t208.5 -77.5q127 0 215 72t117 173q0 96 -18 158q-28 100 -106.5 158.5t-182.5 58.5q-129 0 -221 -80.5t-92 -236.5z" />
<glyph horiz-adv-x="1179" d="M111 625q0 166 33 298.5t88.5 218.5t132.5 143t159.5 81.5t173.5 24.5q93 0 180 -20.5t142 -63.5v-172h-10q-106 116 -308 116q-210 0 -321 -154t-119 -423q48 95 152.5 156t228.5 61q90 0 166.5 -27.5t135.5 -81.5t92.5 -140t33.5 -196q0 -224 -127.5 -349.5 t-325.5 -125.5q-50 0 -98.5 8.5t-99.5 29.5t-95.5 54t-84 85t-68 118t-45 158t-16.5 201zM281 498q3 -105 34 -187q32 -89 110.5 -145.5t180.5 -56.5q132 0 220.5 82t88.5 245q0 157 -84 236.5t-219 79.5q-125 0 -217 -77.5t-114 -176.5z" />
<glyph horiz-adv-x="1179" d="M88 915q0 144 66.5 254t174 166t234.5 56q73 0 138 -16.5t130.5 -62t112 -116.5t76 -188.5t29.5 -270.5q0 -142 -21 -258.5t-60.5 -199t-92 -143.5t-118 -96.5t-135.5 -52t-149 -16.5q-102 0 -200.5 26.5t-153.5 72.5v159h8q63 -60 154 -89t190 -29q111 0 193 43.5 t131 123t73.5 180t28.5 226.5q-50 -95 -149.5 -156t-225.5 -61q-88 0 -165.5 28t-138 82.5t-95.5 141.5t-35 196zM244 924q0 -153 84 -234.5t217 -81.5q129 0 214.5 74.5t114.5 181.5q0 84 -22 162q-28 100 -105.5 162.5t-181.5 62.5q-61 0 -117 -19.5t-102.5 -57.5 t-74 -102.5t-27.5 -147.5z" />
<glyph horiz-adv-x="1146" d="M113 618q0 164 33.5 295t89.5 216t132.5 141t158 80t171.5 24q200 0 301 -84v-168h-10q-100 113 -289 113q-208 0 -316.5 -152.5t-119.5 -429.5q33 97 139.5 165.5t235.5 68.5q184 0 299 -114t115 -331q0 -222 -126.5 -346.5t-320.5 -124.5q-49 0 -96 8.5t-97 29.5 t-93 53.5t-81.5 84t-66 116.5t-43.5 156t-16 199zM281 492q0 -95 34 -185q30 -88 105 -142t176 -54q61 0 114.5 18.5t97 55.5t68.5 100.5t25 146.5q0 155 -80.5 232t-212.5 77q-126 0 -215.5 -74.5t-111.5 -174.5z" />
<glyph horiz-adv-x="1146" d="M80 662q0 140 65 247t170 161t230 54q50 0 96.5 -8t94.5 -27.5t88 -51t76.5 -81t61.5 -113.5t39.5 -153t14.5 -196q0 -163 -31 -292.5t-84 -213t-127 -139t-155.5 -78.5t-174.5 -23q-95 0 -187 25t-146 69v156h8q60 -57 147 -85t178 -28q110 0 193.5 43t134.5 121t77 179 t28 225q-38 -97 -141.5 -162.5t-235.5 -65.5q-86 0 -161 27.5t-133.5 80t-92 137.5t-33.5 192zM231 670q0 -148 80 -225.5t209 -77.5q127 0 215 72t117 173q0 96 -18 158q-28 100 -106.5 158.5t-182.5 58.5q-61 0 -115.5 -18.5t-99.5 -55.5t-72 -100t-27 -143z" />
</font>
</defs>
</svg>
